<svg id="svg" version="1.1" xmlns="http://www.w3.org/2000/svg" xmlns:xlink="http://www.w3.org/1999/xlink" width="400" height="400" viewBox="0, 0, 400,400"><g id="svgg"><path id="path0" d="M0.000 200.000 L 0.000 400.000 200.000 400.000 L 400.000 400.000 400.000 200.000 L 400.000 0.000 200.000 0.000 L 0.000 0.000 0.000 200.000 M194.400 160.400 C 194.400 170.095,194.376 170.400,193.609 170.400 C 192.854 170.400,192.813 170.069,192.709 163.183 L 192.600 155.965 177.630 177.683 C 169.397 189.627,162.660 199.670,162.660 200.000 C 162.660 200.330,169.397 210.373,177.630 222.317 L 192.600 244.035 192.709 236.817 C 192.813 229.931,192.854 229.600,193.609 229.600 C 194.376 229.600,194.400 229.905,194.400 239.600 C 194.400 246.634,194.269 249.600,193.958 249.600 C 191.943 249.600,175.200 244.187,175.200 243.536 C 175.200 242.527,175.324 242.546,182.896 244.757 C 186.579 245.832,189.468 246.506,189.317 246.256 C 188.541 244.975,160.648 204.528,160.249 204.105 C 159.886 203.721,157.788 206.511,150.852 216.605 L 141.922 229.600 140.361 229.600 C 138.208 229.600,138.107 227.601,140.134 225.067 C 142.337 222.312,157.200 200.482,157.200 200.000 C 157.200 199.518,142.337 177.688,140.134 174.933 C 138.107 172.399,138.208 170.400,140.361 170.400 L 141.922 170.400 150.852 183.395 C 157.788 193.489,159.886 196.279,160.249 195.895 C 160.648 195.472,188.541 155.025,189.317 153.744 C 189.468 153.494,186.579 154.168,182.896 155.243 C 175.322 157.454,175.200 157.473,175.200 156.463 C 175.200 155.780,191.196 150.570,193.700 150.437 C 194.349 150.403,194.400 151.129,194.400 160.400 M261.362 170.390 C 284.119 176.211,288.680 213.261,268.262 226.458 C 260.686 231.355,248.153 231.812,239.485 227.507 C 219.647 217.656,220.045 182.275,240.104 172.415 C 245.938 169.547,254.775 168.706,261.362 170.390 M320.800 170.662 L 323.000 171.451 323.114 175.526 C 323.177 177.766,323.154 179.600,323.064 179.600 C 322.974 179.600,322.113 179.164,321.150 178.632 C 312.287 173.729,299.419 176.046,297.580 182.875 C 296.213 187.952,298.693 190.984,308.236 195.906 C 322.510 203.269,325.875 207.104,325.513 215.600 C 325.193 223.113,320.584 228.028,312.200 229.796 C 306.278 231.044,296.309 230.213,291.453 228.064 L 289.600 227.245 289.600 223.022 C 289.600 219.179,289.895 218.059,290.606 219.209 C 291.865 221.247,300.313 223.795,305.800 223.792 C 314.220 223.788,318.000 221.049,318.000 214.952 C 318.000 210.344,315.806 208.148,306.247 203.189 C 292.878 196.253,289.804 192.849,289.809 184.981 C 289.813 177.924,294.549 172.634,302.876 170.387 C 306.920 169.296,317.441 169.457,320.800 170.662 M116.200 199.618 C 122.360 215.680,127.460 228.996,127.533 229.211 C 127.614 229.446,126.084 229.600,123.663 229.600 L 119.659 229.600 118.082 225.500 C 117.215 223.245,115.824 219.555,114.991 217.300 L 113.477 213.200 101.039 213.204 L 88.600 213.207 85.749 221.304 L 82.898 229.400 78.801 229.515 C 75.591 229.604,74.746 229.518,74.898 229.115 C 75.005 228.832,80.107 215.505,86.234 199.500 L 97.376 170.400 101.188 170.408 L 105.000 170.415 116.200 199.618 M213.600 200.000 L 213.600 229.600 210.000 229.600 L 206.400 229.600 206.400 200.000 L 206.400 170.400 210.000 170.400 L 213.600 170.400 213.600 200.000 M248.254 176.635 C 227.257 181.717,227.142 218.072,248.106 223.461 C 265.130 227.836,277.560 211.177,272.381 190.928 C 269.570 179.936,259.430 173.929,248.254 176.635 M100.841 179.057 C 100.819 179.528,98.625 185.888,95.967 193.191 C 93.309 200.493,91.213 206.546,91.308 206.641 C 91.403 206.736,95.879 206.766,101.253 206.707 L 111.026 206.600 106.335 193.826 C 103.755 186.801,101.473 180.411,101.264 179.626 C 101.017 178.704,100.868 178.503,100.841 179.057 " stroke="none" fill="#1c1c1c" fill-rule="evenodd"></path><path id="path1" d="M192.689 150.645 C 192.554 150.779,188.619 152.010,183.944 153.380 C 179.269 154.749,175.374 156.079,175.288 156.335 C 175.018 157.146,176.733 156.851,183.112 154.986 C 186.525 153.989,189.441 153.224,189.592 153.286 C 189.824 153.382,160.985 195.592,160.103 196.448 C 159.936 196.609,155.750 190.860,150.800 183.671 C 142.355 171.407,141.719 170.592,140.500 170.475 C 137.552 170.190,138.384 171.869,148.400 186.409 C 153.460 193.754,157.600 199.870,157.600 200.000 C 157.600 200.130,153.460 206.246,148.400 213.591 C 138.384 228.131,137.552 229.810,140.500 229.525 C 141.719 229.408,142.355 228.593,150.800 216.329 C 155.750 209.140,159.936 203.391,160.103 203.552 C 160.985 204.408,189.824 246.618,189.592 246.714 C 189.441 246.776,186.525 246.011,183.112 245.014 C 176.733 243.149,175.018 242.854,175.288 243.665 C 175.410 244.030,189.184 248.424,193.500 249.474 L 194.400 249.693 194.398 244.147 C 194.395 235.430,193.974 229.600,193.348 229.600 C 192.931 229.600,192.794 231.175,192.709 236.984 L 192.600 244.368 177.325 222.184 L 162.049 200.000 177.325 177.816 L 192.600 155.632 192.709 163.016 C 192.794 168.825,192.931 170.400,193.348 170.400 C 193.741 170.400,193.945 169.239,194.137 165.900 C 194.845 153.615,194.400 148.933,192.689 150.645 M248.264 169.992 C 236.132 172.199,228.160 180.358,225.782 193.000 C 221.500 215.768,236.578 233.321,257.591 230.033 C 272.955 227.628,281.423 215.689,280.690 197.466 C 279.934 178.638,265.934 166.777,248.264 169.992 M305.400 170.003 C 295.312 171.850,289.683 177.731,290.091 186.000 C 290.444 193.175,293.156 196.069,305.669 202.624 C 317.195 208.662,319.647 211.692,317.952 217.799 C 316.035 224.704,303.039 226.266,292.921 220.809 L 289.972 219.218 290.086 223.307 L 290.200 227.396 292.758 228.306 C 309.530 234.279,325.409 227.705,325.385 214.800 C 325.370 206.939,322.187 203.470,308.281 196.163 C 298.717 191.137,296.906 189.130,297.280 183.964 C 297.832 176.334,311.539 173.118,321.100 178.375 L 323.200 179.530 323.200 175.814 C 323.200 173.242,323.039 171.964,322.677 171.664 C 320.947 170.228,309.949 169.171,305.400 170.003 M97.391 170.900 C 97.290 171.175,92.256 184.331,86.204 200.135 C 80.152 215.940,75.200 229.035,75.200 229.235 C 75.200 229.436,76.865 229.599,78.900 229.597 L 82.600 229.595 84.754 223.497 C 85.939 220.144,87.258 216.452,87.685 215.294 L 88.462 213.189 101.088 213.294 L 113.714 213.400 116.757 221.494 L 119.800 229.587 123.500 229.594 C 125.535 229.597,127.200 229.448,127.200 229.263 C 127.200 229.077,122.504 216.702,116.765 201.763 C 111.026 186.823,105.973 173.655,105.537 172.500 L 104.743 170.400 101.159 170.400 C 98.656 170.400,97.520 170.551,97.391 170.900 M206.400 200.000 L 206.400 229.600 210.000 229.600 L 213.600 229.600 213.600 200.000 L 213.600 170.400 210.000 170.400 L 206.400 170.400 206.400 200.000 M259.227 176.644 C 270.319 179.932,275.979 192.482,273.025 207.236 C 268.928 227.699,241.810 230.569,234.336 211.331 C 226.577 191.359,241.012 171.244,259.227 176.644 M106.941 194.961 C 109.290 201.320,111.145 206.588,111.065 206.668 C 110.985 206.748,106.410 206.766,100.898 206.707 L 90.877 206.600 95.463 194.000 C 97.985 187.070,100.250 180.541,100.495 179.491 L 100.942 177.582 101.807 180.491 C 102.282 182.091,104.593 188.603,106.941 194.961 " stroke="none" fill="#04d0f0" fill-rule="evenodd"></path><path id="path2" d="" stroke="none" fill="#1c5c6c" fill-rule="evenodd"></path><path id="path3" d="M194.134 167.200 C 194.134 168.850,194.205 169.525,194.291 168.700 C 194.378 167.875,194.378 166.525,194.291 165.700 C 194.205 164.875,194.134 165.550,194.134 167.200 M138.800 171.776 C 138.800 172.533,138.938 173.238,139.107 173.343 C 139.276 173.447,139.348 172.828,139.265 171.966 C 139.081 170.032,138.800 169.918,138.800 171.776 M233.578 177.100 L 232.200 178.600 233.700 177.222 C 235.096 175.938,235.384 175.600,235.078 175.600 C 235.012 175.600,234.337 176.275,233.578 177.100 M266.000 180.125 C 266.000 180.194,266.585 180.779,267.300 181.425 L 268.600 182.600 267.425 181.300 C 266.330 180.088,266.000 179.816,266.000 180.125 M280.924 199.400 C 280.926 200.720,281.001 201.212,281.090 200.493 C 281.179 199.774,281.177 198.694,281.086 198.093 C 280.995 197.492,280.922 198.080,280.924 199.400 M224.893 200.800 C 224.893 201.570,224.975 201.885,225.076 201.500 C 225.176 201.115,225.176 200.485,225.076 200.100 C 224.975 199.715,224.893 200.030,224.893 200.800 M238.000 217.725 C 238.000 217.794,238.585 218.379,239.300 219.025 L 240.600 220.200 239.425 218.900 C 238.330 217.688,238.000 217.416,238.000 217.725 M289.750 223.000 C 289.751 225.420,289.816 226.358,289.896 225.085 C 289.976 223.812,289.975 221.832,289.894 220.685 C 289.814 219.538,289.749 220.580,289.750 223.000 M138.958 226.966 C 138.838 227.278,138.805 228.043,138.884 228.666 C 139.002 229.591,139.064 229.487,139.225 228.100 C 139.427 226.351,139.338 225.975,138.958 226.966 M194.134 232.800 C 194.134 234.450,194.205 235.125,194.291 234.300 C 194.378 233.475,194.378 232.125,194.291 231.300 C 194.205 230.475,194.134 231.150,194.134 232.800 " stroke="none" fill="#1c748c" fill-rule="evenodd"></path><path id="path4" d="" stroke="none" fill="#1c7484" fill-rule="evenodd"></path></g></svg>