<svg id="svg" version="1.1" xmlns="http://www.w3.org/2000/svg" xmlns:xlink="http://www.w3.org/1999/xlink" width="400" height="400" viewBox="0, 0, 400,400"><g id="svgg"><path id="path0" d="M225.521 0.213 C 225.404 0.329,224.892 0.505,224.384 0.603 C 223.875 0.701,223.331 0.989,223.174 1.242 C 223.018 1.495,222.708 1.590,222.487 1.454 C 222.265 1.317,221.982 1.471,221.857 1.796 C 221.732 2.121,221.374 2.288,221.060 2.168 C 220.719 2.037,220.141 2.441,219.618 3.175 C 219.138 3.849,218.500 4.400,218.200 4.400 C 217.900 4.400,217.540 4.760,217.400 5.200 C 217.260 5.640,216.919 6.000,216.641 6.000 C 216.363 6.000,215.894 6.450,215.600 7.000 C 215.306 7.550,214.905 8.000,214.709 8.000 C 214.513 8.000,214.465 8.181,214.602 8.403 C 214.739 8.624,214.595 8.904,214.283 9.024 C 213.951 9.151,213.761 9.664,213.826 10.256 C 213.887 10.814,213.828 11.162,213.695 11.029 C 213.367 10.700,212.400 13.070,212.400 14.203 C 212.400 14.704,212.110 15.226,211.755 15.362 C 211.275 15.546,211.221 15.743,211.543 16.131 C 212.130 16.838,212.189 169.200,211.603 169.200 C 211.381 169.200,211.200 169.391,211.200 169.624 C 211.200 169.857,211.425 169.920,211.700 169.765 C 212.091 169.544,212.095 169.596,211.719 170.003 C 211.352 170.399,211.347 170.722,211.699 171.361 C 212.182 172.237,212.331 172.797,212.483 174.300 C 212.533 174.795,212.736 175.200,212.934 175.200 C 213.132 175.200,213.201 175.553,213.088 175.985 C 212.975 176.417,213.132 176.978,213.437 177.231 C 213.742 177.484,213.893 177.850,213.772 178.045 C 213.651 178.240,213.754 178.400,214.000 178.400 C 214.246 178.400,214.344 178.567,214.218 178.771 C 214.092 178.975,214.306 179.253,214.694 179.388 C 215.082 179.522,215.772 180.390,216.227 181.316 C 216.690 182.260,217.568 183.263,218.227 183.600 C 218.872 183.930,219.460 184.335,219.533 184.500 C 219.607 184.665,219.839 184.800,220.050 184.800 C 220.422 184.800,220.924 185.159,222.275 186.389 C 222.631 186.714,223.299 187.006,223.761 187.039 C 224.222 187.072,225.050 187.278,225.600 187.497 C 226.150 187.716,226.820 187.811,227.090 187.709 C 227.359 187.606,227.891 187.834,228.272 188.215 C 228.653 188.596,229.017 188.748,229.082 188.554 C 229.197 188.208,381.786 188.220,382.346 188.567 C 382.625 188.739,386.227 187.617,387.043 187.103 C 387.286 186.949,387.876 186.899,388.353 186.991 C 388.835 187.084,389.117 186.990,388.987 186.779 C 388.858 186.571,389.033 186.400,389.376 186.400 C 389.719 186.400,390.003 186.175,390.006 185.900 C 390.010 185.567,390.142 185.600,390.400 186.000 C 390.733 186.515,390.789 186.503,390.794 185.913 C 390.798 185.472,391.012 185.306,391.390 185.451 C 391.936 185.661,393.116 184.841,393.314 184.114 C 393.361 183.941,393.535 183.845,393.700 183.900 C 393.865 183.955,394.000 183.740,394.000 183.423 C 394.000 183.105,394.540 182.526,395.201 182.136 C 395.861 181.746,396.503 181.105,396.628 180.711 C 396.753 180.318,397.309 179.457,397.863 178.798 C 398.418 178.139,398.761 177.600,398.626 177.600 C 398.492 177.600,398.636 177.195,398.947 176.700 C 399.257 176.205,399.457 175.485,399.391 175.100 C 399.325 174.715,399.436 174.400,399.638 174.400 C 400.341 174.400,399.904 12.437,399.200 11.992 C 398.667 11.654,398.667 11.610,399.200 11.594 C 399.669 11.580,399.645 11.485,399.092 11.163 C 398.702 10.936,398.496 10.568,398.634 10.345 C 398.772 10.121,398.506 9.586,398.043 9.154 C 397.579 8.722,397.200 8.076,397.200 7.718 C 397.200 7.360,397.103 7.164,396.984 7.283 C 396.865 7.402,396.178 6.937,395.457 6.250 C 394.634 5.464,394.305 4.891,394.573 4.706 C 394.827 4.532,394.706 4.410,394.276 4.406 C 393.878 4.403,393.635 4.265,393.734 4.100 C 394.017 3.633,393.048 2.917,392.285 3.029 C 391.908 3.084,391.600 2.952,391.600 2.736 C 391.600 2.167,390.540 1.193,390.243 1.490 C 390.105 1.628,389.763 1.429,389.484 1.047 C 389.136 0.572,388.630 0.415,387.880 0.551 C 387.252 0.665,386.883 0.590,387.015 0.375 C 387.259 -0.019,225.914 -0.181,225.521 0.213 M143.863 30.270 C 143.767 30.367,142.942 30.520,142.030 30.610 C 141.117 30.701,139.581 31.125,138.616 31.552 C 137.651 31.979,136.757 32.224,136.631 32.097 C 136.504 31.970,136.400 32.066,136.400 32.310 C 136.400 32.554,136.044 32.685,135.608 32.602 C 135.148 32.513,134.855 32.648,134.908 32.925 C 134.959 33.186,134.682 33.374,134.293 33.343 C 133.904 33.312,133.095 33.807,132.494 34.443 C 131.894 35.079,131.209 35.600,130.973 35.600 C 130.445 35.600,128.788 37.454,129.067 37.733 C 129.178 37.844,128.880 38.143,128.406 38.397 C 127.443 38.912,124.400 42.027,124.400 42.498 C 124.400 42.664,124.130 42.800,123.800 42.800 C 123.470 42.800,123.200 42.935,123.200 43.100 C 123.199 43.552,121.204 45.781,121.175 45.362 C 121.161 45.163,120.982 45.417,120.778 45.926 C 120.574 46.435,120.270 46.778,120.103 46.689 C 119.937 46.600,119.485 46.858,119.100 47.263 C 118.715 47.669,118.512 48.000,118.649 48.000 C 118.786 48.000,118.676 48.268,118.404 48.596 C 118.132 48.923,117.750 49.093,117.555 48.972 C 117.360 48.851,117.200 49.033,117.200 49.376 C 117.200 49.719,116.975 50.001,116.700 50.003 C 116.425 50.004,115.893 50.544,115.519 51.203 C 115.144 51.861,114.559 52.400,114.219 52.400 C 113.878 52.400,113.600 52.623,113.600 52.895 C 113.600 53.417,110.062 56.800,109.517 56.800 C 109.343 56.800,109.200 57.081,109.200 57.424 C 109.200 57.767,109.065 57.965,108.900 57.866 C 108.509 57.629,107.574 58.640,107.891 58.957 C 108.024 59.091,107.833 59.200,107.467 59.200 C 107.100 59.200,106.800 59.353,106.800 59.540 C 106.800 60.106,102.942 64.009,102.661 63.728 C 102.518 63.584,102.400 63.746,102.400 64.087 C 102.400 64.429,101.995 64.978,101.500 65.308 C 99.973 66.326,98.800 67.472,98.800 67.947 C 98.800 68.196,98.519 68.400,98.176 68.400 C 97.833 68.400,97.672 68.592,97.817 68.827 C 97.962 69.062,97.704 69.352,97.245 69.472 C 96.785 69.593,96.502 69.841,96.616 70.025 C 96.888 70.466,95.397 71.255,94.988 70.886 C 94.814 70.729,94.791 70.809,94.937 71.064 C 95.084 71.320,94.667 71.978,94.001 72.538 C 93.340 73.094,92.786 73.875,92.768 74.274 C 92.751 74.673,92.648 74.781,92.540 74.514 C 92.405 74.183,92.053 74.310,91.433 74.914 C 90.830 75.501,90.670 75.899,90.961 76.094 C 91.213 76.262,91.016 76.390,90.500 76.394 C 90.005 76.397,89.600 76.604,89.600 76.853 C 89.600 77.473,87.978 78.834,87.553 78.571 C 87.364 78.454,87.328 78.667,87.473 79.045 C 87.651 79.511,87.585 79.638,87.268 79.442 C 87.011 79.283,86.800 79.341,86.800 79.571 C 86.800 79.801,85.267 81.521,83.394 83.394 C 81.521 85.267,79.801 86.800,79.571 86.800 C 79.341 86.800,79.283 87.011,79.442 87.268 C 79.638 87.585,79.511 87.651,79.045 87.473 C 78.667 87.328,78.454 87.364,78.571 87.553 C 78.834 87.978,77.473 89.600,76.853 89.600 C 76.604 89.600,76.397 90.005,76.394 90.500 C 76.390 91.016,76.262 91.213,76.094 90.961 C 75.899 90.670,75.501 90.830,74.914 91.433 C 74.310 92.053,74.183 92.405,74.514 92.540 C 74.781 92.648,74.595 92.751,74.100 92.768 C 73.605 92.786,73.200 92.946,73.200 93.125 C 73.200 93.783,71.537 95.209,71.076 94.945 C 70.814 94.795,70.729 94.814,70.886 94.988 C 71.255 95.397,70.466 96.888,70.025 96.616 C 69.841 96.502,69.593 96.785,69.472 97.245 C 69.352 97.704,69.062 97.962,68.827 97.817 C 68.592 97.672,68.400 97.735,68.400 97.957 C 68.400 98.510,64.472 102.400,63.914 102.400 C 63.668 102.400,63.584 102.518,63.728 102.661 C 64.009 102.942,60.106 106.800,59.540 106.800 C 59.353 106.800,59.200 107.081,59.200 107.424 C 59.200 107.767,59.065 107.965,58.900 107.866 C 58.509 107.629,57.574 108.640,57.891 108.957 C 58.024 109.091,57.833 109.200,57.467 109.200 C 57.100 109.200,56.800 109.353,56.800 109.540 C 56.800 110.106,52.942 114.009,52.661 113.728 C 52.518 113.584,52.400 113.746,52.400 114.087 C 52.400 114.429,51.995 114.978,51.500 115.308 C 49.973 116.326,48.800 117.472,48.800 117.947 C 48.800 118.196,48.519 118.400,48.176 118.400 C 47.833 118.400,47.672 118.592,47.817 118.827 C 47.962 119.062,47.704 119.352,47.245 119.472 C 46.785 119.593,46.502 119.841,46.616 120.025 C 46.888 120.466,45.397 121.255,44.988 120.886 C 44.814 120.729,44.791 120.809,44.937 121.064 C 45.084 121.320,44.667 121.978,44.001 122.538 C 43.340 123.094,42.800 123.730,42.800 123.952 C 42.800 124.173,42.264 124.672,41.608 125.059 C 40.778 125.549,40.566 125.858,40.908 126.075 C 41.229 126.279,41.086 126.390,40.500 126.394 C 40.005 126.397,39.600 126.604,39.600 126.853 C 39.600 127.473,37.978 128.834,37.553 128.571 C 37.364 128.454,37.328 128.667,37.473 129.045 C 37.651 129.511,37.585 129.638,37.268 129.442 C 37.011 129.283,36.800 129.341,36.800 129.571 C 36.800 130.116,30.116 136.800,29.571 136.800 C 29.341 136.800,29.283 137.011,29.442 137.268 C 29.638 137.585,29.511 137.651,29.045 137.473 C 28.667 137.328,28.454 137.364,28.571 137.553 C 28.834 137.978,27.473 139.600,26.853 139.600 C 26.604 139.600,26.397 140.005,26.394 140.500 C 26.390 141.016,26.262 141.213,26.094 140.961 C 25.899 140.670,25.501 140.830,24.914 141.433 C 24.310 142.053,24.183 142.405,24.514 142.540 C 24.781 142.648,24.595 142.751,24.100 142.768 C 23.605 142.786,23.200 142.946,23.200 143.125 C 23.200 143.783,21.537 145.209,21.076 144.945 C 20.814 144.795,20.729 144.814,20.886 144.988 C 21.255 145.397,20.466 146.888,20.025 146.616 C 19.841 146.502,19.593 146.785,19.472 147.245 C 19.352 147.704,19.082 147.974,18.872 147.845 C 18.663 147.715,18.391 147.990,18.269 148.456 C 18.125 149.008,17.837 149.223,17.444 149.072 C 17.013 148.907,16.911 149.024,17.088 149.486 C 17.228 149.851,17.169 150.028,16.952 149.894 C 16.741 149.764,16.215 150.184,15.784 150.827 C 15.353 151.471,14.873 151.998,14.718 151.999 C 14.351 152.000,12.400 153.951,12.399 154.318 C 12.398 154.473,11.859 154.960,11.200 155.400 C 10.541 155.840,10.002 156.507,10.001 156.882 C 10.000 157.674,8.172 159.639,7.791 159.258 C 7.649 159.116,7.589 159.180,7.656 159.400 C 7.872 160.105,6.625 162.402,5.900 162.632 C 5.515 162.754,5.200 163.191,5.200 163.603 C 5.200 164.016,5.008 164.472,4.773 164.617 C 4.538 164.762,4.442 165.133,4.560 165.440 C 4.678 165.748,4.601 166.000,4.387 166.000 C 4.174 166.000,4.000 166.283,4.000 166.629 C 4.000 166.974,3.730 167.527,3.400 167.857 C 3.070 168.187,2.800 168.894,2.800 169.429 C 2.800 169.963,2.665 170.400,2.500 170.401 C 2.335 170.401,2.152 171.076,2.093 171.901 C 2.034 172.725,1.809 173.460,1.593 173.533 C 1.377 173.607,1.200 174.372,1.200 175.233 C 1.200 176.095,1.025 176.800,0.810 176.800 C 0.237 176.800,0.362 190.044,0.943 190.777 C 1.295 191.221,1.285 191.284,0.900 191.053 C 0.590 190.867,0.400 190.977,0.400 191.343 C 0.400 191.668,0.584 191.995,0.808 192.069 C 1.033 192.144,1.272 193.014,1.340 194.003 C 1.408 194.991,1.689 196.219,1.963 196.731 C 2.237 197.243,2.363 197.918,2.243 198.231 C 2.117 198.560,2.267 198.800,2.600 198.800 C 2.916 198.800,3.082 199.041,2.969 199.336 C 2.856 199.631,3.031 200.094,3.358 200.365 C 3.685 200.636,3.865 201.086,3.758 201.365 C 3.651 201.644,3.831 202.094,4.158 202.365 C 4.485 202.636,4.654 203.115,4.533 203.429 C 4.413 203.743,4.514 204.000,4.757 204.000 C 5.001 204.000,5.200 204.270,5.200 204.600 C 5.200 204.930,5.380 205.200,5.600 205.200 C 5.820 205.200,6.000 205.560,6.000 206.000 C 6.000 206.440,6.180 206.800,6.400 206.800 C 6.620 206.800,6.800 207.070,6.800 207.400 C 6.800 207.730,6.980 208.000,7.200 208.000 C 7.420 208.000,7.600 208.243,7.600 208.541 C 7.600 208.838,8.140 209.646,8.800 210.337 C 9.460 211.028,10.000 211.730,10.000 211.899 C 10.000 212.067,10.624 212.725,11.387 213.361 C 12.150 213.997,12.661 214.716,12.523 214.959 C 12.385 215.201,12.410 215.276,12.578 215.124 C 12.949 214.791,14.281 215.966,14.467 216.789 C 14.540 217.113,14.960 217.578,15.400 217.822 C 15.840 218.066,16.140 218.521,16.067 218.833 C 15.993 219.145,16.063 219.270,16.222 219.112 C 16.733 218.600,18.788 220.365,18.514 221.080 C 18.347 221.515,18.419 221.635,18.732 221.442 C 18.989 221.283,19.200 221.354,19.200 221.600 C 19.200 221.846,19.368 221.944,19.572 221.817 C 19.932 221.595,20.581 222.284,20.594 222.900 C 20.597 223.065,20.740 223.196,20.910 223.190 C 21.324 223.178,23.200 225.219,23.200 225.682 C 23.200 225.883,23.371 225.941,23.581 225.812 C 23.791 225.682,24.224 226.077,24.545 226.688 C 24.865 227.300,25.234 227.755,25.364 227.700 C 25.494 227.645,25.588 227.704,25.574 227.830 C 25.545 228.078,26.605 229.034,27.970 229.993 C 28.434 230.320,28.726 230.815,28.620 231.093 C 28.505 231.393,28.736 231.600,29.186 231.600 C 29.604 231.600,30.060 231.960,30.200 232.400 C 30.340 232.840,30.633 233.200,30.853 233.200 C 31.354 233.200,33.435 235.650,33.300 236.081 C 33.245 236.257,33.425 236.355,33.700 236.300 C 33.975 236.245,34.148 236.447,34.084 236.749 C 34.013 237.081,34.192 237.212,34.534 237.081 C 34.879 236.948,35.277 237.251,35.552 237.854 C 35.800 238.399,36.183 238.734,36.402 238.599 C 36.621 238.464,36.800 238.644,36.800 239.000 C 36.800 239.356,36.948 239.556,37.129 239.444 C 37.437 239.254,38.800 240.547,38.800 241.031 C 38.800 241.236,40.267 242.681,44.379 246.528 C 45.277 247.369,45.910 248.222,45.785 248.424 C 45.660 248.627,45.867 248.672,46.249 248.526 C 46.776 248.323,46.879 248.418,46.684 248.926 C 46.499 249.408,46.700 249.660,47.411 249.839 C 47.952 249.974,48.296 250.245,48.175 250.441 C 48.054 250.637,48.395 250.997,48.933 251.242 C 49.472 251.488,50.142 252.118,50.423 252.644 C 50.704 253.169,51.003 253.530,51.088 253.446 C 51.308 253.226,53.461 255.350,53.325 255.652 C 53.263 255.791,53.838 256.331,54.603 256.852 C 55.368 257.374,55.996 258.025,55.997 258.300 C 55.999 258.575,56.135 258.755,56.300 258.700 C 56.465 258.645,56.655 258.780,56.721 259.000 C 56.788 259.220,57.283 259.631,57.821 259.913 C 58.360 260.195,58.800 260.678,58.800 260.986 C 58.800 261.294,59.163 261.661,59.606 261.802 C 60.049 261.943,60.308 262.225,60.182 262.429 C 60.056 262.633,60.223 262.800,60.554 262.800 C 60.884 262.800,61.474 263.340,61.864 264.001 C 62.254 264.661,62.894 265.303,63.287 265.427 C 63.679 265.552,64.000 265.835,64.000 266.056 C 64.000 266.550,65.190 267.786,65.225 267.329 C 65.239 267.148,65.413 267.405,65.612 267.900 C 65.811 268.395,66.280 268.800,66.654 268.800 C 67.028 268.800,67.227 268.906,67.097 269.036 C 66.813 269.321,69.296 271.798,70.222 272.153 C 70.582 272.291,70.969 272.761,71.083 273.198 C 71.198 273.634,71.450 273.892,71.645 273.772 C 71.840 273.651,72.000 273.863,72.000 274.243 C 72.000 274.623,72.098 274.835,72.219 274.714 C 72.506 274.427,76.966 278.795,77.309 279.700 C 77.455 280.085,77.851 280.400,78.187 280.400 C 78.524 280.400,78.755 280.625,78.700 280.900 C 78.645 281.175,78.809 281.360,79.065 281.312 C 79.321 281.263,80.041 281.873,80.665 282.666 C 82.071 284.453,83.367 285.750,85.751 287.756 C 86.768 288.612,87.600 289.568,87.600 289.880 C 87.600 290.192,87.780 290.336,88.000 290.200 C 88.220 290.064,88.400 290.263,88.400 290.643 C 88.400 291.023,88.491 291.242,88.602 291.131 C 88.873 290.861,92.228 294.076,92.100 294.482 C 92.045 294.657,92.195 294.800,92.433 294.800 C 92.964 294.800,95.603 297.464,95.336 297.731 C 95.231 297.836,95.652 298.228,96.272 298.601 C 96.893 298.975,97.940 299.974,98.600 300.822 C 99.260 301.669,99.986 302.371,100.214 302.381 C 100.441 302.392,100.946 302.940,101.336 303.600 C 101.726 304.260,102.178 304.800,102.340 304.800 C 102.764 304.800,106.000 307.872,106.000 308.274 C 106.000 308.459,106.402 308.788,106.893 309.005 C 107.384 309.222,108.011 309.850,108.287 310.400 C 108.563 310.950,108.791 311.265,108.794 311.100 C 108.797 310.934,109.835 311.898,111.100 313.241 C 112.365 314.585,114.100 316.340,114.956 317.142 C 117.090 319.142,119.911 321.958,121.660 323.834 C 122.463 324.695,124.623 326.865,126.460 328.655 C 128.297 330.445,130.736 332.900,131.879 334.109 C 133.023 335.319,134.041 336.225,134.143 336.124 C 134.244 336.023,134.446 336.316,134.592 336.776 C 134.738 337.235,134.980 337.556,135.129 337.489 C 135.447 337.345,142.308 344.327,142.124 344.609 C 142.056 344.714,142.120 344.710,142.268 344.599 C 142.638 344.321,144.000 345.609,144.000 346.238 C 144.000 346.521,144.208 346.881,144.462 347.038 C 144.771 347.229,144.818 347.138,144.604 346.762 C 144.428 346.453,145.156 347.100,146.222 348.200 C 147.287 349.300,148.168 350.325,148.180 350.477 C 148.210 350.894,153.248 355.694,154.518 356.518 C 155.127 356.912,155.516 357.412,155.383 357.627 C 155.250 357.843,155.292 357.970,155.478 357.910 C 155.981 357.746,159.200 360.840,159.200 361.488 C 159.200 361.813,159.396 361.926,159.668 361.758 C 159.975 361.568,160.055 361.681,159.900 362.085 C 159.742 362.496,159.885 362.684,160.332 362.650 C 160.699 362.623,160.951 362.838,160.890 363.130 C 160.830 363.421,160.944 363.558,161.145 363.434 C 161.345 363.310,161.732 363.477,162.004 363.804 C 162.276 364.132,162.361 364.400,162.194 364.400 C 162.027 364.400,162.569 364.940,163.400 365.600 C 164.231 366.260,164.750 366.801,164.555 366.802 C 164.360 366.803,165.415 367.973,166.899 369.402 C 168.384 370.831,169.809 372.000,170.066 372.000 C 170.323 372.000,170.412 372.121,170.263 372.270 C 170.115 372.418,170.490 372.867,171.097 373.267 C 171.704 373.667,172.052 373.996,171.871 373.997 C 171.691 373.999,171.813 374.270,172.143 374.600 C 172.473 374.930,172.867 375.200,173.018 375.200 C 173.448 375.200,181.390 383.362,181.289 383.700 C 181.240 383.865,181.470 384.000,181.800 384.000 C 182.130 384.000,182.400 384.281,182.400 384.624 C 182.400 384.967,182.561 385.148,182.758 385.026 C 182.954 384.905,183.629 385.464,184.258 386.270 C 184.886 387.076,185.746 388.020,186.168 388.368 C 186.591 388.715,187.331 389.405,187.814 389.900 C 188.297 390.395,188.896 390.800,189.146 390.800 C 189.396 390.800,189.600 390.980,189.600 391.200 C 189.600 391.420,189.858 391.600,190.173 391.600 C 190.488 391.600,190.865 391.974,191.010 392.430 C 191.154 392.887,191.372 393.161,191.493 393.041 C 191.686 392.847,193.867 393.867,194.400 394.400 C 195.007 395.007,197.228 396.400,197.589 396.400 C 197.821 396.400,198.368 396.580,198.805 396.800 C 199.242 397.020,199.967 397.386,200.416 397.614 C 200.865 397.841,201.406 397.920,201.619 397.788 C 201.832 397.657,202.107 397.813,202.230 398.134 C 202.373 398.505,202.966 398.705,203.854 398.680 C 204.624 398.658,205.377 398.828,205.527 399.058 C 205.677 399.288,206.385 399.445,207.100 399.408 C 207.815 399.371,208.400 399.506,208.400 399.708 C 208.400 400.359,226.767 399.901,227.175 399.240 C 227.365 398.933,227.944 398.650,228.460 398.613 C 230.149 398.491,232.000 397.944,232.000 397.568 C 232.000 397.366,232.324 397.200,232.720 397.200 C 233.116 397.200,233.682 396.975,233.979 396.700 C 234.417 396.294,234.456 396.312,234.190 396.800 C 233.950 397.239,234.076 397.213,234.657 396.705 C 235.095 396.322,236.026 395.895,236.726 395.755 C 237.427 395.615,238.000 395.343,238.000 395.150 C 238.000 394.957,238.193 394.800,238.429 394.800 C 239.021 394.800,240.018 393.751,239.714 393.448 C 239.578 393.311,239.728 393.200,240.048 393.200 C 240.368 393.200,241.253 392.667,242.015 392.016 C 242.777 391.365,243.549 390.825,243.731 390.816 C 243.914 390.807,244.797 390.080,245.695 389.200 C 246.593 388.320,247.479 387.600,247.664 387.600 C 247.849 387.600,248.000 387.319,248.000 386.976 C 248.000 386.633,248.180 386.464,248.400 386.600 C 248.620 386.736,248.800 386.556,248.800 386.200 C 248.800 385.844,248.967 385.656,249.171 385.782 C 249.375 385.908,249.658 385.646,249.800 385.200 C 249.942 384.754,250.225 384.492,250.429 384.618 C 250.633 384.744,250.800 384.579,250.800 384.251 C 250.800 383.922,251.163 383.539,251.606 383.398 C 252.049 383.257,252.308 382.975,252.182 382.771 C 252.056 382.567,252.244 382.400,252.600 382.400 C 252.956 382.400,253.136 382.220,253.000 382.000 C 252.864 381.780,252.956 381.600,253.205 381.600 C 253.815 381.600,254.824 380.558,254.514 380.248 C 254.378 380.111,254.470 380.000,254.719 380.000 C 255.221 380.000,260.000 375.220,260.000 374.717 C 260.000 374.543,260.270 374.400,260.600 374.400 C 260.930 374.400,261.200 374.119,261.200 373.776 C 261.200 373.433,261.380 373.264,261.600 373.400 C 261.820 373.536,262.001 373.412,262.001 373.124 C 262.002 372.836,262.541 372.240,263.200 371.800 C 263.859 371.360,264.398 370.764,264.399 370.476 C 264.399 370.188,264.580 370.064,264.800 370.200 C 265.020 370.336,265.200 370.156,265.200 369.800 C 265.200 369.444,265.342 369.241,265.516 369.348 C 265.690 369.455,266.167 369.044,266.578 368.433 C 266.988 367.823,267.823 366.988,268.433 366.578 C 269.044 366.167,269.455 365.690,269.348 365.516 C 269.241 365.342,269.444 365.200,269.800 365.200 C 270.156 365.200,270.336 365.020,270.200 364.800 C 270.064 364.580,270.188 364.399,270.476 364.399 C 270.764 364.398,271.360 363.859,271.800 363.200 C 272.240 362.541,272.836 362.002,273.124 362.001 C 273.412 362.001,273.536 361.820,273.400 361.600 C 273.264 361.380,273.320 361.200,273.524 361.200 C 274.032 361.200,277.600 357.595,277.600 357.081 C 277.600 356.853,277.706 356.773,277.836 356.903 C 278.119 357.185,280.597 354.707,280.948 353.791 C 281.084 353.438,281.376 353.261,281.597 353.398 C 281.819 353.535,282.000 353.356,282.000 353.000 C 282.000 352.644,282.180 352.464,282.400 352.600 C 282.620 352.736,282.800 352.607,282.800 352.313 C 282.800 351.810,284.330 350.221,284.829 350.207 C 285.328 350.192,286.344 348.876,286.081 348.584 C 285.926 348.413,286.071 348.369,286.402 348.486 C 286.733 348.604,287.235 348.452,287.518 348.150 C 287.800 347.847,287.912 347.600,287.765 347.600 C 287.523 347.600,289.853 345.013,292.422 342.428 C 294.882 339.955,297.371 337.808,297.673 337.900 C 297.853 337.955,298.000 337.803,298.000 337.563 C 298.000 336.858,299.464 335.201,299.811 335.514 C 299.986 335.671,300.016 335.603,299.878 335.361 C 299.741 335.120,300.162 334.411,300.814 333.786 C 301.466 333.162,302.000 332.780,302.000 332.939 C 302.000 333.098,302.558 332.592,303.240 331.815 C 303.922 331.038,304.670 330.520,304.902 330.663 C 305.134 330.806,305.220 330.755,305.093 330.550 C 304.966 330.345,305.748 329.309,306.831 328.249 C 307.914 327.189,308.800 326.129,308.800 325.894 C 308.800 325.659,308.909 325.576,309.042 325.709 C 309.346 326.012,311.200 324.195,311.200 323.595 C 311.200 323.352,311.380 323.264,311.600 323.400 C 311.820 323.536,312.000 323.446,312.000 323.200 C 312.000 322.954,312.208 322.881,312.462 323.038 C 312.761 323.223,312.814 323.147,312.615 322.824 C 312.420 322.509,312.768 321.901,313.553 321.184 C 314.239 320.558,314.800 320.116,314.800 320.203 C 314.800 320.291,315.250 319.945,315.800 319.435 C 316.350 318.925,316.800 318.332,316.800 318.116 C 316.800 317.428,318.328 316.308,318.837 316.623 C 319.147 316.815,319.220 316.756,319.038 316.462 C 318.867 316.185,319.013 316.000,319.400 316.000 C 319.756 316.000,319.936 315.820,319.800 315.600 C 319.664 315.380,319.863 315.200,320.243 315.200 C 320.623 315.200,320.820 315.086,320.681 314.947 C 320.542 314.808,321.007 314.151,321.714 313.486 C 322.421 312.822,322.955 312.125,322.900 311.939 C 322.845 311.752,323.042 311.600,323.338 311.600 C 324.022 311.600,325.290 310.223,324.934 309.868 C 324.787 309.720,324.977 309.600,325.357 309.600 C 325.737 309.600,325.936 309.420,325.800 309.200 C 325.664 308.980,325.741 308.800,325.972 308.800 C 326.594 308.800,328.000 307.498,328.000 306.921 C 328.000 306.646,328.504 306.160,329.121 305.841 C 329.738 305.522,330.582 304.808,330.998 304.255 C 331.414 303.701,331.899 303.338,332.077 303.448 C 332.255 303.557,332.400 303.356,332.400 303.000 C 332.400 302.643,332.592 302.471,332.827 302.617 C 333.083 302.775,333.203 302.584,333.127 302.140 C 333.054 301.713,333.211 301.442,333.500 301.500 C 333.775 301.555,333.955 301.465,333.900 301.300 C 333.728 300.785,335.423 299.341,335.981 299.527 C 336.297 299.632,336.399 299.521,336.232 299.252 C 336.068 298.987,336.221 298.800,336.600 298.800 C 336.956 298.800,337.148 298.639,337.026 298.443 C 336.905 298.246,337.331 297.667,337.973 297.156 C 338.615 296.645,339.061 296.099,338.964 295.942 C 338.868 295.786,339.154 295.542,339.600 295.400 C 340.046 295.258,340.308 294.975,340.182 294.771 C 340.056 294.567,340.224 294.400,340.555 294.400 C 340.886 294.400,341.393 293.907,341.682 293.304 C 341.971 292.701,342.701 291.971,343.304 291.682 C 343.907 291.393,344.400 290.886,344.400 290.555 C 344.400 290.224,344.567 290.056,344.771 290.182 C 344.975 290.308,345.258 290.046,345.400 289.600 C 345.542 289.154,345.786 288.868,345.942 288.964 C 346.099 289.061,346.645 288.615,347.156 287.973 C 347.667 287.331,348.246 286.905,348.443 287.026 C 348.639 287.148,348.800 286.956,348.800 286.600 C 348.800 286.221,348.987 286.068,349.252 286.232 C 349.522 286.399,349.632 286.296,349.525 285.975 C 349.309 285.328,350.775 283.538,351.270 283.843 C 351.462 283.962,351.570 283.821,351.510 283.530 C 351.443 283.209,351.693 283.050,352.140 283.127 C 352.584 283.203,352.775 283.083,352.617 282.827 C 352.471 282.592,352.643 282.400,353.000 282.400 C 353.356 282.400,353.557 282.255,353.448 282.077 C 353.338 281.899,353.701 281.414,354.255 280.998 C 354.808 280.582,355.522 279.738,355.841 279.121 C 356.160 278.504,356.646 278.000,356.921 278.000 C 357.517 278.000,358.800 276.586,358.800 275.929 C 358.800 275.675,358.907 275.573,359.037 275.704 C 359.372 276.039,361.600 273.979,361.600 273.334 C 361.600 273.040,361.735 272.842,361.900 272.894 C 362.065 272.945,362.687 272.495,363.282 271.894 C 363.877 271.292,364.269 270.800,364.153 270.800 C 364.038 270.800,364.213 270.530,364.543 270.200 C 364.873 269.870,365.315 269.600,365.525 269.600 C 365.735 269.600,366.025 269.285,366.170 268.900 C 366.739 267.386,367.903 265.636,368.165 265.899 C 368.318 266.051,368.314 265.840,368.156 265.430 C 367.979 264.968,368.085 264.516,368.435 264.242 C 368.746 263.999,369.000 263.530,369.000 263.200 C 369.000 262.870,369.232 262.647,369.516 262.705 C 369.833 262.770,370.002 262.461,369.954 261.905 C 369.821 260.366,369.986 259.144,370.300 259.338 C 370.465 259.440,370.603 257.560,370.607 255.162 C 370.611 252.763,370.476 250.800,370.307 250.800 C 370.138 250.800,370.021 250.665,370.047 250.500 C 370.073 250.335,370.051 250.065,369.997 249.900 C 369.944 249.735,369.862 249.105,369.816 248.500 C 369.716 247.174,369.003 245.373,368.442 245.026 C 368.218 244.888,368.136 244.510,368.260 244.187 C 368.384 243.864,368.277 243.600,368.022 243.600 C 367.767 243.600,367.370 243.060,367.140 242.400 C 366.910 241.740,366.559 241.200,366.361 241.200 C 366.162 241.200,366.000 240.973,366.000 240.696 C 366.000 240.419,365.640 239.968,365.200 239.693 C 364.760 239.418,364.400 238.967,364.400 238.691 C 364.400 238.415,363.995 238.005,363.500 237.780 C 363.005 237.555,362.649 237.139,362.710 236.856 C 362.770 236.572,362.654 236.443,362.452 236.568 C 362.249 236.693,361.981 236.526,361.854 236.198 C 361.728 235.869,361.349 235.600,361.013 235.600 C 360.676 235.600,360.400 235.409,360.400 235.176 C 360.400 234.943,360.263 234.838,360.095 234.941 C 359.927 235.045,359.342 234.882,358.795 234.579 C 358.248 234.276,357.975 234.022,358.189 234.014 C 358.678 233.996,356.745 232.621,356.201 232.599 C 355.524 232.573,353.829 231.925,353.277 231.483 C 352.990 231.253,351.857 231.021,350.760 230.967 C 349.663 230.913,348.503 230.652,348.183 230.386 C 347.830 230.093,347.600 230.065,347.600 230.314 C 347.600 230.540,347.285 230.647,346.900 230.552 C 345.586 230.227,198.800 230.199,198.800 230.524 C 198.800 230.702,198.580 230.711,198.311 230.545 C 198.043 230.379,197.345 230.280,196.762 230.324 C 196.178 230.369,195.207 230.148,194.602 229.835 C 193.998 229.521,193.156 229.331,192.732 229.413 C 192.307 229.495,191.872 229.333,191.765 229.052 C 191.642 228.732,191.109 228.611,190.330 228.725 C 189.457 228.853,188.982 228.712,188.721 228.245 C 188.517 227.881,188.182 227.688,187.975 227.815 C 187.769 227.943,187.600 227.878,187.600 227.670 C 187.600 227.376,186.290 226.798,185.690 226.828 C 185.223 226.851,183.287 225.383,183.445 225.127 C 183.556 224.947,183.367 224.800,183.024 224.800 C 182.681 224.800,182.400 224.620,182.400 224.400 C 182.400 224.180,182.201 224.000,181.958 224.000 C 181.714 224.000,181.160 223.548,180.726 222.996 C 180.291 222.444,179.743 222.112,179.506 222.258 C 179.261 222.410,179.192 222.337,179.345 222.089 C 179.493 221.850,179.252 221.401,178.809 221.091 C 178.367 220.782,178.124 220.409,178.269 220.264 C 178.414 220.119,178.284 220.000,177.979 220.000 C 177.439 220.000,175.203 217.681,175.201 217.118 C 175.200 216.963,174.752 216.388,174.204 215.840 C 173.656 215.293,173.307 214.588,173.427 214.274 C 173.548 213.958,173.350 213.590,172.981 213.448 C 172.551 213.283,172.409 212.952,172.580 212.509 C 172.724 212.132,172.715 211.951,172.561 212.106 C 172.179 212.488,171.240 210.611,171.370 209.726 C 171.427 209.336,171.219 208.762,170.908 208.451 C 170.559 208.102,170.437 207.509,170.588 206.904 C 170.724 206.365,170.673 205.716,170.476 205.462 C 169.964 204.803,169.217 201.563,169.636 201.822 C 170.233 202.191,170.096 53.377,169.499 52.882 C 169.189 52.625,169.007 51.471,169.019 49.834 C 169.032 47.995,168.888 47.200,168.542 47.200 C 168.263 47.200,168.113 46.853,168.198 46.408 C 168.282 45.973,168.182 45.512,167.975 45.385 C 167.769 45.257,167.600 44.779,167.600 44.322 C 167.600 43.865,167.140 43.065,166.577 42.544 C 166.015 42.023,165.646 41.449,165.757 41.270 C 165.868 41.090,165.608 40.642,165.180 40.275 C 164.751 39.908,164.400 39.216,164.400 38.737 C 164.400 38.258,164.293 37.974,164.161 38.105 C 164.030 38.236,163.156 37.591,162.220 36.672 C 160.508 34.992,159.512 34.224,158.400 33.727 C 158.070 33.579,157.170 33.067,156.400 32.589 C 155.630 32.110,154.614 31.778,154.142 31.850 C 153.670 31.923,153.078 31.735,152.827 31.432 C 152.576 31.130,152.017 30.975,151.585 31.088 C 151.013 31.238,150.798 31.091,150.794 30.547 C 150.790 30.131,150.657 29.978,150.494 30.200 C 150.141 30.681,148.633 30.994,148.921 30.527 C 149.125 30.197,144.187 29.946,143.863 30.270 " stroke="none" fill="#fca454" fill-rule="evenodd"></path><path id="path1" d="" stroke="none" fill="#100a454" fill-rule="evenodd"></path><path id="path2" d="" stroke="none" fill="#100a454" fill-rule="evenodd"></path><path id="path3" d="" stroke="none" fill="#100a454" fill-rule="evenodd"></path><path id="path4" d="" stroke="none" fill="#100a454" fill-rule="evenodd"></path></g></svg>