<svg id="svg" version="1.1" xmlns="http://www.w3.org/2000/svg" xmlns:xlink="http://www.w3.org/1999/xlink" width="400" height="270.5128205128205" viewBox="0, 0, 400,270.5128205128205"><g id="svgg"><path id="path0" d="M258.540 91.189 C 258.464 91.478,258.141 91.752,257.821 91.798 C 257.457 91.850,257.207 92.109,257.153 92.490 C 257.090 92.931,256.885 93.099,256.409 93.099 C 255.888 93.099,255.751 93.239,255.751 93.775 L 255.751 94.452 225.065 94.452 C 194.607 94.452,194.379 94.456,194.238 94.993 C 194.155 95.310,193.869 95.535,193.549 95.535 C 193.187 95.535,192.972 95.741,192.915 96.143 C 192.859 96.535,192.611 96.783,192.219 96.839 C 191.842 96.892,191.610 97.113,191.610 97.418 C 191.610 97.719,191.346 97.978,190.934 98.081 C 190.562 98.175,190.257 98.435,190.257 98.659 C 190.257 98.883,189.953 99.182,189.581 99.323 C 189.208 99.465,188.904 99.758,188.904 99.975 C 188.904 100.192,188.667 100.445,188.376 100.537 C 188.086 100.629,187.774 100.942,187.682 101.232 C 187.590 101.522,187.279 101.759,186.991 101.759 C 186.641 101.759,186.468 101.946,186.468 102.326 C 186.468 102.660,186.252 102.949,185.940 103.031 C 185.649 103.107,185.220 103.461,184.986 103.817 C 184.752 104.174,184.381 104.465,184.162 104.465 C 183.942 104.465,183.762 104.709,183.762 105.007 C 183.762 105.370,183.581 105.548,183.214 105.548 C 182.878 105.548,182.566 105.810,182.409 106.225 C 182.267 106.597,181.985 106.901,181.782 106.901 C 181.579 106.901,181.274 107.206,181.105 107.578 C 180.935 107.950,180.619 108.254,180.403 108.254 C 180.186 108.254,179.936 108.485,179.847 108.766 C 179.758 109.048,179.445 109.341,179.152 109.418 C 178.859 109.494,178.620 109.743,178.620 109.970 C 178.620 110.197,178.382 110.458,178.092 110.550 C 177.802 110.642,177.490 110.955,177.398 111.245 C 177.305 111.535,177.128 111.773,177.004 111.773 C 176.879 111.773,174.437 114.087,171.576 116.915 C 168.716 119.743,166.281 122.057,166.167 122.057 C 165.820 122.057,165.619 122.870,165.794 123.567 C 165.885 123.927,166.108 124.222,166.292 124.222 C 166.475 124.222,166.764 124.526,166.933 124.899 C 167.103 125.271,167.419 125.575,167.635 125.575 C 167.851 125.575,168.104 125.812,168.196 126.103 C 168.288 126.393,168.601 126.705,168.891 126.797 C 169.181 126.889,169.418 127.072,169.418 127.204 C 169.418 127.831,195.566 153.721,196.200 153.721 C 196.762 153.721,218.217 132.584,222.672 127.641 C 223.160 127.100,223.669 126.658,223.804 126.658 C 223.940 126.658,224.127 126.414,224.222 126.116 C 224.316 125.819,224.572 125.575,224.790 125.575 C 225.008 125.575,225.267 125.365,225.366 125.108 C 225.616 124.454,227.244 122.869,227.664 122.869 C 228.025 122.869,259.811 91.224,259.811 90.865 C 259.811 90.404,258.669 90.695,258.540 91.189 M214.636 187.012 C 211.436 187.974,210.279 189.610,210.294 193.153 C 210.324 200.544,220.614 202.333,223.417 195.435 C 225.594 190.077,220.546 185.234,214.636 187.012 M84.641 190.170 C 83.945 190.356,83.900 243.141,84.596 243.408 C 85.154 243.622,95.360 243.622,95.918 243.408 C 96.300 243.262,96.347 241.843,96.351 230.215 C 96.353 223.036,96.463 217.014,96.597 216.803 C 96.968 216.217,98.059 217.590,99.372 220.298 C 99.986 221.563,100.713 222.921,100.988 223.316 C 101.263 223.712,101.488 224.213,101.488 224.430 C 101.488 224.648,101.725 225.126,102.013 225.492 C 102.301 225.859,102.618 226.479,102.716 226.871 C 102.814 227.262,103.059 227.719,103.260 227.886 C 103.461 228.053,103.771 228.636,103.948 229.183 C 104.654 231.365,105.370 231.641,110.369 231.653 L 114.785 231.664 115.460 230.862 C 115.831 230.421,116.661 229.051,117.303 227.817 C 117.946 226.584,118.668 225.210,118.909 224.763 C 119.150 224.317,119.348 223.814,119.349 223.646 C 119.350 223.478,119.513 223.206,119.712 223.041 C 119.911 222.876,120.235 222.252,120.432 221.655 C 120.629 221.057,120.883 220.568,120.997 220.568 C 121.110 220.568,121.344 220.141,121.516 219.619 C 121.935 218.351,123.699 216.375,123.996 216.842 C 124.116 217.031,124.215 222.976,124.218 230.054 C 124.221 239.698,124.303 243.004,124.547 243.248 C 124.890 243.591,135.122 243.734,135.972 243.408 C 136.359 243.260,136.401 240.660,136.401 216.763 L 136.401 190.282 135.521 190.122 C 135.037 190.035,132.394 189.999,129.646 190.042 L 124.651 190.122 122.712 194.046 C 121.645 196.204,120.636 198.275,120.469 198.647 C 120.303 199.019,120.052 199.506,119.913 199.729 C 119.615 200.207,116.061 207.555,115.462 208.931 C 115.235 209.452,114.878 210.183,114.667 210.555 C 114.457 210.927,113.943 211.962,113.526 212.855 C 113.108 213.748,112.642 214.723,112.490 215.020 C 112.339 215.318,112.046 215.927,111.841 216.373 C 111.145 217.887,111.042 217.997,110.257 218.077 C 109.527 218.151,107.442 214.836,107.442 213.601 C 107.442 213.460,107.199 213.063,106.901 212.720 C 106.604 212.377,106.360 211.912,106.360 211.687 C 106.360 211.463,106.073 210.781,105.722 210.173 C 105.371 209.564,105.003 208.731,104.905 208.322 C 104.806 207.913,104.616 207.578,104.482 207.578 C 104.348 207.578,104.036 206.969,103.789 206.225 C 103.542 205.480,103.227 204.871,103.091 204.871 C 102.954 204.871,102.842 204.702,102.842 204.495 C 102.842 204.288,102.161 202.735,101.330 201.045 C 100.498 199.354,99.504 197.300,99.120 196.482 C 98.737 195.663,98.319 194.811,98.191 194.587 C 97.987 194.230,97.720 193.655,97.060 192.152 C 96.962 191.928,96.660 191.380,96.389 190.934 L 95.897 190.122 90.506 190.083 C 87.541 190.061,84.902 190.101,84.641 190.170 M186.337 193.026 C 186.273 193.215,186.184 195.513,186.141 198.132 C 186.046 203.880,186.118 203.737,183.264 203.846 L 181.191 203.924 181.191 208.390 L 181.191 212.855 183.264 212.934 C 186.263 213.048,186.040 212.182,186.200 224.331 C 186.348 235.551,186.592 237.402,188.146 239.087 C 188.411 239.374,188.693 239.800,188.774 240.034 C 188.974 240.613,190.882 241.923,192.693 242.726 C 194.205 243.396,203.409 243.930,205.294 243.457 L 205.954 243.291 205.954 238.589 C 205.954 233.158,206.193 233.559,202.951 233.559 C 200.884 233.559,200.766 233.524,199.793 232.633 L 198.782 231.706 198.782 222.768 C 198.782 212.203,198.376 213.193,202.773 213.039 C 206.770 212.899,206.486 213.257,206.491 208.355 C 206.496 203.592,206.731 203.873,202.651 203.748 C 198.535 203.621,198.811 204.025,198.647 197.890 L 198.512 192.828 192.483 192.755 C 187.802 192.699,186.429 192.759,186.337 193.026 M156.292 202.948 C 148.238 204.473,143.370 209.260,141.538 217.456 C 141.214 218.904,141.217 228.574,141.542 229.770 C 141.684 230.291,142.016 231.522,142.280 232.506 C 142.544 233.490,142.900 234.465,143.071 234.671 C 143.241 234.878,143.565 235.492,143.790 236.035 C 144.599 237.990,148.559 241.499,150.986 242.413 C 151.492 242.604,152.056 242.885,152.241 243.038 C 152.587 243.325,155.725 243.961,158.931 244.394 C 162.305 244.849,168.505 243.657,171.475 241.981 C 174.155 240.470,178.078 236.423,178.078 235.170 C 178.078 234.989,178.335 234.426,178.648 233.920 C 179.470 232.590,180.240 227.618,180.242 223.631 C 180.244 218.426,179.410 214.305,177.758 211.367 C 175.902 208.066,172.036 204.891,168.877 204.072 C 168.356 203.937,167.382 203.617,166.712 203.361 C 165.366 202.847,158.304 202.567,156.292 202.948 M242.092 203.024 C 241.352 203.165,240.617 203.388,240.457 203.521 C 240.298 203.653,239.577 203.893,238.856 204.055 C 238.135 204.217,237.240 204.588,236.868 204.881 C 236.496 205.173,235.994 205.413,235.751 205.413 C 234.949 205.413,229.770 210.731,229.770 211.556 C 229.770 211.679,229.508 212.266,229.187 212.859 C 226.201 218.383,226.946 231.766,230.514 236.693 C 230.849 237.156,231.123 237.618,231.123 237.720 C 231.123 238.058,233.933 240.635,234.768 241.063 C 235.219 241.294,235.650 241.567,235.724 241.670 C 236.097 242.186,239.948 243.560,242.212 243.984 C 247.623 245.000,254.056 244.145,257.645 241.934 C 257.869 241.796,258.483 241.449,259.009 241.163 C 260.665 240.263,264.141 236.299,264.141 235.310 C 264.141 235.128,264.308 234.839,264.513 234.669 C 264.718 234.499,265.028 233.784,265.203 233.080 C 265.378 232.376,265.702 231.243,265.923 230.562 C 267.007 227.229,265.992 214.057,264.525 212.428 C 264.314 212.193,264.141 211.901,264.141 211.779 C 264.141 211.218,262.115 208.598,260.861 207.537 C 260.096 206.890,259.333 206.237,259.166 206.087 C 258.608 205.585,255.478 204.060,255.003 204.058 C 254.744 204.057,254.185 203.875,253.761 203.653 C 252.059 202.766,245.342 202.404,242.092 203.024 M290.798 202.868 C 289.719 203.125,286.456 204.473,285.948 204.870 C 285.662 205.094,285.157 205.557,284.824 205.898 C 284.492 206.239,283.843 206.626,283.382 206.758 L 282.544 206.999 282.544 205.842 C 282.544 203.822,282.365 203.766,276.156 203.851 L 270.771 203.924 270.771 223.681 L 270.771 243.437 276.861 243.437 L 282.950 243.437 283.085 230.447 C 283.235 216.054,283.148 216.733,285.079 214.919 C 286.831 213.273,292.181 213.366,293.587 215.068 C 295.234 217.061,295.121 216.013,295.211 230.157 C 295.272 239.867,295.375 243.205,295.617 243.358 C 296.182 243.718,307.291 243.616,307.659 243.248 C 308.603 242.304,307.933 213.389,306.921 211.406 C 306.613 210.801,306.358 210.149,306.355 209.957 C 306.350 209.574,305.190 207.785,304.168 206.582 C 303.527 205.828,300.980 204.060,300.535 204.060 C 300.409 204.060,299.750 203.790,299.071 203.461 C 297.858 202.873,292.410 202.483,290.798 202.868 M210.857 204.157 C 210.635 204.425,210.570 209.834,210.621 223.981 L 210.690 243.437 216.610 243.510 C 220.749 243.561,222.642 243.490,222.902 243.274 C 223.375 242.882,223.464 205.190,222.995 204.312 C 222.631 203.633,211.411 203.490,210.857 204.157 M164.595 213.566 C 167.579 215.664,167.930 216.713,167.930 223.545 C 167.930 232.020,165.836 235.015,160.227 234.563 C 154.952 234.139,153.721 232.052,153.721 223.538 L 153.721 217.267 154.601 215.839 C 155.423 214.505,156.132 213.885,157.781 213.058 C 159.059 212.418,163.423 212.743,164.595 213.566 M250.068 213.243 C 250.589 213.530,251.275 213.887,251.594 214.036 C 251.912 214.185,252.582 215.016,253.082 215.882 L 253.992 217.456 253.992 223.681 C 253.992 229.702,253.972 229.933,253.383 230.759 C 253.048 231.228,252.774 231.716,252.774 231.842 C 252.774 232.833,248.976 234.642,246.903 234.639 C 241.573 234.630,239.783 231.865,239.783 223.643 L 239.783 217.918 240.604 216.264 C 242.181 213.086,246.995 211.549,250.068 213.243 " stroke="none" fill="#27106b" fill-rule="evenodd"></path><path id="path1" d="M132.321 28.466 C 131.908 29.462,132.133 153.621,132.548 154.036 C 132.711 154.200,138.399 148.690,148.067 139.006 C 163.576 123.471,164.431 122.712,165.432 123.605 C 165.954 124.071,165.966 124.068,165.794 123.516 C 165.605 122.906,165.822 122.057,166.167 122.057 C 166.281 122.057,168.716 119.743,171.576 116.915 C 174.437 114.087,176.879 111.773,177.004 111.773 C 177.128 111.773,177.305 111.535,177.398 111.245 C 177.490 110.955,177.789 110.647,178.063 110.560 C 178.337 110.473,178.624 110.162,178.701 109.869 C 178.777 109.576,179.026 109.337,179.253 109.337 C 179.480 109.337,179.743 109.093,179.838 108.796 C 179.932 108.498,180.186 108.254,180.403 108.254 C 180.619 108.254,180.935 107.950,181.105 107.578 C 181.274 107.206,181.579 106.901,181.782 106.901 C 181.985 106.901,182.267 106.597,182.409 106.225 C 182.566 105.810,182.878 105.548,183.214 105.548 C 183.581 105.548,183.762 105.370,183.762 105.007 C 183.762 104.709,183.942 104.465,184.162 104.465 C 184.381 104.465,184.752 104.174,184.986 103.817 C 185.220 103.461,185.649 103.107,185.940 103.031 C 186.252 102.949,186.468 102.660,186.468 102.326 C 186.468 101.946,186.641 101.759,186.991 101.759 C 187.279 101.759,187.590 101.522,187.682 101.232 C 187.774 100.942,188.086 100.629,188.376 100.537 C 188.667 100.445,188.904 100.192,188.904 99.975 C 188.904 99.758,189.208 99.465,189.581 99.323 C 189.953 99.182,190.257 98.883,190.257 98.659 C 190.257 98.435,190.562 98.175,190.934 98.081 C 191.346 97.978,191.610 97.719,191.610 97.418 C 191.610 97.113,191.842 96.892,192.219 96.839 C 192.611 96.783,192.859 96.535,192.915 96.143 C 192.972 95.741,193.187 95.535,193.549 95.535 C 193.869 95.535,194.155 95.310,194.238 94.993 C 194.379 94.456,194.607 94.452,225.065 94.452 L 255.751 94.452 255.751 93.775 C 255.751 93.239,255.888 93.099,256.409 93.099 C 256.885 93.099,257.090 92.931,257.153 92.490 C 257.207 92.109,257.457 91.850,257.821 91.798 C 258.141 91.752,258.464 91.478,258.540 91.189 C 258.621 90.879,258.910 90.663,259.244 90.663 L 259.811 90.663 259.813 77.740 C 259.815 70.633,259.894 57.016,259.989 47.482 C 260.084 37.947,260.074 29.683,259.968 29.116 L 259.775 28.086 228.329 59.663 C 198.506 89.611,196.848 91.227,196.209 90.972 C 195.838 90.825,181.385 76.523,164.091 59.191 L 132.647 27.677 132.321 28.466 " stroke="none" fill="#d406cb" fill-rule="evenodd"></path><path id="path2" d="M0.000 135.318 L 0.000 270.636 200.000 270.636 L 400.000 270.636 400.000 135.318 L 400.000 0.000 200.000 0.000 L 0.000 0.000 0.000 135.318 M260.557 91.240 C 260.622 150.943,260.601 154.229,260.151 154.783 C 259.678 155.365,259.586 155.279,244.307 139.931 C 231.728 127.295,228.808 124.493,228.222 124.493 C 227.637 124.493,224.733 127.275,212.265 139.783 C 198.626 153.467,196.935 155.074,196.179 155.074 C 195.423 155.074,193.738 153.471,180.119 139.793 C 171.751 131.389,164.592 124.393,164.210 124.248 C 163.551 123.998,162.765 124.739,148.134 139.402 C 134.448 153.119,132.714 154.768,132.409 154.352 C 132.017 153.816,132.028 28.099,132.420 27.707 C 132.537 27.589,146.793 41.651,164.098 58.956 C 193.710 88.567,195.602 90.404,196.225 90.156 C 196.590 90.012,211.009 75.765,228.269 58.497 C 258.916 27.836,259.660 27.115,260.069 27.691 C 260.443 28.219,260.494 34.951,260.557 91.240 M219.991 186.288 C 220.234 186.501,220.737 186.767,221.110 186.880 C 221.813 187.093,223.545 188.747,223.545 189.205 C 223.545 189.350,223.789 189.729,224.087 190.049 C 224.542 190.537,224.628 191.004,224.628 192.978 C 224.628 194.916,224.533 195.446,224.087 196.014 C 223.789 196.393,223.545 196.838,223.545 197.003 C 223.545 197.411,221.689 199.188,221.263 199.188 C 221.075 199.188,220.647 199.426,220.312 199.717 C 219.096 200.772,214.936 200.776,213.598 199.723 C 213.224 199.429,212.751 199.188,212.548 199.188 C 211.876 199.188,210.038 197.024,209.848 196.009 C 209.748 195.478,209.502 194.728,209.301 194.342 C 208.830 193.440,208.837 192.743,209.328 191.802 C 209.545 191.386,209.801 190.626,209.898 190.112 C 210.109 188.988,211.846 187.103,212.916 186.836 C 213.329 186.733,213.789 186.494,213.938 186.305 C 214.506 185.583,219.171 185.569,219.991 186.288 M96.974 190.392 C 97.369 190.839,97.769 191.654,97.863 192.203 C 97.957 192.752,98.196 193.263,98.393 193.338 C 98.590 193.414,98.906 194.000,99.095 194.641 C 99.283 195.281,99.581 195.927,99.756 196.076 C 99.932 196.225,100.217 196.793,100.390 197.340 C 100.563 197.886,100.878 198.477,101.089 198.652 C 101.301 198.828,101.551 199.382,101.645 199.882 C 101.739 200.383,101.985 200.933,102.191 201.104 C 102.398 201.276,102.696 201.896,102.854 202.482 C 103.012 203.067,103.378 203.784,103.668 204.074 C 103.958 204.364,104.195 204.887,104.195 205.236 C 104.195 205.585,104.439 206.153,104.737 206.496 C 105.035 206.840,105.405 207.590,105.560 208.162 C 105.714 208.734,105.947 209.202,106.078 209.202 C 106.209 209.202,106.519 209.811,106.766 210.555 C 107.013 211.299,107.326 211.908,107.460 211.908 C 107.595 211.908,107.841 212.449,108.008 213.109 C 108.174 213.770,108.541 214.519,108.824 214.775 C 109.106 215.030,109.337 215.454,109.337 215.717 C 109.337 217.317,110.891 217.301,111.307 215.697 C 111.438 215.193,111.778 214.484,112.064 214.120 C 112.351 213.756,112.585 213.232,112.585 212.954 C 112.585 212.676,112.816 212.218,113.098 211.936 C 113.381 211.653,113.694 211.050,113.794 210.595 C 113.893 210.140,114.194 209.489,114.462 209.147 C 114.730 208.805,115.033 208.142,115.136 207.674 C 115.238 207.205,115.558 206.608,115.848 206.346 C 116.137 206.084,116.373 205.585,116.373 205.235 C 116.373 204.886,116.605 204.370,116.887 204.087 C 117.170 203.805,117.483 203.201,117.582 202.747 C 117.682 202.292,117.983 201.640,118.251 201.298 C 118.519 200.956,118.826 200.275,118.934 199.784 C 119.041 199.293,119.361 198.746,119.645 198.569 C 119.951 198.378,120.162 197.941,120.162 197.499 C 120.162 197.088,120.400 196.515,120.689 196.225 C 120.979 195.936,121.351 195.199,121.515 194.588 C 121.680 193.977,121.982 193.413,122.186 193.334 C 122.390 193.256,122.634 192.739,122.728 192.187 C 122.824 191.616,123.254 190.800,123.722 190.299 L 124.547 189.417 130.568 189.499 C 135.178 189.561,136.694 189.668,137.036 189.952 C 137.446 190.293,137.483 192.518,137.483 216.797 L 137.483 243.271 136.882 243.692 C 136.381 244.043,135.276 244.114,130.311 244.114 C 125.347 244.114,124.241 244.043,123.741 243.692 L 123.139 243.271 123.139 231.671 C 123.139 225.291,123.065 219.879,122.975 219.643 C 122.735 219.017,122.410 219.120,122.218 219.885 C 122.126 220.253,121.747 221.001,121.377 221.546 C 121.007 222.092,120.704 222.759,120.704 223.028 C 120.704 223.298,120.538 223.616,120.336 223.735 C 120.134 223.854,119.817 224.417,119.632 224.985 C 119.447 225.554,119.138 226.080,118.944 226.154 C 118.750 226.228,118.513 226.707,118.417 227.219 C 118.321 227.730,118.019 228.361,117.746 228.621 C 117.472 228.881,117.167 229.472,117.068 229.935 C 116.969 230.400,116.460 231.156,115.928 231.626 L 114.968 232.476 110.190 232.475 L 105.413 232.474 104.545 231.660 C 104.045 231.192,103.603 230.454,103.503 229.921 C 103.408 229.412,103.171 228.935,102.978 228.860 C 102.784 228.786,102.474 228.260,102.288 227.691 C 102.103 227.123,101.725 226.367,101.449 226.012 C 101.173 225.657,100.947 225.217,100.947 225.034 C 100.947 224.851,100.723 224.410,100.449 224.055 C 100.175 223.700,99.809 222.992,99.634 222.480 C 99.459 221.969,99.152 221.360,98.950 221.127 C 98.749 220.894,98.502 220.358,98.401 219.936 C 98.250 219.300,98.150 219.224,97.824 219.495 C 97.489 219.773,97.429 221.603,97.429 231.547 L 97.429 243.271 96.827 243.692 C 95.875 244.359,84.471 244.314,83.652 243.640 L 83.076 243.166 83.148 216.652 L 83.221 190.138 83.897 189.788 C 84.403 189.526,86.048 189.456,90.415 189.509 L 96.257 189.581 96.974 190.392 M199.179 192.675 C 199.339 192.976,199.459 195.111,199.459 197.689 L 199.459 202.178 200.153 202.442 C 200.535 202.588,202.059 202.706,203.540 202.706 L 206.233 202.706 206.779 203.586 C 207.277 204.387,207.319 204.845,207.249 208.700 C 207.150 214.155,207.207 214.073,203.489 214.073 C 202.031 214.073,200.527 214.214,200.148 214.387 L 199.459 214.701 199.459 222.337 C 199.459 232.717,199.404 232.581,203.706 232.809 C 204.950 232.875,206.109 233.080,206.345 233.276 C 206.944 233.773,206.974 243.333,206.378 243.828 C 205.725 244.370,193.168 244.108,192.518 243.539 C 192.242 243.297,191.559 242.953,190.999 242.773 C 190.440 242.593,189.857 242.213,189.704 241.927 C 189.551 241.641,189.252 241.407,189.039 241.407 C 188.826 241.407,188.508 241.133,188.332 240.798 C 188.156 240.463,187.725 239.845,187.375 239.424 C 187.025 239.004,186.739 238.370,186.739 238.017 C 186.739 237.664,186.526 237.256,186.265 237.110 C 185.830 236.866,185.780 235.933,185.642 225.527 C 185.559 219.302,185.468 214.178,185.439 214.141 C 185.410 214.104,184.405 214.073,183.207 214.073 L 181.028 214.073 180.636 213.135 C 180.144 211.957,180.116 205.201,180.597 203.789 L 180.920 202.842 183.077 202.762 C 185.786 202.661,185.647 202.957,185.652 197.271 C 185.654 194.654,185.737 192.431,185.837 192.332 C 186.347 191.821,198.894 192.144,199.179 192.675 M168.130 202.914 C 168.764 203.205,169.788 203.583,170.405 203.754 C 171.022 203.925,171.597 204.246,171.682 204.468 C 171.767 204.690,172.029 204.871,172.263 204.871 C 172.687 204.871,175.962 207.429,176.144 207.902 C 176.196 208.038,176.501 208.432,176.821 208.776 C 178.117 210.173,178.584 210.860,178.750 211.613 C 178.845 212.048,179.086 212.466,179.285 212.543 C 179.484 212.619,179.733 213.314,179.840 214.087 C 179.946 214.860,180.271 216.032,180.562 216.690 C 181.287 218.329,181.218 229.723,180.476 230.853 C 180.232 231.225,179.946 232.133,179.842 232.872 C 179.737 233.610,179.420 234.509,179.136 234.870 C 178.852 235.231,178.618 235.662,178.615 235.828 C 178.603 236.571,174.486 241.407,173.866 241.407 C 173.781 241.407,173.313 241.712,172.825 242.084 C 172.337 242.456,171.753 242.760,171.527 242.760 C 171.300 242.760,170.798 243.010,170.411 243.315 C 170.023 243.619,169.032 243.978,168.207 244.113 C 167.382 244.247,166.438 244.546,166.108 244.776 C 165.131 245.461,156.411 245.366,154.939 244.655 C 154.344 244.367,153.601 244.128,153.288 244.123 C 152.506 244.110,151.015 243.568,151.015 243.297 C 151.015 243.174,150.644 242.993,150.191 242.893 C 149.738 242.794,149.050 242.419,148.663 242.060 C 148.276 241.701,147.866 241.407,147.752 241.407 C 147.440 241.407,144.520 238.584,144.520 238.282 C 144.520 238.138,144.276 237.867,143.978 237.681 C 143.681 237.495,143.437 237.185,143.437 236.992 C 143.437 236.799,143.145 236.245,142.788 235.761 C 142.430 235.277,142.055 234.431,141.953 233.881 C 141.851 233.332,141.565 232.656,141.317 232.380 C 140.627 231.611,140.634 215.469,141.324 214.706 C 141.576 214.428,141.904 213.658,142.053 212.994 C 142.202 212.331,142.483 211.663,142.678 211.510 C 142.872 211.357,143.242 210.775,143.500 210.217 C 143.758 209.658,144.093 209.202,144.245 209.202 C 144.396 209.202,144.521 209.049,144.522 208.863 C 144.526 208.153,148.389 204.871,149.222 204.871 C 149.473 204.871,149.748 204.690,149.834 204.468 C 149.919 204.246,150.601 203.882,151.348 203.660 C 152.096 203.438,152.886 203.109,153.102 202.929 C 154.201 202.017,166.150 202.005,168.130 202.914 M254.196 202.847 C 254.679 203.094,255.638 203.469,256.328 203.679 C 257.017 203.889,257.732 204.244,257.917 204.466 C 258.102 204.689,258.415 204.871,258.612 204.871 C 258.809 204.871,259.286 205.145,259.670 205.480 C 260.055 205.815,260.902 206.516,261.553 207.037 C 262.204 207.558,262.900 208.285,263.100 208.652 C 263.300 209.020,263.677 209.537,263.938 209.802 C 264.198 210.067,264.411 210.462,264.411 210.680 C 264.411 210.897,264.648 211.296,264.938 211.565 C 265.227 211.835,265.595 212.639,265.755 213.352 C 265.914 214.065,266.256 214.970,266.514 215.364 C 266.930 215.998,266.982 216.920,266.982 223.545 C 266.982 230.169,266.930 231.092,266.514 231.727 C 266.256 232.120,265.917 233.014,265.760 233.714 C 265.603 234.414,265.236 235.290,264.943 235.662 C 264.651 236.034,264.411 236.503,264.411 236.705 C 264.411 236.907,264.168 237.225,263.870 237.411 C 263.572 237.596,263.329 237.893,263.329 238.070 C 263.329 238.246,263.024 238.631,262.652 238.923 C 262.280 239.216,261.976 239.582,261.976 239.737 C 261.976 239.891,261.732 240.095,261.434 240.190 C 261.136 240.284,260.767 240.597,260.613 240.884 C 260.459 241.172,260.176 241.407,259.984 241.407 C 259.791 241.407,259.358 241.701,259.020 242.061 C 258.682 242.421,258.083 242.795,257.687 242.894 C 257.292 242.993,256.776 243.247,256.541 243.459 C 256.305 243.671,255.425 243.972,254.586 244.127 C 253.746 244.282,252.721 244.585,252.307 244.801 C 251.181 245.389,242.675 245.361,241.543 244.766 C 241.096 244.531,240.087 244.233,239.301 244.104 C 238.515 243.975,237.555 243.619,237.167 243.315 C 236.780 243.010,236.266 242.760,236.026 242.760 C 235.618 242.760,235.113 242.411,233.214 240.819 C 231.618 239.482,230.616 238.422,230.449 237.896 C 230.353 237.594,230.154 237.348,230.007 237.348 C 229.860 237.348,229.499 236.805,229.206 236.141 C 228.912 235.477,228.562 234.866,228.427 234.783 C 228.293 234.700,228.038 233.934,227.861 233.081 C 227.684 232.227,227.371 231.289,227.166 230.995 C 226.494 230.034,226.637 217.069,227.334 215.768 C 227.632 215.212,227.876 214.480,227.876 214.140 C 227.876 212.042,233.626 204.871,235.308 204.871 C 235.500 204.871,235.809 204.689,235.994 204.466 C 236.179 204.244,236.940 203.880,237.686 203.659 C 238.431 203.437,239.216 203.111,239.430 202.934 C 240.470 202.070,252.540 201.999,254.196 202.847 M298.058 202.421 C 299.074 202.552,300.109 202.843,300.358 203.067 C 300.608 203.292,301.155 203.562,301.575 203.667 C 301.995 203.771,302.481 204.085,302.655 204.364 C 302.829 204.643,303.079 204.871,303.209 204.871 C 303.882 204.871,306.901 208.592,306.901 209.421 C 306.901 209.649,307.114 210.070,307.375 210.357 C 308.612 211.717,309.516 242.328,308.357 243.608 C 307.584 244.462,295.478 244.376,294.873 243.512 C 294.506 242.988,294.452 241.256,294.452 230.088 L 294.452 217.266 293.181 215.940 L 291.911 214.614 289.297 214.614 C 286.399 214.614,286.031 214.797,284.461 217.012 L 283.762 217.997 283.679 230.846 C 283.618 240.439,283.515 243.746,283.273 243.900 C 282.553 244.358,270.850 244.146,270.319 243.666 C 269.639 243.050,269.542 205.259,270.216 203.645 L 270.608 202.706 276.441 202.706 C 282.919 202.706,283.166 202.773,283.535 204.615 C 283.692 205.403,284.168 206.009,284.168 205.422 C 284.168 205.261,284.472 205.013,284.844 204.871 C 285.217 204.730,285.521 204.504,285.521 204.369 C 285.521 202.858,292.742 201.736,298.058 202.421 M223.548 203.586 C 224.313 204.841,224.399 242.778,223.639 243.619 C 223.081 244.235,210.939 244.390,210.338 243.789 C 209.924 243.374,209.865 204.485,210.277 203.401 L 210.541 202.706 216.777 202.706 L 223.012 202.706 223.548 203.586 M158.912 213.439 C 158.566 213.514,157.849 213.869,157.318 214.230 C 156.787 214.590,156.262 214.885,156.152 214.885 C 156.042 214.885,155.796 215.261,155.606 215.720 C 155.416 216.179,155.066 216.749,154.829 216.986 C 154.201 217.612,154.051 228.749,154.656 229.770 C 154.877 230.142,155.195 230.781,155.363 231.191 C 155.531 231.600,155.774 231.935,155.902 231.935 C 156.031 231.935,156.371 232.187,156.658 232.496 C 158.008 233.945,163.403 233.819,165.179 232.297 C 167.702 230.136,168.007 217.810,165.597 215.392 C 163.832 213.621,161.384 212.905,158.912 213.439 M244.957 213.440 C 244.244 213.594,244.195 213.626,242.576 215.022 C 241.873 215.628,241.374 216.325,241.260 216.862 C 241.159 217.338,240.902 217.925,240.689 218.167 C 240.048 218.894,240.319 228.095,241.035 229.942 C 242.949 234.877,250.297 235.024,252.762 230.176 C 253.632 228.466,253.843 218.386,253.029 217.417 C 252.798 217.141,252.471 216.592,252.303 216.196 C 252.135 215.801,251.673 215.253,251.277 214.979 C 250.881 214.704,250.315 214.256,250.019 213.983 C 249.466 213.472,246.355 213.139,244.957 213.440 " stroke="none" fill="#fbfbfb" fill-rule="evenodd"></path><path id="path3" d="M243.844 107.033 C 234.637 116.242,228.210 122.869,228.485 122.869 C 228.745 122.869,228.958 123.015,228.958 123.193 C 228.958 123.783,259.632 154.280,259.862 153.919 C 260.111 153.526,260.096 93.039,259.846 91.945 C 259.684 91.236,258.848 92.024,243.844 107.033 " stroke="none" fill="#0488fc" fill-rule="evenodd"></path><path id="path4" d="M228.269 58.497 C 211.009 75.765,196.592 90.011,196.230 90.155 C 195.641 90.389,195.372 90.224,193.659 88.578 L 191.746 86.739 193.640 88.724 C 194.682 89.816,195.838 90.829,196.209 90.975 C 196.847 91.227,198.544 89.572,228.347 59.645 C 245.652 42.267,259.823 28.102,259.837 28.165 C 259.991 28.835,260.018 153.611,259.865 153.886 C 259.641 154.286,228.958 123.816,228.958 123.193 C 228.958 121.653,227.435 123.026,212.212 138.295 C 200.600 149.942,196.675 153.721,196.195 153.721 C 195.716 153.721,191.989 150.143,181.044 139.175 C 163.185 121.278,165.089 123.050,164.116 123.419 C 163.668 123.589,156.760 130.298,148.067 139.006 C 139.673 147.414,132.702 154.191,132.576 154.064 C 132.450 153.938,132.313 147.811,132.273 140.449 L 132.200 127.064 132.135 140.476 C 132.085 150.909,132.146 153.992,132.411 154.354 C 132.713 154.767,134.483 153.085,148.134 139.402 C 162.765 124.739,163.551 123.998,164.210 124.248 C 164.592 124.393,171.751 131.389,180.119 139.793 C 193.738 153.471,195.423 155.074,196.179 155.074 C 196.935 155.074,198.626 153.467,212.265 139.783 C 224.733 127.275,227.637 124.493,228.222 124.493 C 228.808 124.493,231.728 127.295,244.307 139.931 C 259.586 155.279,259.678 155.365,260.151 154.783 C 260.839 153.936,260.758 28.664,260.069 27.691 C 259.660 27.115,258.916 27.836,228.269 58.497 M167.524 62.652 C 168.029 63.173,168.503 63.599,168.577 63.599 C 168.652 63.599,168.299 63.173,167.794 62.652 C 167.289 62.131,166.815 61.705,166.741 61.705 C 166.666 61.705,167.019 62.131,167.524 62.652 M169.689 64.817 C 170.194 65.338,170.668 65.765,170.742 65.765 C 170.817 65.765,170.464 65.338,169.959 64.817 C 169.454 64.296,168.980 63.870,168.906 63.870 C 168.832 63.870,169.184 64.296,169.689 64.817 M171.854 66.982 C 172.359 67.503,172.833 67.930,172.907 67.930 C 172.982 67.930,172.629 67.503,172.124 66.982 C 171.620 66.461,171.146 66.035,171.071 66.035 C 170.997 66.035,171.349 66.461,171.854 66.982 M174.019 69.147 C 174.524 69.668,174.998 70.095,175.072 70.095 C 175.147 70.095,174.795 69.668,174.290 69.147 C 173.785 68.627,173.311 68.200,173.236 68.200 C 173.162 68.200,173.514 68.627,174.019 69.147 M176.184 71.313 C 176.689 71.834,177.163 72.260,177.237 72.260 C 177.312 72.260,176.960 71.834,176.455 71.313 C 175.950 70.792,175.476 70.365,175.401 70.365 C 175.327 70.365,175.679 70.792,176.184 71.313 M178.349 73.478 C 178.854 73.999,179.328 74.425,179.403 74.425 C 179.477 74.425,179.125 73.999,178.620 73.478 C 178.115 72.957,177.641 72.530,177.566 72.530 C 177.492 72.530,177.844 72.957,178.349 73.478 M184.438 79.567 C 187.115 82.246,189.365 84.438,189.440 84.438 C 189.514 84.438,187.385 82.246,184.709 79.567 C 182.033 76.888,179.782 74.696,179.708 74.696 C 179.634 74.696,181.762 76.888,184.438 79.567 M190.528 85.656 C 191.033 86.177,191.507 86.604,191.581 86.604 C 191.656 86.604,191.303 86.177,190.798 85.656 C 190.293 85.135,189.819 84.709,189.745 84.709 C 189.671 84.709,190.023 85.135,190.528 85.656 M132.172 109.202 C 132.172 110.839,132.217 111.474,132.271 110.613 C 132.325 109.751,132.324 108.412,132.270 107.636 C 132.215 106.860,132.171 107.564,132.172 109.202 M215.020 185.832 C 214.574 185.903,214.087 186.116,213.938 186.305 C 213.789 186.494,213.329 186.733,212.916 186.836 C 211.846 187.103,210.109 188.988,209.898 190.112 C 209.801 190.626,209.545 191.386,209.328 191.802 C 208.837 192.743,208.830 193.440,209.301 194.342 C 209.502 194.728,209.748 195.478,209.848 196.009 C 210.038 197.024,211.876 199.188,212.548 199.188 C 212.751 199.188,213.224 199.429,213.598 199.723 C 214.936 200.776,219.096 200.772,220.312 199.717 C 220.647 199.426,221.075 199.188,221.263 199.188 C 221.689 199.188,223.545 197.411,223.545 197.003 C 223.545 196.838,223.789 196.393,224.087 196.014 C 224.533 195.446,224.628 194.916,224.628 192.978 C 224.628 191.004,224.542 190.537,224.087 190.049 C 223.789 189.729,223.545 189.350,223.545 189.205 C 223.545 188.747,221.813 187.093,221.110 186.880 C 220.737 186.767,220.234 186.501,219.991 186.288 C 219.529 185.883,216.472 185.603,215.020 185.832 M219.945 187.246 C 221.741 187.862,222.760 188.907,223.498 190.890 C 226.356 198.566,214.767 203.262,210.632 196.104 C 210.162 195.289,210.187 190.958,210.667 190.041 C 212.221 187.074,216.067 185.915,219.945 187.246 M83.897 189.788 L 83.221 190.138 83.148 216.652 L 83.076 243.166 83.652 243.640 C 84.471 244.314,95.875 244.359,96.827 243.692 L 97.429 243.271 97.429 231.547 C 97.429 221.603,97.489 219.773,97.824 219.495 C 98.150 219.224,98.250 219.300,98.401 219.936 C 98.502 220.358,98.749 220.894,98.950 221.127 C 99.152 221.360,99.459 221.969,99.634 222.480 C 99.809 222.992,100.175 223.700,100.449 224.055 C 100.723 224.410,100.947 224.851,100.947 225.034 C 100.947 225.217,101.173 225.657,101.449 226.012 C 101.725 226.367,102.103 227.123,102.288 227.691 C 102.474 228.260,102.784 228.786,102.978 228.860 C 103.171 228.935,103.408 229.412,103.503 229.921 C 103.603 230.454,104.045 231.192,104.545 231.660 L 105.413 232.474 110.190 232.475 L 114.968 232.476 115.928 231.626 C 116.460 231.156,116.969 230.400,117.068 229.935 C 117.167 229.472,117.472 228.881,117.746 228.621 C 118.019 228.361,118.321 227.730,118.417 227.219 C 118.513 226.707,118.750 226.228,118.944 226.154 C 119.138 226.080,119.447 225.554,119.632 224.985 C 119.817 224.417,120.134 223.854,120.336 223.735 C 120.538 223.616,120.704 223.298,120.704 223.028 C 120.704 222.759,121.007 222.092,121.377 221.546 C 121.747 221.001,122.126 220.253,122.218 219.885 C 122.410 219.120,122.735 219.017,122.975 219.643 C 123.065 219.879,123.139 225.291,123.139 231.671 L 123.139 243.271 123.741 243.692 C 124.241 244.043,125.347 244.114,130.311 244.114 C 135.276 244.114,136.381 244.043,136.882 243.692 L 137.483 243.271 137.483 216.797 C 137.483 192.518,137.446 190.293,137.036 189.952 C 136.694 189.668,135.178 189.561,130.568 189.499 L 124.547 189.417 123.722 190.299 C 123.254 190.800,122.824 191.616,122.728 192.187 C 122.634 192.739,122.390 193.256,122.186 193.334 C 121.982 193.413,121.680 193.977,121.515 194.588 C 121.351 195.199,120.979 195.936,120.689 196.225 C 120.400 196.515,120.162 197.088,120.162 197.499 C 120.162 197.941,119.951 198.378,119.645 198.569 C 119.361 198.746,119.041 199.293,118.934 199.784 C 118.826 200.275,118.519 200.956,118.251 201.298 C 117.983 201.640,117.682 202.292,117.582 202.747 C 117.483 203.201,117.170 203.805,116.887 204.087 C 116.605 204.370,116.373 204.886,116.373 205.235 C 116.373 205.585,116.137 206.084,115.848 206.346 C 115.558 206.608,115.238 207.205,115.136 207.674 C 115.033 208.142,114.730 208.805,114.462 209.147 C 114.194 209.489,113.893 210.140,113.794 210.595 C 113.694 211.050,113.381 211.653,113.098 211.936 C 112.816 212.218,112.585 212.676,112.585 212.954 C 112.585 213.232,112.351 213.756,112.064 214.120 C 111.778 214.484,111.438 215.193,111.307 215.697 C 110.891 217.301,109.337 217.317,109.337 215.717 C 109.337 215.454,109.106 215.030,108.824 214.775 C 108.541 214.519,108.174 213.770,108.008 213.109 C 107.841 212.449,107.595 211.908,107.460 211.908 C 107.326 211.908,107.013 211.299,106.766 210.555 C 106.519 209.811,106.209 209.202,106.078 209.202 C 105.947 209.202,105.714 208.734,105.560 208.162 C 105.405 207.590,105.035 206.840,104.737 206.496 C 104.439 206.153,104.195 205.585,104.195 205.236 C 104.195 204.887,103.958 204.364,103.668 204.074 C 103.378 203.784,103.012 203.067,102.854 202.482 C 102.696 201.896,102.398 201.276,102.191 201.104 C 101.985 200.933,101.739 200.383,101.645 199.882 C 101.551 199.382,101.301 198.828,101.089 198.652 C 100.878 198.477,100.563 197.886,100.390 197.340 C 100.217 196.793,99.932 196.225,99.756 196.076 C 99.581 195.927,99.283 195.281,99.095 194.641 C 98.906 194.000,98.590 193.414,98.393 193.338 C 98.196 193.263,97.957 192.752,97.863 192.203 C 97.769 191.654,97.369 190.839,96.974 190.392 L 96.257 189.581 90.415 189.509 C 86.048 189.456,84.403 189.526,83.897 189.788 M96.389 190.934 C 96.660 191.380,96.962 191.928,97.060 192.152 C 97.720 193.655,97.987 194.230,98.191 194.587 C 98.319 194.811,98.737 195.663,99.120 196.482 C 99.504 197.300,100.498 199.354,101.330 201.045 C 102.161 202.735,102.842 204.288,102.842 204.495 C 102.842 204.702,102.954 204.871,103.091 204.871 C 103.227 204.871,103.542 205.480,103.789 206.225 C 104.036 206.969,104.348 207.578,104.482 207.578 C 104.616 207.578,104.806 207.913,104.905 208.322 C 105.003 208.731,105.371 209.564,105.722 210.173 C 106.073 210.781,106.360 211.463,106.360 211.687 C 106.360 211.912,106.604 212.377,106.901 212.720 C 107.199 213.063,107.442 213.460,107.442 213.601 C 107.442 214.836,109.527 218.151,110.257 218.077 C 111.042 217.997,111.145 217.887,111.841 216.373 C 112.046 215.927,112.339 215.318,112.490 215.020 C 112.642 214.723,113.108 213.748,113.526 212.855 C 113.943 211.962,114.457 210.927,114.667 210.555 C 114.878 210.183,115.235 209.452,115.462 208.931 C 116.061 207.555,119.615 200.207,119.913 199.729 C 120.052 199.506,120.303 199.019,120.469 198.647 C 120.636 198.275,121.645 196.204,122.712 194.046 L 124.651 190.122 129.646 190.042 C 132.394 189.999,135.037 190.035,135.521 190.122 L 136.401 190.282 136.401 216.763 C 136.401 240.660,136.359 243.260,135.972 243.408 C 135.122 243.734,124.890 243.591,124.547 243.248 C 124.303 243.004,124.221 239.698,124.218 230.054 C 124.215 222.976,124.116 217.031,123.996 216.842 C 123.699 216.375,121.935 218.351,121.516 219.619 C 121.344 220.141,121.110 220.568,120.997 220.568 C 120.883 220.568,120.629 221.057,120.432 221.655 C 120.235 222.252,119.911 222.876,119.712 223.041 C 119.513 223.206,119.350 223.478,119.349 223.646 C 119.348 223.814,119.150 224.317,118.909 224.763 C 118.668 225.210,117.946 226.584,117.303 227.817 C 116.661 229.051,115.831 230.421,115.460 230.862 L 114.785 231.664 110.369 231.653 C 105.370 231.641,104.654 231.365,103.948 229.183 C 103.771 228.636,103.461 228.053,103.260 227.886 C 103.059 227.719,102.814 227.262,102.716 226.871 C 102.618 226.479,102.301 225.859,102.013 225.492 C 101.725 225.126,101.488 224.648,101.488 224.430 C 101.488 224.213,101.263 223.712,100.988 223.316 C 100.713 222.921,99.986 221.563,99.372 220.298 C 98.059 217.590,96.968 216.217,96.597 216.803 C 96.463 217.014,96.353 223.036,96.351 230.215 C 96.347 241.843,96.300 243.262,95.918 243.408 C 95.360 243.622,85.154 243.622,84.596 243.408 C 83.900 243.141,83.945 190.356,84.641 190.170 C 84.902 190.101,87.541 190.061,90.506 190.083 L 95.897 190.122 96.389 190.934 M185.837 192.332 C 185.737 192.431,185.654 194.654,185.652 197.271 C 185.647 202.957,185.786 202.661,183.077 202.762 L 180.920 202.842 180.597 203.789 C 180.116 205.201,180.144 211.957,180.636 213.135 L 181.028 214.073 183.207 214.073 C 184.405 214.073,185.410 214.104,185.439 214.141 C 185.468 214.178,185.559 219.302,185.642 225.527 C 185.780 235.933,185.830 236.866,186.265 237.110 C 186.526 237.256,186.739 237.664,186.739 238.017 C 186.739 238.370,187.025 239.004,187.375 239.424 C 187.725 239.845,188.156 240.463,188.332 240.798 C 188.508 241.133,188.826 241.407,189.039 241.407 C 189.252 241.407,189.551 241.641,189.704 241.927 C 189.857 242.213,190.440 242.593,190.999 242.773 C 191.559 242.953,192.242 243.297,192.518 243.539 C 193.168 244.108,205.725 244.370,206.378 243.828 C 206.974 243.333,206.944 233.773,206.345 233.276 C 206.109 233.080,204.950 232.875,203.706 232.809 C 199.404 232.581,199.459 232.717,199.459 222.337 L 199.459 214.701 200.148 214.387 C 200.527 214.214,202.031 214.073,203.489 214.073 C 207.207 214.073,207.150 214.155,207.249 208.700 C 207.319 204.845,207.277 204.387,206.779 203.586 L 206.233 202.706 203.540 202.706 C 202.059 202.706,200.535 202.588,200.153 202.442 L 199.459 202.178 199.459 197.689 C 199.459 191.568,200.197 192.152,192.458 192.152 C 188.915 192.152,185.936 192.233,185.837 192.332 M198.647 197.890 C 198.811 204.025,198.535 203.621,202.651 203.748 C 206.731 203.873,206.496 203.592,206.491 208.355 C 206.486 213.257,206.770 212.899,202.773 213.039 C 198.376 213.193,198.782 212.203,198.782 222.768 L 198.782 231.706 199.793 232.633 C 200.766 233.524,200.884 233.559,202.951 233.559 C 206.193 233.559,205.954 233.158,205.954 238.589 L 205.954 243.291 205.294 243.457 C 203.409 243.930,194.205 243.396,192.693 242.726 C 190.882 241.923,188.974 240.613,188.774 240.034 C 188.693 239.800,188.411 239.374,188.146 239.087 C 186.592 237.402,186.348 235.551,186.200 224.331 C 186.040 212.182,186.263 213.048,183.264 212.934 L 181.191 212.855 181.191 208.390 L 181.191 203.924 183.264 203.846 C 186.118 203.737,186.046 203.880,186.141 198.132 C 186.184 195.513,186.273 193.215,186.337 193.026 C 186.429 192.759,187.802 192.699,192.483 192.755 L 198.512 192.828 198.647 197.890 M155.435 202.404 C 154.369 202.513,153.319 202.750,153.102 202.929 C 152.886 203.109,152.096 203.438,151.348 203.660 C 150.601 203.882,149.919 204.246,149.834 204.468 C 149.748 204.690,149.473 204.871,149.222 204.871 C 148.389 204.871,144.526 208.153,144.522 208.863 C 144.521 209.049,144.396 209.202,144.245 209.202 C 144.093 209.202,143.758 209.658,143.500 210.217 C 143.242 210.775,142.872 211.357,142.678 211.510 C 142.483 211.663,142.202 212.331,142.053 212.994 C 141.904 213.658,141.576 214.428,141.324 214.706 C 140.634 215.469,140.627 231.611,141.317 232.380 C 141.565 232.656,141.851 233.332,141.953 233.881 C 142.055 234.431,142.430 235.277,142.788 235.761 C 143.145 236.245,143.437 236.799,143.437 236.992 C 143.437 237.185,143.681 237.495,143.978 237.681 C 144.276 237.867,144.520 238.138,144.520 238.282 C 144.520 238.584,147.440 241.407,147.752 241.407 C 147.866 241.407,148.276 241.701,148.663 242.060 C 149.050 242.419,149.738 242.794,150.191 242.893 C 150.644 242.993,151.015 243.174,151.015 243.297 C 151.015 243.568,152.506 244.110,153.288 244.123 C 153.601 244.128,154.344 244.367,154.939 244.655 C 156.411 245.366,165.131 245.461,166.108 244.776 C 166.438 244.546,167.382 244.247,168.207 244.113 C 169.032 243.978,170.023 243.619,170.411 243.315 C 170.798 243.010,171.300 242.760,171.527 242.760 C 171.753 242.760,172.337 242.456,172.825 242.084 C 173.313 241.712,173.781 241.407,173.866 241.407 C 174.486 241.407,178.603 236.571,178.615 235.828 C 178.618 235.662,178.852 235.231,179.136 234.870 C 179.420 234.509,179.737 233.610,179.842 232.872 C 179.946 232.133,180.232 231.225,180.476 230.853 C 181.218 229.723,181.287 218.329,180.562 216.690 C 180.271 216.032,179.946 214.860,179.840 214.087 C 179.733 213.314,179.484 212.619,179.285 212.543 C 179.086 212.466,178.845 212.048,178.750 211.613 C 178.584 210.860,178.117 210.173,176.821 208.776 C 176.501 208.432,176.196 208.038,176.144 207.902 C 175.962 207.429,172.687 204.871,172.263 204.871 C 172.029 204.871,171.767 204.690,171.682 204.468 C 171.597 204.246,171.022 203.925,170.405 203.754 C 169.788 203.583,168.764 203.205,168.130 202.914 C 166.839 202.321,159.233 202.016,155.435 202.404 M241.627 202.407 C 240.632 202.520,239.643 202.757,239.430 202.934 C 239.216 203.111,238.431 203.437,237.686 203.659 C 236.940 203.880,236.179 204.244,235.994 204.466 C 235.809 204.689,235.500 204.871,235.308 204.871 C 233.626 204.871,227.876 212.042,227.876 214.140 C 227.876 214.480,227.632 215.212,227.334 215.768 C 226.637 217.069,226.494 230.034,227.166 230.995 C 227.371 231.289,227.684 232.227,227.861 233.081 C 228.038 233.934,228.293 234.700,228.427 234.783 C 228.562 234.866,228.912 235.477,229.206 236.141 C 229.499 236.805,229.860 237.348,230.007 237.348 C 230.154 237.348,230.353 237.594,230.449 237.896 C 230.616 238.422,231.618 239.482,233.214 240.819 C 235.113 242.411,235.618 242.760,236.026 242.760 C 236.266 242.760,236.780 243.010,237.167 243.315 C 237.555 243.619,238.515 243.975,239.301 244.104 C 240.087 244.233,241.096 244.531,241.543 244.766 C 242.675 245.361,251.181 245.389,252.307 244.801 C 252.721 244.585,253.746 244.282,254.586 244.127 C 255.425 243.972,256.305 243.671,256.541 243.459 C 256.776 243.247,257.292 242.993,257.687 242.894 C 258.083 242.795,258.682 242.421,259.020 242.061 C 259.358 241.701,259.791 241.407,259.984 241.407 C 260.176 241.407,260.459 241.172,260.613 240.884 C 260.767 240.597,261.136 240.284,261.434 240.190 C 261.732 240.095,261.976 239.891,261.976 239.737 C 261.976 239.582,262.280 239.216,262.652 238.923 C 263.024 238.631,263.329 238.246,263.329 238.070 C 263.329 237.893,263.572 237.596,263.870 237.411 C 264.168 237.225,264.411 236.907,264.411 236.705 C 264.411 236.503,264.651 236.034,264.943 235.662 C 265.236 235.290,265.603 234.414,265.760 233.714 C 265.917 233.014,266.256 232.120,266.514 231.727 C 266.930 231.092,266.982 230.169,266.982 223.545 C 266.982 216.920,266.930 215.998,266.514 215.364 C 266.256 214.970,265.914 214.065,265.755 213.352 C 265.595 212.639,265.227 211.835,264.938 211.565 C 264.648 211.296,264.411 210.897,264.411 210.680 C 264.411 210.462,264.198 210.067,263.938 209.802 C 263.677 209.537,263.300 209.020,263.100 208.652 C 262.900 208.285,262.204 207.558,261.553 207.037 C 260.902 206.516,260.055 205.815,259.670 205.480 C 259.286 205.145,258.809 204.871,258.612 204.871 C 258.415 204.871,258.102 204.689,257.917 204.466 C 257.732 204.244,257.017 203.889,256.328 203.679 C 255.638 203.469,254.679 203.094,254.196 202.847 C 253.190 202.332,244.868 202.041,241.627 202.407 M289.851 202.414 C 288.539 202.603,285.521 203.966,285.521 204.369 C 285.521 204.504,285.217 204.730,284.844 204.871 C 284.472 205.013,284.168 205.261,284.168 205.422 C 284.168 206.009,283.692 205.403,283.535 204.615 C 283.166 202.773,282.919 202.706,276.441 202.706 L 270.608 202.706 270.216 203.645 C 269.542 205.259,269.639 243.050,270.319 243.666 C 270.850 244.146,282.553 244.358,283.273 243.900 C 283.515 243.746,283.618 240.439,283.679 230.846 L 283.762 217.997 284.461 217.012 C 286.031 214.797,286.399 214.614,289.297 214.614 L 291.911 214.614 293.181 215.940 L 294.452 217.266 294.452 230.088 C 294.452 241.256,294.506 242.988,294.873 243.512 C 295.478 244.376,307.584 244.462,308.357 243.608 C 309.516 242.328,308.612 211.717,307.375 210.357 C 307.114 210.070,306.901 209.649,306.901 209.421 C 306.901 208.592,303.882 204.871,303.209 204.871 C 303.079 204.871,302.829 204.643,302.655 204.364 C 302.481 204.085,301.995 203.771,301.575 203.667 C 301.155 203.562,300.608 203.292,300.358 203.067 C 299.520 202.312,293.250 201.922,289.851 202.414 M166.712 203.361 C 167.382 203.617,168.356 203.937,168.877 204.072 C 174.232 205.460,178.624 210.806,179.723 217.271 C 180.678 222.892,180.120 231.538,178.648 233.920 C 178.335 234.426,178.078 234.989,178.078 235.170 C 178.078 236.423,174.155 240.470,171.475 241.981 C 168.505 243.657,162.305 244.849,158.931 244.394 C 155.725 243.961,152.587 243.325,152.241 243.038 C 152.056 242.885,151.492 242.604,150.986 242.413 C 148.559 241.499,144.599 237.990,143.790 236.035 C 143.565 235.492,143.241 234.878,143.071 234.671 C 142.900 234.465,142.544 233.490,142.280 232.506 C 142.016 231.522,141.684 230.291,141.542 229.770 C 141.217 228.574,141.214 218.904,141.538 217.456 C 143.210 209.979,146.751 205.965,153.721 203.648 C 156.917 202.585,164.257 202.423,166.712 203.361 M210.277 203.401 C 209.865 204.485,209.924 243.374,210.338 243.789 C 210.939 244.390,223.081 244.235,223.639 243.619 C 224.399 242.778,224.313 204.841,223.548 203.586 L 223.012 202.706 216.777 202.706 L 210.541 202.706 210.277 203.401 M251.325 202.980 C 252.240 203.129,253.336 203.432,253.761 203.653 C 254.185 203.875,254.744 204.057,255.003 204.058 C 255.478 204.060,258.608 205.585,259.166 206.087 C 259.333 206.237,260.096 206.890,260.861 207.537 C 262.115 208.598,264.141 211.218,264.141 211.779 C 264.141 211.901,264.314 212.193,264.525 212.428 C 265.992 214.057,267.007 227.229,265.923 230.562 C 265.702 231.243,265.378 232.376,265.203 233.080 C 265.028 233.784,264.718 234.499,264.513 234.669 C 264.308 234.839,264.141 235.128,264.141 235.310 C 264.141 236.299,260.665 240.263,259.009 241.163 C 258.483 241.449,257.869 241.796,257.645 241.934 C 254.056 244.145,247.623 245.000,242.212 243.984 C 239.948 243.560,236.097 242.186,235.724 241.670 C 235.650 241.567,235.219 241.294,234.768 241.063 C 233.933 240.635,231.123 238.058,231.123 237.720 C 231.123 237.618,230.849 237.156,230.514 236.693 C 228.443 233.833,227.387 229.478,227.359 223.681 C 227.340 219.550,228.144 214.789,229.187 212.859 C 229.508 212.266,229.770 211.679,229.770 211.556 C 229.770 210.731,234.949 205.413,235.751 205.413 C 235.994 205.413,236.496 205.173,236.868 204.881 C 237.240 204.588,238.135 204.217,238.856 204.055 C 239.577 203.893,240.298 203.653,240.457 203.521 C 241.329 202.797,248.117 202.460,251.325 202.980 M299.071 203.461 C 299.750 203.790,300.409 204.060,300.535 204.060 C 300.980 204.060,303.527 205.828,304.168 206.582 C 305.190 207.785,306.350 209.574,306.355 209.957 C 306.358 210.149,306.613 210.801,306.921 211.406 C 307.933 213.389,308.603 242.304,307.659 243.248 C 307.291 243.616,296.182 243.718,295.617 243.358 C 295.375 243.205,295.272 239.867,295.211 230.157 C 295.121 216.013,295.234 217.061,293.587 215.068 C 292.181 213.366,286.831 213.273,285.079 214.919 C 283.148 216.733,283.235 216.054,283.085 230.447 L 282.950 243.437 276.861 243.437 L 270.771 243.437 270.771 223.681 L 270.771 203.924 276.156 203.851 C 282.365 203.766,282.544 203.822,282.544 205.842 L 282.544 206.999 283.382 206.758 C 283.843 206.626,284.492 206.239,284.824 205.898 C 285.882 204.812,286.424 204.480,288.363 203.730 C 290.957 202.726,290.928 202.730,294.587 202.800 C 297.303 202.852,298.037 202.960,299.071 203.461 M222.995 204.312 C 223.464 205.190,223.375 242.882,222.902 243.274 C 222.642 243.490,220.749 243.561,216.610 243.510 L 210.690 243.437 210.621 223.981 C 210.570 209.834,210.635 204.425,210.857 204.157 C 211.411 203.490,222.631 203.633,222.995 204.312 M157.781 213.058 C 156.132 213.885,155.423 214.505,154.601 215.839 L 153.721 217.267 153.721 223.538 C 153.721 229.728,153.730 229.824,154.394 230.956 C 157.379 236.050,164.656 235.837,167.207 230.582 C 168.893 227.108,168.142 216.818,166.049 214.725 C 164.231 212.907,159.846 212.023,157.781 213.058 M244.249 212.950 C 242.738 213.441,241.402 214.656,240.604 216.264 L 239.783 217.918 239.783 223.643 C 239.783 231.865,241.573 234.630,246.903 234.639 C 248.976 234.642,252.774 232.833,252.774 231.842 C 252.774 231.716,253.048 231.228,253.383 230.759 C 253.972 229.933,253.992 229.702,253.992 223.681 L 253.992 217.456 253.082 215.882 C 252.582 215.016,251.912 214.185,251.594 214.036 C 251.275 213.887,250.589 213.530,250.068 213.243 C 249.105 212.712,245.533 212.532,244.249 212.950 M164.008 214.101 C 166.729 215.960,167.102 217.100,167.100 223.545 C 167.097 230.947,166.268 232.725,162.520 233.367 C 160.275 233.751,157.435 233.329,156.658 232.496 C 156.371 232.187,156.031 231.935,155.902 231.935 C 155.774 231.935,155.531 231.600,155.363 231.191 C 155.195 230.781,154.877 230.142,154.656 229.770 C 154.051 228.749,154.201 217.612,154.829 216.986 C 155.066 216.749,155.416 216.179,155.606 215.720 C 155.796 215.261,156.042 214.885,156.152 214.885 C 156.262 214.885,156.787 214.590,157.318 214.230 C 159.067 213.043,162.365 212.979,164.008 214.101 M250.019 213.983 C 250.315 214.256,250.881 214.704,251.277 214.979 C 251.673 215.253,252.135 215.801,252.303 216.196 C 252.471 216.592,252.798 217.141,253.029 217.417 C 253.843 218.386,253.632 228.466,252.762 230.176 C 250.297 235.024,242.949 234.877,241.035 229.942 C 240.319 228.095,240.048 218.894,240.689 218.167 C 240.902 217.925,241.159 217.338,241.260 216.862 C 241.419 216.113,242.302 215.134,244.009 213.812 C 244.929 213.100,249.193 213.221,250.019 213.983 " stroke="none" fill="#a19ec1" fill-rule="evenodd"></path></g></svg>