<svg id="svg" version="1.1" xmlns="http://www.w3.org/2000/svg" xmlns:xlink="http://www.w3.org/1999/xlink" width="400" height="400" viewBox="0, 0, 400,400"><g id="svgg"><path id="path0" d="M245.920 111.968 C 245.558 112.391,245.069 113.097,244.834 113.537 C 244.598 113.977,244.163 114.579,243.868 114.875 C 243.572 115.171,242.896 116.070,242.365 116.874 C 240.808 119.233,227.094 138.150,226.522 138.729 C 226.235 139.019,226.000 139.379,225.999 139.529 C 225.999 139.678,225.459 140.430,224.800 141.200 C 224.141 141.970,223.601 142.722,223.601 142.871 C 223.600 143.021,223.367 143.381,223.082 143.671 C 222.798 143.962,221.073 146.270,219.250 148.800 C 215.710 153.711,215.371 154.046,215.080 152.922 C 214.919 152.301,214.886 152.314,214.846 153.020 C 214.821 153.471,214.575 154.069,214.300 154.349 C 213.899 154.756,213.919 154.832,214.400 154.729 C 214.921 154.617,215.014 156.156,215.106 166.386 C 215.220 178.976,215.247 179.145,217.032 178.214 C 217.674 177.879,218.605 177.604,219.100 177.602 C 219.595 177.601,220.000 177.420,220.000 177.200 C 220.000 176.980,220.429 176.800,220.954 176.800 C 221.479 176.800,222.424 176.531,223.054 176.202 C 223.684 175.874,224.594 175.604,225.076 175.602 C 225.558 175.601,226.064 175.420,226.200 175.200 C 226.336 174.980,226.977 174.800,227.624 174.800 C 228.271 174.800,228.800 174.636,228.800 174.435 C 228.800 174.234,229.519 173.949,230.398 173.800 C 231.277 173.652,232.097 173.366,232.222 173.165 C 232.346 172.964,232.866 172.800,233.378 172.800 C 233.890 172.800,234.824 172.531,235.454 172.202 C 236.084 171.874,236.879 171.604,237.220 171.602 C 237.561 171.601,238.036 171.404,238.275 171.165 C 238.562 170.878,238.794 170.867,238.959 171.133 C 239.096 171.355,235.986 176.044,232.049 181.553 C 224.108 192.665,224.279 192.171,228.000 193.308 C 232.397 194.651,239.433 196.906,240.800 197.409 C 241.570 197.693,243.280 198.235,244.600 198.614 C 245.920 198.993,247.171 199.460,247.380 199.651 C 247.870 200.101,249.330 200.101,249.820 199.651 C 250.029 199.460,251.280 198.995,252.600 198.618 C 253.920 198.242,255.591 197.679,256.314 197.367 C 257.036 197.055,257.893 196.800,258.219 196.800 C 258.545 196.800,259.123 196.638,259.505 196.439 C 260.091 196.135,265.206 194.459,275.000 191.364 C 276.100 191.016,277.360 190.587,277.800 190.409 C 278.240 190.231,280.220 189.598,282.200 189.001 C 284.180 188.404,286.391 187.665,287.114 187.358 C 287.836 187.051,288.693 186.800,289.019 186.800 C 289.345 186.800,289.923 186.636,290.305 186.436 C 290.858 186.147,296.181 184.451,298.700 183.762 C 299.668 183.497,299.432 182.315,296.988 175.200 C 296.497 173.770,294.876 168.820,293.385 164.200 C 291.895 159.580,290.529 155.634,290.349 155.431 C 290.058 155.103,280.080 158.048,276.200 159.606 C 275.760 159.783,272.970 160.676,270.000 161.592 C 267.030 162.507,264.240 163.405,263.800 163.586 C 263.360 163.767,260.030 164.860,256.400 166.015 C 252.770 167.171,247.672 168.812,245.072 169.664 C 240.573 171.137,239.600 171.260,239.600 170.355 C 239.600 169.884,243.983 163.860,244.467 163.667 C 244.650 163.593,244.803 163.323,244.808 163.067 C 244.812 162.810,245.444 161.880,246.212 161.000 C 246.980 160.120,247.709 159.085,247.831 158.700 C 247.954 158.315,248.222 158.000,248.427 158.000 C 248.632 158.000,248.800 157.730,248.800 157.400 C 248.800 157.070,248.935 156.796,249.100 156.791 C 249.265 156.786,250.030 155.890,250.800 154.800 C 251.570 153.710,252.335 152.814,252.500 152.809 C 252.665 152.804,252.800 152.608,252.800 152.373 C 252.800 151.965,254.448 149.583,255.500 148.471 C 255.775 148.181,256.000 147.810,256.000 147.647 C 256.000 147.484,256.330 146.996,256.734 146.563 C 257.137 146.130,259.393 143.108,261.745 139.848 C 264.098 136.587,266.288 133.655,266.612 133.331 C 266.935 133.008,267.200 132.610,267.200 132.447 C 267.200 132.284,267.529 131.797,267.932 131.365 C 270.780 128.308,270.744 128.233,264.203 123.632 C 261.256 121.560,258.357 119.445,257.761 118.932 C 257.164 118.420,256.569 118.000,256.438 118.000 C 256.307 117.999,255.677 117.549,255.038 117.000 C 254.399 116.450,253.758 116.000,253.613 116.000 C 253.469 116.000,253.002 115.685,252.575 115.300 C 248.751 111.849,246.841 110.893,245.920 111.968 M150.219 200.369 C 150.094 200.572,149.414 200.865,148.709 201.020 C 148.003 201.175,147.150 201.446,146.813 201.621 C 146.476 201.797,143.770 202.687,140.800 203.599 C 137.830 204.510,135.040 205.403,134.600 205.583 C 133.921 205.860,126.213 208.356,119.000 210.636 C 117.900 210.984,116.640 211.416,116.200 211.598 C 115.760 211.779,112.970 212.676,110.000 213.592 C 107.030 214.507,104.240 215.410,103.800 215.597 C 103.360 215.784,102.505 216.045,101.900 216.177 C 100.281 216.528,100.572 217.907,104.990 230.800 C 105.480 232.230,106.193 234.390,106.574 235.600 C 106.956 236.810,107.412 238.160,107.587 238.600 C 107.763 239.040,108.235 240.480,108.636 241.800 C 109.580 244.910,109.719 245.053,111.300 244.532 C 112.015 244.297,115.570 243.162,119.200 242.009 C 122.830 240.857,126.391 239.663,127.114 239.357 C 127.836 239.051,128.693 238.800,129.019 238.800 C 129.345 238.800,129.923 238.636,130.305 238.436 C 130.687 238.236,132.620 237.587,134.600 236.994 C 136.580 236.401,138.791 235.665,139.514 235.358 C 140.236 235.051,141.093 234.800,141.419 234.800 C 141.745 234.800,142.323 234.636,142.705 234.435 C 143.087 234.235,145.830 233.316,148.800 232.393 C 151.770 231.471,154.560 230.581,155.000 230.417 C 159.218 228.840,160.400 228.666,160.400 229.621 C 160.400 230.008,153.477 239.781,152.535 240.722 C 152.241 241.016,152.000 241.390,152.000 241.553 C 152.000 241.716,151.679 242.198,151.287 242.625 C 150.895 243.051,148.170 246.719,145.232 250.776 C 142.294 254.832,139.555 258.511,139.145 258.951 C 138.735 259.391,138.400 259.884,138.400 260.047 C 138.400 260.210,138.169 260.581,137.887 260.871 C 137.605 261.162,135.954 263.379,134.218 265.797 C 132.483 268.216,130.824 270.434,130.531 270.726 C 129.476 271.781,129.628 271.948,135.483 276.133 C 138.169 278.053,140.631 279.889,140.955 280.212 C 141.278 280.535,141.736 280.800,141.971 280.800 C 142.207 280.800,142.400 280.968,142.400 281.173 C 142.400 281.378,142.715 281.647,143.100 281.771 C 143.485 281.895,144.430 282.537,145.200 283.197 C 145.970 283.858,146.722 284.399,146.871 284.399 C 147.021 284.400,147.381 284.634,147.671 284.920 C 149.172 286.397,152.924 288.838,153.408 288.652 C 153.713 288.535,154.464 287.666,155.078 286.720 C 155.691 285.774,156.292 284.910,156.413 284.800 C 156.534 284.690,158.512 281.990,160.808 278.800 C 163.104 275.610,165.125 272.820,165.298 272.600 C 165.472 272.380,166.626 270.767,167.863 269.015 C 169.100 267.264,170.357 265.586,170.656 265.287 C 170.955 264.988,171.200 264.621,171.201 264.471 C 171.201 264.322,171.742 263.570,172.403 262.800 C 173.063 262.030,173.705 261.085,173.829 260.700 C 173.953 260.315,174.222 260.000,174.427 260.000 C 174.632 260.000,174.800 259.812,174.800 259.583 C 174.800 259.353,175.250 258.680,175.800 258.087 C 176.350 257.493,176.800 256.796,176.800 256.537 C 176.800 256.279,176.955 256.007,177.144 255.933 C 177.334 255.860,178.965 253.730,180.769 251.200 C 184.259 246.308,184.626 245.943,184.920 247.078 C 185.081 247.699,185.114 247.686,185.154 246.980 C 185.179 246.529,185.425 245.933,185.700 245.656 C 186.101 245.252,186.061 245.205,185.500 245.419 C 184.843 245.669,184.800 244.935,184.800 233.400 C 184.800 221.855,184.758 221.132,184.100 221.406 C 183.715 221.567,182.860 221.883,182.200 222.109 C 181.540 222.335,180.640 222.658,180.200 222.826 C 179.760 222.995,179.040 223.223,178.600 223.332 C 177.867 223.515,176.228 224.067,174.200 224.815 C 173.760 224.977,170.970 225.871,168.000 226.802 C 165.030 227.733,162.304 228.642,161.943 228.824 C 159.897 229.850,161.017 227.980,169.144 216.800 C 173.016 211.474,175.003 208.410,174.813 208.058 C 174.525 207.522,173.601 207.181,166.600 205.023 C 164.620 204.413,162.640 203.763,162.200 203.578 C 161.760 203.394,159.510 202.669,157.200 201.968 C 154.890 201.268,152.829 200.538,152.620 200.347 C 152.117 199.888,150.508 199.902,150.219 200.369 " stroke="none" fill="#e51faa" fill-rule="evenodd"></path><path id="path1" d="M145.800 115.824 C 142.060 118.559,138.667 121.081,138.261 121.428 C 137.854 121.776,137.044 122.362,136.461 122.732 C 133.724 124.467,129.600 127.749,129.600 128.191 C 129.600 128.461,130.905 130.484,132.500 132.686 C 134.095 134.887,135.760 137.186,136.200 137.794 C 136.640 138.403,137.377 139.373,137.839 139.950 C 138.300 140.528,141.080 144.330,144.017 148.400 C 146.953 152.470,149.465 155.890,149.598 156.000 C 150.628 156.848,160.025 170.529,159.751 170.780 C 159.463 171.045,151.568 168.798,148.600 167.606 C 147.526 167.175,144.944 166.338,140.600 165.012 C 138.620 164.408,136.640 163.769,136.200 163.592 C 135.760 163.414,131.620 162.057,127.000 160.575 C 122.380 159.093,116.743 157.263,114.474 156.508 C 109.539 154.865,109.592 154.851,108.664 158.058 C 108.259 159.456,107.780 160.960,107.598 161.400 C 107.416 161.840,106.977 163.100,106.622 164.200 C 106.267 165.300,104.811 169.768,103.388 174.129 C 100.091 184.229,99.950 183.231,104.900 184.788 C 107.155 185.496,109.360 186.220,109.800 186.396 C 110.240 186.572,113.030 187.471,116.000 188.393 C 118.970 189.316,121.713 190.235,122.095 190.435 C 122.477 190.636,123.055 190.800,123.381 190.800 C 123.707 190.800,124.564 191.051,125.286 191.357 C 126.009 191.663,129.570 192.859,133.200 194.014 C 146.304 198.183,149.412 199.211,150.095 199.602 C 150.947 200.091,152.111 200.116,152.620 199.658 C 152.829 199.470,153.990 199.016,155.200 198.650 C 162.615 196.408,164.334 195.859,165.514 195.358 C 166.236 195.051,167.093 194.800,167.419 194.800 C 167.745 194.800,168.323 194.638,168.705 194.440 C 169.087 194.242,170.480 193.756,171.800 193.360 C 175.808 192.157,176.006 192.809,168.418 182.214 C 161.418 172.439,161.152 172.000,162.233 172.000 C 162.797 172.000,180.205 177.597,182.200 178.420 C 182.640 178.601,183.405 178.863,183.900 179.002 L 184.800 179.254 184.800 167.883 C 184.800 161.629,184.916 155.668,185.057 154.637 C 185.224 153.415,185.169 152.803,184.898 152.881 C 184.532 152.986,181.794 149.625,179.946 146.800 C 179.586 146.250,178.821 145.260,178.246 144.600 C 177.671 143.940,177.201 143.278,177.200 143.129 C 177.200 142.979,176.966 142.619,176.680 142.329 C 176.394 142.038,172.676 136.940,168.418 131.000 C 164.160 125.060,160.551 120.110,160.398 120.000 C 160.246 119.890,159.689 119.145,159.160 118.345 C 156.462 114.259,153.734 110.821,153.200 110.835 C 152.870 110.844,149.540 113.089,145.800 115.824 M247.419 200.369 C 247.294 200.572,246.614 200.865,245.909 201.020 C 245.203 201.175,244.350 201.436,244.013 201.601 C 243.676 201.766,241.870 202.376,240.000 202.957 C 238.130 203.538,234.360 204.731,231.622 205.607 C 228.883 206.483,226.417 207.200,226.141 207.200 C 224.240 207.200,224.966 208.612,231.650 217.917 C 238.606 227.599,238.848 228.000,237.748 228.000 C 237.153 228.000,231.701 226.345,229.800 225.587 C 229.360 225.411,228.010 224.958,226.800 224.579 C 225.590 224.201,224.240 223.751,223.800 223.579 C 223.360 223.408,222.010 222.957,220.800 222.577 C 219.590 222.198,217.920 221.642,217.088 221.342 C 215.890 220.910,215.541 220.901,215.405 221.298 C 215.120 222.133,214.980 247.139,215.261 247.067 C 215.405 247.030,217.248 249.340,219.358 252.200 C 221.468 255.060,223.336 257.580,223.508 257.800 C 223.681 258.020,226.865 262.430,230.583 267.600 C 234.301 272.770,237.581 277.238,237.872 277.529 C 238.162 277.819,238.400 278.179,238.401 278.329 C 238.401 278.478,238.941 279.230,239.600 280.000 C 240.259 280.770,240.799 281.507,240.799 281.639 C 240.800 281.770,241.116 282.242,241.501 282.686 C 241.887 283.131,243.102 284.776,244.201 286.341 C 246.454 289.549,246.850 289.685,249.041 288.002 C 249.898 287.344,251.320 286.310,252.200 285.706 C 253.080 285.102,253.890 284.503,254.000 284.375 C 254.110 284.246,257.440 281.830,261.400 279.004 C 269.343 273.336,270.400 272.487,270.400 271.778 C 270.400 271.399,265.044 263.657,263.497 261.800 C 263.314 261.580,262.767 260.835,262.282 260.144 C 261.797 259.454,260.931 258.284,260.358 257.544 C 259.785 256.805,257.361 253.500,254.972 250.200 C 252.582 246.900,250.306 243.851,249.914 243.425 C 249.521 242.998,249.200 242.516,249.200 242.353 C 249.200 242.190,248.969 241.819,248.687 241.529 C 248.405 241.238,246.745 239.020,245.000 236.600 C 243.254 234.180,241.726 232.110,241.604 232.000 C 239.589 230.185,239.887 228.664,242.110 229.422 C 244.049 230.084,255.505 233.780,257.600 234.421 C 258.370 234.656,259.630 235.087,260.400 235.378 C 261.170 235.669,263.420 236.394,265.400 236.990 C 267.380 237.585,269.313 238.236,269.695 238.436 C 270.077 238.636,270.655 238.800,270.981 238.800 C 271.307 238.800,272.164 239.051,272.886 239.358 C 273.609 239.665,275.820 240.404,277.800 241.001 C 279.780 241.598,281.760 242.228,282.200 242.401 C 283.164 242.780,285.968 243.704,288.312 244.416 C 290.535 245.091,290.263 245.553,293.387 235.800 C 294.867 231.180,296.225 227.040,296.405 226.600 C 296.585 226.160,297.043 224.810,297.423 223.600 C 297.802 222.390,298.358 220.721,298.657 219.892 C 299.530 217.468,299.378 216.454,298.100 216.177 C 297.495 216.045,296.640 215.787,296.200 215.602 C 295.422 215.276,286.238 212.299,272.800 208.017 C 269.170 206.861,265.840 205.767,265.400 205.586 C 264.960 205.405,262.170 204.510,259.200 203.599 C 256.230 202.687,253.524 201.797,253.187 201.621 C 252.850 201.446,251.997 201.175,251.291 201.020 C 250.586 200.865,249.906 200.572,249.781 200.369 C 249.655 200.166,249.124 200.000,248.600 200.000 C 248.076 200.000,247.545 200.166,247.419 200.369 " stroke="none" fill="#04d6ea" fill-rule="evenodd"></path><path id="path2" d="M0.000 200.000 L 0.000 400.000 200.000 400.000 L 400.000 400.000 400.000 200.000 L 400.000 0.000 200.000 0.000 L 0.000 0.000 0.000 200.000 M215.100 125.600 C 215.154 139.790,215.292 151.648,215.407 151.951 C 215.532 152.284,217.075 150.456,219.292 147.351 C 221.314 144.518,223.114 142.020,223.291 141.800 C 224.103 140.792,226.092 138.055,227.046 136.631 C 227.624 135.769,228.435 134.700,228.848 134.256 C 229.262 133.812,229.600 133.316,229.600 133.153 C 229.600 132.990,229.836 132.619,230.124 132.329 C 230.413 132.038,233.680 127.570,237.385 122.400 C 241.090 117.230,244.238 112.910,244.380 112.800 C 244.522 112.690,245.038 112.027,245.527 111.328 C 246.320 110.192,246.512 110.106,247.317 110.528 C 248.246 111.014,259.027 118.720,261.000 120.308 C 261.220 120.485,263.470 122.124,266.000 123.950 C 268.530 125.777,270.743 127.522,270.917 127.830 C 271.212 128.350,269.145 131.585,267.118 133.775 C 266.723 134.202,266.400 134.684,266.400 134.847 C 266.400 135.010,266.167 135.381,265.882 135.671 C 265.597 135.962,263.486 138.810,261.190 142.000 C 258.894 145.190,256.697 148.149,256.308 148.575 C 255.918 149.002,255.600 149.484,255.600 149.647 C 255.600 149.810,255.364 150.181,255.075 150.471 C 254.786 150.762,252.604 153.686,250.226 156.969 C 247.848 160.252,245.564 163.301,245.151 163.745 C 244.738 164.188,244.400 164.684,244.400 164.847 C 244.400 165.010,244.175 165.381,243.900 165.671 C 240.522 169.242,240.519 170.682,243.892 169.449 C 244.721 169.146,246.480 168.569,247.800 168.167 C 249.120 167.765,250.371 167.293,250.580 167.118 C 250.789 166.943,251.376 166.800,251.885 166.800 C 252.394 166.800,253.123 166.636,253.505 166.435 C 254.222 166.059,256.043 165.443,260.200 164.171 C 261.520 163.766,262.771 163.293,262.980 163.118 C 263.189 162.943,263.853 162.800,264.456 162.800 C 265.059 162.800,265.664 162.620,265.800 162.400 C 265.936 162.180,266.352 161.999,266.724 161.998 C 267.096 161.996,267.916 161.726,268.546 161.398 C 269.176 161.069,270.110 160.800,270.622 160.800 C 271.134 160.800,271.654 160.636,271.778 160.435 C 271.903 160.234,272.722 159.948,273.600 159.800 C 274.478 159.652,275.297 159.366,275.422 159.165 C 275.546 158.964,276.066 158.800,276.578 158.800 C 277.090 158.800,278.024 158.531,278.654 158.202 C 279.284 157.874,280.104 157.604,280.476 157.602 C 280.848 157.601,281.264 157.420,281.400 157.200 C 281.536 156.980,282.147 156.800,282.757 156.800 C 283.367 156.800,283.983 156.684,284.125 156.541 C 285.507 155.160,291.200 154.365,291.200 155.554 C 291.200 155.969,291.469 156.824,291.798 157.454 C 292.126 158.084,292.396 158.994,292.398 159.476 C 292.399 159.958,292.559 160.451,292.754 160.571 C 292.949 160.692,293.198 161.287,293.308 161.895 C 293.418 162.503,293.736 163.630,294.014 164.400 C 294.980 167.075,295.094 167.412,295.779 169.600 C 296.158 170.810,296.608 172.160,296.779 172.600 C 296.951 173.040,297.401 174.390,297.779 175.600 C 298.158 176.810,298.608 178.160,298.779 178.600 C 300.332 182.601,300.360 183.907,298.900 184.223 C 298.295 184.355,297.440 184.613,297.000 184.798 C 296.560 184.982,295.840 185.223,295.400 185.332 C 294.659 185.517,292.927 186.101,291.000 186.817 C 290.560 186.980,288.580 187.608,286.600 188.212 C 284.620 188.817,282.433 189.556,281.740 189.855 C 281.046 190.155,280.189 190.400,279.834 190.400 C 279.479 190.400,278.877 190.564,278.495 190.764 C 278.113 190.964,276.180 191.619,274.200 192.219 C 272.220 192.820,270.033 193.556,269.340 193.855 C 268.646 194.155,267.712 194.400,267.263 194.400 C 266.814 194.400,266.349 194.559,266.229 194.754 C 266.108 194.949,265.513 195.198,264.905 195.308 C 263.922 195.486,263.086 195.754,260.200 196.813 C 259.760 196.975,258.320 197.420,257.000 197.803 C 255.680 198.186,254.287 198.657,253.905 198.850 C 253.523 199.042,252.884 199.200,252.485 199.200 C 251.739 199.200,250.800 199.913,250.800 200.480 C 250.800 200.656,251.075 200.800,251.411 200.800 C 252.111 200.800,257.954 202.618,259.914 203.445 C 260.636 203.750,261.493 204.000,261.819 204.000 C 262.145 204.000,262.723 204.163,263.105 204.361 C 263.487 204.560,266.230 205.484,269.200 206.415 C 272.170 207.345,274.960 208.248,275.400 208.420 C 275.840 208.592,276.560 208.823,277.000 208.932 C 277.741 209.117,279.473 209.701,281.400 210.417 C 281.840 210.580,283.820 211.202,285.800 211.799 C 287.780 212.396,289.991 213.135,290.714 213.442 C 291.436 213.749,292.293 214.000,292.619 214.000 C 292.945 214.000,293.523 214.167,293.905 214.371 C 294.287 214.575,295.725 215.070,297.101 215.471 C 299.694 216.227,300.349 216.942,299.667 218.275 C 299.463 218.674,298.990 219.990,298.614 221.200 C 298.239 222.410,297.787 223.760,297.609 224.200 C 297.431 224.640,296.797 226.620,296.200 228.600 C 295.603 230.580,294.983 232.470,294.822 232.800 C 294.661 233.130,294.212 234.480,293.824 235.800 C 293.437 237.120,292.963 238.560,292.771 239.000 C 292.076 240.593,291.212 243.416,291.206 244.113 C 291.194 245.510,289.005 245.336,284.600 243.590 C 284.160 243.415,281.370 242.524,278.400 241.608 C 275.430 240.693,272.640 239.797,272.200 239.617 C 271.381 239.283,265.448 237.361,250.600 232.620 C 245.980 231.145,241.795 229.776,241.300 229.578 C 240.805 229.379,240.400 229.330,240.400 229.468 C 240.400 229.803,247.196 239.245,250.716 243.800 C 250.886 244.020,252.600 246.398,254.524 249.083 C 256.449 251.769,258.289 254.231,258.612 254.555 C 258.935 254.878,259.200 255.254,259.200 255.389 C 259.200 255.524,259.650 256.120,260.200 256.713 C 260.750 257.307,261.200 258.004,261.200 258.263 C 261.200 258.521,261.351 258.793,261.535 258.867 C 261.720 258.940,263.550 261.340,265.604 264.200 C 267.657 267.060,269.762 269.866,270.281 270.435 C 271.632 271.916,271.473 272.097,264.166 277.400 C 260.529 280.040,256.618 282.878,255.476 283.706 C 254.334 284.535,252.770 285.660,252.000 286.206 C 251.230 286.752,249.704 287.844,248.610 288.632 L 246.619 290.064 245.888 289.132 C 245.486 288.619,244.909 287.897,244.605 287.526 C 244.301 287.156,243.730 286.346,243.336 285.726 C 242.941 285.107,242.505 284.510,242.366 284.400 C 242.226 284.290,239.089 279.970,235.393 274.800 C 226.958 263.001,223.608 258.412,222.707 257.425 C 222.318 256.998,222.000 256.516,222.000 256.353 C 222.000 256.190,221.767 255.819,221.483 255.529 C 221.198 255.238,219.762 253.312,218.290 251.248 C 216.646 248.943,215.535 247.709,215.407 248.048 C 215.293 248.352,215.154 260.210,215.100 274.400 L 215.000 300.200 200.000 300.200 L 185.000 300.200 184.800 273.800 L 184.600 247.400 182.979 249.600 C 180.739 252.641,171.197 265.796,170.113 267.338 C 169.626 268.032,168.726 269.283,168.113 270.118 C 167.501 270.953,164.030 275.765,160.400 280.811 C 156.770 285.857,153.685 289.988,153.545 289.993 C 153.274 290.000,149.139 287.241,148.800 286.826 C 148.690 286.692,148.093 286.259,147.474 285.864 C 146.854 285.470,146.044 284.896,145.674 284.590 C 145.303 284.283,143.740 283.122,142.200 282.009 C 140.660 280.896,138.970 279.674,138.444 279.293 C 137.918 278.912,135.668 277.282,133.444 275.670 C 128.597 272.159,128.395 271.877,129.708 270.464 C 130.252 269.879,131.031 268.860,131.439 268.200 C 131.847 267.540,132.282 266.910,132.405 266.800 C 132.529 266.690,133.870 264.890,135.387 262.800 C 136.904 260.710,138.292 258.940,138.473 258.867 C 138.653 258.793,138.800 258.521,138.800 258.263 C 138.800 258.004,139.250 257.307,139.800 256.713 C 140.350 256.120,140.800 255.529,140.800 255.401 C 140.800 255.272,140.983 254.949,141.207 254.683 C 142.812 252.781,143.750 251.536,147.536 246.289 C 149.881 243.037,152.211 239.797,152.713 239.089 C 153.216 238.380,153.846 237.530,154.113 237.199 C 155.919 234.970,158.800 230.828,158.800 230.461 C 158.800 229.967,156.452 230.276,155.820 230.853 C 155.611 231.044,154.972 231.200,154.400 231.200 C 153.828 231.200,153.189 231.357,152.980 231.549 C 152.771 231.740,151.520 232.205,150.200 232.582 C 148.880 232.958,147.209 233.521,146.486 233.833 C 145.764 234.145,144.907 234.400,144.581 234.400 C 144.255 234.400,143.677 234.564,143.295 234.764 C 142.913 234.964,140.980 235.613,139.000 236.206 C 137.020 236.799,134.809 237.535,134.086 237.842 C 133.364 238.149,132.507 238.400,132.181 238.400 C 131.855 238.400,131.277 238.564,130.895 238.764 C 130.513 238.964,128.580 239.619,126.600 240.219 C 124.620 240.820,122.433 241.556,121.740 241.855 C 121.046 242.155,120.189 242.400,119.834 242.400 C 119.479 242.400,118.877 242.556,118.495 242.746 C 114.697 244.640,109.323 245.654,108.974 244.542 C 108.846 244.134,108.598 243.524,108.422 243.187 C 108.246 242.850,107.966 241.956,107.800 241.200 C 107.634 240.444,107.359 239.550,107.189 239.213 C 107.019 238.876,106.555 237.520,106.158 236.200 C 105.761 234.880,105.293 233.629,105.118 233.420 C 104.943 233.211,104.800 232.547,104.800 231.944 C 104.800 231.341,104.620 230.736,104.400 230.600 C 104.180 230.464,103.999 230.048,103.998 229.676 C 103.996 229.304,103.726 228.484,103.398 227.854 C 103.069 227.224,102.800 226.315,102.800 225.834 C 102.800 225.353,102.657 224.789,102.482 224.580 C 102.307 224.371,101.839 223.120,101.442 221.800 C 101.045 220.480,100.558 219.087,100.360 218.705 C 99.539 217.121,99.919 216.051,101.404 215.773 C 102.177 215.628,102.907 215.350,103.028 215.155 C 103.149 214.960,103.766 214.800,104.400 214.800 C 105.034 214.800,105.664 214.620,105.800 214.400 C 105.936 214.180,106.352 213.999,106.724 213.998 C 107.096 213.996,107.916 213.726,108.546 213.398 C 109.176 213.069,110.110 212.800,110.622 212.800 C 111.134 212.800,111.654 212.636,111.778 212.435 C 111.903 212.234,112.722 211.948,113.600 211.800 C 114.478 211.652,115.297 211.366,115.422 211.165 C 115.546 210.964,116.066 210.800,116.578 210.800 C 117.090 210.800,118.024 210.531,118.654 210.202 C 119.284 209.874,120.104 209.604,120.476 209.602 C 120.848 209.601,121.264 209.420,121.400 209.200 C 121.536 208.980,122.089 208.800,122.629 208.800 C 123.169 208.800,123.923 208.636,124.305 208.435 C 125.022 208.059,126.843 207.443,131.000 206.171 C 132.320 205.766,133.571 205.293,133.780 205.118 C 133.989 204.943,134.628 204.800,135.200 204.800 C 135.772 204.800,136.411 204.657,136.620 204.482 C 136.829 204.307,138.080 203.839,139.400 203.442 C 140.720 203.045,142.093 202.571,142.451 202.387 C 142.809 202.204,143.756 201.932,144.555 201.782 C 145.355 201.632,146.107 201.350,146.228 201.155 C 146.349 200.960,146.957 200.800,147.581 200.800 C 148.739 200.800,149.609 199.710,148.693 199.406 C 147.565 199.031,141.654 197.138,139.800 196.558 C 138.700 196.214,137.440 195.786,137.000 195.608 C 136.560 195.430,133.770 194.526,130.800 193.600 C 127.830 192.674,125.040 191.775,124.600 191.603 C 123.915 191.336,115.593 188.648,109.000 186.564 C 107.900 186.216,106.640 185.784,106.200 185.602 C 105.760 185.420,104.279 184.941,102.908 184.536 C 100.316 183.770,99.767 183.240,100.370 182.084 C 100.567 181.708,101.213 179.780,101.806 177.800 C 102.399 175.820,103.135 173.609,103.442 172.886 C 103.749 172.164,104.000 171.230,104.000 170.810 C 104.000 170.390,104.159 169.949,104.354 169.829 C 104.549 169.708,104.798 169.113,104.908 168.505 C 105.018 167.897,105.336 166.770,105.614 166.000 C 105.892 165.230,106.246 164.240,106.400 163.800 C 106.554 163.360,106.908 162.370,107.186 161.600 C 107.464 160.830,107.782 159.703,107.892 159.095 C 108.002 158.487,108.251 157.892,108.446 157.771 C 108.641 157.651,108.800 157.135,108.800 156.625 C 108.800 154.459,111.922 154.727,118.314 157.442 C 119.036 157.749,119.893 158.000,120.219 158.000 C 120.545 158.000,121.123 158.164,121.505 158.364 C 121.887 158.564,123.820 159.213,125.800 159.806 C 127.780 160.399,129.991 161.135,130.714 161.442 C 131.436 161.749,132.293 162.000,132.619 162.000 C 132.945 162.000,133.523 162.164,133.905 162.364 C 134.287 162.564,136.220 163.213,138.200 163.806 C 140.180 164.399,142.391 165.135,143.114 165.442 C 143.836 165.749,144.693 166.000,145.019 166.000 C 145.345 166.000,145.923 166.156,146.305 166.346 C 147.521 166.953,149.574 167.627,153.600 168.743 C 154.370 168.956,155.987 169.506,157.194 169.965 C 158.401 170.424,159.529 170.800,159.700 170.800 C 159.871 170.800,158.130 168.235,155.830 165.100 C 153.531 161.965,149.175 155.980,146.150 151.800 C 143.125 147.620,140.413 143.962,140.125 143.671 C 139.836 143.381,139.600 143.010,139.600 142.847 C 139.600 142.684,139.270 142.196,138.866 141.763 C 137.845 140.667,129.556 129.150,129.290 128.458 C 129.093 127.945,131.770 125.200,132.467 125.200 C 132.619 125.200,132.981 124.962,133.271 124.672 C 133.562 124.382,137.400 121.560,141.800 118.403 C 146.200 115.245,149.890 112.539,150.000 112.390 C 150.110 112.241,150.955 111.646,151.879 111.068 L 153.557 110.017 154.459 111.308 C 154.956 112.019,155.473 112.690,155.609 112.800 C 155.746 112.910,159.348 117.860,163.615 123.800 C 167.881 129.740,171.516 134.780,171.691 135.000 C 171.974 135.355,173.798 137.882,177.116 142.513 C 177.712 143.345,178.481 144.368,178.824 144.787 C 179.167 145.205,180.607 147.192,182.024 149.203 L 184.600 152.859 184.700 126.729 C 184.754 112.358,184.884 100.373,184.989 100.095 C 185.138 99.698,188.374 99.613,200.089 99.695 L 215.000 99.800 215.100 125.600 M185.200 167.101 C 185.200 173.729,185.065 179.234,184.900 179.334 C 184.641 179.490,181.099 178.516,178.600 177.602 C 178.160 177.441,176.810 176.999,175.600 176.621 C 174.390 176.242,173.040 175.792,172.600 175.621 C 172.160 175.449,170.810 174.999,169.600 174.621 C 168.390 174.242,167.040 173.792,166.600 173.621 C 162.213 171.918,161.073 172.216,163.332 174.475 C 163.628 174.771,164.304 175.662,164.835 176.455 C 165.729 177.792,168.310 181.418,170.200 183.993 C 170.640 184.592,171.540 185.874,172.199 186.841 C 172.859 187.809,173.636 188.850,173.927 189.156 C 176.458 191.821,176.117 192.410,171.137 193.976 C 168.861 194.691,166.640 195.414,166.200 195.582 C 165.760 195.750,164.320 196.204,163.000 196.590 C 161.680 196.977,160.240 197.439,159.800 197.618 C 159.360 197.797,158.010 198.240,156.800 198.602 C 155.590 198.965,154.378 199.331,154.107 199.416 C 153.319 199.662,154.000 200.799,154.943 200.813 C 155.869 200.827,159.851 202.118,160.275 202.541 C 160.417 202.684,161.033 202.800,161.643 202.800 C 162.253 202.800,162.854 202.964,162.978 203.165 C 163.103 203.366,163.922 203.652,164.800 203.800 C 165.678 203.948,166.497 204.234,166.622 204.435 C 166.746 204.636,167.341 204.800,167.944 204.800 C 168.547 204.800,169.211 204.943,169.420 205.118 C 169.730 205.377,172.396 206.277,175.109 207.039 C 176.532 207.438,174.646 211.193,171.124 214.974 C 170.726 215.401,170.400 215.869,170.400 216.013 C 170.400 216.158,169.950 216.799,169.400 217.438 C 168.851 218.077,168.401 218.691,168.400 218.802 C 168.400 218.913,167.055 220.803,165.411 223.002 C 162.101 227.429,161.707 228.379,163.580 227.410 C 164.229 227.075,165.119 226.800,165.557 226.800 C 165.994 226.800,166.451 226.641,166.571 226.446 C 166.692 226.251,167.287 226.002,167.895 225.892 C 168.503 225.782,169.630 225.464,170.400 225.186 C 171.170 224.908,172.160 224.554,172.600 224.400 C 173.040 224.246,174.030 223.897,174.800 223.626 C 175.570 223.354,176.560 223.042,177.000 222.932 C 177.440 222.823,178.160 222.595,178.600 222.426 C 182.115 221.079,184.661 220.395,184.980 220.713 C 185.101 220.834,185.200 226.337,185.200 232.942 L 185.200 244.951 186.000 244.092 C 186.440 243.620,186.800 243.089,186.800 242.913 C 186.800 242.736,187.250 242.107,187.800 241.513 C 188.350 240.920,188.800 240.329,188.800 240.201 C 188.800 239.976,189.224 239.415,190.300 238.215 C 190.575 237.908,190.800 237.546,190.800 237.411 C 190.800 237.276,191.250 236.680,191.800 236.087 C 192.350 235.493,192.800 234.858,192.800 234.676 C 192.800 234.493,193.053 234.090,193.362 233.781 C 193.671 233.472,195.139 231.505,196.624 229.409 C 199.970 224.690,200.028 224.689,203.301 229.300 C 204.745 231.335,206.303 233.433,206.763 233.961 C 207.223 234.490,207.600 235.030,207.601 235.161 C 207.601 235.293,208.141 236.030,208.800 236.800 C 209.459 237.570,209.999 238.322,209.999 238.471 C 210.000 238.621,210.236 238.981,210.525 239.271 C 210.814 239.562,211.894 240.961,212.925 242.380 L 214.800 244.960 214.800 232.880 L 214.800 220.800 216.120 220.800 C 216.846 220.800,217.611 220.957,217.820 221.149 C 218.029 221.340,219.280 221.807,220.600 222.186 C 221.920 222.565,223.630 223.117,224.400 223.413 C 225.170 223.709,226.520 224.164,227.400 224.424 C 228.280 224.683,229.591 225.144,230.314 225.448 C 231.036 225.752,231.970 226.000,232.390 226.000 C 232.810 226.000,233.264 226.180,233.400 226.400 C 233.536 226.620,234.006 226.800,234.443 226.800 C 234.881 226.800,235.761 227.069,236.397 227.399 C 238.136 228.298,238.173 227.515,236.499 225.250 C 235.675 224.135,234.190 222.055,233.200 220.628 C 232.210 219.201,231.265 218.026,231.100 218.017 C 230.935 218.008,230.800 217.730,230.800 217.400 C 230.800 217.070,230.632 216.800,230.427 216.800 C 230.222 216.800,229.954 216.485,229.831 216.100 C 229.709 215.715,228.980 214.680,228.212 213.800 C 227.444 212.920,226.812 211.975,226.808 211.700 C 226.803 211.425,226.665 211.199,226.500 211.197 C 224.736 211.181,224.231 207.335,225.944 206.965 C 226.525 206.840,227.360 206.593,227.800 206.415 C 228.240 206.238,229.680 205.780,231.000 205.397 C 232.320 205.014,233.713 204.543,234.095 204.350 C 234.477 204.158,235.055 204.000,235.381 204.000 C 235.707 204.000,236.564 203.750,237.286 203.445 C 239.290 202.599,245.096 200.800,245.823 200.800 C 248.055 200.800,245.982 199.581,241.400 198.199 C 239.420 197.602,237.440 196.979,237.000 196.813 C 236.560 196.647,235.120 196.196,233.800 195.810 C 232.480 195.423,231.040 194.975,230.600 194.813 C 227.985 193.853,226.891 193.497,226.000 193.313 C 224.147 192.932,223.698 191.068,225.201 190.000 C 225.356 189.890,226.496 188.360,227.734 186.600 C 228.973 184.840,230.127 183.220,230.300 183.000 C 230.472 182.780,232.276 180.305,234.309 177.500 C 237.779 172.710,238.171 171.672,236.095 172.766 C 234.581 173.564,215.507 179.590,215.165 179.378 C 214.958 179.250,214.800 173.936,214.800 167.096 L 214.800 155.040 212.933 157.620 C 211.906 159.039,210.916 160.260,210.733 160.333 C 210.550 160.407,210.397 160.677,210.394 160.933 C 210.390 161.190,209.850 162.009,209.194 162.754 C 208.537 163.499,208.000 164.230,208.000 164.379 C 208.000 164.527,207.679 164.998,207.287 165.425 C 206.894 165.851,205.238 168.045,203.606 170.300 C 199.968 175.327,199.981 175.326,196.624 170.591 C 195.139 168.495,193.671 166.528,193.362 166.219 C 193.053 165.910,192.797 165.509,192.792 165.329 C 192.788 165.148,192.156 164.280,191.388 163.400 C 190.620 162.520,189.891 161.485,189.769 161.100 C 189.646 160.715,189.378 160.400,189.173 160.400 C 188.968 160.400,188.800 160.212,188.800 159.983 C 188.800 159.753,188.350 159.080,187.800 158.487 C 187.250 157.893,186.800 157.264,186.800 157.087 C 186.800 156.911,186.440 156.380,186.000 155.908 L 185.200 155.049 185.200 167.101 " stroke="none" fill="#040404" fill-rule="evenodd"></path><path id="path3" d="M185.472 100.262 C 185.322 100.411,185.200 112.490,185.200 127.105 L 185.200 153.676 189.100 159.028 C 191.245 161.971,193.411 164.969,193.913 165.690 C 194.416 166.410,195.079 167.303,195.387 167.674 C 195.695 168.044,196.274 168.854,196.673 169.473 C 197.409 170.614,197.700 171.001,199.179 172.800 L 200.000 173.800 200.821 172.800 C 201.273 172.250,201.891 171.497,202.195 171.126 C 202.499 170.756,203.070 169.946,203.464 169.326 C 203.859 168.707,204.289 168.110,204.420 168.000 C 204.551 167.890,206.942 164.622,209.732 160.737 L 214.806 153.674 214.703 126.937 L 214.600 100.200 200.172 100.095 C 192.236 100.037,185.621 100.112,185.472 100.262 M197.364 229.632 C 196.064 231.409,194.640 233.372,194.200 233.994 C 193.760 234.616,191.554 237.652,189.297 240.742 L 185.194 246.359 185.297 273.079 L 185.400 299.800 200.100 299.905 L 214.800 300.010 214.800 273.172 L 214.800 246.334 210.743 240.682 C 208.512 237.573,206.442 234.785,206.143 234.486 C 205.844 234.187,205.600 233.821,205.599 233.671 C 205.599 233.522,205.059 232.770,204.400 232.000 C 203.741 231.230,203.201 230.493,203.201 230.361 C 203.200 230.230,202.819 229.690,202.354 229.161 C 201.889 228.633,201.238 227.795,200.908 227.300 C 200.050 226.013,199.976 226.062,197.364 229.632 " stroke="none" fill="#fbfbfb" fill-rule="evenodd"></path><path id="path4" d="M184.986 100.095 C 184.880 100.373,184.841 112.300,184.899 126.600 L 185.006 152.600 185.103 126.300 L 185.200 100.000 200.000 100.000 L 214.800 100.000 214.805 125.900 C 214.811 150.666,214.902 153.780,215.618 153.516 C 215.792 153.452,217.426 151.330,219.250 148.800 C 221.073 146.270,222.798 143.962,223.082 143.671 C 223.367 143.381,223.600 143.021,223.601 142.871 C 223.601 142.722,224.141 141.970,224.800 141.200 C 225.459 140.430,225.999 139.678,225.999 139.529 C 226.000 139.379,226.235 139.019,226.522 138.729 C 227.094 138.150,240.808 119.233,242.365 116.874 C 242.896 116.070,243.572 115.171,243.868 114.875 C 244.163 114.579,244.598 113.977,244.834 113.537 C 245.431 112.422,246.514 111.200,246.906 111.200 C 247.245 111.200,251.207 114.065,252.575 115.300 C 253.002 115.685,253.469 116.000,253.613 116.000 C 253.758 116.000,254.399 116.450,255.038 117.000 C 255.677 117.549,256.307 117.999,256.438 118.000 C 256.569 118.000,257.164 118.420,257.761 118.932 C 258.357 119.445,261.256 121.560,264.203 123.632 C 270.744 128.233,270.780 128.308,267.932 131.365 C 267.529 131.797,267.200 132.284,267.200 132.447 C 267.200 132.610,266.935 133.008,266.612 133.331 C 266.288 133.655,264.098 136.587,261.745 139.848 C 259.393 143.108,257.137 146.130,256.734 146.563 C 256.330 146.996,256.000 147.484,256.000 147.647 C 256.000 147.810,255.775 148.181,255.500 148.471 C 254.448 149.583,252.800 151.965,252.800 152.373 C 252.800 152.608,252.665 152.804,252.500 152.809 C 252.335 152.814,251.570 153.710,250.800 154.800 C 250.030 155.890,249.265 156.786,249.100 156.791 C 248.935 156.796,248.800 157.070,248.800 157.400 C 248.800 157.730,248.632 158.000,248.427 158.000 C 248.222 158.000,247.954 158.315,247.831 158.700 C 247.709 159.085,246.980 160.120,246.212 161.000 C 245.444 161.880,244.812 162.810,244.808 163.067 C 244.803 163.323,244.650 163.593,244.467 163.667 C 243.983 163.860,239.600 169.884,239.600 170.355 C 239.600 171.260,240.573 171.137,245.072 169.664 C 247.672 168.812,252.770 167.171,256.400 166.015 C 260.030 164.860,263.360 163.767,263.800 163.586 C 264.240 163.405,267.030 162.507,270.000 161.592 C 272.970 160.676,275.760 159.783,276.200 159.606 C 280.080 158.048,290.058 155.103,290.349 155.431 C 290.529 155.634,291.895 159.580,293.385 164.200 C 294.876 168.820,296.497 173.770,296.988 175.200 C 299.432 182.315,299.668 183.497,298.700 183.762 C 296.181 184.451,290.858 186.147,290.305 186.436 C 289.923 186.636,289.345 186.800,289.019 186.800 C 288.693 186.800,287.836 187.051,287.114 187.358 C 286.391 187.665,284.180 188.404,282.200 189.001 C 280.220 189.598,278.240 190.231,277.800 190.409 C 277.360 190.587,276.100 191.016,275.000 191.364 C 265.206 194.459,260.091 196.135,259.505 196.439 C 259.123 196.638,258.545 196.800,258.219 196.800 C 257.893 196.800,257.036 197.055,256.314 197.367 C 255.591 197.679,253.920 198.242,252.600 198.618 C 249.797 199.418,249.243 199.803,249.924 200.484 C 250.302 200.862,250.542 200.775,251.026 200.084 C 251.367 199.598,251.998 199.200,252.428 199.200 C 252.859 199.200,253.523 199.042,253.905 198.850 C 254.287 198.657,255.680 198.186,257.000 197.803 C 258.320 197.420,259.760 196.975,260.200 196.813 C 263.086 195.754,263.922 195.486,264.905 195.308 C 265.513 195.198,266.108 194.949,266.229 194.754 C 266.349 194.559,266.814 194.400,267.263 194.400 C 267.712 194.400,268.646 194.155,269.340 193.855 C 270.033 193.556,272.220 192.820,274.200 192.219 C 276.180 191.619,278.113 190.964,278.495 190.764 C 278.877 190.564,279.479 190.400,279.834 190.400 C 280.189 190.400,281.046 190.155,281.740 189.855 C 282.433 189.556,284.620 188.817,286.600 188.212 C 288.580 187.608,290.560 186.980,291.000 186.817 C 292.927 186.101,294.659 185.517,295.400 185.332 C 295.840 185.223,296.560 184.982,297.000 184.798 C 297.440 184.613,298.295 184.355,298.900 184.223 C 300.360 183.907,300.332 182.601,298.779 178.600 C 298.608 178.160,298.158 176.810,297.779 175.600 C 297.401 174.390,296.951 173.040,296.779 172.600 C 296.608 172.160,296.158 170.810,295.779 169.600 C 295.094 167.412,294.980 167.075,294.014 164.400 C 293.736 163.630,293.418 162.503,293.308 161.895 C 293.198 161.287,292.949 160.692,292.754 160.571 C 292.559 160.451,292.399 159.958,292.398 159.476 C 292.396 158.994,292.126 158.084,291.798 157.454 C 291.469 156.824,291.200 155.969,291.200 155.554 C 291.200 154.365,285.507 155.160,284.125 156.541 C 283.983 156.684,283.367 156.800,282.757 156.800 C 282.147 156.800,281.536 156.980,281.400 157.200 C 281.264 157.420,280.848 157.601,280.476 157.602 C 280.104 157.604,279.284 157.874,278.654 158.202 C 278.024 158.531,277.090 158.800,276.578 158.800 C 276.066 158.800,275.546 158.964,275.422 159.165 C 275.297 159.366,274.478 159.652,273.600 159.800 C 272.722 159.948,271.903 160.234,271.778 160.435 C 271.654 160.636,271.134 160.800,270.622 160.800 C 270.110 160.800,269.176 161.069,268.546 161.398 C 267.916 161.726,267.096 161.996,266.724 161.998 C 266.352 161.999,265.936 162.180,265.800 162.400 C 265.664 162.620,265.059 162.800,264.456 162.800 C 263.853 162.800,263.189 162.943,262.980 163.118 C 262.771 163.293,261.520 163.766,260.200 164.171 C 256.043 165.443,254.222 166.059,253.505 166.435 C 253.123 166.636,252.394 166.800,251.885 166.800 C 251.376 166.800,250.789 166.943,250.580 167.118 C 250.371 167.293,249.120 167.765,247.800 168.167 C 246.480 168.569,244.721 169.146,243.892 169.449 C 240.519 170.682,240.522 169.242,243.900 165.671 C 244.175 165.381,244.400 165.010,244.400 164.847 C 244.400 164.684,244.738 164.188,245.151 163.745 C 245.564 163.301,247.848 160.252,250.226 156.969 C 252.604 153.686,254.786 150.762,255.075 150.471 C 255.364 150.181,255.600 149.810,255.600 149.647 C 255.600 149.484,255.918 149.002,256.308 148.575 C 256.697 148.149,258.894 145.190,261.190 142.000 C 263.486 138.810,265.597 135.962,265.882 135.671 C 266.167 135.381,266.400 135.010,266.400 134.847 C 266.400 134.684,266.723 134.202,267.118 133.775 C 269.145 131.585,271.212 128.350,270.917 127.830 C 270.743 127.522,268.530 125.777,266.000 123.950 C 263.470 122.124,261.220 120.485,261.000 120.308 C 259.027 118.720,248.246 111.014,247.317 110.528 C 246.512 110.106,246.320 110.192,245.527 111.328 C 245.038 112.027,244.522 112.690,244.380 112.800 C 244.238 112.910,241.090 117.230,237.385 122.400 C 233.680 127.570,230.413 132.038,230.124 132.329 C 229.836 132.619,229.600 132.990,229.600 133.153 C 229.600 133.316,229.262 133.812,228.848 134.256 C 228.435 134.700,227.624 135.769,227.046 136.631 C 226.092 138.055,224.103 140.792,223.291 141.800 C 223.114 142.020,221.314 144.518,219.292 147.351 C 217.075 150.456,215.532 152.284,215.407 151.951 C 215.292 151.648,215.154 139.790,215.100 125.600 L 215.000 99.800 200.089 99.695 C 188.375 99.613,185.137 99.698,184.986 100.095 M153.000 110.400 C 152.864 110.620,152.960 110.800,153.212 110.800 C 153.465 110.800,154.031 111.205,154.471 111.700 C 155.160 112.477,155.152 112.422,154.407 111.300 C 153.463 109.875,153.364 109.812,153.000 110.400 M151.100 111.503 C 150.495 111.878,150.000 112.336,150.000 112.520 C 150.000 112.704,150.540 112.470,151.200 112.000 C 151.860 111.530,152.400 111.068,152.400 110.973 C 152.400 110.718,152.304 110.757,151.100 111.503 M148.200 113.835 L 147.000 114.866 148.300 114.006 C 149.015 113.533,149.600 113.068,149.600 112.973 C 149.600 112.673,149.431 112.778,148.200 113.835 M156.578 114.700 C 157.377 115.745,158.497 117.307,159.066 118.172 C 159.635 119.036,160.552 120.206,161.104 120.772 C 161.655 121.337,161.345 120.720,160.414 119.400 C 159.483 118.080,158.064 116.062,157.261 114.915 C 156.457 113.769,155.648 112.824,155.462 112.815 C 155.276 112.807,155.778 113.655,156.578 114.700 M143.800 117.035 L 142.600 118.066 143.900 117.206 C 144.615 116.733,145.200 116.268,145.200 116.173 C 145.200 115.873,145.031 115.978,143.800 117.035 M137.910 121.120 C 135.551 122.814,133.616 124.351,133.610 124.536 C 133.605 124.720,134.154 124.405,134.831 123.836 C 135.508 123.266,136.194 122.800,136.355 122.800 C 136.517 122.800,136.998 122.482,137.425 122.094 C 137.851 121.706,139.145 120.700,140.300 119.860 C 142.068 118.574,142.772 117.926,142.300 118.020 C 142.245 118.031,140.270 119.426,137.910 121.120 M162.800 123.200 C 163.270 123.860,163.744 124.400,163.854 124.400 C 163.964 124.400,163.670 123.860,163.200 123.200 C 162.730 122.540,162.256 122.000,162.146 122.000 C 162.036 122.000,162.330 122.540,162.800 123.200 M131.900 125.503 C 131.295 125.878,130.800 126.336,130.800 126.520 C 130.800 126.704,131.340 126.470,132.000 126.000 C 132.660 125.530,133.200 125.068,133.200 124.973 C 133.200 124.718,133.104 124.757,131.900 125.503 M164.800 126.000 C 165.270 126.660,165.744 127.200,165.854 127.200 C 165.964 127.200,165.670 126.660,165.200 126.000 C 164.730 125.340,164.256 124.800,164.146 124.800 C 164.036 124.800,164.330 125.340,164.800 126.000 M129.616 127.381 C 129.050 128.063,129.360 129.306,130.285 130.064 C 130.812 130.495,130.795 130.377,130.198 129.461 C 129.597 128.537,129.547 128.178,129.932 127.561 C 130.493 126.662,130.302 126.554,129.616 127.381 M166.874 128.900 C 167.408 129.615,168.971 131.775,170.349 133.700 C 171.727 135.625,172.936 137.200,173.036 137.200 C 173.225 137.200,171.991 135.152,171.591 134.800 C 171.465 134.690,170.234 133.025,168.854 131.100 C 167.474 129.175,166.246 127.600,166.125 127.600 C 166.004 127.600,166.341 128.185,166.874 128.900 M132.800 133.600 C 133.270 134.260,133.744 134.800,133.854 134.800 C 133.964 134.800,133.670 134.260,133.200 133.600 C 132.730 132.940,132.256 132.400,132.146 132.400 C 132.036 132.400,132.330 132.940,132.800 133.600 M134.800 136.400 C 135.270 137.060,135.744 137.600,135.854 137.600 C 135.964 137.600,135.670 137.060,135.200 136.400 C 134.730 135.740,134.256 135.200,134.146 135.200 C 134.036 135.200,134.330 135.740,134.800 136.400 M174.640 139.695 C 175.498 140.914,176.262 141.854,176.339 141.784 C 176.532 141.606,174.091 138.104,173.535 137.760 C 173.285 137.605,173.782 138.476,174.640 139.695 M137.074 139.591 C 137.693 140.467,138.351 141.187,138.536 141.191 C 138.720 141.196,138.405 140.646,137.836 139.969 C 137.266 139.292,136.800 138.572,136.800 138.369 C 136.800 138.166,136.608 138.000,136.374 138.000 C 136.140 138.000,136.455 138.716,137.074 139.591 M139.519 142.797 C 139.893 143.456,140.347 143.996,140.527 143.997 C 140.707 143.999,140.470 143.460,140.000 142.800 C 138.902 141.258,138.642 141.257,139.519 142.797 M177.164 143.000 C 177.858 144.357,178.387 145.022,178.394 144.544 C 178.397 144.294,178.030 143.664,177.577 143.144 C 176.931 142.402,176.842 142.371,177.164 143.000 M142.016 146.163 C 142.768 147.209,143.556 148.173,143.767 148.303 C 143.978 148.433,143.535 147.684,142.784 146.637 C 142.032 145.591,141.244 144.627,141.033 144.497 C 140.822 144.367,141.265 145.116,142.016 146.163 M180.364 147.533 C 180.580 147.936,181.074 148.521,181.463 148.833 C 181.964 149.235,181.904 149.022,181.257 148.100 C 180.269 146.691,179.731 146.349,180.364 147.533 M144.800 150.000 C 145.270 150.660,145.744 151.200,145.854 151.200 C 145.964 151.200,145.670 150.660,145.200 150.000 C 144.730 149.340,144.256 148.800,144.146 148.800 C 144.036 148.800,144.330 149.340,144.800 150.000 M182.800 150.800 C 183.270 151.460,183.744 152.000,183.854 152.000 C 183.964 152.000,183.670 151.460,183.200 150.800 C 182.730 150.140,182.256 149.600,182.146 149.600 C 182.036 149.600,182.330 150.140,182.800 150.800 M147.450 153.700 C 151.387 159.144,152.016 159.963,152.485 160.253 C 152.918 160.520,150.227 156.554,149.600 156.000 C 149.475 155.890,148.689 154.855,147.853 153.700 C 147.016 152.545,146.242 151.600,146.132 151.600 C 146.022 151.600,146.615 152.545,147.450 153.700 M185.117 154.500 C 184.865 154.803,184.650 179.494,184.900 179.339 C 185.065 179.236,185.200 173.729,185.200 167.101 L 185.200 155.049 186.000 155.908 C 186.440 156.380,186.800 156.911,186.800 157.087 C 186.800 157.264,187.250 157.893,187.800 158.487 C 188.350 159.080,188.800 159.753,188.800 159.983 C 188.800 160.212,188.968 160.400,189.173 160.400 C 189.378 160.400,189.646 160.715,189.769 161.100 C 189.891 161.485,190.620 162.520,191.388 163.400 C 192.156 164.280,192.788 165.148,192.792 165.329 C 192.797 165.509,193.053 165.910,193.362 166.219 C 193.671 166.528,195.139 168.495,196.624 170.591 C 199.981 175.326,199.968 175.327,203.606 170.300 C 205.238 168.045,206.894 165.851,207.287 165.425 C 207.679 164.998,208.000 164.527,208.000 164.379 C 208.000 164.230,208.537 163.499,209.194 162.754 C 209.850 162.009,210.390 161.190,210.394 160.933 C 210.397 160.677,210.550 160.407,210.733 160.333 C 210.916 160.260,211.906 159.039,212.933 157.620 L 214.800 155.040 214.800 167.096 C 214.800 173.936,214.958 179.250,215.165 179.378 C 215.507 179.590,234.581 173.564,236.095 172.766 C 238.171 171.672,237.779 172.710,234.309 177.500 C 232.276 180.305,230.472 182.780,230.300 183.000 C 230.127 183.220,228.973 184.840,227.734 186.600 C 226.496 188.360,225.356 189.890,225.201 190.000 C 223.698 191.068,224.147 192.932,226.000 193.313 C 226.891 193.497,227.985 193.853,230.600 194.813 C 231.040 194.975,232.480 195.423,233.800 195.810 C 235.120 196.196,236.560 196.646,237.000 196.809 C 239.364 197.686,244.381 199.200,244.926 199.200 C 245.272 199.200,245.833 199.598,246.174 200.084 C 246.658 200.775,246.898 200.862,247.276 200.484 C 247.956 199.804,247.405 199.419,244.600 198.614 C 243.280 198.235,241.570 197.693,240.800 197.409 C 239.433 196.906,232.397 194.651,228.000 193.308 C 224.279 192.171,224.108 192.665,232.049 181.553 C 235.986 176.044,239.096 171.355,238.959 171.133 C 238.794 170.867,238.562 170.878,238.275 171.165 C 238.036 171.404,237.561 171.601,237.220 171.602 C 236.879 171.604,236.084 171.874,235.454 172.202 C 234.824 172.531,233.890 172.800,233.378 172.800 C 232.866 172.800,232.346 172.964,232.222 173.165 C 232.097 173.366,231.277 173.652,230.398 173.800 C 229.519 173.949,228.800 174.234,228.800 174.435 C 228.800 174.636,228.271 174.800,227.624 174.800 C 226.977 174.800,226.336 174.980,226.200 175.200 C 226.064 175.420,225.558 175.601,225.076 175.602 C 224.594 175.604,223.684 175.874,223.054 176.202 C 222.424 176.531,221.479 176.800,220.954 176.800 C 220.429 176.800,220.000 176.980,220.000 177.200 C 220.000 177.420,219.595 177.601,219.100 177.602 C 218.605 177.604,217.686 177.873,217.058 178.200 C 215.234 179.152,215.200 178.943,215.200 166.600 C 215.200 160.136,215.051 154.755,214.869 154.642 C 214.571 154.459,210.551 159.597,208.675 162.558 C 208.271 163.195,207.730 163.933,207.471 164.198 C 207.212 164.463,205.560 166.681,203.800 169.126 C 199.850 174.612,200.154 174.634,195.800 168.543 C 193.820 165.774,191.885 163.141,191.500 162.693 C 191.115 162.244,190.800 161.759,190.800 161.614 C 190.800 161.469,190.482 161.002,190.093 160.575 C 189.704 160.149,188.499 158.585,187.416 157.100 C 185.539 154.527,185.309 154.268,185.117 154.500 M109.280 155.280 C 109.016 155.544,108.818 156.129,108.840 156.580 C 108.873 157.269,108.925 157.241,109.163 156.400 C 109.459 155.358,110.235 155.209,112.400 155.780 C 113.030 155.946,112.902 155.814,112.054 155.422 C 110.436 154.674,109.912 154.648,109.280 155.280 M117.146 157.416 C 117.886 157.737,118.696 157.994,118.946 157.986 C 119.736 157.961,117.437 156.828,116.600 156.830 C 116.048 156.831,116.217 157.012,117.146 157.416 M123.400 159.412 C 125.473 160.158,126.194 160.140,124.454 159.384 C 123.714 159.063,122.814 158.808,122.454 158.818 C 122.094 158.827,122.520 159.095,123.400 159.412 M107.237 161.111 C 106.953 161.798,106.814 162.593,106.928 162.880 C 107.046 163.174,107.151 163.044,107.168 162.580 C 107.186 162.129,107.400 161.560,107.645 161.315 C 107.890 161.070,108.014 160.643,107.922 160.366 C 107.830 160.089,107.521 160.424,107.237 161.111 M126.000 160.165 C 126.000 160.416,131.268 162.065,131.459 161.874 C 131.626 161.707,130.648 161.310,127.972 160.456 C 126.443 159.968,126.000 159.903,126.000 160.165 M154.016 162.563 C 154.768 163.609,155.556 164.573,155.767 164.703 C 155.978 164.833,155.535 164.084,154.784 163.037 C 154.032 161.991,153.244 161.027,153.033 160.897 C 152.822 160.767,153.265 161.516,154.016 162.563 M132.600 162.400 C 133.701 162.873,134.092 162.873,133.800 162.400 C 133.664 162.180,133.158 162.013,132.676 162.028 C 131.831 162.055,131.829 162.069,132.600 162.400 M135.000 163.085 C 135.440 163.191,135.971 163.440,136.180 163.639 C 136.389 163.837,136.929 163.993,137.380 163.984 C 137.981 163.973,137.841 163.813,136.854 163.384 C 136.114 163.063,135.214 162.821,134.854 162.846 C 134.394 162.879,134.437 162.950,135.000 163.085 M138.400 164.165 C 138.400 164.416,143.668 166.065,143.859 165.874 C 144.026 165.707,143.048 165.310,140.372 164.456 C 138.843 163.968,138.400 163.903,138.400 164.165 M156.800 166.400 C 157.270 167.060,157.744 167.600,157.854 167.600 C 157.964 167.600,157.670 167.060,157.200 166.400 C 156.730 165.740,156.256 165.200,156.146 165.200 C 156.036 165.200,156.330 165.740,156.800 166.400 M105.285 166.973 C 105.018 167.559,104.807 168.344,104.816 168.719 C 104.824 169.093,105.099 168.784,105.426 168.030 C 106.127 166.414,105.994 165.417,105.285 166.973 M147.400 167.085 C 147.840 167.191,148.371 167.440,148.580 167.639 C 148.789 167.837,149.239 167.994,149.580 167.986 C 149.973 167.977,149.835 167.763,149.200 167.400 C 148.650 167.086,147.840 166.843,147.400 166.861 L 146.600 166.893 147.400 167.085 M150.800 168.165 C 150.800 168.416,156.068 170.065,156.259 169.874 C 156.426 169.707,155.448 169.310,152.772 168.456 C 151.243 167.968,150.800 167.903,150.800 168.165 M158.800 169.200 C 159.270 169.860,159.744 170.400,159.854 170.400 C 159.964 170.400,159.670 169.860,159.200 169.200 C 158.730 168.540,158.256 168.000,158.146 168.000 C 158.036 168.000,158.330 168.540,158.800 169.200 M104.267 169.867 C 104.120 170.013,104.011 170.508,104.025 170.967 C 104.049 171.733,104.082 171.723,104.434 170.842 C 104.826 169.863,104.744 169.389,104.267 169.867 M103.310 173.087 C 102.349 175.774,101.940 177.274,102.121 177.454 C 102.228 177.561,102.703 176.447,103.178 174.978 C 104.010 172.401,104.121 170.820,103.310 173.087 M161.600 172.347 C 161.600 172.537,164.668 176.978,168.418 182.214 C 175.867 192.614,175.727 192.236,172.461 193.162 C 171.505 193.434,170.810 193.743,170.917 193.850 C 171.266 194.200,175.263 192.700,175.479 192.140 C 175.683 191.607,174.990 190.275,173.927 189.156 C 173.636 188.850,172.859 187.809,172.199 186.841 C 171.540 185.874,170.640 184.592,170.200 183.993 C 168.310 181.418,165.729 177.792,164.835 176.455 C 164.304 175.662,163.628 174.771,163.332 174.475 C 162.072 173.215,161.842 172.272,162.857 172.526 C 165.493 173.185,166.174 173.223,164.600 172.622 C 162.805 171.938,161.600 171.827,161.600 172.347 M169.546 174.616 C 170.286 174.937,171.186 175.192,171.546 175.182 C 171.906 175.173,171.480 174.905,170.600 174.588 C 168.527 173.842,167.806 173.860,169.546 174.616 M175.546 176.616 C 176.286 176.937,177.186 177.192,177.546 177.182 C 177.906 177.173,177.480 176.905,176.600 176.588 C 174.527 175.842,173.806 175.860,175.546 176.616 M101.277 179.338 C 101.015 180.064,100.809 180.914,100.819 181.228 C 100.830 181.543,101.112 181.018,101.447 180.061 C 101.782 179.105,101.988 178.255,101.905 178.171 C 101.822 178.088,101.539 178.613,101.277 179.338 M100.289 182.264 C 99.861 182.944,100.383 184.001,101.143 183.994 C 101.569 183.990,101.640 183.884,101.346 183.694 C 101.097 183.532,100.822 183.040,100.737 182.600 C 100.636 182.080,100.479 181.962,100.289 182.264 M103.146 184.616 C 103.886 184.937,104.786 185.192,105.146 185.182 C 105.506 185.173,105.080 184.905,104.200 184.588 C 102.127 183.842,101.406 183.860,103.146 184.616 M109.200 186.563 C 111.843 187.548,113.660 188.073,113.832 187.901 C 113.927 187.807,113.238 187.503,112.302 187.226 C 111.366 186.949,110.287 186.560,109.905 186.361 C 109.523 186.162,108.893 186.009,108.505 186.021 C 108.117 186.032,108.430 186.276,109.200 186.563 M114.433 188.149 C 114.836 188.508,119.679 190.054,119.854 189.879 C 119.961 189.772,118.875 189.306,117.441 188.842 C 114.925 188.030,114.082 187.835,114.433 188.149 M121.546 190.616 C 122.286 190.937,123.221 191.200,123.622 191.200 C 124.024 191.200,124.464 191.380,124.600 191.600 C 124.736 191.820,125.152 191.994,125.524 191.986 C 126.540 191.965,124.413 190.832,123.324 190.814 C 122.842 190.806,122.336 190.620,122.200 190.400 C 122.064 190.180,121.558 190.007,121.076 190.016 C 120.377 190.028,120.471 190.149,121.546 190.616 M126.800 192.165 C 126.800 192.426,132.072 194.061,132.271 193.863 C 132.368 193.765,131.275 193.306,129.841 192.842 C 127.120 191.964,126.800 191.892,126.800 192.165 M133.946 194.616 C 134.686 194.937,135.586 195.192,135.946 195.182 C 136.306 195.173,135.880 194.905,135.000 194.588 C 132.927 193.842,132.206 193.860,133.946 194.616 M168.600 194.400 C 168.464 194.620,167.958 194.806,167.476 194.814 C 166.387 194.832,164.260 195.965,165.276 195.986 C 165.648 195.994,166.064 195.820,166.200 195.600 C 166.336 195.380,166.776 195.200,167.178 195.200 C 168.325 195.200,170.828 194.035,169.724 194.016 C 169.242 194.007,168.736 194.180,168.600 194.400 M140.000 196.563 C 142.733 197.582,144.462 198.071,144.654 197.879 C 144.761 197.772,143.675 197.306,142.241 196.842 C 139.405 195.926,137.732 195.718,140.000 196.563 M161.600 196.625 C 160.830 196.916,160.494 197.165,160.854 197.177 C 161.214 197.190,162.114 196.937,162.854 196.616 C 164.520 195.892,163.516 195.900,161.600 196.625 M146.400 198.581 C 147.170 198.878,148.112 199.222,148.493 199.346 C 149.578 199.696,148.886 200.800,147.581 200.800 C 146.957 200.800,146.349 200.960,146.228 201.155 C 146.107 201.350,145.355 201.632,144.555 201.782 C 143.756 201.932,142.809 202.204,142.451 202.387 C 142.093 202.571,140.720 203.045,139.400 203.442 C 138.080 203.839,136.829 204.307,136.620 204.482 C 136.411 204.657,135.772 204.800,135.200 204.800 C 134.628 204.800,133.989 204.943,133.780 205.118 C 133.571 205.293,132.320 205.766,131.000 206.171 C 126.843 207.443,125.022 208.059,124.305 208.435 C 123.923 208.636,123.169 208.800,122.629 208.800 C 122.089 208.800,121.536 208.980,121.400 209.200 C 121.264 209.420,120.848 209.601,120.476 209.602 C 120.104 209.604,119.284 209.874,118.654 210.202 C 118.024 210.531,117.090 210.800,116.578 210.800 C 116.066 210.800,115.546 210.964,115.422 211.165 C 115.297 211.366,114.478 211.652,113.600 211.800 C 112.722 211.948,111.903 212.234,111.778 212.435 C 111.654 212.636,111.134 212.800,110.622 212.800 C 110.110 212.800,109.176 213.069,108.546 213.398 C 107.916 213.726,107.096 213.996,106.724 213.998 C 106.352 213.999,105.936 214.180,105.800 214.400 C 105.664 214.620,105.034 214.800,104.400 214.800 C 103.766 214.800,103.149 214.960,103.028 215.155 C 102.907 215.350,102.177 215.628,101.404 215.773 C 99.919 216.051,99.539 217.121,100.360 218.705 C 100.558 219.087,101.045 220.480,101.442 221.800 C 101.839 223.120,102.307 224.371,102.482 224.580 C 102.657 224.789,102.800 225.353,102.800 225.834 C 102.800 226.315,103.069 227.224,103.398 227.854 C 103.726 228.484,103.996 229.304,103.998 229.676 C 103.999 230.048,104.180 230.464,104.400 230.600 C 104.620 230.736,104.800 231.341,104.800 231.944 C 104.800 232.547,104.943 233.211,105.118 233.420 C 105.293 233.629,105.761 234.880,106.158 236.200 C 106.555 237.520,107.019 238.876,107.189 239.213 C 107.359 239.550,107.634 240.444,107.800 241.200 C 107.966 241.956,108.246 242.850,108.422 243.187 C 108.598 243.524,108.846 244.134,108.974 244.542 C 109.323 245.654,114.697 244.640,118.495 242.746 C 118.877 242.556,119.479 242.400,119.834 242.400 C 120.189 242.400,121.046 242.155,121.740 241.855 C 122.433 241.556,124.620 240.820,126.600 240.219 C 128.580 239.619,130.513 238.964,130.895 238.764 C 131.277 238.564,131.855 238.400,132.181 238.400 C 132.507 238.400,133.364 238.149,134.086 237.842 C 134.809 237.535,137.020 236.799,139.000 236.206 C 140.980 235.613,142.913 234.964,143.295 234.764 C 143.677 234.564,144.255 234.400,144.581 234.400 C 144.907 234.400,145.764 234.145,146.486 233.833 C 147.209 233.521,148.880 232.958,150.200 232.582 C 151.520 232.205,152.771 231.740,152.980 231.549 C 153.189 231.357,153.828 231.200,154.400 231.200 C 154.972 231.200,155.611 231.044,155.820 230.853 C 156.452 230.276,158.800 229.967,158.800 230.461 C 158.800 230.828,155.919 234.970,154.113 237.199 C 153.846 237.530,153.216 238.380,152.713 239.089 C 152.211 239.797,149.881 243.037,147.536 246.289 C 143.750 251.536,142.812 252.781,141.207 254.683 C 140.983 254.949,140.800 255.272,140.800 255.401 C 140.800 255.529,140.350 256.120,139.800 256.713 C 139.250 257.307,138.800 258.004,138.800 258.263 C 138.800 258.521,138.653 258.793,138.473 258.867 C 138.292 258.940,136.904 260.710,135.387 262.800 C 133.870 264.890,132.529 266.690,132.405 266.800 C 132.282 266.910,131.847 267.540,131.439 268.200 C 131.031 268.860,130.252 269.879,129.708 270.464 C 128.395 271.877,128.597 272.159,133.444 275.670 C 135.668 277.282,137.918 278.912,138.444 279.293 C 138.970 279.674,140.660 280.896,142.200 282.009 C 143.740 283.122,145.303 284.283,145.674 284.590 C 146.044 284.896,146.854 285.470,147.474 285.864 C 148.093 286.259,148.690 286.692,148.800 286.826 C 149.139 287.241,153.274 290.000,153.545 289.993 C 153.685 289.988,156.770 285.857,160.400 280.811 C 164.030 275.765,167.501 270.953,168.113 270.118 C 168.726 269.283,169.626 268.032,170.113 267.338 C 171.197 265.796,180.739 252.641,182.979 249.600 L 184.600 247.400 184.800 273.800 L 185.000 300.200 200.000 300.200 L 215.000 300.200 215.103 274.237 C 215.171 256.981,215.346 248.107,215.622 247.773 C 215.878 247.465,215.893 247.181,215.661 247.038 C 214.871 246.549,214.800 248.766,214.800 274.033 L 214.800 300.000 200.000 300.000 L 185.200 300.000 185.195 274.100 C 185.189 249.272,185.099 246.223,184.374 246.484 C 184.196 246.548,182.574 248.670,180.769 251.200 C 178.965 253.730,177.334 255.860,177.144 255.933 C 176.955 256.007,176.800 256.279,176.800 256.537 C 176.800 256.796,176.350 257.493,175.800 258.087 C 175.250 258.680,174.800 259.353,174.800 259.583 C 174.800 259.812,174.632 260.000,174.427 260.000 C 174.222 260.000,173.953 260.315,173.829 260.700 C 173.705 261.085,173.063 262.030,172.403 262.800 C 171.742 263.570,171.201 264.322,171.201 264.471 C 171.200 264.621,170.955 264.988,170.656 265.287 C 170.357 265.586,169.100 267.264,167.863 269.015 C 166.626 270.767,165.472 272.380,165.298 272.600 C 165.125 272.820,163.104 275.610,160.808 278.800 C 158.512 281.990,156.534 284.690,156.413 284.800 C 156.292 284.910,155.691 285.774,155.078 286.720 C 154.464 287.666,153.713 288.535,153.408 288.652 C 152.924 288.838,149.172 286.397,147.671 284.920 C 147.381 284.634,147.021 284.400,146.871 284.399 C 146.722 284.399,145.970 283.858,145.200 283.197 C 144.430 282.537,143.485 281.895,143.100 281.771 C 142.715 281.647,142.400 281.378,142.400 281.173 C 142.400 280.968,142.207 280.800,141.971 280.800 C 141.736 280.800,141.278 280.535,140.955 280.212 C 140.631 279.889,138.169 278.053,135.483 276.133 C 129.628 271.948,129.476 271.781,130.531 270.726 C 130.824 270.434,132.483 268.216,134.218 265.797 C 135.954 263.379,137.605 261.162,137.887 260.871 C 138.169 260.581,138.400 260.210,138.400 260.047 C 138.400 259.884,138.735 259.391,139.145 258.951 C 139.555 258.511,142.294 254.832,145.232 250.776 C 148.170 246.719,150.895 243.051,151.287 242.625 C 151.679 242.198,152.000 241.716,152.000 241.553 C 152.000 241.390,152.241 241.016,152.535 240.722 C 153.477 239.781,160.400 230.008,160.400 229.621 C 160.400 228.666,159.218 228.840,155.000 230.417 C 154.560 230.581,151.770 231.471,148.800 232.393 C 145.830 233.316,143.087 234.235,142.705 234.435 C 142.323 234.636,141.745 234.800,141.419 234.800 C 141.093 234.800,140.236 235.051,139.514 235.358 C 138.791 235.665,136.580 236.401,134.600 236.994 C 132.620 237.587,130.687 238.236,130.305 238.436 C 129.923 238.636,129.345 238.800,129.019 238.800 C 128.693 238.800,127.836 239.051,127.114 239.357 C 126.391 239.663,122.830 240.857,119.200 242.009 C 115.570 243.162,112.015 244.297,111.300 244.532 C 109.719 245.053,109.580 244.910,108.636 241.800 C 108.235 240.480,107.763 239.040,107.587 238.600 C 107.412 238.160,106.956 236.810,106.574 235.600 C 106.193 234.390,105.480 232.230,104.990 230.800 C 100.572 217.907,100.281 216.528,101.900 216.177 C 102.505 216.045,103.360 215.784,103.800 215.597 C 104.240 215.410,107.030 214.507,110.000 213.592 C 112.970 212.676,115.760 211.779,116.200 211.598 C 116.640 211.416,117.900 210.984,119.000 210.636 C 126.213 208.356,133.921 205.860,134.600 205.583 C 135.040 205.403,137.830 204.507,140.800 203.592 C 143.770 202.676,146.560 201.777,147.000 201.593 C 147.440 201.409,148.340 201.095,149.000 200.896 C 150.813 200.348,150.448 199.564,148.000 198.752 C 145.448 197.906,144.343 197.788,146.400 198.581 M154.600 198.783 C 151.603 199.806,152.029 200.357,157.000 201.888 C 159.420 202.633,161.760 203.394,162.200 203.578 C 162.640 203.763,164.620 204.413,166.600 205.023 C 173.601 207.181,174.525 207.522,174.813 208.058 C 175.003 208.410,173.016 211.474,169.144 216.800 C 161.017 227.980,159.897 229.850,161.943 228.824 C 162.304 228.642,165.030 227.733,168.000 226.802 C 170.970 225.871,173.760 224.965,174.200 224.788 C 174.640 224.611,175.360 224.377,175.800 224.268 C 176.240 224.158,177.230 223.846,178.000 223.574 C 180.169 222.809,180.905 222.552,182.200 222.109 C 182.860 221.883,183.715 221.567,184.100 221.406 C 184.758 221.132,184.800 221.853,184.800 233.357 C 184.800 245.461,184.918 246.485,186.108 244.700 C 186.438 244.205,187.089 243.367,187.554 242.839 C 188.019 242.310,188.400 241.770,188.400 241.639 C 188.401 241.507,188.806 240.927,189.300 240.348 C 189.795 239.769,192.270 236.400,194.800 232.860 C 197.330 229.320,199.670 226.424,200.000 226.423 C 200.496 226.423,204.077 231.053,208.713 237.692 C 209.216 238.411,209.847 239.270,210.116 239.600 C 210.384 239.930,211.491 241.412,212.575 242.894 C 213.659 244.376,214.648 245.486,214.773 245.361 C 215.120 245.015,215.443 220.799,215.100 220.800 C 214.935 220.800,214.800 226.236,214.800 232.880 L 214.800 244.960 212.925 242.380 C 211.894 240.961,210.814 239.562,210.525 239.271 C 210.236 238.981,210.000 238.621,209.999 238.471 C 209.999 238.322,209.459 237.570,208.800 236.800 C 208.141 236.030,207.601 235.293,207.601 235.161 C 207.600 235.030,207.223 234.490,206.763 233.961 C 206.303 233.433,204.745 231.335,203.301 229.300 C 200.028 224.689,199.970 224.690,196.624 229.409 C 195.139 231.505,193.671 233.472,193.362 233.781 C 193.053 234.090,192.800 234.493,192.800 234.676 C 192.800 234.858,192.350 235.493,191.800 236.087 C 191.250 236.680,190.800 237.276,190.800 237.411 C 190.800 237.546,190.575 237.908,190.300 238.215 C 189.224 239.415,188.800 239.976,188.800 240.201 C 188.800 240.329,188.350 240.920,187.800 241.513 C 187.250 242.107,186.800 242.736,186.800 242.913 C 186.800 243.089,186.440 243.620,186.000 244.092 L 185.200 244.951 185.200 232.942 C 185.200 226.337,185.101 220.834,184.980 220.713 C 184.738 220.472,182.973 220.856,180.800 221.625 C 180.030 221.897,179.040 222.246,178.600 222.400 C 178.160 222.554,177.170 222.903,176.400 223.174 C 175.630 223.446,174.640 223.758,174.200 223.868 C 173.760 223.977,173.040 224.205,172.600 224.374 C 170.287 225.261,168.890 225.711,167.895 225.892 C 167.287 226.002,166.692 226.251,166.571 226.446 C 166.451 226.641,165.994 226.800,165.557 226.800 C 165.119 226.800,164.229 227.075,163.580 227.410 C 161.707 228.379,162.101 227.429,165.411 223.002 C 167.055 220.803,168.400 218.913,168.400 218.802 C 168.401 218.691,168.851 218.077,169.400 217.438 C 169.950 216.799,170.400 216.158,170.400 216.013 C 170.400 215.869,170.726 215.401,171.124 214.974 C 174.646 211.193,176.532 207.438,175.109 207.039 C 172.396 206.277,169.730 205.377,169.420 205.118 C 169.211 204.943,168.547 204.800,167.944 204.800 C 167.341 204.800,166.746 204.636,166.622 204.435 C 166.497 204.234,165.678 203.948,164.800 203.800 C 163.922 203.652,163.103 203.366,162.978 203.165 C 162.854 202.964,162.253 202.800,161.643 202.800 C 161.033 202.800,160.417 202.684,160.275 202.541 C 159.841 202.107,155.858 200.827,154.900 200.813 C 154.405 200.806,154.000 200.620,154.000 200.400 C 154.000 200.180,153.990 199.876,153.978 199.726 C 153.965 199.575,154.910 199.143,156.078 198.767 C 157.245 198.390,157.840 198.086,157.400 198.091 C 156.960 198.096,155.700 198.407,154.600 198.783 M243.400 201.414 C 242.442 201.853,242.365 201.968,243.020 201.982 C 243.471 201.992,244.011 201.837,244.220 201.639 C 244.429 201.440,244.960 201.191,245.400 201.085 L 246.200 200.893 245.400 200.879 C 244.960 200.871,244.060 201.112,243.400 201.414 M251.800 201.085 C 252.240 201.191,252.771 201.440,252.980 201.639 C 253.189 201.837,253.729 201.993,254.180 201.984 C 254.781 201.973,254.641 201.813,253.654 201.384 C 252.914 201.063,252.014 200.821,251.654 200.846 C 251.194 200.879,251.237 200.950,251.800 201.085 M239.800 202.496 C 236.967 203.468,236.385 203.718,236.557 203.891 C 236.724 204.058,241.579 202.494,241.967 202.149 C 242.270 201.878,241.019 202.079,239.800 202.496 M255.200 202.165 C 255.200 202.416,260.468 204.065,260.659 203.874 C 260.826 203.707,259.848 203.310,257.172 202.456 C 255.643 201.968,255.200 201.903,255.200 202.165 M261.800 204.400 C 262.901 204.873,263.292 204.873,263.000 204.400 C 262.864 204.180,262.358 204.013,261.876 204.028 C 261.031 204.055,261.029 204.069,261.800 204.400 M231.000 205.386 C 229.400 206.118,230.192 206.135,232.200 205.412 C 233.080 205.095,233.440 204.835,233.000 204.836 C 232.560 204.836,231.660 205.083,231.000 205.386 M264.200 205.085 C 264.640 205.191,265.171 205.440,265.380 205.639 C 265.589 205.837,266.129 205.993,266.580 205.984 C 267.181 205.973,267.041 205.813,266.054 205.384 C 265.314 205.063,264.414 204.821,264.054 204.846 C 263.594 204.879,263.637 204.950,264.200 205.085 M227.800 206.400 C 227.508 206.873,227.899 206.873,229.000 206.400 C 229.771 206.069,229.769 206.055,228.924 206.028 C 228.442 206.013,227.936 206.180,227.800 206.400 M267.600 206.165 C 267.600 206.400,272.862 208.072,273.039 207.894 C 273.179 207.755,268.369 206.000,267.847 206.000 C 267.711 206.000,267.600 206.074,267.600 206.165 M225.029 207.429 C 224.205 208.252,225.388 211.188,226.547 211.197 C 226.739 211.199,226.432 210.593,225.866 209.851 C 224.744 208.380,224.989 207.457,226.600 207.080 C 227.342 206.906,227.337 206.889,226.529 206.846 C 226.049 206.821,225.374 207.083,225.029 207.429 M274.200 208.400 C 275.301 208.873,275.692 208.873,275.400 208.400 C 275.264 208.180,274.758 208.013,274.276 208.028 C 273.431 208.055,273.429 208.069,274.200 208.400 M277.146 209.416 C 277.886 209.737,278.696 209.994,278.946 209.986 C 279.736 209.961,277.437 208.828,276.600 208.830 C 276.048 208.831,276.217 209.012,277.146 209.416 M283.400 211.412 C 285.473 212.158,286.194 212.140,284.454 211.384 C 283.714 211.063,282.814 210.808,282.454 210.818 C 282.094 210.827,282.520 211.095,283.400 211.412 M226.828 211.800 C 226.826 212.308,228.362 214.171,228.592 213.941 C 228.687 213.846,228.329 213.236,227.797 212.584 C 227.264 211.933,226.828 211.580,226.828 211.800 M286.033 212.149 C 286.421 212.494,291.276 214.058,291.443 213.891 C 291.625 213.709,290.699 213.326,287.972 212.456 C 286.542 212.000,285.720 211.869,286.033 212.149 M292.600 214.400 C 293.701 214.873,294.092 214.873,293.800 214.400 C 293.664 214.180,293.158 214.013,292.676 214.028 C 291.831 214.055,291.829 214.069,292.600 214.400 M229.519 215.597 C 229.893 216.256,230.335 216.796,230.500 216.797 C 230.665 216.799,230.800 217.070,230.800 217.400 C 230.800 217.730,230.935 218.008,231.100 218.017 C 231.265 218.026,232.210 219.201,233.200 220.628 C 234.190 222.055,235.675 224.135,236.499 225.250 C 237.324 226.366,237.898 227.441,237.776 227.639 C 237.653 227.838,237.763 228.000,238.019 228.000 C 238.785 228.000,238.221 227.058,233.576 220.584 C 229.221 214.515,228.162 213.213,229.519 215.597 M295.000 215.085 C 295.440 215.191,295.971 215.440,296.180 215.639 C 296.389 215.837,296.929 215.993,297.380 215.984 C 297.981 215.973,297.841 215.813,296.854 215.384 C 296.114 215.063,295.214 214.821,294.854 214.846 C 294.394 214.879,294.437 214.950,295.000 215.085 M298.700 216.265 C 298.975 216.376,299.200 216.938,299.200 217.513 C 299.200 218.274,299.320 218.440,299.640 218.120 C 300.250 217.510,299.693 215.993,298.873 216.032 C 298.457 216.051,298.391 216.140,298.700 216.265 M298.500 220.070 C 297.802 222.005,297.903 222.896,298.630 221.221 C 298.959 220.462,299.177 219.581,299.114 219.262 C 299.051 218.944,298.775 219.307,298.500 220.070 M217.146 221.416 C 218.906 222.180,219.728 222.166,218.254 221.398 C 217.624 221.069,216.814 220.807,216.454 220.816 C 216.094 220.824,216.406 221.094,217.146 221.416 M222.600 223.085 C 223.040 223.191,223.571 223.440,223.780 223.639 C 223.989 223.837,224.439 223.994,224.780 223.986 C 225.173 223.977,225.035 223.763,224.400 223.400 C 223.850 223.086,223.040 222.843,222.600 222.861 L 221.800 222.893 222.600 223.085 M228.600 225.085 C 229.040 225.191,229.571 225.440,229.780 225.639 C 229.989 225.837,230.439 225.994,230.780 225.986 C 231.173 225.977,231.035 225.763,230.400 225.400 C 229.850 225.086,229.040 224.843,228.600 224.861 L 227.800 224.893 228.600 225.085 M296.846 225.476 C 296.821 225.958,296.620 226.464,296.400 226.600 C 296.180 226.736,296.007 227.242,296.016 227.724 C 296.028 228.414,296.158 228.307,296.630 227.221 C 296.959 226.462,297.153 225.562,297.060 225.221 C 296.956 224.836,296.875 224.933,296.846 225.476 M235.400 227.412 C 237.404 228.134,237.678 228.130,236.400 227.400 C 235.850 227.086,235.040 226.830,234.600 226.832 C 234.160 226.834,234.520 227.095,235.400 227.412 M240.207 229.188 C 239.957 229.593,241.256 231.994,241.727 231.997 C 241.907 231.999,241.682 231.477,241.227 230.838 C 240.183 229.372,240.182 229.055,241.222 229.612 C 241.674 229.854,242.255 229.982,242.511 229.896 C 242.768 229.811,242.402 229.540,241.698 229.294 C 240.994 229.049,240.323 229.001,240.207 229.188 M294.842 231.359 C 293.888 234.315,293.764 235.175,294.549 233.400 C 295.394 231.489,296.091 229.157,295.879 228.946 C 295.772 228.839,295.306 229.925,294.842 231.359 M245.800 231.019 C 247.340 231.545,248.780 231.921,249.000 231.854 C 249.470 231.712,244.274 229.985,243.516 230.032 C 243.232 230.049,244.260 230.494,245.800 231.019 M249.633 232.149 C 250.036 232.508,254.879 234.054,255.054 233.879 C 255.161 233.772,254.075 233.306,252.641 232.842 C 250.125 232.030,249.282 231.835,249.633 232.149 M243.605 234.632 C 244.516 235.970,245.710 237.590,246.257 238.232 C 246.804 238.875,246.506 238.305,245.595 236.968 C 244.684 235.630,243.490 234.010,242.943 233.368 C 242.396 232.725,242.694 233.295,243.605 234.632 M256.400 234.471 C 256.950 234.701,257.940 235.029,258.600 235.199 C 259.260 235.369,260.160 235.647,260.600 235.818 C 261.040 235.988,261.288 236.002,261.151 235.848 C 260.785 235.438,256.714 233.996,256.006 234.025 C 255.673 234.039,255.850 234.240,256.400 234.471 M293.400 235.600 C 293.250 236.073,293.217 236.550,293.327 236.660 C 293.437 236.770,293.650 236.473,293.800 236.000 C 293.950 235.527,293.983 235.050,293.873 234.940 C 293.763 234.830,293.550 235.127,293.400 235.600 M262.033 236.149 C 262.436 236.508,267.279 238.054,267.454 237.879 C 267.561 237.772,266.475 237.306,265.041 236.842 C 262.525 236.030,261.682 235.835,262.033 236.149 M292.500 238.470 C 291.816 240.366,291.876 240.848,292.617 239.425 C 292.954 238.779,293.178 237.988,293.115 237.667 C 293.052 237.346,292.775 237.707,292.500 238.470 M269.146 238.616 C 269.886 238.937,270.821 239.200,271.222 239.200 C 271.624 239.200,272.064 239.380,272.200 239.600 C 272.336 239.820,272.752 239.994,273.124 239.986 C 274.140 239.965,272.013 238.832,270.924 238.814 C 270.442 238.806,269.936 238.620,269.800 238.400 C 269.664 238.180,269.158 238.007,268.676 238.016 C 267.977 238.028,268.071 238.149,269.146 238.616 M276.600 241.019 C 278.140 241.545,279.580 241.921,279.800 241.854 C 280.270 241.712,275.074 239.985,274.316 240.032 C 274.032 240.049,275.060 240.494,276.600 241.019 M249.164 242.200 C 249.858 243.557,250.387 244.222,250.394 243.744 C 250.397 243.494,250.030 242.864,249.577 242.344 C 248.931 241.602,248.842 241.571,249.164 242.200 M281.579 242.630 C 282.338 242.959,283.238 243.153,283.579 243.060 C 283.964 242.956,283.867 242.875,283.324 242.846 C 282.842 242.821,282.336 242.620,282.200 242.400 C 282.064 242.180,281.558 242.007,281.076 242.016 C 280.386 242.028,280.493 242.158,281.579 242.630 M290.694 243.962 C 290.501 244.702,290.251 244.856,289.524 244.684 C 289.016 244.563,288.150 244.358,287.600 244.228 C 286.751 244.027,286.782 244.080,287.800 244.578 C 289.996 245.651,291.642 245.126,291.108 243.524 C 291.016 243.247,290.829 243.444,290.694 243.962 M250.800 244.180 C 250.800 244.563,253.589 248.400,253.868 248.400 C 254.021 248.400,252.465 246.090,250.925 244.033 C 250.856 243.942,250.800 244.008,250.800 244.180 M216.800 249.200 C 217.270 249.860,217.744 250.400,217.854 250.400 C 217.964 250.400,217.670 249.860,217.200 249.200 C 216.730 248.540,216.256 248.000,216.146 248.000 C 216.036 248.000,216.330 248.540,216.800 249.200 M219.453 252.900 C 220.289 254.055,221.076 255.090,221.202 255.200 C 221.328 255.310,221.826 256.030,222.309 256.800 C 222.791 257.570,223.190 257.996,223.193 257.748 C 223.201 257.257,218.516 250.800,218.153 250.800 C 218.031 250.800,218.616 251.745,219.453 252.900 M257.988 254.323 C 258.482 255.051,258.976 255.557,259.084 255.449 C 259.192 255.341,258.788 254.746,258.184 254.126 L 257.088 253.000 257.988 254.323 M260.016 257.223 C 260.495 257.896,260.975 258.358,261.083 258.250 C 261.331 258.002,259.911 256.029,259.473 256.013 C 259.293 256.006,259.537 256.550,260.016 257.223 M223.600 258.180 C 223.600 258.563,226.389 262.400,226.668 262.400 C 226.821 262.400,225.265 260.090,223.725 258.033 C 223.656 257.942,223.600 258.008,223.600 258.180 M262.719 260.797 C 263.093 261.456,263.547 261.996,263.727 261.997 C 263.907 261.999,263.670 261.460,263.200 260.800 C 262.102 259.258,261.842 259.257,262.719 260.797 M265.216 264.163 C 265.968 265.209,266.756 266.173,266.967 266.303 C 267.178 266.433,266.735 265.684,265.984 264.637 C 265.232 263.591,264.444 262.627,264.233 262.497 C 264.022 262.367,264.465 263.116,265.216 264.163 M227.600 264.000 C 228.070 264.660,228.544 265.200,228.654 265.200 C 228.764 265.200,228.470 264.660,228.000 264.000 C 227.530 263.340,227.056 262.800,226.946 262.800 C 226.836 262.800,227.130 263.340,227.600 264.000 M268.000 268.000 C 268.470 268.660,268.944 269.200,269.054 269.200 C 269.164 269.200,268.870 268.660,268.400 268.000 C 267.930 267.340,267.456 266.800,267.346 266.800 C 267.236 266.800,267.530 267.340,268.000 268.000 M230.800 268.400 C 231.270 269.060,231.744 269.600,231.854 269.600 C 231.964 269.600,231.670 269.060,231.200 268.400 C 230.730 267.740,230.256 267.200,230.146 267.200 C 230.036 267.200,230.330 267.740,230.800 268.400 M269.866 270.675 C 270.579 271.938,270.576 271.961,269.593 273.043 L 268.600 274.136 269.683 273.368 C 271.257 272.252,271.371 271.587,270.189 270.425 L 269.146 269.400 269.866 270.675 M232.800 271.200 C 233.270 271.860,233.744 272.400,233.854 272.400 C 233.964 272.400,233.670 271.860,233.200 271.200 C 232.730 270.540,232.256 270.000,232.146 270.000 C 232.036 270.000,232.330 270.540,232.800 271.200 M234.800 274.000 C 235.270 274.660,235.744 275.200,235.854 275.200 C 235.964 275.200,235.670 274.660,235.200 274.000 C 234.730 273.340,234.256 272.800,234.146 272.800 C 234.036 272.800,234.330 273.340,234.800 274.000 M267.000 275.035 L 265.800 276.066 267.100 275.206 C 267.815 274.733,268.400 274.268,268.400 274.173 C 268.400 273.873,268.231 273.978,267.000 275.035 M236.286 276.000 C 236.805 276.773,242.068 284.147,242.257 284.367 C 242.336 284.458,242.483 284.451,242.584 284.349 C 242.685 284.248,242.325 283.650,241.784 283.021 C 241.243 282.391,240.800 281.769,240.799 281.638 C 240.799 281.507,240.259 280.770,239.600 280.000 C 238.941 279.230,238.401 278.489,238.401 278.354 C 238.400 278.219,237.834 277.499,237.141 276.754 C 236.449 276.009,236.064 275.670,236.286 276.000 M259.637 280.217 C 256.467 282.518,254.037 284.399,254.237 284.398 C 254.437 284.397,255.500 283.718,256.600 282.889 C 257.700 282.060,260.175 280.248,262.100 278.864 C 265.063 276.732,266.022 275.929,265.500 276.017 C 265.445 276.026,262.807 277.916,259.637 280.217 M243.464 286.000 C 243.854 286.660,244.326 287.200,244.513 287.200 C 244.701 287.200,244.470 286.660,244.000 286.000 C 243.530 285.340,243.058 284.800,242.950 284.800 C 242.843 284.800,243.074 285.340,243.464 286.000 M251.700 285.974 C 250.809 286.619,249.934 287.384,249.755 287.674 C 249.576 287.963,249.963 287.787,250.615 287.283 C 251.267 286.778,252.250 286.019,252.800 285.596 C 254.396 284.368,253.484 284.681,251.700 285.974 M245.591 288.697 C 246.476 290.033,248.096 289.863,249.041 288.334 C 249.201 288.074,248.903 288.163,248.377 288.531 C 247.101 289.425,246.483 289.375,245.529 288.300 C 244.837 287.519,244.845 287.572,245.591 288.697 " stroke="none" fill="#5d1745" fill-rule="evenodd"></path></g></svg>