<svg id="svg" version="1.1" xmlns="http://www.w3.org/2000/svg" xmlns:xlink="http://www.w3.org/1999/xlink" width="400" height="154.71698113207546" viewBox="0, 0, 400,154.71698113207546"><g id="svgg"><path id="path0" d="M69.852 15.844 C 69.450 15.925,69.102 16.011,69.080 16.037 C 68.961 16.175,69.322 44.872,69.452 45.515 C 69.597 46.237,70.069 47.087,70.655 47.683 C 71.445 48.487,71.958 49.151,72.221 49.708 C 72.382 50.051,72.774 50.583,73.091 50.891 C 73.408 51.199,73.667 51.544,73.667 51.658 C 73.667 51.924,74.124 52.558,74.982 53.484 C 75.356 53.887,75.841 54.576,76.059 55.014 C 76.417 55.731,76.488 55.791,76.770 55.603 C 76.942 55.489,77.398 55.304,77.783 55.193 C 78.474 54.994,79.007 54.459,79.229 53.741 C 79.287 53.553,79.601 53.140,79.926 52.824 C 80.252 52.509,80.654 51.950,80.820 51.583 C 80.987 51.217,81.426 50.586,81.797 50.182 C 82.168 49.778,82.572 49.253,82.694 49.016 C 82.817 48.778,82.974 48.508,83.043 48.417 C 83.113 48.325,83.325 48.044,83.514 47.792 C 83.703 47.540,83.963 47.333,84.091 47.333 C 84.953 47.333,85.013 46.355,84.993 32.667 C 84.974 19.830,84.876 16.309,84.528 15.961 C 84.275 15.708,71.058 15.603,69.852 15.844 M181.833 43.637 C 181.696 43.699,181.415 43.862,181.208 43.998 L 180.833 44.247 180.833 64.082 C 180.833 85.215,180.879 83.812,180.086 87.167 C 179.534 89.499,179.152 90.114,177.758 90.914 C 177.303 91.174,176.680 91.616,176.372 91.896 C 175.740 92.472,174.981 92.833,174.406 92.833 C 174.192 92.833,173.650 92.912,173.202 93.008 L 172.388 93.183 172.194 94.235 C 171.804 96.354,172.013 99.910,172.581 100.830 C 172.633 100.914,173.040 100.799,173.487 100.574 C 173.933 100.350,174.475 100.167,174.691 100.168 C 175.015 100.169,176.692 99.901,178.445 99.569 C 178.645 99.531,179.020 99.289,179.279 99.031 C 179.538 98.772,180.275 98.253,180.917 97.876 C 181.558 97.500,182.233 96.985,182.417 96.732 C 182.600 96.479,183.144 95.867,183.625 95.371 C 184.106 94.876,184.500 94.365,184.500 94.235 C 184.500 94.106,184.575 94.000,184.667 94.000 C 184.758 94.000,184.833 93.881,184.833 93.736 C 184.833 93.591,185.207 93.097,185.665 92.637 C 186.230 92.068,186.551 91.580,186.669 91.109 C 186.918 90.113,187.464 88.409,187.763 87.696 C 188.475 85.999,188.494 85.404,188.497 64.323 C 188.500 44.330,188.498 44.228,188.160 43.865 C 187.815 43.494,182.565 43.305,181.833 43.637 M215.126 43.651 C 213.699 43.947,213.833 41.820,213.833 64.183 L 213.833 83.980 214.251 85.198 C 214.481 85.868,214.751 86.642,214.851 86.917 C 214.952 87.192,215.095 87.942,215.170 88.583 C 215.421 90.740,215.838 91.964,216.504 92.500 C 216.561 92.546,216.844 93.071,217.134 93.667 C 217.718 94.870,218.203 95.476,218.846 95.806 C 219.083 95.927,219.790 96.470,220.418 97.013 C 221.046 97.556,221.657 98.000,221.776 98.000 C 222.093 98.000,222.990 98.578,223.251 98.950 C 223.375 99.127,223.800 99.372,224.196 99.493 C 224.593 99.615,225.238 99.816,225.631 99.941 C 226.024 100.065,226.550 100.167,226.800 100.167 C 227.050 100.167,227.666 100.322,228.169 100.513 C 229.094 100.863,231.357 100.973,231.745 100.687 C 232.024 100.481,233.183 100.190,234.163 100.080 C 234.665 100.024,235.377 99.910,235.746 99.825 C 236.115 99.741,236.617 99.633,236.862 99.586 C 237.107 99.539,237.520 99.289,237.779 99.031 C 238.038 98.772,238.775 98.253,239.417 97.876 C 240.058 97.500,240.733 96.985,240.917 96.732 C 241.100 96.479,241.644 95.867,242.125 95.371 C 242.606 94.876,243.000 94.365,243.000 94.235 C 243.000 94.106,243.075 94.000,243.167 94.000 C 243.258 94.000,243.333 93.883,243.333 93.739 C 243.333 93.596,243.710 93.089,244.171 92.614 C 244.723 92.045,245.065 91.523,245.173 91.083 C 245.262 90.717,245.566 89.742,245.846 88.917 C 247.032 85.430,247.000 85.925,247.000 71.042 C 247.000 56.647,247.012 56.420,247.847 55.524 C 248.033 55.324,248.501 54.700,248.885 54.138 C 249.409 53.372,249.814 52.993,250.501 52.628 C 251.005 52.359,251.679 51.966,252.000 51.754 C 253.794 50.570,257.296 50.574,258.667 51.762 C 258.896 51.960,259.458 52.259,259.917 52.426 C 260.520 52.645,261.076 53.060,261.929 53.926 C 264.365 56.399,264.325 56.092,264.330 72.372 C 264.334 87.322,264.378 87.941,265.622 90.541 C 265.830 90.976,266.000 91.400,266.000 91.483 C 266.000 91.818,266.784 93.096,267.333 93.655 C 267.883 94.216,268.178 94.694,268.398 95.379 C 268.450 95.542,268.816 95.814,269.210 95.983 C 269.604 96.152,270.201 96.557,270.537 96.883 C 270.873 97.208,271.421 97.605,271.755 97.764 C 272.090 97.923,272.766 98.420,273.258 98.870 C 274.102 99.641,274.234 99.701,275.618 99.933 C 277.684 100.281,278.889 100.537,279.083 100.670 C 279.736 101.119,280.320 101.132,281.692 100.727 C 282.457 100.501,283.736 100.207,284.535 100.075 C 286.620 99.729,287.489 99.394,288.234 98.650 C 288.592 98.293,289.015 98.000,289.174 98.000 C 289.853 98.000,292.498 95.727,292.502 95.139 C 292.502 95.017,292.741 94.729,293.031 94.500 C 293.846 93.857,293.992 93.678,294.097 93.197 C 294.223 92.620,294.705 91.667,294.871 91.667 C 294.942 91.667,295.000 91.554,295.000 91.417 C 295.000 91.279,295.064 91.167,295.141 91.167 C 295.405 91.167,295.819 89.923,296.002 88.583 C 296.103 87.850,296.272 86.800,296.378 86.250 C 296.517 85.534,296.587 79.455,296.624 64.825 L 296.677 44.401 296.242 43.992 C 295.590 43.379,289.907 43.257,289.359 43.844 C 289.021 44.207,289.019 44.340,288.968 65.813 L 288.917 87.417 288.511 88.125 C 288.288 88.515,288.034 88.833,287.946 88.833 C 287.728 88.833,287.345 89.360,287.339 89.668 C 287.333 89.955,286.569 90.833,286.326 90.833 C 286.237 90.833,285.809 91.196,285.374 91.640 C 284.276 92.761,283.737 92.910,280.750 92.913 C 277.514 92.918,276.501 92.689,275.781 91.794 C 275.496 91.439,274.975 90.987,274.624 90.789 C 274.209 90.556,273.802 90.111,273.467 89.525 C 273.182 89.027,272.748 88.387,272.502 88.102 C 271.758 87.240,271.667 85.464,271.656 71.583 C 271.644 56.671,271.545 55.302,270.343 53.417 C 270.168 53.142,270.019 52.767,270.011 52.583 C 269.997 52.197,269.284 51.104,268.637 50.473 C 268.391 50.234,268.106 49.711,268.004 49.311 C 267.672 48.015,267.489 47.702,266.944 47.497 C 265.967 47.131,265.584 46.918,265.358 46.614 C 265.234 46.448,264.972 46.242,264.775 46.157 C 264.578 46.071,264.304 45.937,264.167 45.860 C 263.461 45.461,263.143 45.333,262.856 45.333 C 262.683 45.333,262.115 45.145,261.593 44.914 C 257.816 43.243,253.002 43.183,249.750 44.766 C 249.108 45.078,248.489 45.334,248.373 45.333 C 248.081 45.333,247.548 45.664,246.936 46.226 C 246.137 46.959,245.463 47.332,244.939 47.333 C 244.466 47.333,243.333 48.328,243.333 48.743 C 243.333 48.841,243.137 49.070,242.896 49.252 C 242.655 49.434,242.410 49.621,242.350 49.667 C 242.290 49.712,242.095 50.087,241.917 50.500 C 241.738 50.913,241.385 51.587,241.133 52.000 C 240.285 53.382,240.198 53.677,239.832 56.417 C 239.733 57.150,239.581 58.112,239.493 58.554 C 239.400 59.024,239.334 64.462,239.336 71.638 L 239.338 83.917 238.911 85.750 C 238.005 89.643,237.809 90.024,236.258 90.914 C 235.803 91.174,235.180 91.616,234.872 91.896 C 233.881 92.799,233.508 92.882,230.417 92.898 C 226.285 92.918,225.171 92.426,224.065 90.091 C 223.825 89.583,223.538 89.167,223.428 89.167 C 223.318 89.167,223.059 88.865,222.852 88.497 C 222.044 87.060,222.003 85.882,222.001 64.213 L 222.000 44.175 221.458 43.885 C 220.859 43.565,216.347 43.398,215.126 43.651 M315.723 43.665 C 314.689 44.087,314.667 44.162,314.667 47.248 L 314.667 50.088 315.334 50.377 C 315.936 50.638,316.751 50.667,323.517 50.667 C 331.642 50.667,332.348 50.732,333.256 51.574 L 333.667 51.955 333.667 75.874 C 333.667 101.888,333.624 100.699,334.580 101.135 C 335.185 101.411,340.524 101.409,340.800 101.133 C 340.954 100.980,341.000 95.244,341.000 76.332 C 341.000 56.902,341.044 51.675,341.208 51.467 C 341.809 50.708,342.126 50.680,350.750 50.630 C 357.409 50.592,359.002 50.540,359.379 50.347 L 359.841 50.110 359.795 47.198 L 359.750 44.286 359.279 43.934 L 358.809 43.583 337.446 43.550 C 325.368 43.532,315.927 43.581,315.723 43.665 M75.932 88.067 C 75.683 88.576,75.221 89.236,74.906 89.533 C 74.591 89.830,74.333 90.169,74.333 90.287 C 74.333 90.404,74.267 90.500,74.187 90.500 C 74.106 90.500,73.953 90.712,73.845 90.971 C 73.738 91.230,73.349 91.737,72.982 92.096 C 72.614 92.456,72.204 92.975,72.071 93.250 C 71.698 94.019,71.468 94.335,70.802 94.997 C 70.464 95.332,70.135 95.827,70.071 96.095 C 70.007 96.364,69.888 96.668,69.806 96.772 C 69.210 97.534,69.167 98.573,69.167 112.247 C 69.167 121.114,69.225 125.799,69.340 126.101 C 69.684 127.006,69.533 126.989,77.189 126.995 L 84.295 127.000 84.606 126.542 C 84.949 126.035,85.267 97.498,84.938 96.750 C 84.857 96.567,84.403 96.042,83.928 95.583 C 83.118 94.801,82.500 93.864,82.500 93.419 C 82.500 93.311,82.321 93.127,82.101 93.010 C 81.882 92.892,81.495 92.387,81.243 91.888 C 80.990 91.388,80.437 90.620,80.014 90.181 C 79.591 89.742,79.061 89.026,78.836 88.589 C 78.612 88.152,78.350 87.778,78.256 87.756 C 78.161 87.735,77.821 87.624,77.500 87.511 C 77.179 87.398,76.797 87.268,76.651 87.223 C 76.459 87.164,76.258 87.400,75.932 88.067 " stroke="none" fill="#efefef" fill-rule="evenodd"></path><path id="path1" d="M49.060 22.507 C 48.523 22.859,47.816 23.395,47.489 23.698 C 47.162 24.002,46.600 24.398,46.239 24.579 C 45.878 24.760,45.219 25.229,44.774 25.621 C 44.328 26.013,43.884 26.333,43.787 26.333 C 43.689 26.333,43.191 26.695,42.680 27.138 C 42.168 27.581,41.331 28.209,40.818 28.535 C 40.306 28.862,39.691 29.324,39.451 29.564 C 39.211 29.804,38.922 30.000,38.808 30.000 C 38.466 30.000,37.667 30.871,37.667 31.244 C 37.667 31.629,37.942 32.080,38.788 33.083 C 39.574 34.016,39.667 34.139,39.667 34.254 C 39.667 34.422,40.561 35.567,40.875 35.801 C 41.036 35.921,41.325 36.367,41.519 36.792 C 41.713 37.217,42.106 37.795,42.394 38.078 C 42.681 38.360,43.029 38.814,43.167 39.087 C 43.490 39.729,43.526 39.779,44.299 40.667 C 44.659 41.079,45.162 41.754,45.417 42.167 C 45.673 42.579,46.091 43.157,46.347 43.452 C 46.602 43.746,46.941 44.261,47.100 44.596 C 47.260 44.931,47.625 45.440,47.912 45.728 C 48.199 46.015,48.691 46.663,49.005 47.167 C 49.319 47.671,49.827 48.331,50.133 48.634 C 50.440 48.937,50.793 49.429,50.918 49.728 C 51.043 50.026,51.453 50.641,51.830 51.094 C 52.206 51.546,52.657 52.235,52.831 52.625 C 53.005 53.015,53.209 53.333,53.284 53.333 C 53.359 53.333,53.512 53.482,53.626 53.663 C 54.033 54.315,51.726 54.877,50.728 54.369 C 49.195 53.589,48.626 53.354,47.833 53.175 C 45.586 52.667,44.848 52.443,43.833 51.960 C 42.792 51.465,42.306 51.318,40.667 51.008 C 39.879 50.858,39.449 50.703,38.083 50.077 C 36.993 49.577,36.356 49.385,34.785 49.080 C 34.071 48.941,33.358 48.763,33.201 48.685 C 33.045 48.606,32.596 48.377,32.205 48.175 C 31.361 47.740,30.836 47.578,29.167 47.237 C 28.479 47.097,27.792 46.946,27.639 46.901 C 27.238 46.784,26.279 47.691,25.914 48.533 C 25.744 48.928,25.519 49.362,25.415 49.500 C 25.196 49.790,24.976 50.550,24.570 52.417 C 24.411 53.150,24.040 54.275,23.745 54.917 C 23.203 56.098,23.100 56.431,22.579 58.658 C 22.420 59.340,22.110 60.235,21.892 60.646 C 21.583 61.227,21.542 61.426,21.706 61.538 C 22.217 61.887,26.345 63.833,26.574 63.833 C 27.333 63.833,29.857 64.579,30.667 65.042 C 31.335 65.425,31.966 65.646,32.917 65.829 C 34.259 66.089,35.607 66.510,36.583 66.975 C 37.743 67.528,38.637 67.833,39.100 67.833 C 39.587 67.833,41.903 68.620,42.710 69.060 C 43.099 69.272,43.979 69.545,44.667 69.666 C 45.354 69.788,46.649 70.175,47.545 70.527 C 49.680 71.366,50.285 71.362,52.396 70.500 C 53.294 70.133,54.171 69.833,54.345 69.833 C 54.964 69.833,56.266 69.441,57.417 68.909 C 58.604 68.359,59.625 68.039,61.417 67.653 C 61.967 67.535,62.582 67.333,62.785 67.204 L 63.152 66.971 62.769 66.610 C 62.559 66.412,62.250 65.889,62.084 65.449 C 61.917 65.008,61.545 64.408,61.257 64.115 C 60.969 63.823,60.611 63.321,60.461 63.000 C 60.311 62.679,59.853 62.058,59.444 61.619 C 59.034 61.181,58.584 60.579,58.443 60.281 C 58.301 59.983,57.844 59.378,57.426 58.936 C 56.542 58.000,56.396 57.413,56.918 56.892 C 57.395 56.415,60.126 56.803,61.333 57.520 C 61.471 57.602,61.696 57.713,61.833 57.766 C 61.971 57.820,62.233 57.922,62.417 57.994 C 63.096 58.261,64.623 58.667,64.947 58.667 C 65.131 58.667,65.718 58.811,66.252 58.987 C 68.696 59.793,68.828 59.464,68.831 52.531 C 68.833 48.806,68.894 46.865,69.017 46.635 C 69.118 46.446,69.137 46.244,69.059 46.187 C 68.903 46.074,68.489 45.233,68.160 44.365 C 68.045 44.061,67.696 43.618,67.384 43.380 C 67.072 43.143,66.617 42.603,66.372 42.182 C 66.128 41.761,65.712 41.192,65.448 40.917 C 65.183 40.642,64.624 39.892,64.203 39.250 C 63.783 38.608,63.269 37.933,63.061 37.750 C 62.853 37.567,62.570 37.154,62.433 36.833 C 62.296 36.512,61.952 35.987,61.668 35.667 C 61.384 35.346,60.821 34.596,60.418 34.000 C 60.015 33.404,59.466 32.714,59.199 32.466 C 58.932 32.219,58.612 31.769,58.488 31.466 C 58.364 31.164,58.008 30.640,57.697 30.301 C 57.386 29.963,56.953 29.333,56.734 28.902 C 56.516 28.470,56.192 28.015,56.014 27.891 C 55.836 27.767,55.336 27.131,54.902 26.477 C 54.468 25.824,53.879 25.056,53.593 24.770 C 53.308 24.484,52.979 24.025,52.862 23.750 C 52.543 22.995,52.071 22.498,51.507 22.324 C 51.228 22.237,50.783 22.099,50.518 22.017 C 50.105 21.888,49.897 21.959,49.060 22.507 M103.583 71.943 C 102.766 72.042,101.813 72.348,100.750 72.853 C 100.200 73.114,99.337 73.413,98.833 73.516 C 98.329 73.619,97.617 73.763,97.250 73.837 C 96.462 73.995,95.680 74.292,94.715 74.798 C 94.329 75.001,93.932 75.167,93.833 75.167 C 93.534 75.167,91.531 76.148,91.401 76.359 C 91.330 76.473,91.468 76.717,91.731 76.943 C 91.980 77.156,92.293 77.575,92.427 77.874 C 92.877 78.873,93.351 79.500,93.655 79.500 C 93.753 79.500,93.833 79.612,93.833 79.750 C 93.833 79.887,93.900 80.000,93.982 80.000 C 94.064 80.000,94.175 80.178,94.230 80.396 C 94.285 80.614,94.596 81.083,94.921 81.438 C 95.620 82.201,96.500 83.417,96.500 83.621 C 96.500 83.700,96.875 84.208,97.333 84.750 C 98.304 85.898,98.298 85.876,97.731 86.290 C 97.168 86.700,95.794 86.473,94.113 85.694 C 93.488 85.404,92.871 85.167,92.741 85.167 C 91.969 85.167,89.485 84.418,88.521 83.895 C 87.592 83.392,85.914 83.333,85.565 83.792 C 85.392 84.020,85.342 85.249,85.336 89.417 C 85.331 93.096,85.263 95.034,85.117 95.667 C 84.851 96.826,85.079 97.674,85.722 97.905 C 85.987 98.000,86.298 98.350,86.534 98.821 C 86.745 99.240,87.226 99.883,87.605 100.250 C 87.983 100.617,88.417 101.185,88.569 101.513 C 88.720 101.841,89.154 102.441,89.532 102.847 C 89.910 103.252,90.447 103.958,90.724 104.417 C 91.001 104.875,91.469 105.523,91.763 105.857 C 92.058 106.190,92.354 106.635,92.420 106.844 C 92.487 107.054,92.811 107.517,93.140 107.873 C 93.469 108.228,93.945 108.834,94.198 109.218 C 94.873 110.246,95.207 110.684,95.611 111.071 C 95.810 111.261,96.145 111.753,96.357 112.164 C 96.568 112.575,96.987 113.172,97.287 113.490 C 97.588 113.809,97.833 114.141,97.833 114.228 C 97.833 114.402,99.031 116.031,99.513 116.513 C 99.680 116.680,99.931 117.039,100.072 117.312 C 100.213 117.584,100.627 118.152,100.991 118.573 C 101.355 118.994,101.785 119.618,101.947 119.961 C 102.293 120.694,102.816 121.178,103.167 121.089 C 104.815 120.672,105.322 120.449,105.993 119.840 C 106.402 119.470,106.879 119.122,107.053 119.067 C 107.413 118.952,107.839 118.635,108.594 117.917 C 108.884 117.642,109.449 117.237,109.852 117.018 C 110.254 116.800,110.839 116.365,111.152 116.052 C 111.465 115.740,112.027 115.343,112.402 115.170 C 112.777 114.998,113.407 114.553,113.803 114.181 C 114.199 113.809,114.761 113.389,115.053 113.247 C 116.300 112.639,116.396 112.462,116.103 111.306 C 115.959 110.739,115.774 110.231,115.694 110.179 C 115.613 110.126,115.430 109.858,115.288 109.583 C 115.145 109.308,114.610 108.601,114.098 108.012 C 113.586 107.423,113.167 106.820,113.167 106.672 C 113.167 106.524,112.885 106.106,112.542 105.743 C 112.198 105.380,111.737 104.746,111.517 104.333 C 111.298 103.921,110.836 103.291,110.491 102.934 C 110.146 102.577,109.763 102.089,109.640 101.851 C 109.517 101.612,109.323 101.318,109.208 101.196 C 109.094 101.075,108.999 100.925,108.999 100.863 C 108.998 100.801,108.751 100.487,108.449 100.167 C 108.148 99.846,107.804 99.343,107.684 99.050 C 107.564 98.757,107.194 98.237,106.862 97.894 C 106.530 97.552,106.088 96.954,105.881 96.564 C 105.674 96.175,105.235 95.570,104.907 95.220 C 104.578 94.870,104.079 94.184,103.798 93.695 C 103.517 93.207,103.147 92.720,102.977 92.613 C 102.806 92.507,102.667 92.325,102.667 92.210 C 102.667 92.094,102.606 92.000,102.532 92.000 C 102.458 92.000,102.271 91.719,102.116 91.375 C 101.962 91.031,101.610 90.496,101.334 90.186 C 100.069 88.760,101.285 88.093,103.917 88.769 C 104.467 88.910,105.104 89.067,105.333 89.118 C 105.563 89.169,105.862 89.297,106.000 89.404 C 106.609 89.876,108.147 90.395,109.754 90.671 C 110.398 90.782,111.185 91.008,111.504 91.174 C 112.682 91.788,113.111 91.949,114.333 92.237 C 116.631 92.778,116.912 92.866,117.833 93.331 C 118.337 93.586,119.425 93.955,120.250 94.151 C 122.628 94.716,123.052 94.846,123.583 95.171 C 124.195 95.544,125.356 95.931,126.250 96.060 C 126.617 96.113,127.056 96.178,127.227 96.203 C 127.711 96.276,128.153 95.527,128.532 93.993 C 128.722 93.221,129.040 92.326,129.239 92.003 C 129.608 91.404,129.925 90.476,130.065 89.583 C 130.241 88.459,130.667 87.099,131.125 86.202 C 131.392 85.678,131.703 84.800,131.816 84.250 C 131.930 83.700,132.089 82.995,132.170 82.684 C 132.330 82.070,132.103 81.362,131.551 80.750 C 131.050 80.195,129.571 79.610,127.917 79.313 C 127.275 79.198,126.220 78.866,125.573 78.576 C 124.147 77.936,123.100 77.600,121.667 77.324 C 121.071 77.209,120.243 76.946,119.828 76.740 C 118.914 76.285,116.552 75.500,116.100 75.500 C 115.631 75.500,114.754 75.195,113.417 74.568 C 112.313 74.050,110.373 73.500,109.649 73.500 C 109.467 73.500,108.757 73.237,108.072 72.917 C 107.387 72.596,106.734 72.332,106.621 72.331 C 106.509 72.329,106.117 72.220,105.750 72.088 C 105.100 71.854,104.603 71.821,103.583 71.943 " stroke="none" fill="#04d2e6" fill-rule="evenodd"></path><path id="path2" d="M102.413 23.042 C 101.447 24.512,101.269 24.754,101.052 24.885 C 100.929 24.959,100.609 25.453,100.342 25.983 C 100.074 26.514,99.663 27.073,99.428 27.228 C 99.192 27.382,99.000 27.618,99.000 27.754 C 99.000 27.889,98.925 28.000,98.833 28.000 C 98.742 28.000,98.667 28.080,98.667 28.178 C 98.667 28.414,97.898 29.445,97.197 30.149 C 96.888 30.459,96.496 31.038,96.326 31.434 C 96.156 31.830,95.823 32.322,95.586 32.529 C 95.349 32.735,94.995 33.225,94.798 33.617 C 94.602 34.010,94.120 34.677,93.727 35.099 C 93.334 35.521,92.967 36.009,92.911 36.183 C 92.856 36.358,92.741 36.500,92.655 36.500 C 92.570 36.500,92.500 36.615,92.500 36.757 C 92.500 36.898,92.204 37.304,91.842 37.658 C 91.480 38.013,91.073 38.568,90.938 38.892 C 90.803 39.215,90.399 39.803,90.040 40.198 C 89.682 40.593,89.335 41.029,89.271 41.167 C 88.800 42.170,88.203 42.903,87.507 43.331 C 87.136 43.559,86.833 43.840,86.833 43.956 C 86.833 44.072,86.775 44.167,86.703 44.167 C 86.631 44.167,86.473 44.504,86.351 44.917 C 86.067 45.880,85.771 45.867,85.391 44.875 L 85.088 44.083 84.894 45.333 C 84.787 46.021,84.646 46.752,84.580 46.958 C 84.480 47.275,84.523 47.334,84.856 47.336 C 85.767 47.342,85.746 47.214,85.798 53.174 L 85.846 58.694 86.965 58.624 C 88.768 58.511,90.625 58.042,92.089 57.331 C 92.840 56.966,93.604 56.667,93.787 56.667 C 93.970 56.667,94.896 56.508,95.844 56.315 L 97.567 55.964 97.867 56.334 C 98.432 57.031,98.268 57.902,97.423 58.697 C 97.014 59.082,96.633 59.605,96.577 59.860 C 96.521 60.116,96.144 60.676,95.738 61.105 C 95.332 61.535,95.000 61.949,95.000 62.026 C 95.000 62.225,93.919 63.679,93.441 64.124 C 92.999 64.535,92.500 65.480,92.500 65.906 C 92.500 66.056,92.379 66.363,92.231 66.590 C 91.897 67.099,92.344 67.326,94.333 67.657 C 95.633 67.873,96.621 68.206,97.333 68.670 C 97.936 69.061,99.189 69.500,99.706 69.500 C 100.548 69.500,102.084 70.004,103.041 70.595 C 104.383 71.424,105.059 71.414,105.963 70.554 C 106.564 69.982,106.806 69.876,107.949 69.684 C 109.644 69.398,111.009 68.988,111.379 68.653 C 111.794 68.276,114.469 67.500,115.352 67.500 C 115.723 67.500,116.650 67.113,117.333 66.672 C 117.918 66.296,119.201 65.904,120.667 65.656 C 121.546 65.507,122.222 65.262,122.947 64.831 C 123.699 64.384,124.331 64.160,125.281 64.006 C 127.084 63.713,128.222 63.379,128.598 63.030 C 129.005 62.652,130.217 62.167,130.752 62.167 C 131.593 62.167,132.042 61.531,131.916 60.520 C 131.743 59.133,131.370 57.869,130.977 57.337 C 130.538 56.744,130.000 55.258,130.000 54.640 C 130.000 53.873,129.558 52.433,129.033 51.484 C 128.758 50.988,128.403 50.021,128.243 49.333 C 127.840 47.604,127.521 46.977,127.146 47.178 C 126.986 47.263,126.664 47.333,126.430 47.333 C 125.656 47.333,123.238 47.962,122.933 48.242 C 122.340 48.788,121.358 49.111,119.083 49.507 C 118.391 49.627,117.409 49.968,116.667 50.346 C 115.979 50.696,114.967 51.067,114.417 51.169 C 112.566 51.513,111.525 51.826,110.959 52.211 C 110.649 52.421,110.101 52.677,109.740 52.779 C 108.558 53.116,107.503 53.333,107.055 53.333 C 106.813 53.333,106.158 53.586,105.599 53.895 C 102.048 55.858,98.348 54.993,100.661 52.741 C 100.939 52.471,101.347 51.875,101.568 51.417 C 101.790 50.958,102.147 50.425,102.361 50.232 C 102.876 49.767,103.174 49.387,103.656 48.583 C 103.875 48.217,104.339 47.636,104.685 47.294 C 105.032 46.951,105.463 46.338,105.643 45.930 C 105.824 45.523,106.168 45.019,106.408 44.810 C 106.648 44.601,107.010 44.099,107.213 43.694 C 107.415 43.289,107.752 42.799,107.961 42.604 C 108.486 42.116,109.436 40.797,109.573 40.365 C 109.635 40.169,109.902 39.855,110.166 39.667 C 110.430 39.479,110.832 38.933,111.060 38.454 C 111.287 37.975,111.712 37.358,112.003 37.083 C 112.295 36.808,112.601 36.433,112.683 36.250 C 112.993 35.558,113.428 34.964,114.085 34.334 C 114.360 34.070,114.804 33.437,115.070 32.928 C 115.336 32.419,115.729 31.888,115.944 31.748 C 116.523 31.368,116.421 31.067,115.566 30.640 C 115.144 30.430,114.530 30.003,114.200 29.692 C 113.870 29.381,113.222 28.878,112.759 28.574 C 112.296 28.270,111.692 27.801,111.417 27.533 C 111.142 27.265,110.493 26.809,109.975 26.520 C 109.457 26.231,108.993 25.890,108.944 25.762 C 108.895 25.633,108.475 25.338,108.012 25.105 C 107.548 24.872,107.004 24.528,106.803 24.341 C 106.602 24.153,106.376 24.000,106.302 24.000 C 106.228 24.000,106.167 23.904,106.167 23.786 C 106.167 23.487,105.309 23.013,104.105 22.647 C 102.809 22.252,102.954 22.218,102.413 23.042 M49.250 72.191 C 48.044 72.475,47.333 72.718,47.333 72.848 C 47.333 73.080,46.307 73.493,45.270 73.678 C 44.709 73.778,43.868 73.966,43.402 74.096 C 42.936 74.227,42.435 74.333,42.290 74.333 C 42.144 74.333,41.803 74.521,41.530 74.750 C 41.258 74.979,40.951 75.167,40.849 75.167 C 40.746 75.167,40.532 75.232,40.373 75.312 C 39.987 75.507,37.842 76.003,37.395 76.001 C 36.944 76.000,36.038 76.377,35.500 76.790 C 35.077 77.115,34.639 77.245,32.250 77.757 C 30.810 78.065,30.403 78.215,29.493 78.768 C 29.168 78.966,28.456 79.218,27.909 79.328 C 24.463 80.024,23.791 80.319,22.791 81.575 C 22.355 82.122,22.344 82.180,22.569 82.701 C 22.699 83.003,22.894 83.813,23.002 84.500 C 23.180 85.637,23.594 86.956,23.837 87.167 C 24.206 87.484,24.725 89.122,25.024 90.910 C 25.159 91.721,25.395 92.457,25.631 92.804 C 25.842 93.116,26.142 93.783,26.297 94.286 C 26.615 95.316,27.249 96.073,27.654 95.904 C 27.799 95.844,28.142 95.737,28.417 95.667 C 29.019 95.513,29.580 95.266,30.250 94.859 C 30.700 94.585,31.428 94.387,34.083 93.812 C 34.542 93.713,35.179 93.467,35.500 93.265 C 36.296 92.764,36.856 92.570,38.417 92.258 C 40.230 91.895,40.991 91.654,41.594 91.250 C 42.246 90.812,43.390 90.485,45.750 90.062 C 46.389 89.947,47.333 89.524,47.333 89.352 C 47.333 89.279,47.652 89.124,48.042 89.007 C 48.431 88.890,48.938 88.733,49.167 88.657 C 49.396 88.582,50.258 88.393,51.083 88.239 C 52.506 87.972,53.500 87.585,53.500 87.297 C 53.500 87.085,54.058 87.158,54.397 87.415 C 54.688 87.635,54.150 89.552,53.672 90.000 C 53.560 90.105,53.250 90.605,52.897 91.250 C 52.747 91.525,52.365 91.967,52.049 92.231 C 51.733 92.496,51.281 93.120,51.045 93.619 C 50.809 94.118,50.450 94.634,50.248 94.767 C 50.046 94.899,49.739 95.324,49.566 95.712 C 49.240 96.440,49.058 96.698,48.312 97.490 C 48.071 97.745,47.660 98.320,47.398 98.766 C 47.137 99.213,46.687 99.785,46.399 100.038 C 46.111 100.291,45.714 100.873,45.517 101.331 C 45.320 101.789,44.970 102.288,44.739 102.439 C 44.509 102.590,44.179 103.022,44.006 103.398 C 43.834 103.775,43.237 104.608,42.680 105.250 C 42.123 105.892,41.668 106.504,41.667 106.611 C 41.667 106.718,41.329 107.168,40.917 107.611 C 40.504 108.054,40.167 108.538,40.167 108.688 C 40.167 108.837,40.054 109.053,39.917 109.167 C 39.779 109.281,39.667 109.450,39.667 109.543 C 39.667 109.635,39.489 109.870,39.273 110.064 C 38.942 110.360,38.500 111.551,38.500 112.145 C 38.500 112.236,38.839 112.479,39.254 112.687 C 39.669 112.894,40.363 113.388,40.796 113.785 C 41.229 114.182,41.921 114.708,42.333 114.955 C 42.746 115.202,43.377 115.688,43.735 116.035 C 44.093 116.383,44.488 116.667,44.612 116.667 C 44.962 116.667,45.988 117.383,46.091 117.700 C 46.142 117.856,46.349 118.035,46.550 118.099 C 47.006 118.243,47.816 118.836,48.972 119.871 C 49.460 120.309,49.941 120.667,50.039 120.667 C 50.427 120.667,52.024 119.799,52.126 119.533 C 52.306 119.063,53.101 117.962,53.835 117.167 C 54.215 116.754,54.640 116.140,54.777 115.802 C 54.915 115.463,55.201 115.073,55.412 114.935 C 55.623 114.797,55.964 114.335,56.170 113.909 C 56.377 113.483,56.917 112.710,57.372 112.192 C 57.826 111.674,58.313 111.025,58.452 110.750 C 58.592 110.475,59.022 109.939,59.407 109.559 C 59.793 109.179,60.236 108.534,60.391 108.127 C 60.551 107.709,60.850 107.292,61.076 107.171 C 61.297 107.052,61.572 106.722,61.687 106.436 C 61.939 105.811,62.591 104.881,63.117 104.397 C 63.327 104.203,63.500 103.960,63.500 103.856 C 63.500 103.752,63.558 103.667,63.629 103.667 C 63.700 103.667,63.902 103.399,64.078 103.071 C 64.255 102.743,64.627 102.253,64.904 101.981 C 65.182 101.710,65.645 101.059,65.932 100.535 C 66.324 99.822,66.638 99.486,67.186 99.196 C 67.588 98.983,68.158 98.577,68.453 98.293 L 68.990 97.778 69.143 98.180 C 69.286 98.558,69.303 98.541,69.417 97.917 C 69.483 97.550,69.630 97.100,69.742 96.917 C 69.855 96.733,70.000 96.370,70.064 96.110 L 70.180 95.637 69.560 96.240 L 68.940 96.842 68.595 96.298 C 68.270 95.786,68.245 95.445,68.162 90.419 C 68.053 83.754,67.933 83.400,66.131 84.394 C 65.738 84.611,64.892 84.878,64.250 84.989 C 62.677 85.260,61.655 85.586,60.167 86.292 C 58.565 87.051,56.753 87.167,56.176 86.549 C 55.723 86.062,55.735 85.974,56.417 84.811 C 56.737 84.263,57.000 83.744,57.000 83.658 C 57.000 83.571,57.085 83.500,57.189 83.500 C 57.462 83.500,57.973 82.869,58.434 81.961 C 58.655 81.528,59.021 81.051,59.247 80.903 C 59.473 80.755,59.842 80.246,60.066 79.771 C 60.291 79.297,60.641 78.760,60.845 78.579 C 61.179 78.282,62.333 76.624,62.333 76.441 C 62.333 76.247,61.074 75.656,60.450 75.557 C 59.574 75.418,58.787 75.096,58.512 74.764 C 58.395 74.624,58.026 74.458,57.692 74.395 C 57.357 74.332,56.842 74.180,56.547 74.057 C 56.252 73.934,55.765 73.833,55.464 73.832 C 54.694 73.829,53.364 73.399,52.671 72.928 C 52.222 72.623,50.109 71.917,49.945 72.017 C 49.929 72.027,49.617 72.105,49.250 72.191 " stroke="none" fill="#e11fa8" fill-rule="evenodd"></path><path id="path3" d="M0.000 77.333 L 0.000 154.667 200.000 154.667 L 400.000 154.667 400.000 77.333 L 400.000 0.000 200.000 0.000 L 0.000 0.000 0.000 77.333 M85.420 15.116 C 85.785 15.363,86.177 15.657,86.291 15.770 C 86.451 15.928,86.528 18.849,86.625 28.488 L 86.750 41.001 87.234 41.417 C 87.803 41.906,87.944 41.832,88.505 40.740 C 88.722 40.319,89.117 39.791,89.383 39.567 C 89.649 39.343,90.038 38.805,90.247 38.372 C 90.457 37.938,90.838 37.374,91.094 37.118 C 91.558 36.654,91.634 36.546,92.232 35.484 C 92.406 35.176,92.874 34.607,93.272 34.220 C 93.670 33.833,94.115 33.220,94.259 32.859 C 94.404 32.498,94.742 32.006,95.011 31.767 C 95.279 31.527,95.659 30.990,95.855 30.574 C 96.051 30.157,96.464 29.556,96.773 29.238 C 97.081 28.920,97.333 28.621,97.333 28.573 C 97.333 28.489,97.520 28.245,97.958 27.756 C 98.073 27.628,98.167 27.453,98.167 27.367 C 98.167 27.280,98.542 26.822,99.000 26.349 C 99.458 25.876,99.833 25.344,99.833 25.167 C 99.833 24.990,100.083 24.595,100.387 24.291 C 100.692 23.986,101.154 23.346,101.414 22.868 C 101.674 22.391,101.949 22.000,102.026 22.000 C 102.104 22.000,102.167 21.906,102.167 21.790 C 102.167 21.094,103.044 21.013,104.296 21.593 C 104.780 21.817,105.220 22.000,105.274 22.000 C 105.432 22.000,107.045 23.211,107.500 23.671 C 107.729 23.903,108.160 24.193,108.458 24.316 C 108.756 24.440,109.000 24.606,109.000 24.687 C 109.000 24.767,109.085 24.833,109.190 24.833 C 109.294 24.833,109.603 25.096,109.877 25.417 C 110.152 25.738,110.470 26.000,110.585 26.000 C 110.956 26.000,111.658 26.440,112.234 27.033 C 112.542 27.350,113.028 27.707,113.314 27.825 C 113.600 27.944,113.833 28.106,113.833 28.187 C 113.833 28.267,113.940 28.333,114.070 28.333 C 114.201 28.333,114.557 28.623,114.862 28.977 C 115.167 29.331,115.664 29.747,115.967 29.902 C 117.311 30.591,117.526 31.413,116.606 32.347 C 116.298 32.660,115.840 33.290,115.588 33.746 C 115.337 34.203,114.873 34.840,114.559 35.163 C 114.244 35.486,113.769 36.135,113.503 36.605 C 113.237 37.076,112.798 37.638,112.528 37.855 C 112.258 38.072,111.833 38.686,111.584 39.220 C 111.335 39.753,110.971 40.263,110.774 40.353 C 110.578 40.443,110.267 40.860,110.083 41.280 C 109.900 41.699,109.388 42.427,108.945 42.896 C 108.502 43.366,107.966 44.087,107.754 44.500 C 107.542 44.913,107.098 45.475,106.767 45.749 C 106.437 46.024,106.167 46.387,106.167 46.557 C 106.167 46.914,105.618 47.760,105.056 48.269 C 104.842 48.463,104.667 48.707,104.667 48.811 C 104.667 48.915,104.609 49.000,104.538 49.000 C 104.467 49.000,104.263 49.271,104.085 49.601 C 103.907 49.932,103.403 50.563,102.964 51.004 C 102.287 51.685,102.167 51.903,102.167 52.453 C 102.167 53.191,101.935 53.500,101.383 53.500 C 101.162 53.500,101.000 53.601,101.000 53.738 C 101.000 53.985,102.812 53.924,103.000 53.671 C 103.291 53.278,105.409 52.500,106.188 52.500 C 107.021 52.500,109.000 51.906,109.000 51.657 C 109.000 51.411,110.039 51.026,111.417 50.762 C 113.838 50.298,114.533 50.108,114.618 49.886 C 114.664 49.765,114.807 49.667,114.934 49.667 C 115.062 49.667,115.167 49.600,115.167 49.519 C 115.167 49.438,115.373 49.323,115.625 49.263 C 116.281 49.107,118.293 48.663,119.130 48.490 C 119.522 48.408,120.197 48.133,120.630 47.879 C 121.623 47.295,122.439 47.006,123.104 47.003 C 123.390 47.001,123.944 46.887,124.333 46.750 C 124.723 46.612,125.214 46.500,125.425 46.500 C 125.635 46.500,126.025 46.317,126.290 46.094 C 127.553 45.031,128.223 45.583,129.009 48.333 C 129.127 48.746,129.320 49.165,129.439 49.264 C 129.839 49.599,130.356 51.073,130.603 52.583 C 130.835 54.000,131.262 55.333,131.485 55.333 C 131.718 55.333,132.500 57.638,132.500 58.326 C 132.500 59.158,132.877 60.569,133.195 60.927 C 133.590 61.373,133.595 61.351,132.936 62.030 C 132.437 62.543,131.418 63.167,131.078 63.167 C 131.011 63.167,130.834 63.302,130.686 63.468 C 130.294 63.905,129.118 64.293,127.000 64.682 C 125.350 64.985,125.167 65.036,125.167 65.193 C 125.167 65.460,123.112 66.333,122.483 66.333 C 122.153 66.333,121.666 66.403,121.400 66.487 C 121.134 66.572,120.631 66.688,120.282 66.746 C 119.934 66.804,119.519 66.979,119.361 67.134 C 118.840 67.646,117.707 68.081,116.250 68.329 C 114.290 68.662,113.811 68.796,113.450 69.112 C 112.783 69.694,112.380 69.819,108.868 70.527 L 107.819 70.739 107.868 71.729 C 107.924 72.875,108.317 73.199,110.020 73.505 C 111.813 73.827,113.248 74.239,113.500 74.505 C 113.712 74.729,115.020 75.194,116.014 75.399 C 117.518 75.710,119.500 76.349,119.500 76.523 C 119.500 76.602,119.635 76.667,119.800 76.667 C 119.965 76.667,120.174 76.741,120.265 76.832 C 120.356 76.922,121.157 77.148,122.045 77.334 C 123.679 77.675,123.917 77.751,125.417 78.417 C 126.680 78.978,127.146 79.123,128.417 79.351 C 131.262 79.862,132.787 81.253,132.259 82.855 C 132.126 83.256,131.924 84.033,131.809 84.583 C 131.695 85.133,131.398 85.958,131.151 86.417 C 130.904 86.875,130.540 87.925,130.343 88.750 C 129.758 91.197,129.648 91.551,129.258 92.250 C 128.910 92.872,128.810 93.168,128.352 94.917 C 128.028 96.153,127.608 96.491,126.695 96.249 C 126.267 96.135,125.504 95.946,125.000 95.829 C 124.496 95.712,123.821 95.455,123.500 95.258 C 122.858 94.864,122.247 94.672,120.250 94.235 C 119.517 94.075,118.429 93.707,117.833 93.418 C 117.237 93.129,116.300 92.796,115.750 92.679 C 113.999 92.305,112.948 91.972,111.750 91.414 C 111.108 91.116,110.058 90.778,109.417 90.664 C 108.138 90.436,106.624 89.946,106.048 89.572 C 103.719 88.064,99.760 88.567,101.360 90.168 C 101.626 90.434,101.952 90.910,102.084 91.226 C 102.216 91.541,102.598 92.088,102.934 92.441 C 103.270 92.794,103.647 93.324,103.772 93.618 C 103.897 93.912,104.402 94.604,104.894 95.156 C 105.387 95.709,105.891 96.403,106.014 96.700 C 106.136 96.996,106.486 97.458,106.791 97.725 C 107.096 97.993,107.487 98.522,107.659 98.900 C 107.832 99.279,108.196 99.822,108.468 100.107 C 108.740 100.392,109.226 101.037,109.548 101.540 C 109.870 102.043,110.365 102.691,110.648 102.981 C 110.931 103.270,111.344 103.849,111.567 104.267 C 111.789 104.685,112.240 105.318,112.569 105.673 C 112.898 106.028,113.167 106.423,113.167 106.550 C 113.167 106.677,113.523 107.195,113.958 107.700 C 114.394 108.205,114.842 108.760,114.955 108.934 C 115.068 109.108,115.338 109.518,115.555 109.845 C 115.925 110.404,116.056 110.768,116.277 111.863 C 116.381 112.375,116.065 112.783,115.187 113.270 C 114.106 113.871,113.985 113.957,113.536 114.446 C 113.287 114.717,112.821 115.043,112.500 115.170 C 112.179 115.298,111.654 115.653,111.333 115.959 C 111.013 116.266,110.412 116.716,110.000 116.959 C 109.587 117.202,108.966 117.667,108.619 117.992 C 108.050 118.525,107.165 119.134,106.504 119.448 C 106.368 119.512,106.022 119.800,105.734 120.088 C 105.417 120.406,104.892 120.693,104.397 120.819 C 103.950 120.934,103.418 121.094,103.215 121.174 C 102.808 121.336,101.833 120.373,101.833 119.809 C 101.833 119.654,101.776 119.503,101.705 119.472 C 101.500 119.383,100.252 117.791,100.021 117.323 C 99.905 117.087,99.440 116.487,98.989 115.989 C 98.537 115.491,98.044 114.824,97.892 114.506 C 97.741 114.189,97.402 113.701,97.138 113.423 C 96.874 113.145,96.461 112.516,96.219 112.026 C 95.977 111.536,95.676 111.096,95.550 111.048 C 95.316 110.958,93.833 108.974,93.833 108.751 C 93.833 108.683,93.543 108.337,93.187 107.981 C 92.832 107.626,92.443 107.091,92.322 106.793 C 92.202 106.494,91.934 106.088,91.726 105.890 C 91.519 105.692,91.109 105.130,90.815 104.640 C 90.521 104.151,90.124 103.587,89.932 103.388 C 89.079 102.502,88.854 102.198,88.437 101.375 C 87.984 100.480,87.900 100.410,87.548 100.633 C 86.848 101.078,86.833 101.374,86.833 114.713 L 86.833 127.438 86.375 127.858 C 86.123 128.088,85.608 128.365,85.231 128.472 C 84.316 128.732,69.027 128.748,68.461 128.490 C 67.682 128.135,67.684 128.166,67.632 114.250 C 67.582 100.630,67.559 100.193,66.923 100.437 C 66.791 100.488,66.564 100.889,66.418 101.330 C 66.272 101.770,65.941 102.307,65.684 102.524 C 65.427 102.740,64.909 103.404,64.532 104.000 C 64.156 104.596,63.607 105.307,63.314 105.581 C 63.020 105.855,62.641 106.393,62.471 106.776 C 62.302 107.160,61.948 107.655,61.685 107.876 C 61.422 108.097,61.056 108.609,60.872 109.014 C 60.687 109.419,60.191 110.119,59.768 110.571 C 59.346 111.022,59.000 111.491,59.000 111.612 C 59.000 111.734,58.934 111.833,58.854 111.833 C 58.773 111.833,58.621 112.041,58.516 112.295 C 58.411 112.549,58.060 112.968,57.737 113.225 C 57.406 113.490,56.979 114.081,56.757 114.583 C 56.541 115.072,56.215 115.552,56.032 115.650 C 55.849 115.748,55.540 116.157,55.344 116.560 C 55.149 116.964,54.615 117.734,54.157 118.272 C 53.053 119.570,53.099 119.506,52.825 120.125 C 52.693 120.423,52.497 120.667,52.390 120.667 C 52.282 120.667,52.169 120.723,52.139 120.792 C 52.066 120.956,50.503 121.502,50.109 121.501 C 49.589 121.499,48.660 120.889,47.435 119.744 C 47.333 119.649,46.950 119.393,46.583 119.177 C 46.217 118.960,45.595 118.456,45.203 118.058 C 44.810 117.659,44.349 117.333,44.179 117.333 C 44.009 117.333,43.505 117.013,43.060 116.621 C 42.614 116.229,41.969 115.762,41.625 115.583 C 41.281 115.404,41.000 115.200,41.000 115.129 C 41.000 115.058,40.897 115.000,40.771 115.000 C 40.645 115.000,40.327 114.749,40.063 114.443 C 39.799 114.136,39.208 113.680,38.750 113.429 C 37.621 112.810,37.332 112.419,37.520 111.765 C 37.601 111.483,37.667 111.062,37.667 110.830 C 37.667 110.552,37.940 110.126,38.472 109.577 C 38.915 109.120,39.331 108.531,39.397 108.268 C 39.463 108.005,39.812 107.498,40.173 107.141 C 40.534 106.784,40.974 106.174,41.151 105.785 C 41.328 105.397,41.851 104.677,42.314 104.187 C 42.778 103.696,43.207 103.136,43.268 102.942 C 43.424 102.452,44.025 101.667,44.245 101.667 C 44.465 101.667,45.000 100.801,45.000 100.447 C 45.000 100.308,45.337 99.832,45.750 99.389 C 46.163 98.946,46.500 98.523,46.500 98.448 C 46.500 98.373,46.688 98.065,46.917 97.765 C 47.146 97.464,47.333 97.132,47.333 97.026 C 47.333 96.920,47.397 96.833,47.474 96.833 C 47.799 96.833,48.792 95.656,49.061 94.952 C 49.220 94.535,49.537 94.072,49.764 93.923 C 49.992 93.773,50.364 93.261,50.592 92.784 C 50.819 92.307,51.383 91.505,51.843 91.001 C 52.901 89.844,52.935 89.279,51.950 89.198 C 51.204 89.136,49.724 89.581,49.250 90.010 C 48.793 90.423,48.098 90.673,46.917 90.849 C 44.743 91.174,44.301 91.300,43.611 91.796 C 43.146 92.129,42.460 92.404,41.656 92.579 C 40.974 92.727,40.097 92.919,39.706 93.007 C 39.315 93.095,38.879 93.167,38.736 93.167 C 38.594 93.167,38.239 93.340,37.947 93.551 C 37.080 94.179,36.323 94.465,35.000 94.661 C 33.497 94.884,32.257 95.259,31.837 95.619 C 31.307 96.072,30.417 96.359,28.544 96.680 C 26.411 97.044,24.401 95.127,24.337 92.667 C 24.306 91.506,23.813 89.873,23.254 89.083 C 22.805 88.449,22.555 87.700,22.336 86.333 C 22.002 84.250,21.958 84.081,21.666 83.750 C 20.775 82.739,20.663 81.981,21.244 80.869 C 21.878 79.655,22.360 79.408,25.083 78.911 C 26.807 78.597,27.455 78.381,27.898 77.972 C 28.305 77.597,29.574 77.167,30.274 77.167 C 30.575 77.167,31.143 77.062,31.536 76.935 C 31.929 76.808,32.460 76.655,32.717 76.596 C 32.974 76.537,33.473 76.280,33.826 76.024 C 34.268 75.704,34.849 75.495,35.692 75.354 C 36.366 75.240,37.298 75.040,37.765 74.907 C 38.231 74.775,38.703 74.667,38.813 74.667 C 38.924 74.667,39.180 74.511,39.382 74.320 C 39.912 73.822,40.571 73.585,42.083 73.349 C 43.818 73.078,44.799 72.731,45.417 72.168 C 45.886 71.741,46.270 71.510,47.371 70.994 L 47.825 70.781 47.454 70.594 C 46.938 70.333,45.440 69.890,44.250 69.646 C 43.700 69.533,42.762 69.200,42.167 68.905 C 41.571 68.610,40.521 68.240,39.833 68.082 C 37.853 67.627,36.948 67.349,36.413 67.031 C 36.140 66.869,35.617 66.647,35.250 66.538 C 33.607 66.049,32.749 65.833,32.449 65.833 C 32.270 65.833,31.590 65.579,30.937 65.269 C 29.595 64.631,28.538 64.279,27.083 63.986 C 26.169 63.802,25.102 63.367,22.705 62.202 C 21.413 61.574,21.363 61.467,21.877 60.447 C 22.116 59.972,22.438 59.021,22.592 58.333 C 23.025 56.402,23.313 55.455,23.635 54.913 C 23.956 54.374,24.166 53.715,24.592 51.917 C 25.282 49.001,26.829 46.411,27.667 46.770 C 27.804 46.829,28.517 47.013,29.250 47.179 C 31.261 47.635,31.323 47.655,32.663 48.300 C 33.348 48.629,34.285 48.958,34.746 49.030 C 36.393 49.288,36.995 49.459,38.032 49.964 C 39.110 50.489,40.158 50.820,41.917 51.191 C 42.467 51.307,43.404 51.647,44.000 51.948 C 44.596 52.248,45.201 52.495,45.345 52.497 C 45.489 52.499,45.939 52.603,46.345 52.729 C 46.751 52.855,47.496 53.053,48.000 53.168 C 48.504 53.284,49.217 53.534,49.583 53.724 C 51.170 54.548,52.217 54.699,53.141 54.238 C 53.778 53.920,53.775 53.973,53.184 53.325 C 52.918 53.035,52.660 52.592,52.610 52.341 C 52.560 52.090,52.251 51.618,51.923 51.290 C 51.596 50.963,51.217 50.428,51.080 50.102 C 50.944 49.776,50.498 49.151,50.088 48.713 C 49.678 48.275,49.257 47.710,49.151 47.458 C 49.046 47.206,48.894 47.000,48.813 47.000 C 48.733 47.000,48.667 46.903,48.667 46.784 C 48.667 46.665,48.367 46.275,48.000 45.917 C 47.633 45.559,47.333 45.168,47.333 45.050 C 47.333 44.931,47.258 44.833,47.167 44.833 C 47.075 44.833,47.000 44.697,47.000 44.531 C 47.000 44.365,46.770 44.009,46.489 43.740 C 46.207 43.470,45.741 42.838,45.453 42.334 C 45.165 41.830,44.773 41.268,44.582 41.084 C 44.144 40.661,43.002 39.086,42.995 38.894 C 42.992 38.815,42.726 38.487,42.403 38.167 C 42.081 37.846,41.621 37.183,41.381 36.693 C 41.142 36.203,40.838 35.761,40.706 35.710 C 40.575 35.660,40.148 35.123,39.758 34.517 C 39.369 33.912,38.768 33.081,38.423 32.670 C 37.237 31.258,37.287 30.845,38.751 29.970 C 39.255 29.669,39.667 29.364,39.667 29.293 C 39.667 29.222,40.181 28.835,40.809 28.432 C 41.438 28.029,42.137 27.524,42.363 27.308 C 42.964 26.737,43.359 26.448,43.919 26.169 C 44.193 26.033,44.643 25.695,44.919 25.419 C 45.195 25.143,45.851 24.698,46.377 24.431 C 46.903 24.163,47.333 23.863,47.334 23.764 C 47.334 23.665,47.690 23.362,48.125 23.091 C 48.561 22.819,48.954 22.557,49.000 22.507 C 49.314 22.166,50.148 21.711,50.270 21.816 C 50.351 21.885,50.754 22.045,51.167 22.170 C 52.027 22.433,52.490 22.837,52.876 23.667 C 53.025 23.988,53.484 24.620,53.896 25.073 C 54.307 25.526,54.743 26.088,54.864 26.323 C 55.147 26.874,55.292 27.062,56.009 27.804 C 56.336 28.141,56.708 28.679,56.836 29.000 C 56.965 29.321,57.330 29.865,57.647 30.210 C 57.964 30.555,58.430 31.192,58.682 31.627 C 58.935 32.061,59.368 32.625,59.644 32.880 C 59.921 33.135,60.194 33.491,60.252 33.672 C 60.309 33.852,60.426 34.000,60.511 34.000 C 60.597 34.000,60.667 34.098,60.667 34.217 C 60.667 34.336,61.042 34.854,61.500 35.368 C 61.958 35.883,62.333 36.397,62.333 36.511 C 62.333 36.716,63.059 37.761,63.426 38.083 C 63.530 38.175,63.793 38.550,64.010 38.917 C 64.227 39.283,64.617 39.808,64.876 40.083 C 65.135 40.358,65.644 41.033,66.006 41.583 C 67.613 44.021,67.552 44.524,67.522 28.917 C 67.498 16.725,67.515 15.896,67.790 15.578 C 68.614 14.628,68.230 14.667,76.832 14.667 L 84.756 14.667 85.420 15.116 M188.238 42.392 C 189.433 43.419,189.331 41.298,189.331 65.083 C 189.331 89.397,189.301 90.022,188.078 91.171 C 187.852 91.384,187.666 91.676,187.666 91.821 C 187.665 92.191,187.152 92.975,186.429 93.711 C 186.090 94.056,185.670 94.661,185.496 95.055 C 185.168 95.795,184.757 96.255,184.142 96.569 C 183.946 96.668,183.654 96.997,183.493 97.299 C 183.161 97.922,182.554 98.500,182.232 98.500 C 182.113 98.500,181.651 98.865,181.204 99.312 C 180.757 99.759,180.135 100.204,179.821 100.301 C 179.076 100.532,177.563 100.833,177.147 100.833 C 176.967 100.833,176.617 100.979,176.368 101.158 C 175.736 101.612,173.894 102.196,173.000 102.225 C 171.444 102.277,171.169 101.482,171.168 96.928 C 171.166 92.395,171.352 92.006,173.526 91.995 C 174.533 91.990,175.167 91.755,175.167 91.386 C 175.167 91.143,175.827 90.591,176.672 90.128 C 177.087 89.900,177.651 89.490,177.925 89.216 C 178.984 88.157,178.907 89.841,178.999 65.667 C 179.047 53.092,179.148 43.476,179.233 43.333 C 179.315 43.196,179.563 42.840,179.783 42.542 L 180.184 42.000 183.983 42.000 C 187.732 42.000,187.787 42.005,188.238 42.392 M222.250 42.467 C 223.216 43.350,223.167 42.143,223.168 64.883 C 223.168 76.754,223.234 86.171,223.318 86.500 C 223.400 86.821,223.514 87.290,223.570 87.542 C 223.627 87.794,223.771 88.000,223.891 88.000 C 224.210 88.000,224.759 88.666,224.977 89.318 C 225.088 89.647,225.636 90.329,226.284 90.943 L 227.400 92.000 230.242 91.995 C 233.254 91.989,233.391 91.957,233.805 91.153 C 233.928 90.914,234.429 90.519,234.936 90.262 C 235.904 89.772,236.674 89.067,237.134 88.250 C 237.390 87.795,237.423 86.445,237.501 73.167 L 237.586 58.583 238.048 57.750 C 238.302 57.292,238.576 56.804,238.657 56.667 C 238.739 56.529,238.931 55.479,239.083 54.333 C 239.396 51.987,239.651 51.243,240.230 50.979 C 240.450 50.878,240.700 50.636,240.786 50.440 C 241.410 49.014,241.731 48.520,242.092 48.429 C 242.328 48.370,242.600 48.089,242.772 47.727 C 243.051 47.140,244.029 46.513,244.680 46.504 C 244.825 46.502,245.050 46.300,245.180 46.055 C 245.430 45.587,246.978 44.500,247.397 44.500 C 247.532 44.500,247.779 44.329,247.946 44.119 C 248.405 43.545,249.335 43.179,250.780 43.005 C 254.672 42.536,255.820 42.463,256.610 42.636 C 257.054 42.733,258.168 42.857,259.087 42.911 C 261.266 43.040,262.414 43.351,263.075 43.991 C 263.363 44.271,263.746 44.501,263.925 44.503 C 264.499 44.508,266.047 45.399,266.320 45.882 C 266.473 46.152,266.934 46.508,267.420 46.731 C 268.196 47.088,268.278 47.184,268.553 48.058 C 268.717 48.576,268.903 49.000,268.967 49.000 C 269.338 49.001,270.021 49.871,270.744 51.266 C 270.864 51.497,271.158 51.905,271.396 52.173 C 271.940 52.784,272.157 53.731,272.312 56.167 C 272.402 57.585,272.518 58.235,272.759 58.667 C 273.070 59.226,273.087 59.760,273.171 71.833 C 273.264 85.015,273.373 86.850,274.152 88.306 C 274.252 88.492,274.333 88.794,274.333 88.977 C 274.333 89.403,274.735 89.803,275.303 89.942 C 275.549 90.002,276.099 90.403,276.525 90.832 C 277.561 91.877,278.232 92.053,280.766 91.943 C 283.585 91.822,283.880 91.748,284.241 91.078 C 284.463 90.666,284.756 90.441,285.349 90.228 C 286.143 89.943,286.500 89.468,286.500 88.699 C 286.500 88.561,286.674 88.216,286.887 87.932 C 287.099 87.649,287.456 87.042,287.678 86.583 L 288.083 85.750 288.167 64.667 C 288.217 51.979,288.313 43.451,288.407 43.250 C 288.585 42.874,288.922 42.500,289.083 42.500 C 289.142 42.500,289.303 42.388,289.440 42.250 C 289.648 42.042,290.336 42.000,293.503 42.000 L 297.316 42.000 297.709 42.542 C 298.505 43.639,298.500 43.490,298.500 64.114 C 298.500 85.562,298.491 85.751,297.459 87.177 C 297.289 87.412,297.081 88.123,296.995 88.760 C 296.574 91.882,296.477 92.152,295.542 92.809 C 295.210 93.042,295.000 93.331,295.000 93.556 C 295.000 94.003,294.283 95.093,293.830 95.335 C 293.648 95.432,293.390 95.774,293.257 96.093 C 292.755 97.294,290.805 98.833,289.786 98.833 C 289.635 98.833,289.423 99.002,289.314 99.208 C 289.014 99.777,288.372 100.319,287.868 100.429 C 287.620 100.483,287.199 100.596,286.933 100.680 C 286.668 100.765,286.240 100.833,285.983 100.833 C 285.727 100.833,285.457 100.927,285.383 101.042 C 285.248 101.253,285.005 101.381,283.683 101.934 C 281.866 102.693,277.177 102.271,275.719 101.217 C 275.428 101.006,275.048 100.833,274.875 100.833 C 273.970 100.833,272.724 100.273,272.033 99.554 C 271.638 99.144,271.074 98.708,270.779 98.585 C 270.202 98.344,269.723 97.886,269.427 97.292 C 269.325 97.087,269.094 96.893,268.912 96.859 C 268.415 96.769,267.501 96.021,267.495 95.700 C 267.488 95.339,267.215 94.997,266.574 94.547 C 266.294 94.351,265.919 93.904,265.741 93.554 C 265.563 93.203,265.153 92.654,264.831 92.333 C 264.066 91.572,263.904 90.959,263.607 87.707 C 263.409 85.550,263.288 84.883,263.013 84.437 C 262.671 83.884,262.667 83.738,262.667 71.575 C 262.667 64.187,262.603 59.069,262.507 58.762 C 262.419 58.480,262.222 57.603,262.068 56.813 C 261.868 55.779,261.697 55.311,261.459 55.146 C 260.650 54.585,260.333 54.296,260.328 54.113 C 260.320 53.804,259.642 53.396,258.955 53.287 C 258.141 53.157,256.851 52.510,256.647 52.130 C 256.367 51.607,255.140 51.734,254.207 52.383 C 253.772 52.685,253.009 53.024,252.511 53.137 C 251.426 53.382,250.262 54.082,249.974 54.662 C 249.859 54.894,249.677 55.196,249.571 55.333 C 249.465 55.471,249.327 55.799,249.264 56.063 C 249.201 56.327,248.927 56.765,248.655 57.037 C 247.854 57.838,247.842 58.075,247.836 72.667 C 247.831 88.608,247.730 90.090,246.578 91.171 C 246.352 91.384,246.166 91.676,246.166 91.821 C 246.165 92.186,245.658 92.957,244.878 93.778 C 244.515 94.160,244.120 94.722,243.999 95.028 C 243.742 95.680,243.030 96.500,242.721 96.500 C 242.602 96.500,242.298 96.819,242.044 97.208 C 241.427 98.159,241.370 98.211,240.461 98.664 C 240.026 98.880,239.629 99.190,239.577 99.353 C 239.382 99.966,237.164 100.833,235.792 100.833 C 235.631 100.833,235.359 100.974,235.187 101.146 C 233.693 102.640,227.522 102.692,225.553 101.228 C 225.261 101.011,224.908 100.833,224.769 100.833 C 224.630 100.833,224.343 100.766,224.133 100.684 C 223.922 100.602,223.438 100.442,223.056 100.329 C 222.551 100.179,222.282 99.973,222.066 99.573 C 221.845 99.162,221.600 98.981,221.093 98.853 C 220.332 98.660,219.927 98.387,218.931 97.398 C 218.552 97.021,218.056 96.656,217.829 96.586 C 217.255 96.409,216.962 96.061,216.456 94.956 C 216.215 94.430,215.942 94.000,215.850 94.000 C 215.581 94.000,214.785 92.517,214.651 91.767 C 214.584 91.391,214.473 90.783,214.405 90.417 C 214.336 90.050,214.116 89.525,213.915 89.250 C 213.558 88.762,213.380 88.210,212.974 86.333 C 212.828 85.661,212.759 79.968,212.715 65.000 C 212.649 42.427,212.602 43.494,213.697 42.472 L 214.202 42.000 217.976 42.005 L 221.750 42.010 222.250 42.467 M359.969 42.442 C 361.238 43.493,361.528 50.300,360.337 51.083 C 359.701 51.501,358.744 51.558,350.750 51.651 L 342.250 51.750 342.167 76.417 C 342.075 103.589,342.154 101.792,341.031 102.261 C 339.607 102.856,333.233 102.466,332.378 101.731 L 331.917 101.334 331.873 76.634 C 331.839 57.199,331.786 51.906,331.623 51.803 C 331.510 51.731,328.042 51.671,323.917 51.669 C 314.881 51.666,313.847 51.547,313.252 50.443 C 312.842 49.681,312.941 43.875,313.378 43.057 C 313.996 41.901,311.792 42.000,336.813 42.000 L 359.436 42.000 359.969 42.442 M68.851 53.369 C 68.834 58.580,68.828 58.658,68.469 58.994 C 68.091 59.345,66.890 59.472,66.575 59.193 C 66.488 59.117,65.967 58.963,65.417 58.851 C 63.603 58.484,61.746 57.907,61.333 57.581 C 60.863 57.210,58.676 56.667,57.651 56.667 C 56.592 56.666,56.392 57.685,57.268 58.613 C 57.599 58.963,58.192 59.737,58.585 60.333 C 58.979 60.929,59.565 61.696,59.888 62.037 C 60.211 62.378,60.528 62.828,60.594 63.037 C 60.660 63.246,61.026 63.765,61.409 64.191 C 61.791 64.617,62.195 65.271,62.307 65.644 C 62.418 66.016,62.667 66.432,62.860 66.567 C 63.495 67.012,62.249 67.833,60.939 67.833 C 60.702 67.833,60.171 67.984,58.500 68.525 C 58.179 68.629,57.879 68.761,57.833 68.820 C 57.677 69.019,56.418 69.478,55.500 69.671 C 52.438 70.315,51.761 70.698,52.882 71.153 C 53.372 71.352,54.131 71.810,54.569 72.172 C 55.402 72.860,55.788 72.997,57.833 73.330 C 59.372 73.581,59.962 73.783,60.500 74.243 C 60.729 74.439,61.217 74.696,61.583 74.815 C 62.348 75.063,63.790 75.980,63.911 76.295 C 63.956 76.412,63.743 76.771,63.439 77.094 C 63.134 77.417,62.725 78.002,62.529 78.394 C 62.333 78.786,61.971 79.214,61.725 79.345 C 61.437 79.498,61.108 79.955,60.805 80.621 C 60.546 81.192,60.158 81.774,59.942 81.915 C 59.727 82.056,59.409 82.469,59.234 82.834 C 59.059 83.198,58.870 83.497,58.813 83.498 C 58.756 83.499,58.615 83.839,58.499 84.252 C 58.352 84.777,58.182 85.033,57.936 85.097 C 57.465 85.219,56.866 86.000,57.242 86.000 C 57.384 86.000,57.500 86.071,57.500 86.158 C 57.500 86.388,58.530 85.996,58.831 85.651 C 59.109 85.332,60.143 85.023,62.417 84.578 C 63.352 84.395,64.262 84.090,64.833 83.768 C 65.940 83.145,66.971 82.857,67.515 83.018 C 67.736 83.084,68.125 83.183,68.379 83.240 C 69.477 83.482,69.500 83.579,69.500 88.008 C 69.500 91.387,69.543 92.099,69.772 92.542 C 70.334 93.630,70.698 93.753,70.997 92.958 C 71.388 91.917,71.589 91.599,72.371 90.781 C 72.804 90.328,73.205 89.809,73.263 89.627 C 73.412 89.157,74.020 88.489,74.450 88.323 C 74.701 88.226,74.896 87.912,75.070 87.325 C 75.396 86.227,76.228 85.428,76.744 85.716 C 77.212 85.979,78.201 86.328,78.485 86.331 C 78.774 86.334,79.667 87.308,79.667 87.620 C 79.667 87.919,80.005 88.332,80.765 88.961 C 81.206 89.327,82.000 90.743,82.000 91.165 C 82.000 91.364,82.213 91.585,82.567 91.754 C 83.024 91.970,83.207 92.216,83.504 93.011 C 83.899 94.066,84.076 94.166,84.882 93.792 L 85.331 93.583 85.332 88.729 C 85.333 84.437,85.365 83.848,85.606 83.648 C 85.999 83.321,87.941 83.444,88.583 83.835 C 89.236 84.233,90.808 84.747,92.167 85.006 C 92.763 85.119,93.790 85.464,94.450 85.771 C 97.165 87.035,98.822 86.429,97.239 84.750 C 96.919 84.410,96.550 83.878,96.420 83.566 C 96.290 83.255,95.952 82.756,95.668 82.458 C 95.385 82.160,94.858 81.467,94.499 80.917 C 94.139 80.367,93.623 79.680,93.351 79.392 C 93.079 79.103,92.692 78.542,92.489 78.146 C 92.287 77.749,91.898 77.216,91.625 76.961 C 90.994 76.372,91.131 76.185,92.632 75.583 C 93.667 75.168,95.196 74.492,95.866 74.151 C 96.022 74.073,96.697 73.891,97.366 73.747 C 100.637 73.047,100.896 72.909,100.771 71.931 C 100.723 71.556,100.680 71.131,100.675 70.985 C 100.665 70.677,100.080 70.489,97.851 70.077 C 96.233 69.779,95.742 69.599,95.280 69.137 C 94.952 68.809,93.532 68.377,92.459 68.280 C 91.545 68.197,90.500 67.505,90.500 66.983 C 90.500 66.570,90.970 65.627,91.261 65.456 C 91.380 65.386,91.681 64.899,91.930 64.373 C 92.178 63.847,92.711 63.092,93.113 62.695 C 93.515 62.299,93.995 61.652,94.180 61.258 C 94.365 60.864,94.813 60.304,95.175 60.013 C 95.546 59.715,95.833 59.339,95.833 59.151 C 95.833 58.703,96.268 57.886,96.608 57.696 C 96.833 57.570,96.770 57.505,96.262 57.337 C 95.539 57.099,94.288 57.236,93.931 57.593 C 93.799 57.725,93.610 57.833,93.512 57.833 C 93.414 57.833,93.333 57.908,93.333 58.000 C 93.333 58.092,93.229 58.167,93.102 58.167 C 92.975 58.167,92.657 58.279,92.394 58.416 C 92.131 58.553,91.771 58.665,91.593 58.666 C 90.402 58.669,88.266 59.248,87.583 59.752 C 87.308 59.955,86.933 60.160,86.750 60.208 C 86.567 60.256,86.299 60.344,86.156 60.404 C 85.990 60.473,85.702 60.327,85.364 60.005 L 84.833 59.497 84.833 54.653 C 84.833 50.678,84.791 49.767,84.595 49.571 C 84.172 49.148,83.842 49.308,83.457 50.125 C 83.202 50.664,82.912 50.996,82.545 51.167 C 82.249 51.304,82.006 51.510,82.004 51.625 C 82.002 51.740,81.925 51.833,81.833 51.833 C 81.742 51.833,81.667 52.055,81.667 52.326 C 81.667 52.680,81.456 53.043,80.917 53.617 C 80.504 54.057,79.960 54.821,79.708 55.316 C 78.657 57.379,76.082 57.789,75.237 56.028 C 75.046 55.631,74.543 54.937,74.120 54.487 C 73.425 53.749,73.053 53.142,72.772 52.288 C 72.718 52.125,72.547 51.944,72.392 51.884 C 71.907 51.698,71.584 51.269,71.356 50.511 C 71.063 49.531,70.826 49.333,69.945 49.333 C 69.224 49.333,69.194 49.313,69.034 48.708 C 68.913 48.254,68.863 49.524,68.851 53.369 " stroke="none" fill="#040404" fill-rule="evenodd"></path><path id="path4" d="M68.495 14.953 C 67.415 15.705,67.493 14.585,67.526 28.833 C 67.557 41.992,67.506 43.211,66.945 42.892 C 66.838 42.831,67.059 43.074,67.436 43.432 C 67.814 43.790,68.175 44.271,68.239 44.500 C 68.396 45.057,68.882 46.058,69.059 46.187 C 69.137 46.244,69.118 46.446,69.017 46.635 C 68.441 47.712,69.000 49.333,69.948 49.333 C 70.826 49.333,71.063 49.532,71.356 50.511 C 71.584 51.269,71.907 51.698,72.392 51.884 C 72.547 51.944,72.718 52.125,72.772 52.288 C 73.053 53.142,73.425 53.749,74.120 54.487 C 74.543 54.937,75.046 55.631,75.237 56.028 C 76.082 57.789,78.657 57.379,79.708 55.316 C 79.960 54.821,80.504 54.057,80.917 53.617 C 81.456 53.043,81.667 52.680,81.667 52.326 C 81.667 52.055,81.742 51.833,81.833 51.833 C 81.925 51.833,82.002 51.740,82.004 51.625 C 82.006 51.510,82.249 51.304,82.545 51.167 C 82.912 50.996,83.202 50.664,83.457 50.125 C 83.842 49.308,84.172 49.148,84.595 49.571 C 84.791 49.767,84.833 50.678,84.833 54.653 L 84.833 59.497 85.364 60.005 C 85.702 60.327,85.990 60.473,86.156 60.404 C 86.299 60.344,86.567 60.256,86.750 60.208 C 86.933 60.160,87.308 59.955,87.583 59.752 C 88.266 59.248,90.402 58.669,91.593 58.666 C 91.771 58.665,92.131 58.553,92.394 58.416 C 92.657 58.279,92.975 58.167,93.102 58.167 C 93.229 58.167,93.333 58.092,93.333 58.000 C 93.333 57.908,93.414 57.833,93.512 57.833 C 93.610 57.833,93.799 57.725,93.931 57.593 C 94.288 57.236,95.539 57.099,96.262 57.337 C 96.770 57.505,96.833 57.570,96.608 57.696 C 96.268 57.886,95.833 58.703,95.833 59.151 C 95.833 59.339,95.546 59.715,95.175 60.013 C 94.813 60.304,94.365 60.864,94.180 61.258 C 93.995 61.652,93.515 62.299,93.113 62.695 C 92.711 63.092,92.178 63.847,91.930 64.373 C 91.681 64.899,91.380 65.386,91.261 65.456 C 90.970 65.627,90.500 66.570,90.500 66.983 C 90.500 67.505,91.545 68.197,92.459 68.280 C 93.532 68.377,94.952 68.809,95.280 69.137 C 95.742 69.599,96.233 69.779,97.851 70.077 C 100.083 70.489,100.666 70.677,100.673 70.985 C 100.676 71.131,100.722 71.544,100.774 71.903 C 100.853 72.452,100.806 72.605,100.476 72.870 C 100.177 73.108,100.283 73.087,100.917 72.780 C 102.669 71.930,104.490 71.658,105.671 72.069 C 106.081 72.212,106.518 72.330,106.642 72.331 C 106.767 72.332,107.254 72.520,107.726 72.748 C 108.197 72.975,108.415 73.041,108.208 72.894 C 107.895 72.670,107.833 72.471,107.833 71.681 L 107.833 70.735 108.875 70.525 C 112.376 69.820,112.784 69.694,113.450 69.112 C 113.811 68.796,114.290 68.662,116.250 68.329 C 117.707 68.081,118.840 67.646,119.361 67.134 C 119.519 66.979,119.934 66.804,120.282 66.746 C 120.631 66.688,121.134 66.572,121.400 66.487 C 121.666 66.403,122.153 66.333,122.483 66.333 C 123.112 66.333,125.167 65.460,125.167 65.193 C 125.167 65.036,125.350 64.985,127.000 64.682 C 129.118 64.293,130.294 63.905,130.686 63.468 C 130.834 63.302,131.011 63.167,131.078 63.167 C 131.418 63.167,132.437 62.543,132.936 62.030 C 133.595 61.351,133.590 61.373,133.195 60.927 C 132.877 60.569,132.500 59.158,132.500 58.326 C 132.500 57.638,131.718 55.333,131.485 55.333 C 131.262 55.333,130.835 54.000,130.603 52.583 C 130.356 51.073,129.839 49.599,129.439 49.264 C 129.320 49.165,129.127 48.746,129.009 48.333 C 128.223 45.583,127.553 45.031,126.290 46.094 C 126.025 46.317,125.635 46.500,125.425 46.500 C 125.214 46.500,124.723 46.612,124.333 46.750 C 123.944 46.887,123.390 47.001,123.104 47.003 C 122.439 47.006,121.623 47.295,120.630 47.879 C 120.197 48.133,119.522 48.408,119.130 48.490 C 118.293 48.663,116.281 49.107,115.625 49.263 C 115.373 49.323,115.167 49.438,115.167 49.519 C 115.167 49.600,115.062 49.667,114.934 49.667 C 114.807 49.667,114.664 49.765,114.618 49.886 C 114.533 50.108,113.838 50.298,111.417 50.762 C 110.039 51.026,109.000 51.411,109.000 51.657 C 109.000 51.906,107.021 52.500,106.188 52.500 C 105.409 52.500,103.291 53.278,103.000 53.671 C 102.812 53.924,101.000 53.985,101.000 53.738 C 101.000 53.601,101.162 53.500,101.383 53.500 C 101.935 53.500,102.167 53.191,102.167 52.453 C 102.167 51.903,102.287 51.685,102.964 51.004 C 103.403 50.563,103.907 49.932,104.085 49.601 C 104.263 49.271,104.467 49.000,104.538 49.000 C 104.609 49.000,104.667 48.915,104.667 48.811 C 104.667 48.707,104.842 48.463,105.056 48.269 C 105.618 47.760,106.167 46.914,106.167 46.557 C 106.167 46.387,106.437 46.024,106.767 45.749 C 107.098 45.475,107.542 44.913,107.754 44.500 C 107.966 44.087,108.502 43.366,108.945 42.896 C 109.388 42.427,109.900 41.699,110.083 41.280 C 110.267 40.860,110.578 40.443,110.774 40.353 C 110.971 40.263,111.335 39.753,111.584 39.220 C 111.833 38.686,112.258 38.072,112.528 37.855 C 112.798 37.638,113.237 37.076,113.503 36.605 C 113.769 36.135,114.244 35.486,114.559 35.163 C 114.873 34.840,115.337 34.203,115.588 33.746 C 115.840 33.290,116.298 32.660,116.606 32.347 C 117.526 31.413,117.311 30.591,115.967 29.902 C 115.664 29.747,115.167 29.331,114.862 28.977 C 114.557 28.623,114.201 28.333,114.070 28.333 C 113.940 28.333,113.833 28.267,113.833 28.187 C 113.833 28.106,113.600 27.944,113.314 27.825 C 113.028 27.707,112.542 27.350,112.234 27.033 C 111.658 26.440,110.956 26.000,110.585 26.000 C 110.470 26.000,110.152 25.738,109.877 25.417 C 109.603 25.096,109.294 24.833,109.190 24.833 C 109.085 24.833,109.000 24.767,109.000 24.687 C 109.000 24.606,108.756 24.440,108.458 24.316 C 108.160 24.193,107.729 23.903,107.500 23.671 C 107.045 23.211,105.432 22.000,105.274 22.000 C 105.220 22.000,104.780 21.817,104.296 21.593 C 103.044 21.013,102.167 21.094,102.167 21.790 C 102.167 21.906,102.104 22.000,102.026 22.000 C 101.949 22.000,101.674 22.391,101.414 22.868 C 101.154 23.346,100.692 23.986,100.387 24.291 C 100.083 24.595,99.833 24.990,99.833 25.167 C 99.833 25.344,99.458 25.876,99.000 26.349 C 98.542 26.822,98.167 27.280,98.167 27.367 C 98.167 27.453,98.073 27.628,97.958 27.756 C 97.520 28.245,97.333 28.489,97.333 28.573 C 97.333 28.621,97.081 28.920,96.773 29.238 C 96.464 29.556,96.051 30.157,95.855 30.574 C 95.659 30.990,95.279 31.527,95.011 31.767 C 94.742 32.006,94.404 32.498,94.259 32.859 C 94.115 33.220,93.670 33.833,93.272 34.220 C 92.874 34.607,92.406 35.176,92.232 35.484 C 91.634 36.546,91.558 36.654,91.094 37.118 C 90.838 37.374,90.457 37.938,90.247 38.372 C 90.038 38.805,89.649 39.343,89.383 39.567 C 89.117 39.791,88.722 40.319,88.505 40.740 C 87.944 41.832,87.803 41.906,87.234 41.417 L 86.750 41.001 86.625 28.488 C 86.528 18.849,86.451 15.928,86.291 15.770 C 86.177 15.657,85.785 15.363,85.420 15.116 L 84.756 14.667 76.832 14.667 C 69.610 14.667,68.871 14.692,68.495 14.953 M84.138 15.775 C 84.879 15.974,84.886 16.091,84.990 30.500 C 85.083 43.354,85.110 44.296,85.396 44.958 C 85.790 45.868,86.074 45.855,86.351 44.917 C 86.473 44.504,86.631 44.167,86.703 44.167 C 86.775 44.167,86.833 44.072,86.833 43.956 C 86.833 43.840,87.136 43.559,87.507 43.331 C 88.203 42.903,88.800 42.170,89.271 41.167 C 89.335 41.029,89.682 40.593,90.040 40.198 C 90.399 39.803,90.803 39.215,90.938 38.892 C 91.073 38.568,91.480 38.013,91.842 37.658 C 92.204 37.304,92.500 36.898,92.500 36.757 C 92.500 36.615,92.570 36.500,92.655 36.500 C 92.741 36.500,92.856 36.358,92.911 36.183 C 92.967 36.009,93.334 35.521,93.727 35.099 C 94.120 34.677,94.602 34.010,94.798 33.617 C 94.995 33.225,95.349 32.735,95.586 32.529 C 95.823 32.322,96.156 31.830,96.326 31.434 C 96.496 31.038,96.888 30.459,97.197 30.149 C 97.898 29.445,98.667 28.414,98.667 28.178 C 98.667 28.080,98.742 28.000,98.833 28.000 C 98.925 28.000,99.000 27.889,99.000 27.754 C 99.000 27.618,99.192 27.382,99.428 27.228 C 99.663 27.073,100.071 26.528,100.336 26.015 C 100.600 25.503,101.013 24.902,101.253 24.680 C 101.492 24.459,101.831 24.009,102.005 23.680 C 102.179 23.352,102.461 22.908,102.630 22.695 L 102.939 22.306 103.928 22.589 C 105.131 22.932,106.167 23.484,106.167 23.781 C 106.167 23.901,106.228 24.000,106.302 24.000 C 106.376 24.000,106.602 24.153,106.803 24.341 C 107.004 24.528,107.548 24.872,108.012 25.105 C 108.475 25.338,108.895 25.633,108.944 25.762 C 108.993 25.890,109.457 26.231,109.975 26.520 C 110.493 26.809,111.142 27.265,111.417 27.533 C 111.692 27.801,112.296 28.270,112.759 28.574 C 113.222 28.878,113.870 29.381,114.200 29.692 C 114.530 30.003,115.144 30.430,115.566 30.640 C 116.421 31.067,116.523 31.368,115.944 31.748 C 115.729 31.888,115.336 32.419,115.070 32.928 C 114.804 33.437,114.360 34.070,114.085 34.334 C 113.428 34.964,112.993 35.558,112.683 36.250 C 112.601 36.433,112.295 36.808,112.003 37.083 C 111.712 37.358,111.287 37.975,111.060 38.454 C 110.832 38.933,110.430 39.479,110.166 39.667 C 109.902 39.855,109.635 40.169,109.573 40.365 C 109.436 40.797,108.486 42.116,107.961 42.604 C 107.752 42.799,107.415 43.289,107.213 43.694 C 107.010 44.099,106.648 44.601,106.408 44.810 C 106.168 45.019,105.824 45.523,105.643 45.930 C 105.463 46.338,105.032 46.951,104.685 47.294 C 104.339 47.636,103.875 48.217,103.656 48.583 C 103.174 49.387,102.876 49.767,102.361 50.232 C 102.147 50.425,101.790 50.958,101.568 51.417 C 101.347 51.875,100.939 52.471,100.661 52.741 C 98.348 54.993,102.048 55.858,105.599 53.895 C 106.158 53.586,106.813 53.333,107.055 53.333 C 107.503 53.333,108.558 53.116,109.740 52.779 C 110.101 52.677,110.649 52.421,110.959 52.211 C 111.525 51.826,112.566 51.513,114.417 51.169 C 114.967 51.067,115.979 50.696,116.667 50.346 C 117.409 49.968,118.391 49.627,119.083 49.507 C 121.358 49.111,122.340 48.788,122.933 48.242 C 123.238 47.962,125.656 47.333,126.430 47.333 C 126.664 47.333,126.986 47.263,127.146 47.178 C 127.521 46.977,127.840 47.604,128.243 49.333 C 128.403 50.021,128.758 50.988,129.033 51.484 C 129.558 52.433,130.000 53.873,130.000 54.640 C 130.000 55.258,130.538 56.744,130.977 57.337 C 131.370 57.869,131.743 59.133,131.916 60.520 C 132.042 61.531,131.593 62.167,130.752 62.167 C 130.217 62.167,129.005 62.652,128.598 63.030 C 128.222 63.379,127.084 63.713,125.281 64.006 C 124.331 64.160,123.699 64.384,122.947 64.831 C 122.222 65.262,121.546 65.507,120.667 65.656 C 119.201 65.904,117.918 66.296,117.333 66.672 C 116.650 67.113,115.723 67.500,115.352 67.500 C 114.469 67.500,111.794 68.276,111.379 68.653 C 111.009 68.988,109.644 69.398,107.949 69.684 C 106.806 69.876,106.564 69.982,105.963 70.554 C 105.059 71.414,104.383 71.424,103.041 70.595 C 102.084 70.004,100.548 69.500,99.706 69.500 C 99.189 69.500,97.936 69.061,97.333 68.670 C 96.621 68.206,95.633 67.873,94.333 67.657 C 92.344 67.326,91.897 67.099,92.231 66.590 C 92.379 66.363,92.500 66.056,92.500 65.906 C 92.500 65.480,92.999 64.535,93.441 64.124 C 93.919 63.679,95.000 62.225,95.000 62.026 C 95.000 61.949,95.332 61.535,95.738 61.105 C 96.144 60.676,96.521 60.116,96.577 59.860 C 96.633 59.605,97.014 59.082,97.423 58.697 C 98.268 57.902,98.432 57.031,97.867 56.334 L 97.567 55.964 95.844 56.315 C 94.896 56.508,93.970 56.667,93.787 56.667 C 93.604 56.667,92.840 56.966,92.089 57.331 C 90.623 58.043,88.768 58.511,86.958 58.624 L 85.833 58.694 85.831 53.472 C 85.830 50.600,85.784 48.084,85.730 47.881 C 85.529 47.133,84.125 47.059,83.551 47.766 C 83.008 48.435,82.947 48.524,82.694 49.016 C 82.572 49.253,82.168 49.778,81.797 50.182 C 81.426 50.586,80.987 51.217,80.820 51.583 C 80.654 51.950,80.252 52.509,79.926 52.824 C 79.601 53.140,79.287 53.553,79.229 53.741 C 79.007 54.459,78.474 54.994,77.783 55.193 C 77.398 55.304,76.942 55.489,76.770 55.603 C 76.488 55.791,76.417 55.731,76.059 55.014 C 75.841 54.576,75.356 53.887,74.982 53.484 C 74.124 52.558,73.667 51.924,73.667 51.658 C 73.667 51.544,73.408 51.199,73.091 50.891 C 72.774 50.583,72.382 50.051,72.221 49.708 C 71.958 49.151,71.445 48.487,70.655 47.683 C 70.069 47.087,69.597 46.237,69.452 45.515 C 69.322 44.872,68.961 16.175,69.080 16.037 C 69.348 15.729,83.075 15.490,84.138 15.775 M179.783 42.542 C 179.563 42.840,179.315 43.196,179.233 43.333 C 179.148 43.476,179.047 53.092,178.999 65.667 C 178.907 89.841,178.984 88.157,177.925 89.216 C 177.651 89.490,177.087 89.900,176.672 90.128 C 175.827 90.591,175.167 91.143,175.167 91.386 C 175.167 91.755,174.533 91.990,173.526 91.995 C 171.352 92.006,171.166 92.395,171.168 96.928 C 171.169 101.482,171.444 102.277,173.000 102.225 C 173.894 102.196,175.736 101.612,176.368 101.158 C 176.617 100.979,176.967 100.833,177.147 100.833 C 177.563 100.833,179.076 100.532,179.821 100.301 C 180.135 100.204,180.757 99.759,181.204 99.312 C 181.651 98.865,182.113 98.500,182.232 98.500 C 182.554 98.500,183.161 97.922,183.493 97.299 C 183.654 96.997,183.946 96.668,184.142 96.569 C 184.757 96.255,185.168 95.795,185.496 95.055 C 185.670 94.661,186.090 94.056,186.429 93.711 C 187.152 92.975,187.665 92.191,187.666 91.821 C 187.666 91.676,187.852 91.384,188.078 91.171 C 189.301 90.022,189.331 89.397,189.331 65.083 C 189.331 44.369,189.322 43.736,189.013 43.267 C 188.172 41.992,188.202 42.000,183.983 42.000 L 180.184 42.000 179.783 42.542 M213.697 42.472 C 212.602 43.494,212.649 42.427,212.715 65.000 C 212.759 79.968,212.828 85.661,212.974 86.333 C 213.380 88.210,213.558 88.762,213.915 89.250 C 214.116 89.525,214.336 90.050,214.405 90.417 C 214.473 90.783,214.584 91.391,214.651 91.767 C 214.785 92.517,215.581 94.000,215.850 94.000 C 215.942 94.000,216.215 94.430,216.456 94.956 C 216.962 96.061,217.255 96.409,217.829 96.586 C 218.056 96.656,218.552 97.021,218.931 97.398 C 219.927 98.387,220.332 98.660,221.093 98.853 C 221.600 98.981,221.845 99.162,222.066 99.573 C 222.282 99.973,222.551 100.179,223.056 100.329 C 223.438 100.442,223.922 100.602,224.133 100.684 C 224.343 100.766,224.630 100.833,224.769 100.833 C 224.908 100.833,225.261 101.011,225.553 101.228 C 227.522 102.692,233.693 102.640,235.187 101.146 C 235.359 100.974,235.631 100.833,235.792 100.833 C 237.164 100.833,239.382 99.966,239.577 99.353 C 239.629 99.190,240.026 98.880,240.461 98.664 C 241.370 98.211,241.427 98.159,242.044 97.208 C 242.298 96.819,242.602 96.500,242.721 96.500 C 243.030 96.500,243.742 95.680,243.999 95.028 C 244.120 94.722,244.515 94.160,244.878 93.778 C 245.658 92.957,246.165 92.186,246.166 91.821 C 246.166 91.676,246.352 91.384,246.578 91.171 C 247.730 90.090,247.831 88.608,247.836 72.667 C 247.842 58.075,247.854 57.838,248.655 57.037 C 248.927 56.765,249.201 56.327,249.264 56.063 C 249.327 55.799,249.465 55.471,249.571 55.333 C 249.677 55.196,249.859 54.894,249.974 54.662 C 250.262 54.082,251.426 53.382,252.511 53.137 C 253.009 53.024,253.772 52.685,254.207 52.383 C 255.140 51.734,256.367 51.607,256.647 52.130 C 256.851 52.510,258.141 53.157,258.955 53.287 C 259.642 53.396,260.320 53.804,260.328 54.113 C 260.333 54.296,260.650 54.585,261.459 55.146 C 261.697 55.311,261.868 55.779,262.068 56.813 C 262.222 57.603,262.419 58.480,262.507 58.762 C 262.603 59.069,262.667 64.187,262.667 71.575 C 262.667 83.738,262.671 83.884,263.013 84.437 C 263.288 84.883,263.409 85.550,263.607 87.707 C 263.904 90.959,264.066 91.572,264.831 92.333 C 265.153 92.654,265.563 93.203,265.741 93.554 C 265.919 93.904,266.294 94.351,266.574 94.547 C 267.215 94.997,267.488 95.339,267.495 95.700 C 267.501 96.021,268.415 96.769,268.912 96.859 C 269.094 96.893,269.325 97.087,269.427 97.292 C 269.723 97.886,270.202 98.344,270.779 98.585 C 271.074 98.708,271.638 99.144,272.033 99.554 C 272.724 100.273,273.970 100.833,274.875 100.833 C 275.048 100.833,275.428 101.006,275.719 101.217 C 277.177 102.271,281.866 102.693,283.683 101.934 C 285.005 101.381,285.248 101.253,285.383 101.042 C 285.457 100.927,285.727 100.833,285.983 100.833 C 286.240 100.833,286.668 100.765,286.933 100.680 C 287.199 100.596,287.620 100.483,287.868 100.429 C 288.372 100.319,289.014 99.777,289.314 99.208 C 289.423 99.002,289.635 98.833,289.786 98.833 C 290.805 98.833,292.755 97.294,293.257 96.093 C 293.390 95.774,293.648 95.432,293.830 95.335 C 294.283 95.093,295.000 94.003,295.000 93.556 C 295.000 93.331,295.210 93.042,295.542 92.809 C 296.477 92.152,296.574 91.882,296.995 88.760 C 297.081 88.123,297.289 87.412,297.459 87.177 C 298.491 85.751,298.500 85.562,298.500 64.114 C 298.500 43.490,298.505 43.639,297.709 42.542 L 297.316 42.000 293.503 42.000 C 290.336 42.000,289.648 42.042,289.440 42.250 C 289.303 42.388,289.142 42.500,289.083 42.500 C 288.922 42.500,288.585 42.874,288.407 43.250 C 288.313 43.451,288.217 51.979,288.167 64.667 L 288.083 85.750 287.678 86.583 C 287.456 87.042,287.099 87.649,286.887 87.932 C 286.674 88.216,286.500 88.561,286.500 88.699 C 286.500 89.468,286.143 89.943,285.349 90.228 C 284.756 90.441,284.463 90.666,284.241 91.078 C 283.880 91.748,283.585 91.822,280.766 91.943 C 278.232 92.053,277.561 91.877,276.525 90.832 C 276.099 90.403,275.549 90.002,275.303 89.942 C 274.735 89.803,274.333 89.403,274.333 88.977 C 274.333 88.794,274.252 88.492,274.152 88.306 C 273.373 86.850,273.264 85.015,273.171 71.833 C 273.087 59.760,273.070 59.226,272.759 58.667 C 272.518 58.235,272.402 57.585,272.312 56.167 C 272.157 53.731,271.940 52.784,271.396 52.173 C 271.158 51.905,270.864 51.497,270.744 51.266 C 270.021 49.871,269.338 49.001,268.967 49.000 C 268.903 49.000,268.717 48.576,268.553 48.058 C 268.278 47.184,268.196 47.088,267.420 46.731 C 266.934 46.508,266.473 46.152,266.320 45.882 C 266.047 45.399,264.499 44.508,263.925 44.503 C 263.746 44.501,263.363 44.271,263.075 43.991 C 262.414 43.351,261.266 43.040,259.087 42.911 C 258.168 42.857,257.054 42.733,256.610 42.636 C 255.820 42.463,254.672 42.536,250.780 43.005 C 249.335 43.179,248.405 43.545,247.946 44.119 C 247.779 44.329,247.532 44.500,247.397 44.500 C 246.978 44.500,245.430 45.587,245.180 46.055 C 245.050 46.300,244.825 46.502,244.680 46.504 C 244.029 46.513,243.051 47.140,242.772 47.727 C 242.600 48.089,242.328 48.370,242.092 48.429 C 241.731 48.520,241.410 49.014,240.786 50.440 C 240.700 50.636,240.450 50.878,240.230 50.979 C 239.651 51.243,239.396 51.987,239.083 54.333 C 238.931 55.479,238.739 56.529,238.657 56.667 C 238.576 56.804,238.302 57.292,238.048 57.750 L 237.586 58.583 237.501 73.167 C 237.423 86.445,237.390 87.795,237.134 88.250 C 236.674 89.067,235.904 89.772,234.936 90.262 C 234.429 90.519,233.928 90.914,233.805 91.153 C 233.391 91.957,233.254 91.989,230.242 91.995 L 227.400 92.000 226.284 90.943 C 225.636 90.329,225.088 89.647,224.977 89.318 C 224.759 88.666,224.210 88.000,223.891 88.000 C 223.771 88.000,223.627 87.794,223.570 87.542 C 223.514 87.290,223.400 86.821,223.318 86.500 C 223.234 86.171,223.168 76.754,223.168 64.883 C 223.167 42.143,223.216 43.350,222.250 42.467 L 221.750 42.010 217.976 42.005 L 214.202 42.000 213.697 42.472 M313.925 42.266 C 312.655 43.536,312.565 50.574,313.813 51.093 C 314.959 51.570,316.654 51.666,323.917 51.669 C 328.042 51.671,331.510 51.731,331.623 51.803 C 331.786 51.906,331.839 57.199,331.873 76.634 L 331.917 101.334 332.378 101.731 C 333.233 102.466,339.607 102.856,341.031 102.261 C 342.154 101.792,342.075 103.589,342.167 76.417 L 342.250 51.750 350.750 51.651 C 358.744 51.558,359.701 51.501,360.337 51.083 C 361.528 50.300,361.238 43.493,359.969 42.442 L 359.436 42.000 336.813 42.000 C 316.329 42.000,314.165 42.025,313.925 42.266 M188.160 43.865 C 188.498 44.228,188.500 44.330,188.497 64.323 C 188.494 85.404,188.475 85.999,187.763 87.696 C 187.464 88.409,186.918 90.113,186.669 91.109 C 186.551 91.580,186.230 92.068,185.665 92.637 C 185.207 93.097,184.833 93.591,184.833 93.736 C 184.833 93.881,184.758 94.000,184.667 94.000 C 184.575 94.000,184.500 94.106,184.500 94.235 C 184.500 94.365,184.106 94.876,183.625 95.371 C 183.144 95.867,182.600 96.479,182.417 96.732 C 182.233 96.985,181.558 97.500,180.917 97.876 C 180.275 98.253,179.538 98.772,179.279 99.031 C 179.020 99.289,178.645 99.531,178.445 99.569 C 176.692 99.901,175.015 100.169,174.691 100.168 C 174.475 100.167,173.933 100.350,173.487 100.574 C 173.040 100.799,172.633 100.914,172.581 100.830 C 172.013 99.910,171.804 96.354,172.194 94.235 L 172.388 93.183 173.202 93.008 C 173.650 92.912,174.192 92.833,174.406 92.833 C 174.981 92.833,175.740 92.472,176.372 91.896 C 176.680 91.616,177.303 91.174,177.758 90.914 C 179.152 90.114,179.534 89.499,180.086 87.167 C 180.879 83.812,180.833 85.215,180.833 64.082 L 180.833 44.247 181.208 43.998 C 181.892 43.546,182.063 43.524,184.952 43.512 C 187.696 43.501,187.835 43.516,188.160 43.865 M221.458 43.885 L 222.000 44.175 222.001 64.213 C 222.003 85.882,222.044 87.060,222.852 88.497 C 223.059 88.865,223.318 89.167,223.428 89.167 C 223.538 89.167,223.825 89.583,224.065 90.091 C 225.171 92.426,226.285 92.918,230.417 92.898 C 233.508 92.882,233.881 92.799,234.872 91.896 C 235.180 91.616,235.803 91.174,236.258 90.914 C 237.809 90.024,238.005 89.643,238.911 85.750 L 239.338 83.917 239.336 71.638 C 239.334 64.462,239.400 59.024,239.493 58.554 C 239.581 58.112,239.733 57.150,239.832 56.417 C 240.198 53.677,240.285 53.382,241.133 52.000 C 241.385 51.587,241.738 50.913,241.917 50.500 C 242.095 50.087,242.290 49.712,242.350 49.667 C 242.410 49.621,242.655 49.434,242.896 49.252 C 243.137 49.070,243.333 48.841,243.333 48.743 C 243.333 48.328,244.466 47.333,244.939 47.333 C 245.463 47.332,246.137 46.959,246.936 46.226 C 247.548 45.664,248.081 45.333,248.373 45.333 C 248.489 45.334,249.108 45.078,249.750 44.766 C 253.002 43.183,257.816 43.243,261.593 44.914 C 262.115 45.145,262.683 45.333,262.856 45.333 C 263.143 45.333,263.461 45.461,264.167 45.860 C 264.304 45.937,264.578 46.071,264.775 46.157 C 264.972 46.242,265.234 46.448,265.358 46.614 C 265.584 46.918,265.967 47.131,266.944 47.497 C 267.489 47.702,267.672 48.015,268.004 49.311 C 268.106 49.711,268.391 50.234,268.637 50.473 C 269.284 51.104,269.997 52.197,270.011 52.583 C 270.019 52.767,270.168 53.142,270.343 53.417 C 271.545 55.302,271.644 56.671,271.656 71.583 C 271.667 85.464,271.758 87.240,272.502 88.102 C 272.748 88.387,273.182 89.027,273.467 89.525 C 273.802 90.111,274.209 90.556,274.624 90.789 C 274.975 90.987,275.496 91.439,275.781 91.794 C 276.501 92.689,277.514 92.918,280.750 92.913 C 283.737 92.910,284.276 92.761,285.374 91.640 C 285.809 91.196,286.237 90.833,286.326 90.833 C 286.569 90.833,287.333 89.955,287.339 89.668 C 287.345 89.360,287.728 88.833,287.946 88.833 C 288.034 88.833,288.288 88.515,288.511 88.125 L 288.917 87.417 288.968 65.813 C 289.019 44.340,289.021 44.207,289.359 43.844 C 289.907 43.257,295.590 43.379,296.242 43.992 L 296.677 44.401 296.624 64.825 C 296.587 79.455,296.517 85.534,296.378 86.250 C 296.272 86.800,296.103 87.850,296.002 88.583 C 295.819 89.923,295.405 91.167,295.141 91.167 C 295.064 91.167,295.000 91.279,295.000 91.417 C 295.000 91.554,294.942 91.667,294.871 91.667 C 294.705 91.667,294.223 92.620,294.097 93.197 C 293.992 93.678,293.846 93.857,293.031 94.500 C 292.741 94.729,292.502 95.017,292.502 95.139 C 292.498 95.727,289.853 98.000,289.174 98.000 C 289.015 98.000,288.592 98.293,288.234 98.650 C 287.489 99.394,286.620 99.729,284.535 100.075 C 283.736 100.207,282.457 100.501,281.692 100.727 C 280.320 101.132,279.736 101.119,279.083 100.670 C 278.889 100.537,277.684 100.281,275.618 99.933 C 274.234 99.701,274.102 99.641,273.258 98.870 C 272.766 98.420,272.090 97.923,271.755 97.764 C 271.421 97.605,270.873 97.208,270.537 96.883 C 270.201 96.557,269.604 96.152,269.210 95.983 C 268.816 95.814,268.450 95.542,268.398 95.379 C 268.178 94.694,267.883 94.216,267.333 93.655 C 266.784 93.096,266.000 91.818,266.000 91.483 C 266.000 91.400,265.830 90.976,265.622 90.541 C 264.378 87.941,264.334 87.322,264.330 72.372 C 264.325 56.092,264.365 56.399,261.929 53.926 C 261.076 53.060,260.520 52.645,259.917 52.426 C 259.458 52.259,258.896 51.960,258.667 51.762 C 257.296 50.574,253.794 50.570,252.000 51.754 C 251.679 51.966,251.005 52.359,250.501 52.628 C 249.814 52.993,249.409 53.372,248.885 54.138 C 248.501 54.700,248.033 55.324,247.847 55.524 C 247.012 56.420,247.000 56.647,247.000 71.042 C 247.000 85.925,247.032 85.430,245.846 88.917 C 245.566 89.742,245.262 90.717,245.173 91.083 C 245.065 91.523,244.723 92.045,244.171 92.614 C 243.710 93.089,243.333 93.596,243.333 93.739 C 243.333 93.883,243.258 94.000,243.167 94.000 C 243.075 94.000,243.000 94.106,243.000 94.235 C 243.000 94.365,242.606 94.876,242.125 95.371 C 241.644 95.867,241.100 96.479,240.917 96.732 C 240.733 96.985,240.058 97.500,239.417 97.876 C 238.775 98.253,238.038 98.772,237.779 99.031 C 237.520 99.289,237.107 99.539,236.862 99.586 C 236.617 99.633,236.115 99.741,235.746 99.825 C 235.377 99.910,234.665 100.024,234.163 100.080 C 233.183 100.190,232.024 100.481,231.745 100.687 C 231.357 100.973,229.094 100.863,228.169 100.513 C 227.666 100.322,227.050 100.167,226.800 100.167 C 226.550 100.167,226.024 100.065,225.631 99.941 C 225.238 99.816,224.593 99.615,224.196 99.493 C 223.800 99.372,223.375 99.127,223.251 98.950 C 222.990 98.578,222.093 98.000,221.776 98.000 C 221.657 98.000,221.046 97.556,220.418 97.013 C 219.790 96.470,219.083 95.927,218.846 95.806 C 218.203 95.476,217.718 94.870,217.134 93.667 C 216.844 93.071,216.561 92.546,216.504 92.500 C 215.838 91.964,215.421 90.740,215.170 88.583 C 215.095 87.942,214.952 87.192,214.851 86.917 C 214.751 86.642,214.481 85.868,214.251 85.198 L 213.833 83.980 213.833 64.183 C 213.833 41.820,213.699 43.947,215.126 43.651 C 216.347 43.398,220.859 43.565,221.458 43.885 M359.279 43.934 L 359.750 44.286 359.795 47.198 L 359.841 50.110 359.379 50.347 C 359.002 50.540,357.409 50.592,350.750 50.630 C 342.126 50.680,341.809 50.708,341.208 51.467 C 341.044 51.675,341.000 56.902,341.000 76.332 C 341.000 95.244,340.954 100.980,340.800 101.133 C 340.524 101.409,335.185 101.411,334.580 101.135 C 333.624 100.699,333.667 101.888,333.667 75.874 L 333.667 51.955 333.256 51.574 C 332.348 50.732,331.642 50.667,323.517 50.667 C 316.751 50.667,315.936 50.638,315.334 50.377 L 314.667 50.088 314.667 47.248 C 314.667 44.162,314.689 44.087,315.723 43.665 C 315.927 43.581,325.368 43.532,337.446 43.550 L 358.809 43.583 359.279 43.934 M23.583 55.000 C 23.441 55.275,23.362 55.500,23.408 55.500 C 23.454 55.500,23.608 55.275,23.750 55.000 C 23.892 54.725,23.971 54.500,23.925 54.500 C 23.879 54.500,23.726 54.725,23.583 55.000 M68.581 58.542 C 68.491 58.748,68.154 59.006,67.833 59.116 C 67.317 59.292,67.299 59.316,67.677 59.324 C 68.147 59.334,68.833 58.792,68.833 58.410 C 68.833 58.073,68.773 58.105,68.581 58.542 M62.028 65.342 C 62.125 65.622,62.236 65.819,62.274 65.782 C 62.356 65.699,62.042 64.833,61.929 64.833 C 61.886 64.833,61.930 65.062,62.028 65.342 M36.000 66.741 C 36.000 66.787,36.225 66.941,36.500 67.083 C 36.775 67.226,37.000 67.304,37.000 67.259 C 37.000 67.213,36.775 67.059,36.500 66.917 C 36.225 66.774,36.000 66.696,36.000 66.741 M47.500 70.897 C 47.271 71.019,46.821 71.253,46.500 71.416 C 46.179 71.579,45.692 71.918,45.417 72.168 C 44.799 72.731,43.818 73.078,42.083 73.349 C 40.571 73.585,39.912 73.822,39.382 74.320 C 39.180 74.511,38.924 74.667,38.813 74.667 C 38.703 74.667,38.231 74.775,37.765 74.907 C 37.298 75.040,36.366 75.240,35.692 75.354 C 34.849 75.495,34.268 75.704,33.826 76.024 C 33.473 76.280,32.974 76.537,32.717 76.596 C 32.460 76.655,31.929 76.808,31.536 76.935 C 31.143 77.062,30.575 77.167,30.274 77.167 C 29.574 77.167,28.305 77.597,27.898 77.972 C 27.455 78.381,26.807 78.597,25.083 78.911 C 22.360 79.408,21.878 79.655,21.244 80.869 C 20.663 81.981,20.775 82.739,21.666 83.750 C 21.958 84.081,22.002 84.250,22.336 86.333 C 22.555 87.700,22.805 88.449,23.254 89.083 C 23.813 89.873,24.306 91.506,24.337 92.667 C 24.401 95.127,26.411 97.044,28.544 96.680 C 30.417 96.359,31.307 96.072,31.837 95.619 C 32.257 95.259,33.497 94.884,35.000 94.661 C 36.323 94.465,37.080 94.179,37.947 93.551 C 38.239 93.340,38.594 93.167,38.736 93.167 C 38.879 93.167,39.315 93.095,39.706 93.007 C 40.097 92.919,40.974 92.727,41.656 92.579 C 42.460 92.404,43.146 92.129,43.611 91.796 C 44.301 91.300,44.743 91.174,46.917 90.849 C 48.098 90.673,48.793 90.423,49.250 90.010 C 49.724 89.581,51.204 89.136,51.950 89.198 C 52.935 89.279,52.901 89.844,51.843 91.001 C 51.383 91.505,50.819 92.307,50.592 92.784 C 50.364 93.261,49.992 93.773,49.764 93.923 C 49.537 94.072,49.220 94.535,49.061 94.952 C 48.792 95.656,47.799 96.833,47.474 96.833 C 47.397 96.833,47.333 96.920,47.333 97.026 C 47.333 97.132,47.146 97.464,46.917 97.765 C 46.688 98.065,46.500 98.373,46.500 98.448 C 46.500 98.523,46.163 98.946,45.750 99.389 C 45.337 99.832,45.000 100.308,45.000 100.447 C 45.000 100.801,44.465 101.667,44.245 101.667 C 44.025 101.667,43.424 102.452,43.268 102.942 C 43.207 103.136,42.778 103.696,42.314 104.187 C 41.851 104.677,41.328 105.397,41.151 105.785 C 40.974 106.174,40.534 106.784,40.173 107.141 C 39.812 107.498,39.463 108.005,39.397 108.268 C 39.331 108.531,38.915 109.120,38.472 109.577 C 37.940 110.126,37.667 110.552,37.667 110.830 C 37.667 111.062,37.601 111.483,37.520 111.765 C 37.332 112.419,37.621 112.810,38.750 113.429 C 39.208 113.680,39.799 114.136,40.063 114.443 C 40.327 114.749,40.645 115.000,40.771 115.000 C 40.897 115.000,41.000 115.058,41.000 115.129 C 41.000 115.200,41.281 115.404,41.625 115.583 C 41.969 115.762,42.614 116.229,43.060 116.621 C 43.505 117.013,44.009 117.333,44.179 117.333 C 44.349 117.333,44.810 117.659,45.203 118.058 C 45.595 118.456,46.217 118.960,46.583 119.178 C 46.950 119.396,47.504 119.801,47.815 120.079 C 48.126 120.356,48.465 120.658,48.568 120.750 C 48.936 121.076,49.806 121.500,50.109 121.501 C 50.503 121.502,52.066 120.956,52.139 120.792 C 52.169 120.723,52.282 120.667,52.390 120.667 C 52.497 120.667,52.693 120.423,52.825 120.125 C 53.099 119.506,53.053 119.570,54.157 118.272 C 54.615 117.734,55.149 116.964,55.344 116.560 C 55.540 116.157,55.849 115.748,56.032 115.650 C 56.215 115.552,56.541 115.072,56.757 114.583 C 56.979 114.081,57.406 113.490,57.737 113.225 C 58.060 112.968,58.411 112.549,58.516 112.295 C 58.621 112.041,58.773 111.833,58.854 111.833 C 58.934 111.833,59.000 111.734,59.000 111.612 C 59.000 111.491,59.346 111.022,59.768 110.571 C 60.191 110.119,60.687 109.419,60.872 109.014 C 61.056 108.609,61.422 108.097,61.685 107.876 C 61.948 107.655,62.302 107.160,62.471 106.776 C 62.641 106.393,63.020 105.855,63.314 105.581 C 63.607 105.307,64.156 104.596,64.532 104.000 C 64.909 103.404,65.427 102.740,65.684 102.524 C 65.941 102.307,66.272 101.770,66.418 101.330 C 66.564 100.889,66.791 100.488,66.923 100.437 C 67.559 100.193,67.582 100.630,67.632 114.250 C 67.684 128.166,67.682 128.135,68.461 128.490 C 69.027 128.748,84.316 128.732,85.231 128.472 C 85.608 128.365,86.123 128.088,86.375 127.858 L 86.833 127.438 86.833 114.722 C 86.833 101.565,86.877 100.667,87.518 100.667 C 87.783 100.667,87.676 100.326,87.292 99.950 C 87.085 99.749,86.746 99.243,86.537 98.826 C 86.224 98.203,85.369 97.531,85.133 97.723 C 85.115 97.738,85.059 104.125,85.008 111.917 C 84.921 125.382,84.901 126.106,84.606 126.542 L 84.295 127.000 77.189 126.995 C 69.533 126.989,69.684 127.006,69.340 126.101 C 69.225 125.799,69.167 120.991,69.167 111.850 C 69.167 104.263,69.115 98.004,69.053 97.942 C 68.990 97.879,68.709 98.048,68.428 98.318 C 68.147 98.588,67.588 98.983,67.186 99.196 C 66.638 99.486,66.324 99.822,65.932 100.535 C 65.645 101.059,65.182 101.710,64.904 101.981 C 64.627 102.253,64.255 102.743,64.078 103.071 C 63.902 103.399,63.700 103.667,63.629 103.667 C 63.558 103.667,63.500 103.752,63.500 103.856 C 63.500 103.960,63.327 104.203,63.117 104.397 C 62.591 104.881,61.939 105.811,61.687 106.436 C 61.572 106.722,61.297 107.052,61.076 107.171 C 60.850 107.292,60.551 107.709,60.391 108.127 C 60.236 108.534,59.793 109.179,59.407 109.559 C 59.022 109.939,58.592 110.475,58.452 110.750 C 58.313 111.025,57.826 111.674,57.372 112.192 C 56.917 112.710,56.377 113.483,56.170 113.909 C 55.964 114.335,55.623 114.797,55.412 114.935 C 55.201 115.073,54.915 115.463,54.777 115.802 C 54.640 116.140,54.215 116.754,53.835 117.167 C 53.101 117.962,52.306 119.063,52.126 119.533 C 52.024 119.799,50.427 120.667,50.039 120.667 C 49.941 120.667,49.460 120.309,48.972 119.871 C 47.816 118.836,47.006 118.243,46.550 118.099 C 46.349 118.035,46.142 117.856,46.091 117.700 C 45.988 117.383,44.962 116.667,44.612 116.667 C 44.488 116.667,44.093 116.383,43.735 116.035 C 43.377 115.688,42.746 115.202,42.333 114.955 C 41.921 114.708,41.229 114.182,40.796 113.785 C 40.363 113.388,39.669 112.894,39.254 112.687 C 38.839 112.479,38.500 112.236,38.500 112.145 C 38.500 111.551,38.942 110.360,39.273 110.064 C 39.489 109.870,39.667 109.635,39.667 109.543 C 39.667 109.450,39.779 109.281,39.917 109.167 C 40.054 109.053,40.167 108.837,40.167 108.688 C 40.167 108.538,40.504 108.054,40.917 107.611 C 41.329 107.168,41.667 106.718,41.667 106.611 C 41.668 106.504,42.123 105.892,42.680 105.250 C 43.237 104.608,43.834 103.775,44.006 103.398 C 44.179 103.022,44.509 102.590,44.739 102.439 C 44.970 102.288,45.320 101.789,45.517 101.331 C 45.714 100.873,46.111 100.291,46.399 100.038 C 46.687 99.785,47.137 99.213,47.398 98.766 C 47.660 98.320,48.071 97.745,48.312 97.490 C 49.058 96.698,49.240 96.440,49.566 95.712 C 49.739 95.324,50.046 94.899,50.248 94.767 C 50.450 94.634,50.809 94.118,51.045 93.619 C 51.281 93.120,51.733 92.496,52.049 92.231 C 52.365 91.967,52.747 91.525,52.897 91.250 C 53.250 90.605,53.560 90.105,53.672 90.000 C 54.150 89.552,54.688 87.635,54.397 87.415 C 54.058 87.158,53.500 87.085,53.500 87.297 C 53.500 87.585,52.506 87.972,51.083 88.239 C 50.258 88.393,49.396 88.582,49.167 88.657 C 48.938 88.733,48.431 88.890,48.042 89.007 C 47.652 89.124,47.333 89.279,47.333 89.352 C 47.333 89.524,46.389 89.947,45.750 90.062 C 43.390 90.485,42.246 90.812,41.594 91.250 C 40.991 91.654,40.230 91.895,38.417 92.258 C 36.856 92.570,36.296 92.764,35.500 93.265 C 35.179 93.467,34.542 93.713,34.083 93.812 C 31.428 94.387,30.700 94.585,30.250 94.859 C 29.580 95.266,29.019 95.513,28.417 95.667 C 28.142 95.737,27.799 95.844,27.654 95.904 C 27.249 96.073,26.615 95.316,26.297 94.286 C 26.142 93.783,25.842 93.116,25.631 92.804 C 25.395 92.457,25.159 91.721,25.024 90.910 C 24.725 89.122,24.206 87.484,23.837 87.167 C 23.594 86.956,23.180 85.637,23.002 84.500 C 22.894 83.813,22.699 83.003,22.569 82.701 C 22.344 82.180,22.355 82.122,22.791 81.575 C 23.791 80.319,24.463 80.024,27.909 79.328 C 28.456 79.218,29.168 78.966,29.493 78.768 C 30.403 78.215,30.810 78.065,32.250 77.757 C 34.639 77.245,35.077 77.115,35.500 76.790 C 36.038 76.377,36.944 76.000,37.395 76.001 C 37.842 76.003,39.987 75.507,40.373 75.312 C 40.532 75.232,40.746 75.167,40.849 75.167 C 40.951 75.167,41.258 74.979,41.530 74.750 C 41.803 74.521,42.144 74.333,42.290 74.333 C 42.435 74.333,42.936 74.227,43.402 74.096 C 43.868 73.966,44.709 73.778,45.270 73.678 C 46.307 73.493,47.333 73.080,47.333 72.848 C 47.333 72.714,48.080 72.465,49.320 72.187 C 50.225 71.983,51.789 72.329,52.671 72.928 C 53.364 73.399,54.694 73.829,55.464 73.832 C 55.765 73.833,56.252 73.934,56.547 74.057 C 56.842 74.180,57.357 74.332,57.692 74.395 C 58.026 74.458,58.395 74.624,58.512 74.764 C 58.787 75.096,59.574 75.418,60.450 75.557 C 61.074 75.656,62.333 76.247,62.333 76.441 C 62.333 76.624,61.179 78.282,60.845 78.579 C 60.641 78.760,60.291 79.297,60.066 79.771 C 59.842 80.246,59.473 80.755,59.247 80.903 C 59.021 81.051,58.655 81.528,58.434 81.961 C 57.973 82.869,57.462 83.500,57.189 83.500 C 57.085 83.500,57.000 83.571,57.000 83.658 C 57.000 83.744,56.737 84.263,56.417 84.811 C 55.735 85.974,55.723 86.062,56.176 86.549 C 56.753 87.167,58.565 87.051,60.167 86.292 C 61.655 85.586,62.677 85.260,64.250 84.989 C 64.892 84.878,65.738 84.611,66.131 84.394 C 67.933 83.400,68.053 83.754,68.162 90.419 C 68.245 95.448,68.270 95.786,68.595 96.300 L 68.941 96.845 70.179 95.614 C 71.466 94.333,71.667 94.082,72.071 93.250 C 72.204 92.975,72.614 92.456,72.982 92.096 C 73.349 91.737,73.738 91.230,73.845 90.971 C 73.953 90.712,74.106 90.500,74.187 90.500 C 74.267 90.500,74.333 90.404,74.333 90.287 C 74.333 90.169,74.591 89.830,74.906 89.533 C 75.221 89.236,75.683 88.576,75.932 88.067 C 76.258 87.400,76.459 87.164,76.651 87.223 C 76.797 87.268,77.179 87.398,77.500 87.511 C 77.821 87.624,78.161 87.735,78.256 87.756 C 78.350 87.778,78.612 88.152,78.836 88.589 C 79.061 89.026,79.591 89.742,80.014 90.181 C 80.437 90.620,80.990 91.388,81.243 91.888 C 81.495 92.387,81.882 92.892,82.101 93.010 C 82.321 93.127,82.500 93.311,82.500 93.419 C 82.500 93.877,83.128 94.810,83.991 95.635 L 84.917 96.520 85.109 95.718 C 85.475 94.192,85.252 93.021,84.750 93.833 C 84.427 94.355,83.869 93.987,83.504 93.011 C 83.207 92.216,83.024 91.970,82.567 91.754 C 82.213 91.585,82.000 91.364,82.000 91.165 C 82.000 90.743,81.206 89.327,80.765 88.961 C 80.005 88.332,79.667 87.919,79.667 87.620 C 79.667 87.308,78.774 86.334,78.485 86.331 C 78.201 86.328,77.212 85.979,76.744 85.716 C 76.228 85.428,75.396 86.227,75.070 87.325 C 74.896 87.912,74.701 88.226,74.450 88.323 C 74.020 88.489,73.412 89.157,73.263 89.627 C 73.205 89.809,72.804 90.328,72.371 90.781 C 71.589 91.599,71.388 91.917,70.997 92.958 C 70.698 93.753,70.334 93.630,69.772 92.542 C 69.543 92.099,69.500 91.387,69.500 88.008 C 69.500 83.579,69.477 83.482,68.379 83.240 C 68.125 83.183,67.736 83.084,67.515 83.018 C 66.971 82.857,65.940 83.145,64.833 83.768 C 64.262 84.090,63.352 84.395,62.417 84.578 C 60.143 85.023,59.109 85.332,58.831 85.651 C 58.530 85.996,57.500 86.388,57.500 86.158 C 57.500 86.071,57.384 86.000,57.242 86.000 C 56.866 86.000,57.465 85.219,57.936 85.097 C 58.182 85.033,58.352 84.777,58.499 84.252 C 58.615 83.839,58.756 83.499,58.813 83.498 C 58.870 83.497,59.059 83.198,59.234 82.834 C 59.409 82.469,59.727 82.056,59.942 81.915 C 60.158 81.774,60.546 81.192,60.805 80.621 C 61.108 79.955,61.437 79.498,61.725 79.345 C 61.971 79.214,62.333 78.786,62.529 78.394 C 62.725 78.002,63.134 77.417,63.439 77.094 C 63.743 76.771,63.956 76.412,63.911 76.295 C 63.790 75.980,62.348 75.063,61.583 74.815 C 61.217 74.696,60.729 74.439,60.500 74.243 C 59.962 73.783,59.372 73.581,57.833 73.330 C 55.802 73.000,55.394 72.858,54.637 72.222 C 53.420 71.201,52.037 70.660,51.355 70.938 C 50.615 71.239,49.305 71.229,48.558 70.917 C 48.229 70.779,47.950 70.669,47.938 70.671 C 47.926 70.674,47.729 70.775,47.500 70.897 M129.667 79.750 C 129.896 79.881,130.158 79.988,130.250 79.988 C 130.342 79.988,130.229 79.881,130.000 79.750 C 129.771 79.619,129.508 79.512,129.417 79.512 C 129.325 79.512,129.438 79.619,129.667 79.750 M132.215 82.007 C 132.225 82.232,132.181 82.604,132.118 82.833 C 132.047 83.091,132.100 83.040,132.255 82.700 C 132.425 82.331,132.457 82.059,132.353 81.874 C 132.225 81.646,132.201 81.670,132.215 82.007 M101.084 88.665 C 101.019 88.771,101.356 88.793,102.033 88.725 C 103.405 88.588,103.472 88.500,102.204 88.500 C 101.644 88.500,101.140 88.574,101.084 88.665 M114.000 107.917 C 114.311 108.237,114.603 108.500,114.649 108.500 C 114.695 108.500,114.478 108.237,114.167 107.917 C 113.856 107.596,113.564 107.333,113.518 107.333 C 113.472 107.333,113.689 107.596,114.000 107.917 " stroke="none" fill="#614a59" fill-rule="evenodd"></path></g></svg>