<svg id="svg" version="1.1" xmlns="http://www.w3.org/2000/svg" xmlns:xlink="http://www.w3.org/1999/xlink" width="400" height="256" viewBox="0, 0, 400,256"><g id="svgg"><path id="path0" d="M221.767 53.932 C 213.073 54.477,211.078 54.657,209.091 55.076 C 207.823 55.343,206.527 55.564,206.210 55.566 C 205.270 55.572,205.516 56.407,206.601 56.892 C 207.125 57.126,208.131 57.571,208.835 57.881 C 209.539 58.191,210.749 58.733,211.524 59.085 C 212.298 59.436,213.451 59.950,214.085 60.226 C 215.456 60.824,215.449 60.820,218.054 62.219 C 221.109 63.861,223.444 65.758,222.980 66.222 C 222.852 66.350,220.125 65.520,219.859 65.272 C 219.725 65.147,219.460 65.045,219.269 65.045 C 218.958 65.045,218.441 64.839,215.749 63.642 C 215.327 63.454,212.330 62.424,209.091 61.352 C 187.032 54.058,171.966 53.264,168.820 59.231 C 167.894 60.988,167.751 69.427,168.594 72.599 C 169.581 76.309,169.741 76.800,171.052 80.154 C 172.577 84.056,176.682 92.098,177.456 92.702 C 177.546 92.772,177.898 93.291,178.238 93.854 C 178.579 94.417,178.949 94.994,179.061 95.134 C 179.173 95.275,179.688 95.967,180.205 96.671 C 181.469 98.392,184.776 102.247,186.418 103.913 C 188.808 106.337,195.316 111.908,195.758 111.908 C 195.834 111.908,196.561 112.407,197.372 113.016 C 199.333 114.489,202.569 116.404,206.018 118.132 C 208.837 119.545,209.290 119.741,213.828 121.523 C 216.530 122.584,217.926 123.338,217.926 123.738 C 217.926 123.899,217.602 123.937,217.093 123.836 C 216.636 123.745,215.685 123.562,214.981 123.430 C 214.277 123.297,212.778 122.950,211.652 122.658 C 210.525 122.366,209.167 122.016,208.634 121.880 C 208.101 121.744,207.467 121.525,207.226 121.393 C 206.984 121.262,206.063 120.917,205.179 120.626 C 204.295 120.336,203.373 119.995,203.130 119.868 C 202.888 119.740,201.709 119.171,200.512 118.602 C 196.741 116.811,191.072 113.323,188.850 111.426 C 188.563 111.181,187.754 110.527,187.052 109.972 C 178.131 102.920,171.261 93.792,166.829 83.099 C 166.151 81.463,164.661 76.745,164.661 76.234 C 164.661 75.977,164.557 75.572,164.430 75.335 C 164.037 74.601,163.124 68.766,163.124 66.988 C 163.124 64.358,163.153 64.371,157.199 64.152 C 152.226 63.969,147.734 64.155,138.796 64.913 C 136.332 65.122,133.912 65.410,133.420 65.553 C 132.928 65.696,132.054 65.813,131.476 65.813 C 130.899 65.813,129.861 65.985,129.170 66.194 C 128.479 66.404,127.591 66.577,127.197 66.579 C 126.804 66.580,125.767 66.743,124.893 66.941 C 124.019 67.139,122.151 67.561,120.743 67.878 C 113.018 69.619,104.720 72.054,97.695 74.641 C 96.709 75.004,95.384 75.483,94.750 75.705 C 94.117 75.926,92.647 76.499,91.485 76.978 C 84.942 79.675,84.891 79.697,80.794 81.557 C 78.533 82.584,66.579 88.517,65.813 88.993 C 65.320 89.299,64.168 89.951,63.252 90.441 C 59.794 92.291,56.708 94.051,56.318 94.394 C 56.096 94.590,55.834 94.750,55.737 94.750 C 55.639 94.750,55.072 95.065,54.476 95.449 C 52.989 96.409,52.434 96.747,51.985 96.967 C 51.426 97.239,45.179 101.223,43.457 102.405 C 42.921 102.772,42.206 103.246,41.867 103.457 C 35.011 107.732,18.082 120.692,11.457 126.738 C 10.442 127.663,10.179 128.422,10.948 128.205 C 11.194 128.135,12.029 128.002,12.804 127.908 C 14.233 127.736,16.088 127.231,17.614 126.597 C 18.077 126.405,18.716 126.248,19.036 126.248 C 19.355 126.248,19.725 126.144,19.859 126.017 C 19.993 125.889,21.082 125.551,22.279 125.265 C 26.941 124.153,26.331 124.263,34.571 123.038 C 35.909 122.839,37.983 122.556,39.181 122.411 C 40.378 122.265,41.933 122.035,42.638 121.900 C 47.020 121.060,61.822 121.058,65.045 121.896 C 65.538 122.024,66.978 122.248,68.246 122.392 C 75.504 123.221,83.949 125.068,87.781 126.666 C 88.243 126.859,88.746 127.017,88.899 127.017 C 89.051 127.017,90.037 127.420,91.089 127.913 C 92.142 128.406,93.046 128.809,93.097 128.809 C 93.149 128.809,93.758 129.144,94.451 129.552 C 96.159 130.559,98.347 131.772,100.454 132.881 C 103.708 134.593,106.285 136.359,109.459 139.054 C 109.872 139.405,111.197 140.716,112.404 141.966 C 113.610 143.217,115.519 145.184,116.645 146.338 C 117.772 147.492,119.270 149.252,119.974 150.250 C 122.327 153.584,122.151 154.450,122.151 139.550 C 122.151 131.024,122.243 126.298,122.416 125.975 C 122.674 125.494,123.123 125.480,138.505 125.480 L 154.328 125.480 154.824 126.056 C 155.097 126.373,155.505 126.978,155.732 127.401 C 155.958 127.823,156.490 128.803,156.915 129.577 C 157.340 130.352,158.062 131.677,158.520 132.522 C 158.978 133.367,159.682 134.664,160.086 135.403 C 161.975 138.865,162.487 139.807,163.325 141.357 C 165.810 145.955,166.746 147.665,166.966 148.015 C 167.099 148.227,167.403 148.803,167.642 149.296 C 169.117 152.334,169.733 152.843,170.311 151.502 C 170.439 151.204,170.941 150.269,171.426 149.424 C 171.911 148.579,172.629 147.254,173.022 146.479 C 173.415 145.704,173.979 144.667,174.275 144.174 C 174.571 143.681,175.453 142.068,176.235 140.589 C 177.017 139.110,177.883 137.497,178.160 137.004 C 179.293 134.985,183.474 127.351,183.805 126.695 C 184.001 126.307,184.376 125.875,184.638 125.735 C 185.375 125.340,217.222 125.391,217.618 125.787 C 217.853 126.022,217.926 132.229,217.926 152.164 C 217.926 176.826,217.950 178.232,218.374 178.220 C 219.513 178.186,222.644 175.528,223.816 173.601 C 226.789 168.709,233.422 163.493,239.761 161.063 C 240.498 160.780,241.332 160.445,241.613 160.318 C 241.895 160.190,243.047 159.841,244.174 159.542 C 245.301 159.242,246.608 158.877,247.079 158.731 C 247.551 158.584,248.530 158.373,249.256 158.261 C 249.982 158.149,251.210 157.934,251.985 157.783 C 254.089 157.373,261.093 157.005,272.037 156.728 C 289.440 156.288,288.178 156.505,287.114 154.140 C 286.707 153.236,286.121 151.921,285.811 151.216 C 285.501 150.512,285.140 149.706,285.010 149.424 C 282.828 144.721,286.345 141.245,294.750 139.798 C 295.936 139.594,297.411 139.270,299.872 138.673 C 300.647 138.485,302.202 138.139,303.329 137.903 C 305.901 137.365,309.138 136.487,309.475 136.235 C 309.616 136.130,310.307 135.964,311.012 135.866 C 311.716 135.769,312.695 135.587,313.188 135.462 C 313.681 135.338,314.949 135.056,316.005 134.836 C 317.061 134.617,318.790 134.257,319.846 134.038 C 320.903 133.819,322.401 133.540,323.175 133.418 C 323.950 133.297,325.160 133.069,325.864 132.911 C 327.682 132.505,330.163 131.983,332.394 131.538 C 333.451 131.328,335.237 130.968,336.364 130.739 C 337.490 130.510,338.988 130.212,339.693 130.077 C 341.831 129.667,344.977 129.043,346.735 128.681 C 347.650 128.492,349.366 128.153,350.548 127.926 C 351.729 127.700,352.804 127.448,352.936 127.367 C 353.068 127.285,354.060 127.123,355.141 127.005 C 356.993 126.804,358.661 126.466,361.332 125.750 C 363.282 125.228,365.196 124.757,367.734 124.175 C 377.148 122.017,381.886 119.054,384.685 113.572 C 392.866 97.553,393.118 94.524,386.482 91.947 C 383.471 90.778,382.705 91.126,381.445 94.238 C 381.074 95.154,380.668 96.133,380.542 96.415 C 380.416 96.697,380.025 97.791,379.672 98.848 C 378.406 102.635,377.958 103.350,377.626 102.113 C 377.364 101.133,377.448 99.841,377.939 97.308 C 378.388 94.993,378.607 94.178,379.418 91.797 C 380.030 89.999,379.904 89.844,376.825 88.609 C 376.543 88.496,375.333 87.994,374.136 87.494 C 371.817 86.525,366.907 84.533,364.789 83.701 C 364.085 83.425,363.278 83.093,362.996 82.964 C 362.714 82.834,361.850 82.492,361.076 82.202 C 360.301 81.913,359.437 81.576,359.155 81.454 C 357.517 80.742,352.238 78.963,345.839 76.966 C 344.149 76.439,342.535 75.919,342.254 75.812 C 341.972 75.704,341.108 75.432,340.333 75.207 C 339.558 74.982,338.175 74.573,337.260 74.297 C 336.344 74.022,334.904 73.603,334.059 73.367 C 333.214 73.130,332.061 72.789,331.498 72.608 C 330.935 72.428,329.782 72.099,328.937 71.877 C 328.092 71.656,326.306 71.170,324.968 70.798 C 321.495 69.831,319.867 69.404,318.679 69.146 C 318.108 69.021,317.359 68.805,317.015 68.665 C 316.671 68.525,314.661 67.992,312.548 67.481 C 310.435 66.971,308.044 66.386,307.234 66.183 C 303.995 65.369,302.751 65.079,301.280 64.794 C 300.435 64.630,299.052 64.328,298.207 64.123 C 295.124 63.376,293.312 62.970,291.957 62.720 C 291.195 62.579,290.498 62.419,290.408 62.363 C 290.240 62.259,285.302 61.263,281.434 60.552 C 280.237 60.333,278.393 59.990,277.337 59.791 C 274.628 59.282,271.465 58.728,268.630 58.266 C 267.292 58.048,265.563 57.752,264.789 57.609 C 262.829 57.247,257.972 56.620,254.995 56.346 C 253.623 56.219,251.664 55.995,250.642 55.847 C 243.016 54.741,226.417 53.641,221.767 53.932 M182.019 67.841 C 182.622 67.997,183.314 68.223,183.555 68.343 C 184.218 68.672,185.664 69.157,186.812 69.435 C 187.375 69.572,187.946 69.792,188.079 69.925 C 188.213 70.058,188.484 70.166,188.681 70.166 C 188.878 70.166,189.402 70.332,189.846 70.533 C 190.290 70.735,191.748 71.360,193.086 71.921 C 195.470 72.922,198.865 74.598,201.408 76.028 C 202.564 76.678,203.658 77.381,206.665 79.405 C 209.680 81.435,214.950 86.265,215.235 87.260 C 215.519 88.253,214.658 88.056,210.755 86.236 C 208.790 85.320,206.915 84.507,206.765 84.507 C 206.343 84.507,206.935 85.678,208.672 88.278 C 212.051 93.339,212.037 94.129,208.606 91.977 C 207.746 91.437,206.351 90.683,205.506 90.302 C 204.661 89.921,203.793 89.513,203.577 89.395 C 201.149 88.075,201.021 88.997,203.270 91.603 C 204.359 92.864,205.711 94.449,206.274 95.124 C 206.837 95.799,207.414 96.481,207.554 96.639 C 210.463 99.909,210.215 100.473,206.402 99.261 C 205.346 98.926,204.391 98.704,204.281 98.770 C 203.918 98.985,205.651 101.508,209.084 105.762 C 211.416 108.652,211.770 109.205,211.533 109.588 C 211.172 110.172,209.422 109.345,206.146 107.043 C 205.935 106.894,204.659 105.998,203.310 105.051 C 199.103 102.096,192.753 96.548,190.018 93.437 C 189.105 92.399,188.292 91.492,188.211 91.421 C 187.499 90.802,182.074 83.499,182.074 83.160 C 182.074 83.084,181.627 82.287,181.081 81.388 C 177.320 75.197,176.303 68.921,178.853 67.632 C 179.429 67.340,180.300 67.398,182.019 67.841 M274.776 78.356 C 275.551 78.481,277.222 78.751,278.489 78.955 C 279.757 79.159,281.658 79.466,282.714 79.636 C 283.771 79.807,285.350 80.109,286.224 80.306 C 287.098 80.504,288.116 80.666,288.487 80.666 C 288.857 80.666,289.871 80.832,290.739 81.034 C 291.607 81.237,293.182 81.579,294.238 81.793 C 299.002 82.762,300.371 83.058,302.049 83.481 C 303.035 83.730,304.533 84.075,305.378 84.249 C 306.223 84.422,307.490 84.710,308.195 84.888 C 308.899 85.066,310.627 85.463,312.036 85.771 C 317.148 86.890,317.741 87.165,316.944 88.046 C 316.689 88.327,316.114 88.706,315.667 88.887 C 315.219 89.067,314.795 89.295,314.725 89.393 C 314.076 90.294,312.719 90.471,301.992 91.051 C 294.714 91.445,294.089 91.428,287.708 90.672 C 281.259 89.908,277.119 87.696,274.440 83.584 C 273.499 82.139,272.753 81.716,269.526 80.798 C 266.382 79.904,264.277 79.115,264.277 78.830 C 264.277 77.881,270.188 77.614,274.776 78.356 M314.725 121.127 C 315.066 121.347,315.066 121.376,314.725 121.381 C 314.513 121.385,313.764 121.671,313.060 122.017 C 312.356 122.364,311.610 122.651,311.403 122.655 C 311.196 122.660,309.928 123.003,308.586 123.418 C 307.244 123.833,304.763 124.593,303.073 125.106 C 301.383 125.619,299.539 126.187,298.976 126.368 C 298.412 126.549,297.318 126.896,296.543 127.139 C 295.768 127.382,294.771 127.742,294.327 127.939 C 293.884 128.136,293.398 128.297,293.248 128.297 C 293.098 128.297,292.597 128.460,292.134 128.659 C 291.672 128.859,290.659 129.275,289.885 129.584 C 288.304 130.215,281.022 133.825,279.641 134.662 C 279.149 134.960,278.515 135.309,278.233 135.436 C 275.677 136.587,274.509 140.221,275.128 145.101 C 275.907 151.247,275.114 152.268,273.063 147.759 C 271.891 145.183,271.703 144.725,271.703 144.452 C 271.703 144.295,271.596 143.967,271.466 143.723 C 270.548 142.000,270.276 138.925,270.910 137.445 C 271.612 135.809,276.073 132.023,278.277 131.193 C 278.535 131.096,279.264 130.716,279.898 130.349 C 281.357 129.502,284.940 128.007,286.940 127.410 C 287.785 127.157,288.764 126.835,289.117 126.694 C 289.469 126.553,290.102 126.345,290.525 126.230 C 290.948 126.116,291.985 125.773,292.830 125.470 C 293.675 125.166,294.712 124.828,295.134 124.718 C 295.557 124.609,297.516 124.055,299.488 123.489 C 306.818 121.384,313.516 120.346,314.725 121.127 M155.194 162.718 C 154.909 163.468,154.811 200.682,155.091 201.729 L 155.245 202.305 169.897 202.305 L 184.549 202.305 184.853 201.729 C 185.274 200.931,185.158 162.573,184.734 162.431 C 184.507 162.356,181.818 165.933,181.818 166.311 C 181.818 166.395,180.551 168.384,179.769 169.526 C 179.475 169.955,177.070 173.635,173.275 179.461 C 170.060 184.398,169.984 184.430,168.158 181.610 C 167.548 180.668,166.367 178.860,165.535 177.593 C 164.702 176.325,163.963 175.167,163.892 175.020 C 163.822 174.872,163.234 173.950,162.585 172.971 C 161.011 170.596,158.827 167.206,157.596 165.227 C 157.045 164.342,156.339 163.259,156.026 162.820 L 155.458 162.023 155.194 162.718 " stroke="none" fill="#840606" fill-rule="evenodd"></path><path id="path1" d="M0.000 128.041 L 0.000 256.082 200.000 256.082 L 400.000 256.082 400.000 128.041 L 400.000 0.000 200.000 0.000 L 0.000 0.000 0.000 128.041 M235.339 53.392 C 238.367 53.601,241.536 53.888,242.382 54.030 C 243.227 54.171,244.494 54.287,245.198 54.288 C 245.903 54.289,247.382 54.462,248.486 54.674 C 249.590 54.885,251.203 55.062,252.071 55.067 C 252.939 55.072,254.398 55.240,255.314 55.442 C 256.229 55.643,257.548 55.812,258.244 55.817 C 258.940 55.822,260.553 55.995,261.829 56.201 C 263.105 56.407,264.955 56.704,265.941 56.861 C 267.682 57.137,269.087 57.385,273.880 58.259 C 275.147 58.490,276.818 58.774,277.593 58.889 C 278.901 59.084,280.332 59.347,285.275 60.304 C 286.332 60.509,287.484 60.723,287.836 60.780 C 288.522 60.890,290.247 61.303,292.318 61.851 C 293.022 62.037,294.520 62.380,295.647 62.612 C 298.107 63.120,300.357 63.624,301.921 64.019 C 303.505 64.419,306.169 65.020,307.554 65.290 C 308.188 65.414,309.859 65.826,311.268 66.207 C 312.676 66.587,314.289 66.991,314.853 67.106 C 315.416 67.220,316.684 67.559,317.670 67.859 C 318.656 68.159,319.960 68.511,320.568 68.641 C 321.176 68.771,321.790 68.949,321.934 69.038 C 322.077 69.127,322.847 69.349,323.645 69.533 C 326.373 70.160,327.401 70.432,327.913 70.661 C 328.195 70.788,328.944 71.022,329.577 71.183 C 333.609 72.202,338.034 73.478,338.997 73.898 C 339.460 74.099,340.093 74.268,340.406 74.273 C 340.718 74.278,341.261 74.447,341.613 74.648 C 341.965 74.849,342.484 75.019,342.766 75.025 C 343.047 75.030,343.608 75.207,344.011 75.418 C 344.415 75.628,344.991 75.801,345.292 75.802 C 345.593 75.803,346.169 75.976,346.572 76.186 C 346.976 76.396,347.477 76.569,347.686 76.569 C 347.895 76.569,348.429 76.725,348.873 76.916 C 349.317 77.108,351.178 77.756,353.009 78.357 C 357.743 79.910,357.679 79.888,359.795 80.726 C 360.851 81.145,362.177 81.659,362.740 81.868 C 363.303 82.078,364.110 82.403,364.533 82.590 C 364.955 82.777,366.108 83.238,367.093 83.614 C 368.079 83.991,369.923 84.736,371.191 85.272 C 372.458 85.807,374.961 86.858,376.751 87.606 C 380.606 89.216,380.753 89.399,380.266 91.968 C 380.096 92.864,379.857 93.707,379.735 93.841 C 379.613 93.975,379.526 94.666,379.541 95.378 L 379.568 96.671 379.812 95.583 C 379.946 94.984,380.164 94.494,380.297 94.494 C 380.429 94.494,380.538 94.315,380.538 94.096 C 380.538 91.357,382.997 89.941,386.111 90.888 C 391.065 92.395,393.118 95.621,391.789 99.810 C 390.613 103.516,390.248 104.385,387.772 109.368 C 386.610 111.707,385.659 113.688,385.659 113.770 C 385.659 114.229,383.638 117.200,382.588 118.283 C 381.356 119.555,378.974 121.264,377.721 121.776 C 377.510 121.862,377.137 122.039,376.892 122.170 C 376.647 122.301,375.956 122.583,375.355 122.797 C 371.077 124.323,370.265 124.575,368.374 124.958 C 367.493 125.137,365.662 125.586,359.795 127.064 C 359.161 127.223,357.951 127.440,357.106 127.546 C 356.261 127.651,355.109 127.858,354.545 128.005 C 353.477 128.285,351.197 128.755,347.503 129.457 C 346.306 129.685,344.577 130.028,343.662 130.219 C 342.746 130.411,341.018 130.755,339.821 130.984 C 338.624 131.214,336.953 131.564,336.108 131.763 C 335.262 131.963,333.995 132.232,333.291 132.362 C 330.272 132.921,328.865 133.196,327.734 133.448 C 327.072 133.595,325.920 133.812,325.173 133.930 C 324.426 134.048,323.355 134.260,322.791 134.400 C 321.188 134.799,314.882 136.073,313.060 136.366 C 312.497 136.456,310.653 136.938,308.963 137.435 C 305.906 138.335,303.958 138.800,301.024 139.329 C 300.179 139.481,298.927 139.770,298.242 139.969 C 297.557 140.169,296.613 140.333,296.144 140.333 C 295.676 140.333,295.228 140.438,295.148 140.567 C 295.069 140.695,294.515 140.879,293.917 140.974 C 289.971 141.604,286.369 143.410,285.656 145.117 C 284.881 146.972,285.013 147.421,288.517 154.847 C 289.232 156.362,288.947 156.828,287.196 157.008 C 285.337 157.200,274.161 157.672,263.508 158.010 C 255.069 158.278,247.632 159.085,246.432 159.864 C 246.265 159.972,245.632 160.162,245.024 160.287 C 243.970 160.504,243.447 160.668,241.101 161.520 C 240.099 161.884,234.938 164.388,233.938 164.994 C 230.516 167.071,224.328 173.268,224.328 174.617 C 224.328 175.426,219.055 179.513,218.012 179.513 C 217.330 179.513,217.281 177.983,217.157 152.753 L 217.029 126.633 201.130 126.567 C 186.232 126.505,185.206 126.529,184.841 126.951 C 184.470 127.380,183.462 129.157,181.681 132.522 C 180.273 135.185,179.210 137.123,179.012 137.388 C 178.907 137.529,178.185 138.854,177.408 140.333 C 176.630 141.812,175.706 143.540,175.353 144.174 C 173.345 147.777,171.922 150.367,171.216 151.702 C 169.824 154.334,169.186 154.164,167.322 150.662 C 166.884 149.840,165.859 147.958,165.044 146.479 C 164.229 145.000,163.071 142.868,162.472 141.741 C 161.872 140.615,161.090 139.174,160.735 138.540 C 160.379 137.907,159.631 136.524,159.071 135.467 C 158.512 134.411,157.197 131.991,156.150 130.090 L 154.245 126.633 138.833 126.567 L 123.420 126.500 123.170 127.159 C 123.019 127.556,122.919 132.828,122.919 140.426 C 122.919 153.180,122.887 153.649,122.015 153.649 C 121.563 153.649,119.896 151.887,118.746 150.192 C 118.172 149.347,116.774 147.724,115.638 146.586 C 114.502 145.448,112.708 143.603,111.652 142.486 C 108.428 139.077,103.015 135.008,99.683 133.489 C 98.871 133.119,97.492 132.379,96.617 131.846 C 92.885 129.569,88.227 127.500,84.891 126.638 C 84.187 126.456,82.516 126.018,81.178 125.666 C 79.840 125.314,77.708 124.839,76.440 124.609 C 75.173 124.380,73.560 124.085,72.855 123.953 C 63.973 122.291,54.602 121.768,46.607 122.487 C 41.885 122.912,37.626 123.480,28.258 124.934 C 26.415 125.220,23.197 125.940,22.279 126.272 C 21.927 126.400,21.120 126.609,20.487 126.736 C 19.307 126.973,17.885 127.427,17.102 127.816 C 16.860 127.936,16.198 128.151,15.630 128.294 C 15.062 128.436,14.143 128.667,13.588 128.807 C 9.893 129.737,7.406 128.834,9.397 127.285 C 9.792 126.978,10.576 126.296,11.140 125.771 C 12.262 124.724,16.287 121.332,18.310 119.727 C 19.014 119.168,19.648 118.644,19.718 118.562 C 19.789 118.480,20.883 117.613,22.151 116.636 C 23.419 115.658,24.571 114.766,24.712 114.654 C 26.721 113.052,32.854 108.579,33.041 108.579 C 33.178 108.579,33.291 108.460,33.291 108.315 C 33.291 108.169,33.492 107.976,33.739 107.886 C 33.985 107.795,34.821 107.245,35.595 106.664 C 37.391 105.315,42.024 102.167,42.952 101.665 C 43.343 101.453,43.720 101.217,43.790 101.140 C 43.932 100.984,47.492 98.613,48.192 98.207 C 48.435 98.067,50.434 96.857,52.633 95.519 C 54.833 94.181,57.056 92.847,57.573 92.555 C 65.840 87.892,66.191 87.705,72.855 84.401 C 79.218 81.247,83.645 79.129,83.877 79.129 C 84.003 79.129,85.012 78.708,86.940 77.849 C 88.328 77.230,91.005 76.148,92.958 75.416 C 93.521 75.205,94.443 74.859,95.006 74.648 C 95.570 74.437,96.463 74.098,96.991 73.895 C 100.531 72.536,107.554 70.299,112.420 68.980 C 113.195 68.770,114.405 68.439,115.109 68.244 C 117.305 67.638,118.652 67.312,119.846 67.099 C 120.480 66.986,122.382 66.588,124.072 66.216 C 127.045 65.560,128.000 65.402,132.650 64.794 C 133.848 64.637,135.346 64.399,135.980 64.264 C 138.572 63.714,145.309 63.380,153.834 63.380 C 164.809 63.380,163.863 63.001,164.157 67.518 C 164.700 75.847,168.042 85.634,172.761 92.715 C 173.376 93.638,173.880 94.531,173.880 94.700 C 173.880 94.868,173.980 95.006,174.102 95.006 C 174.224 95.006,174.648 95.496,175.044 96.095 C 180.571 104.449,192.981 114.491,203.073 118.775 C 203.566 118.985,204.257 119.300,204.609 119.476 C 205.175 119.759,206.344 119.952,207.021 119.873 C 207.151 119.859,206.286 119.342,205.101 118.726 C 203.915 118.110,202.542 117.363,202.049 117.065 C 201.556 116.767,200.922 116.405,200.640 116.261 C 200.359 116.116,199.782 115.770,199.360 115.492 C 198.937 115.214,198.332 114.851,198.015 114.686 C 197.698 114.521,197.439 114.290,197.439 114.171 C 197.439 114.053,197.322 113.956,197.178 113.956 C 196.208 113.956,188.710 107.569,184.365 103.041 C 182.550 101.149,177.465 94.754,177.465 94.362 C 177.465 94.264,177.136 93.764,176.734 93.251 C 176.332 92.737,175.727 91.799,175.390 91.166 C 175.052 90.532,174.706 89.956,174.621 89.885 C 174.366 89.673,170.703 81.986,170.167 80.538 C 169.014 77.423,168.502 75.845,168.502 75.405 C 168.502 75.116,168.376 74.752,168.221 74.597 C 168.067 74.443,167.843 73.642,167.725 72.818 C 167.606 71.993,167.376 70.685,167.213 69.910 C 166.140 64.822,167.851 56.594,169.981 56.594 C 170.153 56.594,170.294 56.500,170.294 56.385 C 170.294 56.157,172.308 55.327,174.136 54.801 C 175.990 54.268,183.032 54.175,185.146 54.656 C 186.118 54.877,187.293 55.056,187.759 55.054 C 188.224 55.053,189.469 55.231,190.525 55.452 C 191.581 55.672,193.310 56.029,194.366 56.245 C 195.423 56.461,196.748 56.751,197.311 56.890 C 197.875 57.028,198.854 57.248,199.488 57.378 C 200.122 57.508,200.871 57.717,201.152 57.841 C 201.434 57.965,202.356 58.260,203.201 58.495 C 207.659 59.739,212.066 61.194,213.401 61.864 C 213.800 62.064,214.549 62.219,215.066 62.208 C 215.582 62.197,215.832 62.126,215.621 62.050 C 215.410 61.974,214.200 61.421,212.932 60.821 C 211.665 60.221,210.051 59.473,209.347 59.160 C 202.907 56.297,202.373 55.558,206.146 54.730 C 213.928 53.023,223.609 52.579,235.339 53.392 M178.941 68.822 C 178.097 69.779,178.206 73.101,179.150 75.199 C 179.350 75.643,179.513 76.070,179.513 76.149 C 179.513 76.354,181.214 79.810,181.988 81.178 C 182.960 82.895,184.874 85.775,185.836 86.966 C 186.302 87.544,186.684 88.139,186.684 88.289 C 186.684 88.439,186.778 88.600,186.893 88.647 C 187.008 88.694,187.950 89.712,188.987 90.909 C 191.093 93.343,194.686 96.932,196.712 98.627 C 197.446 99.241,198.433 100.118,198.904 100.576 C 199.375 101.034,199.812 101.408,199.873 101.408 C 199.935 101.408,201.195 102.330,202.673 103.457 C 204.151 104.584,205.427 105.506,205.508 105.506 C 205.670 105.506,207.224 106.566,207.426 106.816 C 207.497 106.902,207.831 107.060,208.169 107.165 C 209.062 107.444,208.833 107.020,206.211 103.522 C 202.137 98.087,201.931 96.896,205.247 97.939 C 207.334 98.596,207.862 98.432,206.971 97.406 C 203.497 93.411,200.111 89.297,199.960 88.887 C 199.330 87.185,202.194 87.615,206.861 89.923 C 208.028 90.501,209.056 90.902,209.144 90.813 C 209.232 90.725,209.170 90.653,209.006 90.653 C 208.841 90.653,208.706 90.509,208.705 90.333 C 208.704 90.157,207.955 88.880,207.041 87.495 C 204.072 83.000,204.720 82.430,210.035 84.864 C 210.836 85.231,211.662 85.531,211.870 85.531 C 212.079 85.531,212.307 85.675,212.378 85.851 C 212.466 86.069,212.514 86.048,212.528 85.785 C 212.565 85.078,203.581 77.849,202.666 77.849 C 202.602 77.849,202.063 77.536,201.467 77.154 C 198.879 75.494,193.111 72.795,188.348 71.014 C 187.785 70.804,186.978 70.486,186.556 70.308 C 186.133 70.131,185.096 69.783,184.251 69.537 C 183.406 69.290,182.250 68.927,181.682 68.731 C 180.296 68.252,179.419 68.281,178.941 68.822 M268.502 79.385 C 268.924 79.665,269.501 79.899,269.782 79.904 C 271.511 79.938,274.264 81.424,274.926 82.681 C 277.971 88.459,285.844 90.743,300.660 90.145 C 311.492 89.708,313.648 89.396,315.017 88.068 C 315.461 87.639,314.030 87.047,311.268 86.518 C 310.040 86.283,307.740 85.762,304.609 85.009 C 303.342 84.705,301.755 84.358,301.083 84.240 C 300.411 84.121,299.489 83.905,299.034 83.760 C 298.579 83.615,297.663 83.429,296.997 83.347 C 296.331 83.264,295.719 83.088,295.637 82.956 C 295.555 82.823,295.128 82.714,294.688 82.714 C 294.248 82.714,293.246 82.551,292.462 82.351 C 291.678 82.152,290.115 81.850,288.988 81.681 C 287.862 81.513,286.076 81.223,285.019 81.037 C 280.454 80.236,278.623 79.930,276.697 79.648 C 275.570 79.483,274.231 79.242,273.722 79.111 C 273.213 78.980,271.657 78.874,270.265 78.875 L 267.734 78.877 268.502 79.385 M207.746 120.535 C 207.993 120.599,208.396 120.599,208.643 120.535 C 208.889 120.471,208.688 120.418,208.195 120.418 C 207.702 120.418,207.500 120.471,207.746 120.535 M301.152 123.982 C 300.237 124.255,299.027 124.604,298.464 124.757 C 296.671 125.246,294.128 126.036,293.598 126.270 C 293.316 126.394,292.625 126.602,292.061 126.733 C 290.941 126.994,289.706 127.403,288.404 127.946 C 287.941 128.139,287.343 128.297,287.074 128.297 C 286.806 128.297,286.520 128.403,286.440 128.533 C 286.359 128.663,285.921 128.846,285.464 128.940 C 283.797 129.282,275.964 133.323,275.288 134.190 C 275.218 134.280,274.714 134.653,274.168 135.020 C 270.993 137.151,270.797 141.162,273.602 146.624 L 274.251 147.887 274.242 146.351 C 274.237 145.506,274.137 144.238,274.020 143.534 C 273.354 139.530,275.403 135.780,279.390 133.708 C 282.107 132.297,288.162 129.277,288.988 128.922 C 289.411 128.740,290.177 128.410,290.692 128.188 C 291.206 127.966,291.740 127.785,291.879 127.785 C 292.017 127.785,292.461 127.613,292.864 127.402 C 293.268 127.192,293.834 127.019,294.123 127.018 C 294.412 127.017,294.757 126.908,294.891 126.775 C 295.025 126.642,295.595 126.420,296.159 126.281 C 297.446 125.963,299.349 125.300,299.933 124.966 C 300.177 124.826,300.617 124.712,300.910 124.712 C 301.203 124.712,301.694 124.569,302.001 124.394 C 302.309 124.219,303.079 123.944,303.713 123.784 L 304.866 123.492 303.841 123.489 C 303.278 123.487,302.068 123.709,301.152 123.982 M157.251 163.004 C 158.017 164.207,159.449 166.433,160.435 167.950 C 161.421 169.467,162.737 171.509,163.359 172.486 C 163.981 173.464,164.989 175.019,165.599 175.942 C 166.210 176.864,166.709 177.757,166.709 177.926 C 166.709 178.095,166.828 178.233,166.974 178.233 C 167.119 178.233,167.322 178.435,167.424 178.681 C 167.725 179.409,169.494 182.024,169.823 182.227 C 170.000 182.337,170.328 182.158,170.612 181.796 C 171.279 180.948,174.717 175.670,175.978 173.560 C 176.546 172.609,177.113 171.831,177.238 171.831 C 177.363 171.831,177.465 171.706,177.465 171.554 C 177.465 171.402,177.897 170.644,178.425 169.869 C 178.953 169.094,179.501 168.274,179.641 168.046 C 179.782 167.819,180.387 166.913,180.986 166.033 C 181.585 165.154,182.074 164.359,182.074 164.268 C 182.074 163.979,184.229 160.970,184.763 160.514 C 185.913 159.531,185.915 159.572,185.915 181.495 L 185.915 202.073 185.238 202.701 L 184.560 203.329 169.873 203.329 C 155.527 203.329,155.174 203.317,154.673 202.817 C 154.061 202.205,153.849 162.041,154.451 160.720 C 154.877 159.784,155.555 160.337,157.251 163.004 " stroke="none" fill="#f4f3f3" fill-rule="evenodd"></path><path id="path2" d="M215.621 53.292 C 211.457 53.566,204.604 54.818,203.906 55.433 C 203.190 56.064,204.683 57.086,209.347 59.160 C 210.051 59.473,211.665 60.221,212.932 60.821 C 214.200 61.421,215.410 61.974,215.621 62.050 C 215.832 62.126,215.582 62.197,215.066 62.208 C 214.549 62.219,213.800 62.064,213.401 61.864 C 212.066 61.194,207.659 59.739,203.201 58.495 C 202.356 58.260,201.434 57.965,201.152 57.841 C 200.871 57.717,200.122 57.508,199.488 57.378 C 198.854 57.248,197.875 57.028,197.311 56.890 C 196.748 56.751,195.423 56.461,194.366 56.245 C 193.310 56.029,191.581 55.672,190.525 55.452 C 189.469 55.231,188.224 55.053,187.759 55.054 C 187.293 55.056,186.118 54.877,185.146 54.656 C 183.032 54.175,175.990 54.268,174.136 54.801 C 172.308 55.327,170.294 56.157,170.294 56.385 C 170.294 56.500,170.153 56.594,169.981 56.594 C 167.851 56.594,166.140 64.822,167.213 69.910 C 167.376 70.685,167.606 71.993,167.725 72.818 C 167.843 73.642,168.067 74.443,168.221 74.597 C 168.376 74.752,168.502 75.116,168.502 75.405 C 168.502 75.845,169.014 77.423,170.167 80.538 C 170.703 81.986,174.366 89.673,174.621 89.885 C 174.706 89.956,175.052 90.532,175.390 91.166 C 175.727 91.799,176.332 92.737,176.734 93.251 C 177.136 93.764,177.465 94.264,177.465 94.362 C 177.465 94.460,178.582 95.999,179.947 97.782 C 182.827 101.543,185.620 104.541,189.757 108.312 C 191.357 109.771,196.860 113.956,197.178 113.956 C 197.322 113.956,197.439 114.053,197.439 114.171 C 197.439 114.290,197.698 114.521,198.015 114.686 C 198.332 114.851,198.937 115.214,199.360 115.492 C 199.782 115.770,200.359 116.116,200.640 116.261 C 200.922 116.405,201.556 116.767,202.049 117.065 C 202.542 117.363,203.915 118.110,205.101 118.726 C 206.286 119.342,207.151 119.859,207.021 119.873 C 206.344 119.952,205.175 119.759,204.609 119.476 C 204.257 119.300,203.566 118.985,203.073 118.775 C 192.981 114.491,180.571 104.449,175.044 96.095 C 174.648 95.496,174.224 95.006,174.102 95.006 C 173.980 95.006,173.880 94.868,173.880 94.700 C 173.880 94.531,173.376 93.638,172.761 92.715 C 168.042 85.634,164.700 75.847,164.157 67.518 C 163.863 63.001,164.809 63.380,153.834 63.380 C 145.309 63.380,138.572 63.714,135.980 64.264 C 135.346 64.399,133.848 64.637,132.650 64.794 C 128.000 65.402,127.045 65.560,124.072 66.216 C 122.382 66.588,120.480 66.986,119.846 67.099 C 118.652 67.312,117.305 67.638,115.109 68.244 C 114.405 68.439,113.195 68.770,112.420 68.980 C 107.554 70.299,100.531 72.536,96.991 73.895 C 96.463 74.098,95.570 74.437,95.006 74.648 C 94.443 74.859,93.521 75.205,92.958 75.416 C 91.005 76.148,88.328 77.230,86.940 77.849 C 85.012 78.708,84.003 79.129,83.877 79.129 C 83.645 79.129,79.218 81.247,72.855 84.401 C 66.191 87.705,65.840 87.892,57.573 92.555 C 57.056 92.847,54.833 94.181,52.633 95.519 C 50.434 96.857,48.435 98.067,48.192 98.207 C 47.492 98.613,43.932 100.984,43.790 101.140 C 43.720 101.217,43.343 101.453,42.952 101.665 C 42.024 102.167,37.391 105.315,35.595 106.664 C 34.821 107.245,33.985 107.795,33.739 107.886 C 33.492 107.976,33.291 108.169,33.291 108.315 C 33.291 108.460,33.178 108.579,33.041 108.579 C 32.854 108.579,26.721 113.052,24.712 114.654 C 24.571 114.766,23.419 115.658,22.151 116.636 C 20.883 117.613,19.789 118.480,19.718 118.562 C 19.648 118.644,19.014 119.168,18.310 119.727 C 16.287 121.332,12.262 124.724,11.140 125.771 C 10.576 126.296,9.792 126.978,9.397 127.285 C 7.406 128.834,9.893 129.737,13.588 128.807 C 14.143 128.667,15.062 128.436,15.630 128.294 C 16.198 128.151,16.860 127.936,17.102 127.816 C 17.885 127.427,19.307 126.973,20.487 126.736 C 21.120 126.609,21.927 126.400,22.279 126.272 C 23.197 125.940,26.415 125.220,28.258 124.934 C 46.097 122.166,51.809 121.702,59.923 122.366 C 63.840 122.686,70.362 123.487,72.855 123.953 C 73.560 124.085,75.173 124.380,76.440 124.609 C 77.708 124.839,79.840 125.314,81.178 125.666 C 82.516 126.018,84.187 126.456,84.891 126.638 C 88.227 127.500,92.885 129.569,96.617 131.846 C 97.492 132.379,98.871 133.119,99.683 133.489 C 103.015 135.008,108.428 139.077,111.652 142.486 C 112.708 143.603,114.502 145.448,115.638 146.586 C 116.774 147.724,118.172 149.347,118.746 150.192 C 119.896 151.887,121.563 153.649,122.015 153.649 C 122.887 153.649,122.919 153.180,122.919 140.426 C 122.919 132.828,123.019 127.556,123.170 127.159 L 123.420 126.500 138.833 126.567 L 154.245 126.633 156.150 130.090 C 157.197 131.991,158.512 134.411,159.071 135.467 C 159.631 136.524,160.379 137.907,160.735 138.540 C 161.090 139.174,161.872 140.615,162.472 141.741 C 163.071 142.868,164.229 145.000,165.044 146.479 C 165.859 147.958,166.884 149.840,167.322 150.662 C 169.186 154.164,169.824 154.334,171.216 151.702 C 171.922 150.367,173.345 147.777,175.353 144.174 C 175.706 143.540,176.630 141.812,177.408 140.333 C 178.185 138.854,178.907 137.529,179.012 137.388 C 179.210 137.123,180.273 135.185,181.681 132.522 C 183.462 129.157,184.470 127.380,184.841 126.951 C 185.206 126.529,186.232 126.505,201.130 126.567 L 217.029 126.633 217.157 152.753 C 217.281 177.983,217.330 179.513,218.012 179.513 C 219.055 179.513,224.328 175.426,224.328 174.617 C 224.328 173.268,230.516 167.071,233.938 164.994 C 234.938 164.388,240.099 161.884,241.101 161.520 C 243.447 160.668,243.970 160.504,245.024 160.287 C 245.632 160.162,246.265 159.972,246.432 159.864 C 247.632 159.085,255.069 158.278,263.508 158.010 C 274.161 157.672,285.337 157.200,287.196 157.008 C 288.947 156.828,289.232 156.362,288.517 154.847 C 285.013 147.421,284.881 146.972,285.656 145.117 C 286.369 143.410,289.971 141.604,293.917 140.974 C 294.515 140.879,295.069 140.695,295.148 140.567 C 295.228 140.438,295.676 140.333,296.144 140.333 C 296.613 140.333,297.557 140.169,298.242 139.969 C 298.927 139.770,300.179 139.481,301.024 139.329 C 303.958 138.800,305.906 138.335,308.963 137.435 C 310.653 136.938,312.497 136.456,313.060 136.366 C 314.882 136.073,321.188 134.799,322.791 134.400 C 323.355 134.260,324.426 134.048,325.173 133.930 C 325.920 133.812,327.072 133.595,327.734 133.448 C 328.865 133.196,330.272 132.921,333.291 132.362 C 333.995 132.232,335.262 131.963,336.108 131.763 C 336.953 131.564,338.624 131.214,339.821 130.984 C 341.018 130.755,342.746 130.411,343.662 130.219 C 344.577 130.028,346.306 129.685,347.503 129.457 C 351.197 128.755,353.477 128.285,354.545 128.005 C 355.109 127.858,356.261 127.651,357.106 127.546 C 357.951 127.440,359.161 127.223,359.795 127.064 C 365.662 125.586,367.493 125.137,368.374 124.958 C 370.265 124.575,371.077 124.323,375.355 122.797 C 375.956 122.583,376.647 122.301,376.892 122.170 C 377.137 122.039,377.510 121.862,377.721 121.776 C 378.974 121.264,381.356 119.555,382.588 118.283 C 383.638 117.200,385.659 114.229,385.659 113.770 C 385.659 113.688,386.610 111.707,387.772 109.368 C 390.248 104.385,390.613 103.516,391.789 99.810 C 393.118 95.621,391.065 92.395,386.111 90.888 C 382.997 89.941,380.538 91.357,380.538 94.096 C 380.538 94.315,380.429 94.494,380.297 94.494 C 380.164 94.494,379.946 94.984,379.812 95.583 L 379.568 96.671 379.541 95.378 C 379.526 94.666,379.613 93.975,379.735 93.841 C 379.857 93.707,380.096 92.864,380.266 91.968 C 380.753 89.399,380.606 89.216,376.751 87.606 C 374.961 86.858,372.458 85.807,371.191 85.272 C 369.923 84.736,368.079 83.991,367.093 83.614 C 366.108 83.238,364.955 82.777,364.533 82.590 C 364.110 82.403,363.303 82.078,362.740 81.868 C 362.177 81.659,360.851 81.145,359.795 80.726 C 357.679 79.888,357.743 79.910,353.009 78.357 C 351.178 77.756,349.317 77.108,348.873 76.916 C 348.429 76.725,347.895 76.569,347.686 76.569 C 347.477 76.569,346.976 76.396,346.572 76.186 C 346.169 75.976,345.593 75.803,345.292 75.802 C 344.991 75.801,344.415 75.628,344.011 75.418 C 343.608 75.207,343.047 75.030,342.766 75.025 C 342.484 75.019,341.965 74.849,341.613 74.648 C 341.261 74.447,340.718 74.278,340.406 74.273 C 340.093 74.268,339.460 74.099,338.997 73.898 C 338.034 73.478,333.609 72.202,329.577 71.183 C 328.944 71.022,328.195 70.788,327.913 70.661 C 327.401 70.432,326.373 70.160,323.645 69.533 C 322.847 69.349,322.077 69.127,321.934 69.038 C 321.790 68.949,321.176 68.771,320.568 68.641 C 319.960 68.511,318.656 68.159,317.670 67.859 C 316.684 67.559,315.416 67.220,314.853 67.106 C 314.289 66.991,312.676 66.587,311.268 66.207 C 309.859 65.826,308.188 65.414,307.554 65.290 C 306.169 65.020,303.505 64.419,301.921 64.019 C 300.357 63.624,298.107 63.120,295.647 62.612 C 294.520 62.380,293.022 62.037,292.318 61.851 C 290.247 61.303,288.522 60.890,287.836 60.780 C 287.484 60.723,286.332 60.509,285.275 60.304 C 280.332 59.347,278.901 59.084,277.593 58.889 C 276.818 58.774,275.147 58.490,273.880 58.259 C 269.087 57.385,267.682 57.137,265.941 56.861 C 264.955 56.704,263.105 56.407,261.829 56.201 C 260.553 55.995,258.940 55.822,258.244 55.817 C 257.548 55.812,256.229 55.643,255.314 55.442 C 254.398 55.240,252.939 55.072,252.071 55.067 C 251.203 55.062,249.590 54.885,248.486 54.674 C 247.382 54.462,245.903 54.289,245.198 54.288 C 244.494 54.287,243.227 54.171,242.382 54.030 C 237.331 53.186,223.183 52.796,215.621 53.292 M234.955 53.783 C 236.927 53.923,240.211 54.212,242.254 54.426 C 244.296 54.639,247.522 54.977,249.424 55.176 C 252.711 55.521,255.780 55.889,262.100 56.696 C 263.649 56.894,266.300 57.305,267.990 57.608 C 269.680 57.912,271.985 58.320,273.111 58.516 C 274.238 58.712,275.794 58.991,276.569 59.137 C 277.343 59.282,279.245 59.629,280.794 59.906 C 285.526 60.755,287.635 61.163,289.373 61.567 C 290.288 61.780,291.844 62.141,292.830 62.370 C 295.551 63.003,297.149 63.365,300.512 64.113 C 302.202 64.489,304.392 64.977,305.378 65.197 C 306.364 65.417,307.746 65.756,308.451 65.949 C 309.155 66.143,311.460 66.720,313.572 67.231 C 315.685 67.742,317.702 68.257,318.054 68.375 C 318.887 68.654,320.717 69.165,324.968 70.305 C 330.361 71.752,334.537 72.938,338.028 74.014 C 338.944 74.296,339.805 74.526,339.943 74.524 C 340.081 74.522,340.945 74.792,341.864 75.126 C 342.782 75.459,344.917 76.164,346.607 76.692 C 353.072 78.711,359.844 81.060,361.716 81.932 C 361.997 82.063,363.841 82.805,365.813 83.580 C 367.785 84.355,370.954 85.639,372.855 86.434 C 374.757 87.228,376.946 88.118,377.721 88.413 C 380.324 89.402,380.474 89.942,379.273 93.982 C 378.283 97.316,378.066 99.616,378.742 99.616 C 378.862 99.616,379.038 99.262,379.133 98.830 C 379.228 98.398,379.467 97.736,379.664 97.358 C 379.861 96.980,380.023 96.492,380.024 96.274 C 380.025 96.056,380.120 95.768,380.235 95.634 C 380.350 95.500,380.777 94.542,381.183 93.506 C 382.344 90.546,384.090 90.145,387.845 91.976 C 392.405 94.199,392.848 97.531,389.549 104.797 C 384.077 116.852,381.684 119.870,375.800 122.139 C 374.955 122.465,374.033 122.820,373.752 122.929 C 372.163 123.539,369.948 124.218,368.374 124.577 C 364.727 125.408,362.227 126.012,358.882 126.873 C 358.028 127.093,356.932 127.273,356.448 127.273 C 355.963 127.273,355.164 127.390,354.672 127.533 C 353.601 127.845,349.218 128.763,347.247 129.088 C 346.472 129.216,345.032 129.497,344.046 129.712 C 342.348 130.082,339.391 130.679,337.132 131.108 C 335.463 131.425,324.478 133.626,322.535 134.032 C 320.358 134.488,316.052 135.363,313.444 135.880 C 312.388 136.090,310.717 136.498,309.731 136.787 C 307.651 137.397,303.903 138.328,301.152 138.917 C 296.288 139.960,295.544 140.124,293.982 140.500 C 287.909 141.961,286.135 142.923,285.144 145.295 C 284.479 146.886,284.710 147.761,287.163 152.960 C 289.041 156.940,288.970 156.989,281.331 156.973 C 279.082 156.969,271.031 157.251,259.283 157.747 C 242.440 158.457,230.096 164.264,223.962 174.361 C 222.967 175.999,218.337 179.515,217.835 179.013 C 217.715 178.893,217.631 167.202,217.648 153.033 C 217.665 138.864,217.607 126.983,217.519 126.632 L 217.358 125.992 201.164 125.992 C 186.049 125.992,184.947 126.022,184.611 126.440 C 184.183 126.973,184.346 126.681,180.980 132.928 C 179.507 135.662,178.056 138.334,177.756 138.865 C 177.457 139.396,176.416 141.297,175.442 143.091 C 174.468 144.884,173.195 147.215,172.613 148.271 C 172.031 149.328,171.244 150.802,170.866 151.548 C 169.605 154.029,169.666 154.101,163.575 142.894 C 160.627 137.471,157.634 131.940,156.921 130.602 C 156.209 129.264,155.322 127.708,154.948 127.145 L 154.270 126.120 138.531 126.120 L 122.791 126.120 122.658 139.565 C 122.584 146.959,122.498 153.038,122.465 153.073 C 122.046 153.533,120.372 151.945,118.754 149.552 C 118.326 148.918,116.811 147.196,115.390 145.725 C 107.919 137.997,105.324 135.935,98.848 132.584 C 97.510 131.892,95.781 130.941,95.006 130.472 C 88.605 126.594,78.042 123.841,63.380 122.230 C 54.734 121.280,44.521 121.787,33.547 123.710 C 32.772 123.846,31.389 124.063,30.474 124.194 C 25.661 124.880,22.423 125.621,18.205 127.003 C 13.310 128.607,8.963 129.340,8.963 128.563 C 8.963 128.285,9.931 127.309,11.514 125.992 C 12.276 125.359,13.154 124.609,13.466 124.328 C 16.575 121.516,27.863 112.618,31.882 109.810 C 32.586 109.318,34.200 108.169,35.467 107.257 C 38.077 105.378,42.803 102.189,46.223 99.999 C 47.490 99.187,48.931 98.261,49.424 97.940 C 50.753 97.077,59.065 92.127,60.691 91.231 C 66.358 88.109,68.022 87.229,72.292 85.099 C 77.577 82.462,81.071 80.821,84.251 79.482 C 84.744 79.274,85.342 78.998,85.579 78.869 C 86.039 78.618,90.524 76.782,92.446 76.058 C 93.079 75.819,93.944 75.486,94.366 75.318 C 96.734 74.375,102.244 72.423,103.841 71.961 C 104.264 71.839,105.762 71.378,107.170 70.936 C 110.113 70.013,114.624 68.772,117.926 67.977 C 120.427 67.375,125.957 66.284,131.626 65.274 C 138.092 64.122,158.887 63.219,162.221 63.947 C 163.422 64.209,163.435 64.249,163.891 69.142 C 165.794 89.527,182.074 110.170,203.585 119.476 C 204.782 119.994,206.280 120.566,206.914 120.747 C 207.548 120.928,209.077 121.376,210.311 121.742 C 212.711 122.453,213.572 122.561,213.572 122.151 C 213.572 122.010,213.441 121.895,213.280 121.895 C 213.120 121.895,212.457 121.648,211.808 121.346 C 211.159 121.045,210.282 120.650,209.859 120.468 C 194.042 113.686,180.712 101.300,173.362 86.556 C 169.038 77.881,167.489 72.315,167.485 65.429 C 167.481 57.997,169.025 56.108,176.091 54.904 C 179.187 54.376,184.749 54.770,190.653 55.936 C 191.639 56.130,193.367 56.470,194.494 56.690 C 195.621 56.910,197.407 57.321,198.464 57.602 C 199.520 57.883,200.672 58.186,201.024 58.275 C 203.024 58.778,211.595 61.513,212.676 61.993 C 214.198 62.669,219.434 64.607,220.038 64.718 C 222.773 65.220,218.032 62.519,209.426 58.671 C 205.031 56.706,203.993 56.046,204.537 55.562 C 205.014 55.138,212.931 53.849,216.005 53.695 C 219.906 53.499,231.729 53.554,234.955 53.783 M179.190 68.031 C 177.452 68.514,177.627 73.174,179.535 77.256 C 179.946 78.134,180.282 78.909,180.282 78.979 C 180.282 79.230,183.485 84.417,184.723 86.172 C 187.326 89.860,193.247 96.331,196.552 99.099 C 199.118 101.248,200.313 102.220,201.793 103.362 C 203.688 104.825,209.711 108.835,210.013 108.835 C 210.798 108.835,210.160 107.744,207.540 104.609 C 202.980 99.151,202.515 97.523,205.809 98.546 C 207.980 99.221,208.502 99.300,208.615 98.976 C 208.689 98.761,205.663 95.094,201.862 90.792 C 198.888 87.426,200.896 87.356,207.236 90.604 C 210.969 92.517,210.969 92.592,207.236 87.013 C 204.828 83.414,205.176 83.087,209.347 85.031 C 212.576 86.536,214.089 87.148,214.231 87.007 C 214.771 86.467,207.451 80.262,203.386 77.813 C 197.017 73.977,192.827 72.077,184.237 69.131 C 181.263 68.111,179.940 67.823,179.190 68.031 M181.682 68.731 C 182.250 68.927,183.406 69.290,184.251 69.537 C 185.096 69.783,186.133 70.131,186.556 70.308 C 186.978 70.486,187.785 70.804,188.348 71.014 C 193.111 72.795,198.879 75.494,201.467 77.154 C 202.063 77.536,202.602 77.849,202.666 77.849 C 203.581 77.849,212.565 85.078,212.528 85.785 C 212.514 86.048,212.466 86.069,212.378 85.851 C 212.307 85.675,212.079 85.531,211.870 85.531 C 211.662 85.531,210.836 85.231,210.035 84.864 C 204.720 82.430,204.072 83.000,207.041 87.495 C 207.955 88.880,208.704 90.157,208.705 90.333 C 208.706 90.509,208.841 90.653,209.006 90.653 C 209.170 90.653,209.232 90.725,209.144 90.813 C 209.056 90.902,208.028 90.501,206.861 89.923 C 202.194 87.615,199.330 87.185,199.960 88.887 C 200.111 89.297,203.497 93.411,206.971 97.406 C 207.862 98.432,207.334 98.596,205.247 97.939 C 201.931 96.896,202.137 98.087,206.211 103.522 C 208.833 107.020,209.062 107.444,208.169 107.165 C 207.831 107.060,207.497 106.902,207.426 106.816 C 207.224 106.566,205.670 105.506,205.508 105.506 C 205.427 105.506,204.151 104.584,202.673 103.457 C 201.195 102.330,199.935 101.408,199.873 101.408 C 199.812 101.408,199.375 101.034,198.904 100.576 C 198.433 100.118,197.446 99.241,196.712 98.627 C 194.686 96.932,191.093 93.343,188.987 90.909 C 187.950 89.712,187.008 88.694,186.893 88.647 C 186.778 88.600,186.684 88.439,186.684 88.289 C 186.684 88.139,186.302 87.544,185.836 86.966 C 184.874 85.775,182.960 82.895,181.988 81.178 C 181.214 79.810,179.513 76.354,179.513 76.149 C 179.513 76.070,179.350 75.643,179.150 75.199 C 177.195 70.856,178.463 67.618,181.682 68.731 M265.813 78.588 L 265.173 78.801 265.813 79.058 C 266.684 79.408,267.888 79.784,270.166 80.419 C 272.831 81.162,273.754 81.706,274.677 83.081 C 278.948 89.436,285.810 91.279,302.305 90.502 C 311.516 90.068,312.243 89.982,314.085 89.115 C 317.176 87.660,317.146 87.472,313.700 86.691 C 311.098 86.100,305.498 84.781,304.866 84.610 C 304.584 84.533,303.604 84.323,302.689 84.143 C 301.773 83.963,299.123 83.384,296.799 82.857 C 294.475 82.329,291.997 81.805,291.293 81.691 C 290.589 81.578,288.342 81.186,286.300 80.822 C 284.257 80.457,281.088 79.922,279.257 79.633 C 277.426 79.344,275.449 78.998,274.862 78.864 C 273.405 78.532,266.604 78.324,265.813 78.588 M273.722 79.111 C 274.231 79.242,275.570 79.483,276.697 79.648 C 278.623 79.930,280.454 80.236,285.019 81.037 C 286.076 81.223,287.862 81.513,288.988 81.681 C 290.115 81.850,291.678 82.152,292.462 82.351 C 293.246 82.551,294.248 82.714,294.688 82.714 C 295.128 82.714,295.555 82.823,295.637 82.956 C 295.719 83.088,296.331 83.264,296.997 83.347 C 297.663 83.429,298.579 83.615,299.034 83.760 C 299.489 83.905,300.411 84.121,301.083 84.240 C 301.755 84.358,303.342 84.705,304.609 85.009 C 307.740 85.762,310.040 86.283,311.268 86.518 C 314.030 87.047,315.461 87.639,315.017 88.068 C 313.648 89.396,311.492 89.708,300.660 90.145 C 285.844 90.743,277.971 88.459,274.926 82.681 C 274.264 81.424,271.511 79.938,269.782 79.904 C 269.501 79.899,268.924 79.665,268.502 79.385 L 267.734 78.877 270.265 78.875 C 271.657 78.874,273.213 78.980,273.722 79.111 M208.643 120.535 C 208.396 120.599,207.993 120.599,207.746 120.535 C 207.500 120.471,207.702 120.418,208.195 120.418 C 208.688 120.418,208.889 120.471,208.643 120.535 M308.579 121.925 C 307.945 122.038,306.504 122.296,305.378 122.497 C 304.251 122.698,302.292 123.164,301.024 123.532 C 299.757 123.901,298.086 124.386,297.311 124.610 C 294.642 125.383,288.680 127.323,285.147 128.568 C 280.038 130.367,273.072 134.661,271.725 136.840 C 270.654 138.572,271.305 142.904,273.230 146.862 C 274.782 150.054,275.232 150.040,274.757 146.813 C 273.880 140.848,274.650 137.556,277.408 135.467 C 280.268 133.303,290.568 128.497,295.881 126.849 C 297.020 126.496,298.182 126.109,298.464 125.990 C 298.745 125.870,299.840 125.524,300.896 125.220 C 304.606 124.154,307.947 123.128,308.835 122.783 C 309.328 122.591,310.114 122.360,310.582 122.268 C 311.050 122.177,311.395 122.072,311.350 122.035 C 311.072 121.810,309.561 121.750,308.579 121.925 M303.713 123.784 C 303.079 123.944,302.309 124.219,302.001 124.394 C 301.694 124.569,301.203 124.712,300.910 124.712 C 300.617 124.712,300.177 124.826,299.933 124.966 C 299.349 125.300,297.446 125.963,296.159 126.281 C 295.595 126.420,295.025 126.642,294.891 126.775 C 294.757 126.908,294.412 127.017,294.123 127.018 C 293.834 127.019,293.268 127.192,292.864 127.402 C 292.461 127.613,292.017 127.785,291.879 127.785 C 291.740 127.785,291.206 127.966,290.692 128.188 C 290.177 128.410,289.411 128.740,288.988 128.922 C 288.162 129.277,282.107 132.297,279.390 133.708 C 275.403 135.780,273.354 139.530,274.020 143.534 C 274.137 144.238,274.237 145.506,274.242 146.351 L 274.251 147.887 273.602 146.624 C 270.797 141.162,270.993 137.151,274.168 135.020 C 274.714 134.653,275.218 134.280,275.288 134.190 C 275.964 133.323,283.797 129.282,285.464 128.940 C 285.921 128.846,286.359 128.663,286.440 128.533 C 286.520 128.403,286.806 128.297,287.074 128.297 C 287.343 128.297,287.941 128.139,288.404 127.946 C 289.706 127.403,290.941 126.994,292.061 126.733 C 292.625 126.602,293.316 126.394,293.598 126.270 C 294.128 126.036,296.671 125.246,298.464 124.757 C 299.027 124.604,300.237 124.255,301.152 123.982 C 302.068 123.709,303.278 123.487,303.841 123.489 L 304.866 123.492 303.713 123.784 M154.451 160.720 C 153.849 162.041,154.061 202.205,154.673 202.817 C 155.174 203.317,155.527 203.329,169.873 203.329 L 184.560 203.329 185.238 202.701 L 185.915 202.073 185.915 181.495 C 185.915 159.572,185.913 159.531,184.763 160.514 C 184.229 160.970,182.074 163.979,182.074 164.268 C 182.074 164.359,181.585 165.154,180.986 166.033 C 180.387 166.913,179.782 167.819,179.641 168.046 C 179.501 168.274,178.953 169.094,178.425 169.869 C 177.897 170.644,177.465 171.402,177.465 171.554 C 177.465 171.706,177.363 171.831,177.238 171.831 C 177.113 171.831,176.546 172.609,175.978 173.560 C 174.717 175.670,171.279 180.948,170.612 181.796 C 170.328 182.158,170.000 182.337,169.823 182.227 C 169.494 182.024,167.725 179.409,167.424 178.681 C 167.322 178.435,167.119 178.233,166.974 178.233 C 166.828 178.233,166.709 178.095,166.709 177.926 C 166.709 177.757,166.210 176.864,165.599 175.942 C 164.989 175.019,163.981 173.464,163.359 172.486 C 162.737 171.509,161.421 169.467,160.435 167.950 C 159.449 166.433,158.017 164.207,157.251 163.004 C 155.555 160.337,154.877 159.784,154.451 160.720 M155.351 161.015 C 155.513 161.119,156.204 162.086,156.888 163.164 C 161.352 170.206,162.405 171.843,164.688 175.288 C 166.088 177.401,167.318 179.302,167.421 179.513 C 167.795 180.278,169.527 182.813,169.783 182.971 C 170.222 183.242,170.597 182.719,176.304 173.880 C 178.016 171.229,182.154 164.906,183.595 162.740 C 185.659 159.638,185.523 158.389,185.597 181.206 C 185.662 201.380,185.660 201.466,185.130 202.140 L 184.598 202.817 169.910 202.817 C 156.899 202.817,155.176 202.771,154.820 202.414 C 154.408 202.003,154.179 162.889,154.579 161.396 C 154.743 160.783,154.882 160.715,155.351 161.015 " stroke="none" fill="#d89d9c" fill-rule="evenodd"></path><path id="path3" d="M218.639 53.710 C 219.383 53.762,220.535 53.762,221.199 53.709 C 221.864 53.656,221.255 53.614,219.846 53.615 C 218.438 53.615,217.894 53.658,218.639 53.710 M228.873 53.710 C 229.613 53.762,230.823 53.762,231.562 53.710 C 232.302 53.658,231.697 53.616,230.218 53.616 C 228.739 53.616,228.134 53.658,228.873 53.710 M213.767 53.958 C 214.086 54.020,214.547 54.017,214.792 53.953 C 215.037 53.889,214.776 53.839,214.213 53.842 C 213.649 53.845,213.449 53.897,213.767 53.958 M235.531 53.958 C 235.848 54.019,236.367 54.019,236.684 53.958 C 237.001 53.897,236.741 53.847,236.108 53.847 C 235.474 53.847,235.214 53.897,235.531 53.958 M238.095 54.214 C 238.414 54.276,238.875 54.273,239.120 54.209 C 239.364 54.145,239.104 54.095,238.540 54.098 C 237.977 54.101,237.777 54.153,238.095 54.214 M178.425 54.733 C 179.024 54.787,180.003 54.787,180.602 54.733 C 181.200 54.679,180.711 54.635,179.513 54.635 C 178.316 54.635,177.827 54.679,178.425 54.733 M182.394 54.978 C 182.641 55.042,183.044 55.042,183.291 54.978 C 183.537 54.914,183.335 54.861,182.843 54.861 C 182.350 54.861,182.148 54.914,182.394 54.978 M248.207 55.234 C 248.454 55.299,248.857 55.299,249.104 55.234 C 249.350 55.170,249.149 55.117,248.656 55.117 C 248.163 55.117,247.961 55.170,248.207 55.234 M204.496 55.547 C 204.224 55.987,204.634 56.511,205.581 56.933 C 206.103 57.166,206.310 57.214,206.040 57.039 C 204.951 56.334,204.528 55.779,204.899 55.543 C 205.132 55.396,205.147 55.320,204.945 55.318 C 204.777 55.315,204.575 55.419,204.496 55.547 M145.385 63.949 C 145.839 64.006,146.646 64.007,147.177 63.951 C 147.709 63.896,147.337 63.850,146.351 63.848 C 145.365 63.847,144.930 63.893,145.385 63.949 M159.475 63.950 C 159.933 64.006,160.682 64.006,161.140 63.950 C 161.597 63.893,161.223 63.846,160.307 63.846 C 159.392 63.846,159.017 63.893,159.475 63.950 M141.296 64.202 C 141.615 64.263,142.076 64.261,142.321 64.196 C 142.565 64.132,142.305 64.082,141.741 64.085 C 141.178 64.088,140.978 64.140,141.296 64.202 M220.743 64.533 C 220.743 64.673,220.541 64.796,220.294 64.805 C 219.974 64.817,220.024 64.892,220.471 65.071 C 221.368 65.429,221.736 65.254,221.198 64.725 C 220.948 64.478,220.743 64.392,220.743 64.533 M134.251 64.965 C 134.497 65.030,134.901 65.030,135.147 64.965 C 135.394 64.901,135.192 64.848,134.699 64.848 C 134.206 64.848,134.004 64.901,134.251 64.965 M305.122 65.301 C 305.403 65.422,305.807 65.521,306.018 65.521 C 306.260 65.521,306.213 65.440,305.890 65.301 C 305.608 65.180,305.205 65.081,304.994 65.081 C 304.751 65.081,304.799 65.162,305.122 65.301 M163.457 66.581 C 163.457 67.356,163.505 67.673,163.564 67.286 C 163.622 66.898,163.622 66.264,163.564 65.877 C 163.505 65.490,163.457 65.807,163.457 66.581 M177.798 70.935 C 177.798 71.709,177.846 72.026,177.904 71.639 C 177.963 71.252,177.963 70.618,177.904 70.230 C 177.846 69.843,177.798 70.160,177.798 70.935 M271.770 78.545 C 272.160 78.604,272.736 78.602,273.051 78.541 C 273.366 78.481,273.047 78.432,272.343 78.434 C 271.639 78.436,271.381 78.486,271.770 78.545 M205.805 83.910 C 205.527 84.187,205.607 84.632,206.032 85.162 C 206.412 85.637,206.417 85.633,206.142 85.067 C 205.926 84.622,205.930 84.383,206.160 84.107 C 206.458 83.747,206.142 83.572,205.805 83.910 M212.676 85.019 C 213.226 85.583,213.734 86.044,213.804 86.044 C 213.875 86.044,213.482 85.583,212.932 85.019 C 212.382 84.456,211.874 83.995,211.804 83.995 C 211.733 83.995,212.126 84.456,212.676 85.019 M67.029 87.726 C 66.072 88.246,66.130 88.462,67.093 87.964 C 67.516 87.746,67.862 87.512,67.862 87.445 C 67.862 87.281,67.834 87.290,67.029 87.726 M200.377 88.360 C 200.286 88.507,200.397 88.910,200.624 89.256 C 201.178 90.101,201.339 90.055,200.884 89.181 C 200.540 88.520,200.553 88.466,201.091 88.310 L 201.665 88.143 201.103 88.118 C 200.795 88.104,200.468 88.212,200.377 88.360 M63.700 89.519 C 62.743 90.038,62.801 90.255,63.764 89.757 C 64.187 89.538,64.533 89.305,64.533 89.238 C 64.533 89.073,64.505 89.082,63.700 89.519 M307.746 90.322 C 308.063 90.383,308.582 90.383,308.899 90.322 C 309.216 90.261,308.956 90.211,308.323 90.211 C 307.689 90.211,307.430 90.261,307.746 90.322 M289.437 90.573 C 289.683 90.638,290.086 90.638,290.333 90.573 C 290.579 90.509,290.378 90.456,289.885 90.456 C 289.392 90.456,289.190 90.509,289.437 90.573 M302.881 90.584 C 303.480 90.638,304.459 90.638,305.058 90.584 C 305.656 90.531,305.166 90.486,303.969 90.486 C 302.772 90.486,302.282 90.531,302.881 90.584 M188.220 90.989 C 188.220 91.033,188.595 91.408,189.052 91.821 L 189.885 92.574 189.133 91.741 C 188.432 90.966,188.220 90.791,188.220 90.989 M390.013 93.598 C 390.491 94.091,390.939 94.494,391.010 94.494 C 391.080 94.494,390.747 94.091,390.269 93.598 C 389.791 93.105,389.343 92.702,389.272 92.702 C 389.202 92.702,389.535 93.105,390.013 93.598 M192.190 95.262 C 193.168 96.248,194.026 97.055,194.096 97.055 C 194.167 97.055,193.424 96.248,192.446 95.262 C 191.467 94.277,190.609 93.470,190.539 93.470 C 190.468 93.470,191.211 94.277,192.190 95.262 M391.619 97.311 C 391.619 97.945,391.669 98.204,391.730 97.887 C 391.791 97.570,391.791 97.052,391.730 96.735 C 391.669 96.418,391.619 96.677,391.619 97.311 M203.599 98.446 C 203.316 98.788,203.862 100.128,204.284 100.128 C 204.355 100.128,204.226 99.844,203.999 99.497 C 203.465 98.683,203.474 98.620,204.161 98.343 C 204.551 98.187,204.603 98.107,204.321 98.096 C 204.091 98.087,203.767 98.245,203.599 98.446 M377.977 99.827 C 377.977 101.058,378.036 101.109,378.548 100.320 C 378.884 99.803,378.873 99.693,378.450 99.251 C 377.987 98.768,377.977 98.780,377.977 99.827 M185.531 103.713 C 186.368 104.558,187.109 105.250,187.180 105.250 C 187.250 105.250,186.624 104.558,185.787 103.713 C 184.951 102.868,184.209 102.177,184.139 102.177 C 184.069 102.177,184.695 102.868,185.531 103.713 M181.690 104.738 C 182.669 105.723,183.527 106.530,183.597 106.530 C 183.667 106.530,182.925 105.723,181.946 104.738 C 180.968 103.752,180.110 102.945,180.039 102.945 C 179.969 102.945,180.712 103.752,181.690 104.738 M188.220 106.402 C 188.698 106.895,189.147 107.298,189.217 107.298 C 189.287 107.298,188.954 106.895,188.476 106.402 C 187.999 105.909,187.550 105.506,187.480 105.506 C 187.409 105.506,187.742 105.909,188.220 106.402 M210.409 108.267 C 210.456 108.342,210.367 108.558,210.210 108.747 C 210.015 108.982,210.011 109.091,210.197 109.091 C 210.596 109.091,210.853 108.567,210.568 108.332 C 210.434 108.221,210.362 108.192,210.409 108.267 M48.207 121.822 C 48.595 121.881,49.229 121.881,49.616 121.822 C 50.003 121.764,49.686 121.716,48.912 121.716 C 48.137 121.716,47.820 121.764,48.207 121.822 M57.815 121.825 C 58.275 121.882,58.967 121.880,59.352 121.822 C 59.736 121.763,59.360 121.717,58.515 121.718 C 57.670 121.720,57.355 121.768,57.815 121.825 M310.115 121.738 C 310.115 121.792,310.455 121.887,310.870 121.948 C 311.285 122.009,311.566 121.964,311.495 121.849 C 311.368 121.643,310.115 121.543,310.115 121.738 M61.524 122.072 C 61.770 122.136,62.173 122.136,62.420 122.072 C 62.666 122.007,62.465 121.954,61.972 121.954 C 61.479 121.954,61.277 122.007,61.524 122.072 M138.522 125.928 C 152.801 125.991,154.038 126.031,154.528 126.442 C 155.057 126.888,155.057 126.888,154.570 126.312 L 154.082 125.736 138.565 125.798 L 123.047 125.860 138.522 125.928 M193.022 125.928 C 197.423 125.967,204.625 125.967,209.027 125.928 C 213.428 125.889,209.827 125.857,201.024 125.857 C 192.222 125.857,188.620 125.889,193.022 125.928 M122.469 139.480 C 122.435 146.546,122.341 152.538,122.260 152.796 C 122.127 153.218,122.140 153.222,122.390 152.835 C 122.583 152.537,122.647 148.457,122.599 139.519 L 122.530 126.633 122.469 139.480 M9.349 127.945 C 8.860 128.692,9.127 129.073,10.115 129.041 C 10.614 129.025,10.553 128.986,9.530 128.666 C 9.276 128.586,9.298 128.415,9.624 127.918 C 9.856 127.563,9.988 127.273,9.918 127.273 C 9.848 127.273,9.592 127.575,9.349 127.945 M341.485 130.090 C 341.162 130.228,341.115 130.310,341.357 130.310 C 341.569 130.310,341.972 130.211,342.254 130.090 C 342.576 129.951,342.624 129.870,342.382 129.870 C 342.170 129.870,341.767 129.969,341.485 130.090 M180.922 132.650 C 180.703 133.073,180.582 133.419,180.653 133.419 C 180.723 133.419,180.959 133.073,181.178 132.650 C 181.396 132.228,181.518 131.882,181.447 131.882 C 181.377 131.882,181.140 132.228,180.922 132.650 M179.129 135.980 C 178.911 136.402,178.790 136.748,178.860 136.748 C 178.931 136.748,179.167 136.402,179.385 135.980 C 179.604 135.557,179.725 135.211,179.655 135.211 C 179.584 135.211,179.348 135.557,179.129 135.980 M104.225 135.561 C 104.225 135.631,104.571 135.935,104.994 136.236 C 105.416 136.536,105.762 136.725,105.762 136.655 C 105.762 136.584,105.416 136.280,104.994 135.980 C 104.571 135.679,104.225 135.490,104.225 135.561 M271.011 139.309 C 271.011 140.083,271.059 140.400,271.118 140.013 C 271.177 139.625,271.177 138.992,271.118 138.604 C 271.059 138.217,271.011 138.534,271.011 139.309 M108.323 138.620 C 108.323 138.665,108.697 139.039,109.155 139.453 L 109.987 140.205 109.235 139.373 C 108.534 138.597,108.323 138.423,108.323 138.620 M274.337 142.254 C 274.339 142.958,274.389 143.215,274.448 142.826 C 274.506 142.437,274.505 141.861,274.444 141.546 C 274.383 141.231,274.335 141.549,274.337 142.254 M113.444 143.790 C 113.922 144.283,114.371 144.686,114.441 144.686 C 114.511 144.686,114.178 144.283,113.700 143.790 C 113.223 143.297,112.774 142.894,112.704 142.894 C 112.633 142.894,112.967 143.297,113.444 143.790 M164.789 145.198 C 165.007 145.621,165.244 145.967,165.314 145.967 C 165.384 145.967,165.263 145.621,165.045 145.198 C 164.826 144.776,164.590 144.430,164.519 144.430 C 164.449 144.430,164.570 144.776,164.789 145.198 M274.579 145.198 C 274.579 145.691,274.632 145.893,274.696 145.647 C 274.761 145.400,274.761 144.997,274.696 144.750 C 274.632 144.504,274.579 144.706,274.579 145.198 M116.645 146.991 C 117.195 147.554,117.703 148.015,117.774 148.015 C 117.844 148.015,117.452 147.554,116.901 146.991 C 116.351 146.428,115.844 145.967,115.773 145.967 C 115.703 145.967,116.095 146.428,116.645 146.991 M288.038 155.954 C 287.976 156.376,288.020 156.722,288.137 156.722 C 288.253 156.722,288.348 156.376,288.348 155.954 C 288.348 155.531,288.304 155.186,288.249 155.186 C 288.195 155.186,288.100 155.531,288.038 155.954 M281.370 156.911 C 282.109 156.963,283.319 156.963,284.059 156.911 C 284.798 156.859,284.193 156.817,282.714 156.817 C 281.236 156.817,280.631 156.859,281.370 156.911 M272.160 157.167 C 272.904 157.219,274.056 157.219,274.720 157.166 C 275.385 157.114,274.776 157.071,273.367 157.072 C 271.959 157.072,271.416 157.115,272.160 157.167 M266.645 157.423 C 267.314 157.475,268.409 157.475,269.078 157.423 C 269.747 157.370,269.200 157.327,267.862 157.327 C 266.524 157.327,265.976 157.370,266.645 157.423 M257.810 157.678 C 258.409 157.732,259.389 157.732,259.987 157.678 C 260.586 157.624,260.096 157.580,258.899 157.580 C 257.702 157.580,257.212 157.624,257.810 157.678 M155.103 161.273 C 155.410 161.517,155.909 162.004,156.214 162.356 C 156.724 162.947,156.722 162.927,156.181 162.100 C 155.554 161.142,155.211 160.826,154.802 160.829 C 154.661 160.830,154.796 161.030,155.103 161.273 M184.488 161.389 L 183.995 161.972 184.527 161.524 C 184.820 161.277,185.136 161.076,185.230 161.076 C 185.324 161.076,185.431 170.179,185.468 181.306 L 185.536 201.537 185.534 181.263 C 185.531 160.240,185.527 160.163,184.488 161.389 M154.539 181.818 C 154.539 193.015,154.571 197.596,154.609 191.997 C 154.648 186.399,154.648 177.238,154.609 171.639 C 154.571 166.040,154.539 170.621,154.539 181.818 M228.681 168.374 C 228.059 169.008,227.608 169.526,227.678 169.526 C 227.749 169.526,228.315 169.008,228.937 168.374 C 229.559 167.740,230.011 167.222,229.940 167.222 C 229.870 167.222,229.303 167.740,228.681 168.374 M225.303 172.023 C 224.852 172.548,224.513 173.111,224.649 173.111 C 224.701 173.111,224.999 172.766,225.312 172.343 C 225.929 171.508,225.923 171.301,225.303 172.023 M217.473 175.672 C 217.473 176.165,217.526 176.367,217.590 176.120 C 217.655 175.874,217.655 175.471,217.590 175.224 C 217.526 174.978,217.473 175.179,217.473 175.672 M165.652 177.081 C 165.790 177.362,166.091 177.823,166.321 178.105 L 166.738 178.617 166.486 178.105 C 166.348 177.823,166.047 177.362,165.818 177.081 L 165.401 176.569 165.652 177.081 M217.473 177.465 C 217.473 177.958,217.526 178.159,217.590 177.913 C 217.655 177.666,217.655 177.263,217.590 177.017 C 217.526 176.770,217.473 176.972,217.473 177.465 M169.910 202.561 L 155.058 202.695 169.831 202.756 C 179.470 202.796,184.660 202.728,184.763 202.561 C 184.850 202.420,184.886 202.332,184.842 202.366 C 184.799 202.399,178.079 202.487,169.910 202.561 " stroke="none" fill="#ba7c7c" fill-rule="evenodd"></path><path id="path4" d="M218.182 53.786 C 213.702 53.975,210.487 54.329,207.554 54.955 C 206.569 55.165,205.507 55.391,205.195 55.456 C 203.706 55.768,204.961 56.588,211.056 59.287 C 219.965 63.230,225.851 67.227,218.566 64.385 C 208.453 60.440,199.790 57.790,192.702 56.474 C 191.434 56.238,189.533 55.887,188.476 55.693 C 179.185 53.989,171.317 54.992,169.013 58.173 C 167.114 60.794,166.958 68.093,168.668 74.264 C 174.259 94.438,190.097 112.045,210.244 120.483 C 211.159 120.867,212.023 121.270,212.164 121.380 C 212.305 121.490,212.794 121.660,213.252 121.758 C 214.429 122.009,214.286 122.407,213.019 122.407 C 210.688 122.407,203.375 119.810,198.720 117.328 C 179.497 107.080,166.066 88.709,163.773 69.526 C 163.156 64.364,163.151 64.342,162.691 64.165 C 160.950 63.497,144.417 63.821,137.324 64.662 C 123.413 66.312,107.904 70.208,94.494 75.420 C 93.297 75.885,91.511 76.579,90.525 76.962 C 66.497 86.298,36.534 104.756,13.720 124.278 C 9.482 127.904,8.956 128.468,9.587 128.711 C 10.219 128.953,14.143 128.111,18.054 126.895 C 22.575 125.488,26.866 124.501,30.858 123.949 C 31.844 123.813,33.745 123.531,35.083 123.322 C 49.729 121.037,59.654 121.106,74.008 123.592 C 83.617 125.257,89.943 127.349,96.031 130.876 C 96.805 131.324,98.419 132.202,99.616 132.827 C 104.547 135.398,108.089 138.034,111.836 141.923 C 113.214 143.353,115.105 145.280,116.039 146.205 C 116.973 147.130,118.378 148.758,119.161 149.822 C 120.773 152.013,121.900 153.217,122.126 152.992 C 122.210 152.908,122.337 146.852,122.407 139.534 C 122.517 128.082,122.589 126.195,122.919 125.986 C 123.154 125.836,129.312 125.766,138.787 125.803 L 154.270 125.864 154.948 126.889 C 155.320 127.452,156.174 128.950,156.845 130.218 C 157.516 131.485,158.150 132.638,158.254 132.778 C 158.358 132.919,159.229 134.533,160.188 136.364 C 161.148 138.195,162.201 140.123,162.528 140.648 C 162.856 141.173,163.124 141.672,163.124 141.756 C 163.124 141.839,163.569 142.677,164.113 143.617 C 164.657 144.557,165.771 146.594,166.590 148.143 C 169.415 153.489,169.657 153.665,170.881 151.262 C 171.676 149.702,172.477 148.223,178.879 136.492 C 181.531 131.633,183.862 127.339,184.059 126.951 C 184.257 126.563,184.632 126.131,184.894 125.991 C 185.783 125.515,216.785 125.656,217.267 126.139 C 217.628 126.499,217.670 129.241,217.674 152.451 C 217.676 166.702,217.774 178.514,217.893 178.701 C 218.375 179.461,222.777 176.020,224.072 173.872 C 227.941 167.449,236.333 161.900,245.916 159.426 C 252.385 157.757,253.737 157.651,277.337 156.972 C 289.380 156.626,288.933 156.734,287.734 154.457 C 284.903 149.077,284.288 146.622,285.282 144.673 C 286.576 142.137,288.423 141.500,304.609 138.010 C 306.018 137.706,307.919 137.195,308.835 136.875 C 309.750 136.555,311.825 136.047,313.444 135.745 C 315.064 135.443,316.850 135.086,317.414 134.950 C 317.977 134.815,322.529 133.897,327.529 132.911 C 336.730 131.095,339.629 130.507,341.485 130.080 C 342.049 129.950,343.201 129.716,344.046 129.561 C 347.214 128.977,349.241 128.578,351.729 128.047 C 353.137 127.747,355.076 127.394,356.037 127.264 C 357.702 127.037,358.250 126.917,361.204 126.130 C 361.908 125.942,363.579 125.537,364.917 125.229 C 379.361 121.907,381.829 120.189,386.861 109.956 C 392.878 97.718,393.057 94.677,387.905 92.181 C 383.652 90.121,382.464 90.515,380.921 94.494 C 380.403 95.832,379.727 97.572,379.419 98.361 C 379.111 99.150,378.666 100.072,378.431 100.410 L 378.004 101.024 377.992 100.256 C 377.972 98.905,378.480 96.237,379.294 93.416 C 380.366 89.705,380.366 89.705,377.151 88.352 C 375.704 87.743,374.059 87.051,373.496 86.813 C 372.932 86.575,372.068 86.230,371.575 86.045 C 371.082 85.861,369.950 85.382,369.060 84.980 C 368.170 84.579,367.389 84.251,367.325 84.251 C 367.260 84.251,364.994 83.375,362.289 82.304 C 357.653 80.469,352.132 78.491,349.552 77.742 C 348.918 77.558,346.383 76.766,343.918 75.981 C 339.990 74.730,332.711 72.543,330.474 71.943 C 330.051 71.829,329.072 71.567,328.297 71.361 C 323.090 69.974,319.042 68.858,318.054 68.536 C 317.420 68.330,315.173 67.747,313.060 67.239 C 310.948 66.732,308.816 66.205,308.323 66.067 C 307.440 65.821,304.542 65.154,301.024 64.388 C 300.038 64.173,298.540 63.834,297.695 63.633 C 296.850 63.433,295.352 63.087,294.366 62.864 C 293.380 62.641,291.652 62.244,290.525 61.981 C 287.062 61.173,286.513 61.066,277.849 59.520 C 276.652 59.307,275.154 59.028,274.520 58.901 C 269.557 57.907,260.832 56.615,253.009 55.713 C 240.796 54.307,238.360 54.090,231.242 53.779 C 225.447 53.525,224.337 53.526,218.182 53.786 M236.108 54.421 C 241.221 54.768,247.335 55.367,250.642 55.847 C 251.664 55.995,253.623 56.219,254.995 56.346 C 257.972 56.620,262.829 57.247,264.789 57.609 C 265.563 57.752,267.292 58.048,268.630 58.266 C 271.465 58.728,274.628 59.282,277.337 59.791 C 278.393 59.990,280.237 60.333,281.434 60.552 C 285.302 61.263,290.240 62.259,290.408 62.363 C 290.498 62.419,291.195 62.579,291.957 62.720 C 293.312 62.970,295.124 63.376,298.207 64.123 C 299.052 64.328,300.435 64.630,301.280 64.794 C 302.751 65.079,303.995 65.369,307.234 66.183 C 308.044 66.386,310.435 66.971,312.548 67.481 C 314.661 67.992,316.671 68.525,317.015 68.665 C 317.359 68.805,318.108 69.021,318.679 69.146 C 319.867 69.404,321.495 69.831,324.968 70.798 C 326.306 71.170,328.092 71.656,328.937 71.877 C 329.782 72.099,330.935 72.428,331.498 72.608 C 332.061 72.789,333.214 73.130,334.059 73.367 C 334.904 73.603,336.344 74.022,337.260 74.297 C 338.175 74.573,339.558 74.982,340.333 75.207 C 341.108 75.432,341.972 75.704,342.254 75.812 C 342.535 75.919,344.149 76.439,345.839 76.966 C 352.238 78.963,357.517 80.742,359.155 81.454 C 359.437 81.576,360.301 81.913,361.076 82.202 C 361.850 82.492,362.714 82.834,362.996 82.964 C 363.278 83.093,364.085 83.425,364.789 83.701 C 366.907 84.533,371.817 86.525,374.136 87.494 C 375.333 87.994,376.543 88.496,376.825 88.609 C 379.904 89.844,380.030 89.999,379.418 91.797 C 378.607 94.178,378.388 94.993,377.939 97.308 C 377.448 99.841,377.364 101.133,377.626 102.113 C 377.958 103.350,378.406 102.635,379.672 98.848 C 380.025 97.791,380.416 96.697,380.542 96.415 C 380.668 96.133,381.074 95.154,381.445 94.238 C 382.705 91.126,383.471 90.778,386.482 91.947 C 393.118 94.524,392.866 97.553,384.685 113.572 C 381.886 119.054,377.148 122.017,367.734 124.175 C 365.196 124.757,363.282 125.228,361.332 125.750 C 358.661 126.466,356.993 126.804,355.141 127.005 C 354.060 127.123,353.068 127.285,352.936 127.367 C 352.804 127.448,351.729 127.700,350.548 127.926 C 349.366 128.153,347.650 128.492,346.735 128.681 C 344.977 129.043,341.831 129.667,339.693 130.077 C 338.988 130.212,337.490 130.510,336.364 130.739 C 335.237 130.968,333.451 131.328,332.394 131.538 C 330.163 131.983,327.682 132.505,325.864 132.911 C 325.160 133.069,323.950 133.297,323.175 133.418 C 322.401 133.540,320.903 133.819,319.846 134.038 C 318.790 134.257,317.061 134.617,316.005 134.836 C 314.949 135.056,313.681 135.338,313.188 135.462 C 312.695 135.587,311.716 135.769,311.012 135.866 C 310.307 135.964,309.616 136.130,309.475 136.235 C 309.138 136.487,305.901 137.365,303.329 137.903 C 302.202 138.139,300.647 138.485,299.872 138.673 C 297.411 139.270,295.936 139.594,294.750 139.798 C 286.345 141.245,282.828 144.721,285.010 149.424 C 285.140 149.706,285.501 150.512,285.811 151.216 C 286.121 151.921,286.707 153.236,287.114 154.140 C 288.178 156.505,289.440 156.288,272.037 156.728 C 261.093 157.005,254.089 157.373,251.985 157.783 C 251.210 157.934,249.982 158.149,249.256 158.261 C 248.530 158.373,247.551 158.584,247.079 158.731 C 246.608 158.877,245.301 159.242,244.174 159.542 C 243.047 159.841,241.895 160.190,241.613 160.318 C 241.332 160.445,240.498 160.780,239.761 161.063 C 233.422 163.493,226.789 168.709,223.816 173.601 C 222.644 175.528,219.513 178.186,218.374 178.220 C 217.950 178.232,217.926 176.826,217.926 152.164 C 217.926 132.229,217.853 126.022,217.618 125.787 C 217.222 125.391,185.375 125.340,184.638 125.735 C 184.376 125.875,184.001 126.307,183.805 126.695 C 183.474 127.351,179.293 134.985,178.160 137.004 C 177.883 137.497,177.017 139.110,176.235 140.589 C 175.453 142.068,174.571 143.681,174.275 144.174 C 173.979 144.667,173.415 145.704,173.022 146.479 C 172.629 147.254,171.911 148.579,171.426 149.424 C 170.941 150.269,170.439 151.204,170.311 151.502 C 169.733 152.843,169.117 152.334,167.642 149.296 C 167.403 148.803,167.099 148.227,166.966 148.015 C 166.746 147.665,165.810 145.955,163.325 141.357 C 162.487 139.807,161.975 138.865,160.086 135.403 C 159.682 134.664,158.978 133.367,158.520 132.522 C 158.062 131.677,157.340 130.352,156.915 129.577 C 156.490 128.803,155.958 127.823,155.732 127.401 C 155.505 126.978,155.097 126.373,154.824 126.056 L 154.328 125.480 138.505 125.480 C 123.123 125.480,122.674 125.494,122.416 125.975 C 122.243 126.298,122.151 131.024,122.151 139.550 C 122.151 154.450,122.327 153.584,119.974 150.250 C 119.270 149.252,117.772 147.492,116.645 146.338 C 115.519 145.184,113.610 143.217,112.404 141.966 C 111.197 140.716,109.872 139.405,109.459 139.054 C 108.049 137.857,105.255 135.733,104.163 135.029 C 102.600 134.020,102.397 133.903,100.454 132.881 C 98.347 131.772,96.159 130.559,94.451 129.552 C 93.758 129.144,93.149 128.809,93.097 128.809 C 93.046 128.809,92.142 128.406,91.089 127.913 C 90.037 127.420,89.051 127.017,88.899 127.017 C 88.746 127.017,88.243 126.859,87.781 126.666 C 83.949 125.068,75.504 123.221,68.246 122.392 C 66.978 122.248,65.538 122.024,65.045 121.896 C 61.822 121.058,47.020 121.060,42.638 121.900 C 41.933 122.035,40.378 122.265,39.181 122.411 C 37.983 122.556,35.909 122.839,34.571 123.038 C 26.331 124.263,26.941 124.153,22.279 125.265 C 21.082 125.551,19.993 125.889,19.859 126.017 C 19.725 126.144,19.355 126.248,19.036 126.248 C 18.716 126.248,18.077 126.405,17.614 126.597 C 16.088 127.231,14.233 127.736,12.804 127.908 C 12.029 128.002,11.194 128.135,10.948 128.205 C 10.179 128.422,10.442 127.663,11.457 126.738 C 18.082 120.692,35.011 107.732,41.867 103.457 C 42.206 103.246,42.921 102.772,43.457 102.405 C 45.179 101.223,51.426 97.239,51.985 96.967 C 52.434 96.747,52.989 96.409,54.476 95.449 C 55.072 95.065,55.639 94.750,55.737 94.750 C 55.834 94.750,56.096 94.590,56.318 94.394 C 56.708 94.051,59.794 92.291,63.252 90.441 C 64.168 89.951,65.320 89.299,65.813 88.993 C 66.579 88.517,78.533 82.584,80.794 81.557 C 84.891 79.697,84.942 79.675,91.485 76.978 C 92.647 76.499,94.117 75.926,94.750 75.705 C 95.384 75.483,96.709 75.004,97.695 74.641 C 104.720 72.054,113.018 69.619,120.743 67.878 C 122.151 67.561,124.019 67.139,124.893 66.941 C 125.767 66.743,126.804 66.580,127.197 66.579 C 127.591 66.577,128.479 66.404,129.170 66.194 C 129.861 65.985,130.899 65.813,131.476 65.813 C 132.054 65.813,132.928 65.696,133.420 65.553 C 133.912 65.410,136.332 65.122,138.796 64.913 C 147.734 64.155,152.226 63.969,157.199 64.152 C 163.153 64.371,163.124 64.358,163.124 66.988 C 163.124 68.766,164.037 74.601,164.430 75.335 C 164.557 75.572,164.661 75.977,164.661 76.234 C 164.661 77.497,166.929 83.651,168.843 87.580 C 172.841 95.786,179.562 104.052,187.052 109.972 C 187.754 110.527,188.563 111.181,188.850 111.426 C 191.072 113.323,196.741 116.811,200.512 118.602 C 201.709 119.171,202.888 119.740,203.130 119.868 C 203.373 119.995,204.295 120.336,205.179 120.626 C 206.063 120.917,206.984 121.262,207.226 121.393 C 207.467 121.525,208.101 121.744,208.634 121.880 C 209.167 122.016,210.525 122.366,211.652 122.658 C 212.778 122.950,214.277 123.297,214.981 123.430 C 215.685 123.562,216.636 123.745,217.093 123.836 C 219.347 124.284,217.466 122.952,213.828 121.523 C 209.290 119.741,208.837 119.545,206.018 118.132 C 202.569 116.404,199.333 114.489,197.372 113.016 C 196.561 112.407,195.834 111.908,195.758 111.908 C 195.316 111.908,188.808 106.337,186.418 103.913 C 184.776 102.247,181.469 98.392,180.205 96.671 C 179.688 95.967,179.173 95.275,179.061 95.134 C 178.949 94.994,178.579 94.417,178.238 93.854 C 177.898 93.291,177.546 92.772,177.456 92.702 C 176.682 92.098,172.577 84.056,171.052 80.154 C 169.741 76.800,169.581 76.309,168.594 72.599 C 167.751 69.427,167.894 60.988,168.820 59.231 C 171.966 53.264,187.032 54.058,209.091 61.352 C 212.330 62.424,215.327 63.454,215.749 63.642 C 218.441 64.839,218.958 65.045,219.269 65.045 C 219.460 65.045,219.725 65.147,219.859 65.272 C 220.125 65.520,222.852 66.350,222.980 66.222 C 223.444 65.758,221.109 63.861,218.054 62.219 C 215.449 60.820,215.456 60.824,214.085 60.226 C 213.451 59.950,212.298 59.436,211.524 59.085 C 210.749 58.733,209.539 58.191,208.835 57.881 C 208.131 57.571,207.125 57.126,206.601 56.892 C 205.516 56.407,205.270 55.572,206.210 55.566 C 206.527 55.564,207.823 55.343,209.091 55.076 C 211.078 54.657,213.073 54.477,221.767 53.932 C 223.790 53.806,230.316 54.028,236.108 54.421 M178.853 67.632 C 176.303 68.921,177.320 75.197,181.081 81.388 C 181.627 82.287,182.074 83.084,182.074 83.160 C 182.074 83.499,187.499 90.802,188.211 91.421 C 188.292 91.492,189.105 92.399,190.018 93.437 C 192.753 96.548,199.103 102.096,203.310 105.051 C 204.659 105.998,205.935 106.894,206.146 107.043 C 209.422 109.345,211.172 110.172,211.533 109.588 C 211.770 109.205,211.416 108.652,209.084 105.762 C 205.651 101.508,203.918 98.985,204.281 98.770 C 204.391 98.704,205.346 98.926,206.402 99.261 C 210.215 100.473,210.463 99.909,207.554 96.639 C 207.414 96.481,206.837 95.799,206.274 95.124 C 205.711 94.449,204.359 92.864,203.270 91.603 C 201.021 88.997,201.149 88.075,203.577 89.395 C 203.793 89.513,204.661 89.921,205.506 90.302 C 206.351 90.683,207.746 91.437,208.606 91.977 C 212.037 94.129,212.051 93.339,208.672 88.278 C 206.935 85.678,206.343 84.507,206.765 84.507 C 206.915 84.507,208.790 85.320,210.755 86.236 C 214.658 88.056,215.519 88.253,215.235 87.260 C 214.950 86.265,209.680 81.435,206.665 79.405 C 203.658 77.381,202.564 76.678,201.408 76.028 C 198.865 74.598,195.470 72.922,193.086 71.921 C 191.748 71.360,190.290 70.735,189.846 70.533 C 189.402 70.332,188.878 70.166,188.681 70.166 C 188.484 70.166,188.213 70.058,188.079 69.925 C 187.946 69.792,187.375 69.572,186.812 69.435 C 185.664 69.157,184.218 68.672,183.555 68.343 C 182.199 67.668,179.567 67.270,178.853 67.632 M184.743 69.170 C 194.187 72.369,203.261 76.901,207.796 80.682 C 208.085 80.924,209.392 82.010,210.698 83.097 C 215.784 87.325,215.477 88.038,209.731 85.344 C 207.263 84.187,206.152 83.905,205.977 84.392 C 205.882 84.659,206.096 85.016,209.022 89.478 C 210.966 92.441,210.750 92.572,207.045 90.676 C 201.054 87.610,199.331 87.629,202.012 90.731 C 209.453 99.337,209.783 99.847,207.489 99.191 C 204.203 98.251,204.099 98.232,203.818 98.512 C 203.477 98.853,204.489 100.495,207.025 103.713 C 210.717 108.400,210.847 108.590,210.552 108.884 C 209.866 109.571,201.908 103.952,195.291 98.109 C 183.671 87.848,174.841 72.058,178.614 68.286 C 179.308 67.592,180.663 67.788,184.743 69.170 M265.109 78.212 C 263.621 78.892,264.372 79.332,269.526 80.798 C 272.753 81.716,273.499 82.139,274.440 83.584 C 277.119 87.696,281.259 89.908,287.708 90.672 C 294.089 91.428,294.714 91.445,301.992 91.051 C 312.719 90.471,314.076 90.294,314.725 89.393 C 314.795 89.295,315.219 89.067,315.667 88.887 C 316.114 88.706,316.689 88.327,316.944 88.046 C 317.741 87.165,317.148 86.890,312.036 85.771 C 310.627 85.463,308.899 85.066,308.195 84.888 C 307.490 84.710,306.223 84.422,305.378 84.249 C 304.533 84.075,303.035 83.730,302.049 83.481 C 300.371 83.058,299.002 82.762,294.238 81.793 C 293.182 81.579,291.607 81.237,290.739 81.034 C 289.871 80.832,288.857 80.666,288.487 80.666 C 288.116 80.666,287.098 80.504,286.224 80.306 C 285.350 80.109,283.771 79.807,282.714 79.636 C 281.658 79.466,279.757 79.159,278.489 78.955 C 277.222 78.751,275.551 78.481,274.776 78.356 C 271.882 77.888,266.008 77.800,265.109 78.212 M274.963 78.737 C 276.621 79.049,280.455 79.706,287.836 80.940 C 291.692 81.585,294.826 82.225,300.896 83.607 C 303.220 84.136,305.583 84.665,306.146 84.781 C 306.709 84.897,308.092 85.223,309.219 85.505 C 310.346 85.788,312.185 86.207,313.307 86.437 C 316.091 87.008,317.056 87.505,316.374 88.017 C 313.809 89.942,311.903 90.281,301.547 90.653 C 285.314 91.237,278.520 89.361,274.648 83.227 C 273.678 81.691,272.091 80.907,267.990 79.940 C 266.092 79.492,264.837 78.836,265.429 78.601 C 266.324 78.245,272.848 78.337,274.963 78.737 M308.963 121.286 C 305.658 121.846,303.303 122.394,299.488 123.489 C 297.516 124.055,295.557 124.609,295.134 124.718 C 294.712 124.828,293.675 125.166,292.830 125.470 C 291.985 125.773,290.948 126.116,290.525 126.230 C 290.102 126.345,289.469 126.553,289.117 126.694 C 288.764 126.835,287.785 127.157,286.940 127.410 C 284.940 128.007,281.357 129.502,279.898 130.349 C 279.264 130.716,278.535 131.096,278.277 131.193 C 276.073 132.023,271.612 135.809,270.910 137.445 C 270.276 138.925,270.548 142.000,271.466 143.723 C 271.596 143.967,271.703 144.295,271.703 144.452 C 271.703 144.725,271.891 145.183,273.063 147.759 C 275.114 152.268,275.907 151.247,275.128 145.101 C 274.509 140.221,275.677 136.587,278.233 135.436 C 278.515 135.309,279.149 134.960,279.641 134.662 C 281.022 133.825,288.304 130.215,289.885 129.584 C 290.659 129.275,291.672 128.859,292.134 128.659 C 292.597 128.460,293.098 128.297,293.248 128.297 C 293.398 128.297,293.884 128.136,294.327 127.939 C 294.771 127.742,295.768 127.382,296.543 127.139 C 297.318 126.896,298.412 126.549,298.976 126.368 C 299.539 126.187,301.383 125.619,303.073 125.106 C 304.763 124.593,307.244 123.833,308.586 123.418 C 309.928 123.003,311.196 122.660,311.403 122.655 C 311.610 122.651,312.356 122.364,313.060 122.017 C 313.764 121.671,314.513 121.385,314.725 121.381 C 315.066 121.376,315.066 121.347,314.725 121.127 C 314.202 120.789,311.448 120.865,308.963 121.286 M311.516 121.883 C 311.599 122.017,311.174 122.255,310.571 122.412 C 309.968 122.569,308.668 122.965,307.682 123.291 C 306.697 123.617,305.198 124.084,304.353 124.327 C 290.857 128.217,278.384 133.832,276.035 137.074 C 274.842 138.720,274.423 140.546,274.611 143.269 C 274.699 144.542,274.839 146.562,274.921 147.759 L 275.071 149.936 274.530 149.296 C 272.403 146.776,270.426 139.961,271.169 137.709 C 272.454 133.818,283.033 128.477,297.439 124.448 C 298.566 124.133,299.949 123.731,300.512 123.554 C 301.650 123.197,304.190 122.599,306.914 122.045 C 309.020 121.617,311.302 121.537,311.516 121.883 M154.736 181.744 L 154.802 202.433 169.698 202.499 C 182.988 202.558,184.638 202.521,184.999 202.160 C 185.543 201.616,185.627 160.964,185.083 161.132 C 184.763 161.231,183.162 163.599,176.697 173.539 C 169.988 183.854,170.128 183.681,169.337 182.609 C 168.900 182.016,162.650 172.431,159.137 166.965 C 155.987 162.065,155.643 161.576,155.155 161.315 C 154.681 161.062,154.672 161.521,154.736 181.744 M157.596 165.227 C 158.827 167.206,161.011 170.596,162.585 172.971 C 163.234 173.950,163.822 174.872,163.892 175.020 C 163.963 175.167,164.702 176.325,165.535 177.593 C 166.367 178.860,167.548 180.668,168.158 181.610 C 169.984 184.430,170.060 184.398,173.275 179.461 C 177.070 173.635,179.475 169.955,179.769 169.526 C 180.551 168.384,181.818 166.395,181.818 166.311 C 181.818 165.933,184.507 162.356,184.734 162.431 C 185.158 162.573,185.274 200.931,184.853 201.729 L 184.549 202.305 169.897 202.305 L 155.245 202.305 155.091 201.729 C 154.811 200.682,154.909 163.468,155.194 162.718 L 155.458 162.023 156.026 162.820 C 156.339 163.259,157.045 164.342,157.596 165.227 " stroke="none" fill="#b67274" fill-rule="evenodd"></path></g></svg>