<?xml version="1.0" standalone="no"?>
<svg xmlns:xlink="http://www.w3.org/1999/xlink" id="wave" style="transform:rotate(0deg); transition: 0.3s" viewBox="0 0 1440 360" version="1.1" xmlns="http://www.w3.org/2000/svg"><defs><linearGradient id="sw-gradient-0" x1="0" x2="0" y1="1" y2="0"><stop stop-color="rgba(127, 16, 161, 1)" offset="0%"/><stop stop-color="rgba(41, 0, 54, 1)" offset="100%"/></linearGradient></defs><path style="transform:translate(0, 0px); opacity:1" fill="url(#sw-gradient-0)" d="M0,0L48,30C96,60,192,120,288,132C384,144,480,108,576,102C672,96,768,120,864,126C960,132,1056,120,1152,150C1248,180,1344,252,1440,234C1536,216,1632,108,1728,90C1824,72,1920,144,2016,174C2112,204,2208,192,2304,198C2400,204,2496,228,2592,216C2688,204,2784,156,2880,144C2976,132,3072,156,3168,174C3264,192,3360,204,3456,174C3552,144,3648,72,3744,48C3840,24,3936,48,4032,48C4128,48,4224,24,4320,66C4416,108,4512,216,4608,246C4704,276,4800,228,4896,192C4992,156,5088,132,5184,150C5280,168,5376,228,5472,264C5568,300,5664,312,5760,300C5856,288,5952,252,6048,252C6144,252,6240,288,6336,276C6432,264,6528,204,6624,150C6720,96,6816,48,6864,24L6912,0L6912,360L6864,360C6816,360,6720,360,6624,360C6528,360,6432,360,6336,360C6240,360,6144,360,6048,360C5952,360,5856,360,5760,360C5664,360,5568,360,5472,360C5376,360,5280,360,5184,360C5088,360,4992,360,4896,360C4800,360,4704,360,4608,360C4512,360,4416,360,4320,360C4224,360,4128,360,4032,360C3936,360,3840,360,3744,360C3648,360,3552,360,3456,360C3360,360,3264,360,3168,360C3072,360,2976,360,2880,360C2784,360,2688,360,2592,360C2496,360,2400,360,2304,360C2208,360,2112,360,2016,360C1920,360,1824,360,1728,360C1632,360,1536,360,1440,360C1344,360,1248,360,1152,360C1056,360,960,360,864,360C768,360,672,360,576,360C480,360,384,360,288,360C192,360,96,360,48,360L0,360Z"/><defs><linearGradient id="sw-gradient-1" x1="0" x2="0" y1="1" y2="0"><stop stop-color="rgba(41, 0, 54, 1)" offset="0%"/><stop stop-color="rgba(127, 16, 161, 1)" offset="100%"/></linearGradient></defs><path style="transform:translate(0, 50px); opacity:0.9" fill="url(#sw-gradient-1)" d="M0,180L48,174C96,168,192,156,288,132C384,108,480,72,576,66C672,60,768,84,864,108C960,132,1056,156,1152,144C1248,132,1344,84,1440,54C1536,24,1632,12,1728,30C1824,48,1920,96,2016,114C2112,132,2208,120,2304,138C2400,156,2496,204,2592,198C2688,192,2784,132,2880,120C2976,108,3072,144,3168,156C3264,168,3360,156,3456,162C3552,168,3648,192,3744,222C3840,252,3936,288,4032,300C4128,312,4224,300,4320,288C4416,276,4512,264,4608,240C4704,216,4800,180,4896,168C4992,156,5088,168,5184,186C5280,204,5376,228,5472,198C5568,168,5664,84,5760,84C5856,84,5952,168,6048,174C6144,180,6240,108,6336,114C6432,120,6528,204,6624,246C6720,288,6816,288,6864,288L6912,288L6912,360L6864,360C6816,360,6720,360,6624,360C6528,360,6432,360,6336,360C6240,360,6144,360,6048,360C5952,360,5856,360,5760,360C5664,360,5568,360,5472,360C5376,360,5280,360,5184,360C5088,360,4992,360,4896,360C4800,360,4704,360,4608,360C4512,360,4416,360,4320,360C4224,360,4128,360,4032,360C3936,360,3840,360,3744,360C3648,360,3552,360,3456,360C3360,360,3264,360,3168,360C3072,360,2976,360,2880,360C2784,360,2688,360,2592,360C2496,360,2400,360,2304,360C2208,360,2112,360,2016,360C1920,360,1824,360,1728,360C1632,360,1536,360,1440,360C1344,360,1248,360,1152,360C1056,360,960,360,864,360C768,360,672,360,576,360C480,360,384,360,288,360C192,360,96,360,48,360L0,360Z"/></svg>