<?xml version="1.0" standalone="no"?>
<svg xmlns:xlink="http://www.w3.org/1999/xlink" id="wave" style="transform:rotate(180deg); transition: 0.3s" viewBox="0 0 1440 140" version="1.1" xmlns="http://www.w3.org/2000/svg"><defs><linearGradient id="sw-gradient-0" x1="0" x2="0" y1="1" y2="0"><stop stop-color="rgba(0, 0, 0, 1)" offset="0%"/><stop stop-color="rgba(0, 0, 0, 1)" offset="100%"/></linearGradient></defs><path style="transform:translate(0, 0px); opacity:1" fill="url(#sw-gradient-0)" d="M0,0L18.5,11.7C36.9,23,74,47,111,51.3C147.7,56,185,42,222,39.7C258.5,37,295,47,332,49C369.2,51,406,47,443,58.3C480,70,517,98,554,91C590.8,84,628,42,665,35C701.5,28,738,56,775,67.7C812.3,79,849,75,886,77C923.1,79,960,89,997,84C1033.8,79,1071,61,1108,56C1144.6,51,1182,61,1218,67.7C1255.4,75,1292,79,1329,67.7C1366.2,56,1403,28,1440,18.7C1476.9,9,1514,19,1551,18.7C1587.7,19,1625,9,1662,25.7C1698.5,42,1735,84,1772,95.7C1809.2,107,1846,89,1883,74.7C1920,61,1957,51,1994,58.3C2030.8,65,2068,89,2105,102.7C2141.5,117,2178,121,2215,116.7C2252.3,112,2289,98,2326,98C2363.1,98,2400,112,2437,107.3C2473.8,103,2511,79,2548,58.3C2584.6,37,2622,19,2640,9.3L2658.5,0L2658.5,140L2640,140C2621.5,140,2585,140,2548,140C2510.8,140,2474,140,2437,140C2400,140,2363,140,2326,140C2289.2,140,2252,140,2215,140C2178.5,140,2142,140,2105,140C2067.7,140,2031,140,1994,140C1956.9,140,1920,140,1883,140C1846.2,140,1809,140,1772,140C1735.4,140,1698,140,1662,140C1624.6,140,1588,140,1551,140C1513.8,140,1477,140,1440,140C1403.1,140,1366,140,1329,140C1292.3,140,1255,140,1218,140C1181.5,140,1145,140,1108,140C1070.8,140,1034,140,997,140C960,140,923,140,886,140C849.2,140,812,140,775,140C738.5,140,702,140,665,140C627.7,140,591,140,554,140C516.9,140,480,140,443,140C406.2,140,369,140,332,140C295.4,140,258,140,222,140C184.6,140,148,140,111,140C73.8,140,37,140,18,140L0,140Z"/><defs><linearGradient id="sw-gradient-1" x1="0" x2="0" y1="1" y2="0"><stop stop-color="rgba(0, 0, 0, 1)" offset="0%"/><stop stop-color="rgba(0, 0, 0, 1)" offset="100%"/></linearGradient></defs><path style="transform:translate(0, 50px); opacity:0.9" fill="url(#sw-gradient-1)" d="M0,70L18.5,67.7C36.9,65,74,61,111,51.3C147.7,42,185,28,222,25.7C258.5,23,295,33,332,42C369.2,51,406,61,443,56C480,51,517,33,554,21C590.8,9,628,5,665,11.7C701.5,19,738,37,775,44.3C812.3,51,849,47,886,53.7C923.1,61,960,79,997,77C1033.8,75,1071,51,1108,46.7C1144.6,42,1182,56,1218,60.7C1255.4,65,1292,61,1329,63C1366.2,65,1403,75,1440,86.3C1476.9,98,1514,112,1551,116.7C1587.7,121,1625,117,1662,112C1698.5,107,1735,103,1772,93.3C1809.2,84,1846,70,1883,65.3C1920,61,1957,65,1994,72.3C2030.8,79,2068,89,2105,77C2141.5,65,2178,33,2215,32.7C2252.3,33,2289,65,2326,67.7C2363.1,70,2400,42,2437,44.3C2473.8,47,2511,79,2548,95.7C2584.6,112,2622,112,2640,112L2658.5,112L2658.5,140L2640,140C2621.5,140,2585,140,2548,140C2510.8,140,2474,140,2437,140C2400,140,2363,140,2326,140C2289.2,140,2252,140,2215,140C2178.5,140,2142,140,2105,140C2067.7,140,2031,140,1994,140C1956.9,140,1920,140,1883,140C1846.2,140,1809,140,1772,140C1735.4,140,1698,140,1662,140C1624.6,140,1588,140,1551,140C1513.8,140,1477,140,1440,140C1403.1,140,1366,140,1329,140C1292.3,140,1255,140,1218,140C1181.5,140,1145,140,1108,140C1070.8,140,1034,140,997,140C960,140,923,140,886,140C849.2,140,812,140,775,140C738.5,140,702,140,665,140C627.7,140,591,140,554,140C516.9,140,480,140,443,140C406.2,140,369,140,332,140C295.4,140,258,140,222,140C184.6,140,148,140,111,140C73.8,140,37,140,18,140L0,140Z"/></svg>